<?xml version="1.0" encoding="UTF-8" standalone="no"?>
<!-- Created with Inkscape (http://www.inkscape.org/) -->

<svg
   xmlns:dc="http://purl.org/dc/elements/1.1/"
   xmlns:cc="http://creativecommons.org/ns#"
   xmlns:rdf="http://www.w3.org/1999/02/22-rdf-syntax-ns#"
   xmlns:svg="http://www.w3.org/2000/svg"
   xmlns="http://www.w3.org/2000/svg"
   xmlns:sodipodi="http://sodipodi.sourceforge.net/DTD/sodipodi-0.dtd"
   xmlns:inkscape="http://www.inkscape.org/namespaces/inkscape"
   width="600"
   height="600"
   viewBox="0 0 158.75 158.75"
   version="1.1"
   id="svg8"
   sodipodi:docname="Bach-Pn1-thumb.svg"
   inkscape:version="0.92.3 (2405546, 2018-03-11)">
  <defs
     id="defs2" />
  <sodipodi:namedview
     id="base"
     pagecolor="#ffffff"
     bordercolor="#666666"
     borderopacity="1.0"
     inkscape:pageopacity="0.0"
     inkscape:pageshadow="2"
     inkscape:zoom="0.94333333"
     inkscape:cx="363.07421"
     inkscape:cy="300.00002"
     inkscape:document-units="px"
     inkscape:current-layer="layer1"
     showgrid="false"
     units="px"
     inkscape:snap-page="true"
     inkscape:pagecheckerboard="true"
     inkscape:window-width="1366"
     inkscape:window-height="745"
     inkscape:window-x="-8"
     inkscape:window-y="-8"
     inkscape:window-maximized="1" />
  <metadata
     id="metadata5">
    <rdf:RDF>
      <cc:Work
         rdf:about="">
        <dc:format>image/svg+xml</dc:format>
        <dc:type
           rdf:resource="http://purl.org/dc/dcmitype/StillImage" />
        <dc:title></dc:title>
      </cc:Work>
    </rdf:RDF>
  </metadata>
  <g
     inkscape:label="Layer 1"
     inkscape:groupmode="layer"
     id="layer1"
     transform="translate(0,-138.24999)">
    <rect
       style="opacity:0.25;fill:#ffffff;fill-opacity:1;stroke-width:0.26458332"
       id="rect815"
       width="158.75"
       height="158.75"
       x="0"
       y="138.24998" />
    <g
       aria-label="BACH
PRELUDE NO.1"
       style="font-style:normal;font-variant:normal;font-weight:normal;font-stretch:normal;font-size:11.02430534px;line-height:1.25;font-family:sans-serif;-inkscape-font-specification:'sans-serif, Normal';font-variant-ligatures:normal;font-variant-caps:normal;font-variant-numeric:normal;font-feature-settings:normal;text-align:center;letter-spacing:0px;word-spacing:0px;writing-mode:lr-tb;text-anchor:middle;fill:#000000;fill-opacity:1;stroke:none;stroke-width:0.27560762"
       id="text823">
      <path
         d="m 65.341792,210.35576 q 0.242535,0.0882 0.474045,0.23151 0.242535,0.13229 0.429948,0.35278 0.187413,0.20946 0.297657,0.50711 0.121267,0.29766 0.121267,0.68351 0,0.46302 -0.187413,0.8599 -0.187413,0.38585 -0.518143,0.67248 -0.319704,0.27561 -0.760677,0.44097 -0.429948,0.15434 -0.937066,0.15434 h -2.667882 q -0.08819,0 -0.15434,-0.0551 -0.05512,-0.0661 -0.05512,-0.15434 v -7.29809 q 0,-0.0882 0.05512,-0.14332 0.06615,-0.0661 0.15434,-0.0661 h 2.524566 q 0.496094,0 0.915018,0.15434 0.429948,0.15434 0.738628,0.42995 0.319705,0.2756 0.496094,0.65043 0.176389,0.37483 0.176389,0.80477 0,0.62839 -0.341754,1.06936 -0.330729,0.42995 -0.760677,0.65044 z m -1.333941,-0.57327 q 0.418924,0 0.672483,-0.28663 0.253559,-0.28663 0.253559,-0.70555 0,-0.41893 -0.253559,-0.67249 -0.253559,-0.26458 -0.672483,-0.26458 h -1.201649 v 1.92925 z m 0.154341,3.175 q 0.418923,0 0.694531,-0.28663 0.275607,-0.28663 0.275607,-0.71658 0,-0.41892 -0.275607,-0.6835 -0.275608,-0.27561 -0.694531,-0.27561 h -1.35599 v 1.96232 z"
         style="font-style:normal;font-variant:normal;font-weight:normal;font-stretch:normal;font-size:11.02430534px;font-family:'iCiel Brandon Text';-inkscape-font-specification:'iCiel Brandon Text';font-variant-ligatures:normal;font-variant-caps:normal;font-variant-numeric:normal;font-feature-settings:normal;text-align:center;letter-spacing:2.64583325px;writing-mode:lr-tb;text-anchor:middle;fill:#ffffff;fill-opacity:1;stroke-width:0.27560762"
         id="path2230" />
      <path
         d="m 69.9987,214.25836 q -0.121267,0 -0.187413,-0.0882 -0.05512,-0.0882 0,-0.19844 l 3.428559,-7.41936 q 0.05512,-0.12126 0.187413,-0.12126 h 0.110243 q 0.08819,0 0.121267,0.0331 0.0441,0.0331 0.06615,0.0882 l 3.395486,7.41936 q 0.05512,0.11024 -0.01102,0.19844 -0.05512,0.0882 -0.176389,0.0882 h -0.959115 q -0.121267,0 -0.198437,-0.0441 -0.06615,-0.0551 -0.121267,-0.17638 l -0.540191,-1.19063 H 71.81771 l -0.540191,1.19063 q -0.03307,0.0882 -0.110243,0.15434 -0.07717,0.0661 -0.209461,0.0661 z m 4.575087,-2.63481 -1.102431,-2.42534 h -0.03307 l -1.080382,2.42534 z"
         style="font-style:normal;font-variant:normal;font-weight:normal;font-stretch:normal;font-size:11.02430534px;font-family:'iCiel Brandon Text';-inkscape-font-specification:'iCiel Brandon Text';font-variant-ligatures:normal;font-variant-caps:normal;font-variant-numeric:normal;font-feature-settings:normal;text-align:center;letter-spacing:2.64583325px;writing-mode:lr-tb;text-anchor:middle;fill:#ffffff;fill-opacity:1;stroke-width:0.27560762"
         id="path2232" />
      <path
         d="m 80.090247,210.41088 q 0,-0.82682 0.30868,-1.55443 0.319705,-0.7276 0.848872,-1.25677 0.540191,-0.54019 1.267795,-0.84887 0.727604,-0.3197 1.554427,-0.3197 0.837847,0 1.466232,0.26458 0.63941,0.25356 1.20165,0.76068 0.165364,0.15434 0.01102,0.30868 l -0.672483,0.69453 q -0.132291,0.14331 -0.275607,0 -0.352778,-0.30868 -0.79375,-0.47405 -0.440972,-0.17639 -0.903993,-0.17639 -0.529167,0 -0.981163,0.20946 -0.451997,0.19844 -0.782726,0.55122 -0.319705,0.35278 -0.507118,0.82682 -0.187413,0.46302 -0.187413,0.98117 0,0.51814 0.187413,0.98116 0.187413,0.46302 0.518142,0.8158 0.330729,0.34175 0.782726,0.55121 0.451996,0.19844 0.981163,0.19844 0.496094,0 0.915017,-0.16536 0.418924,-0.17639 0.771702,-0.46302 0.06615,-0.0551 0.143316,-0.0551 0.07717,0 0.132291,0.0551 l 0.683507,0.70555 q 0.06615,0.0551 0.05512,0.15434 -0.01102,0.0882 -0.06615,0.14332 -0.56224,0.55121 -1.256771,0.8158 -0.683507,0.25355 -1.422135,0.25355 -0.826823,0 -1.554427,-0.30868 -0.727604,-0.30868 -1.267795,-0.83784 -0.529167,-0.54019 -0.848872,-1.25677 -0.30868,-0.72761 -0.30868,-1.55443 z"
         style="font-style:normal;font-variant:normal;font-weight:normal;font-stretch:normal;font-size:11.02430534px;font-family:'iCiel Brandon Text';-inkscape-font-specification:'iCiel Brandon Text';font-variant-ligatures:normal;font-variant-caps:normal;font-variant-numeric:normal;font-feature-settings:normal;text-align:center;letter-spacing:2.64583325px;writing-mode:lr-tb;text-anchor:middle;fill:#ffffff;fill-opacity:1;stroke-width:0.27560762"
         id="path2234" />
      <path
         d="m 90.767285,206.75081 q 0,-0.0882 0.05512,-0.14332 0.06615,-0.0661 0.15434,-0.0661 h 1.025261 q 0.08819,0 0.143316,0.0661 0.06614,0.0551 0.06614,0.14332 v 2.92144 h 3.593924 v -2.92144 q 0,-0.0882 0.05512,-0.14332 0.06615,-0.0661 0.154341,-0.0661 h 1.014236 q 0.08819,0 0.143316,0.0661 0.06615,0.0551 0.06615,0.14332 v 7.29809 q 0,0.0882 -0.06615,0.15434 -0.05512,0.0551 -0.143316,0.0551 h -1.014236 q -0.08819,0 -0.154341,-0.0551 -0.05512,-0.0661 -0.05512,-0.15434 v -3.04271 h -3.593924 v 3.04271 q 0,0.0882 -0.06614,0.15434 -0.05512,0.0551 -0.143316,0.0551 h -1.025261 q -0.08819,0 -0.15434,-0.0551 -0.05512,-0.0661 -0.05512,-0.15434 z"
         style="font-style:normal;font-variant:normal;font-weight:normal;font-stretch:normal;font-size:11.02430534px;font-family:'iCiel Brandon Text';-inkscape-font-specification:'iCiel Brandon Text';font-variant-ligatures:normal;font-variant-caps:normal;font-variant-numeric:normal;font-feature-settings:normal;text-align:center;letter-spacing:2.64583325px;writing-mode:lr-tb;text-anchor:middle;fill:#ffffff;fill-opacity:1;stroke-width:0.27560762"
         id="path2236" />
      <path
         d="m 28.450677,221.19007 q 0,-0.0882 0.05512,-0.14332 0.06614,-0.0661 0.15434,-0.0661 h 2.590712 q 0.507118,0 0.959114,0.19844 0.451997,0.18741 0.782726,0.51814 0.341753,0.33073 0.529167,0.78273 0.198437,0.44097 0.198437,0.93707 0,0.51814 -0.198437,0.97013 -0.187414,0.44098 -0.529167,0.78273 -0.330729,0.34175 -0.782726,0.54019 -0.440972,0.18741 -0.94809,0.18741 h -1.378038 v 2.59072 q 0,0.0882 -0.06615,0.15434 -0.05512,0.0551 -0.143316,0.0551 h -1.014236 q -0.0882,0 -0.15434,-0.0551 -0.05512,-0.0662 -0.05512,-0.15434 z m 2.756076,3.36241 q 0.231511,0 0.429948,-0.0882 0.198438,-0.0882 0.341754,-0.24253 0.15434,-0.15434 0.23151,-0.3638 0.0882,-0.20946 0.0882,-0.452 0,-0.23151 -0.0882,-0.41892 -0.07717,-0.19844 -0.23151,-0.34176 -0.143316,-0.14331 -0.341754,-0.22048 -0.198437,-0.0882 -0.429948,-0.0882 h -1.322916 v 2.21589 z"
         style="font-style:normal;font-variant:normal;font-weight:normal;font-stretch:normal;font-size:11.02430534px;font-family:'iCiel Brandon Text';-inkscape-font-specification:'iCiel Brandon Text';font-variant-ligatures:normal;font-variant-caps:normal;font-variant-numeric:normal;font-feature-settings:normal;text-align:center;letter-spacing:2.64583325px;writing-mode:lr-tb;text-anchor:middle;fill:#ffffff;fill-opacity:1;stroke-width:0.27560762"
         id="path2238" />
      <path
         d="m 37.599128,221.19007 q 0,-0.0882 0.05512,-0.14332 0.06615,-0.0661 0.154341,-0.0661 h 3.152951 q 0.496094,0 0.926042,0.18742 0.440972,0.18741 0.771701,0.50712 0.330729,0.3197 0.518142,0.74965 0.187414,0.42995 0.187414,0.92604 0,0.38585 -0.121268,0.7276 -0.121267,0.33073 -0.341753,0.61737 -0.209462,0.28663 -0.507118,0.51814 -0.297656,0.22048 -0.661459,0.3638 l 1.51033,2.80017 q 0.05512,0.11025 0,0.22049 -0.0441,0.0992 -0.187413,0.0992 h -1.157552 q -0.07717,0 -0.121267,-0.0331 -0.03307,-0.0331 -0.05512,-0.0661 l -1.466232,-2.92144 h -1.223698 v 2.8112 q 0,0.0882 -0.06615,0.15434 -0.05512,0.0551 -0.143316,0.0551 H 37.80859 q -0.08819,0 -0.154341,-0.0551 -0.05512,-0.0662 -0.05512,-0.15434 z m 3.241146,3.30729 q 0.220486,0 0.418923,-0.0882 0.198438,-0.0882 0.341754,-0.24253 0.15434,-0.15434 0.242535,-0.35278 0.08819,-0.20946 0.08819,-0.44097 0,-0.22049 -0.08819,-0.4079 -0.08819,-0.19844 -0.242535,-0.34175 -0.143316,-0.15434 -0.341754,-0.23151 -0.198437,-0.0882 -0.418923,-0.0882 h -1.796962 v 2.19384 z"
         style="font-style:normal;font-variant:normal;font-weight:normal;font-stretch:normal;font-size:11.02430534px;font-family:'iCiel Brandon Text';-inkscape-font-specification:'iCiel Brandon Text';font-variant-ligatures:normal;font-variant-caps:normal;font-variant-numeric:normal;font-feature-settings:normal;text-align:center;letter-spacing:2.64583325px;writing-mode:lr-tb;text-anchor:middle;fill:#ffffff;fill-opacity:1;stroke-width:0.27560762"
         id="path2240" />
      <path
         d="m 47.522725,221.19007 q 0,-0.0882 0.05512,-0.14332 0.06615,-0.0661 0.15434,-0.0661 h 4.486892 q 0.08819,0 0.143316,0.0661 0.06615,0.0551 0.06615,0.14332 v 0.90399 q 0,0.0882 -0.06615,0.15434 -0.05512,0.0551 -0.143316,0.0551 h -3.263194 v 1.80799 h 2.723003 q 0.08819,0 0.143316,0.0661 0.06615,0.0551 0.06615,0.14332 v 0.91502 q 0,0.0882 -0.06615,0.15434 -0.05512,0.0551 -0.143316,0.0551 h -2.723003 v 1.92925 h 3.263194 q 0.08819,0 0.143316,0.0662 0.06615,0.0551 0.06615,0.14331 v 0.904 q 0,0.0882 -0.06615,0.15434 -0.05512,0.0551 -0.143316,0.0551 h -4.486892 q -0.08819,0 -0.15434,-0.0551 -0.05512,-0.0662 -0.05512,-0.15434 z"
         style="font-style:normal;font-variant:normal;font-weight:normal;font-stretch:normal;font-size:11.02430534px;font-family:'iCiel Brandon Text';-inkscape-font-specification:'iCiel Brandon Text';font-variant-ligatures:normal;font-variant-caps:normal;font-variant-numeric:normal;font-feature-settings:normal;text-align:center;letter-spacing:2.64583325px;writing-mode:lr-tb;text-anchor:middle;fill:#ffffff;fill-opacity:1;stroke-width:0.27560762"
         id="path2242" />
      <path
         d="m 56.520454,221.19007 q 0,-0.0882 0.05512,-0.14332 0.06615,-0.0661 0.15434,-0.0661 h 1.014237 q 0.08819,0 0.143315,0.0661 0.06615,0.0551 0.06615,0.14332 v 6.18463 h 2.811198 q 0.08819,0 0.143316,0.0662 0.06615,0.0551 0.06615,0.14331 v 0.904 q 0,0.0882 -0.06615,0.15434 -0.05512,0.0551 -0.143316,0.0551 h -4.034896 q -0.08819,0 -0.15434,-0.0551 -0.05512,-0.0662 -0.05512,-0.15434 z"
         style="font-style:normal;font-variant:normal;font-weight:normal;font-stretch:normal;font-size:11.02430534px;font-family:'iCiel Brandon Text';-inkscape-font-specification:'iCiel Brandon Text';font-variant-ligatures:normal;font-variant-caps:normal;font-variant-numeric:normal;font-feature-settings:normal;text-align:center;letter-spacing:2.64583325px;writing-mode:lr-tb;text-anchor:middle;fill:#ffffff;fill-opacity:1;stroke-width:0.27560762"
         id="path2244" />
      <path
         d="m 64.493609,221.19007 q 0,-0.0882 0.05512,-0.14332 0.06615,-0.0661 0.154341,-0.0661 h 1.047309 q 0.08819,0 0.143316,0.0661 0.06615,0.0551 0.06615,0.14332 v 4.59713 q 0,0.70556 0.429947,1.14653 0.440973,0.44097 1.168577,0.44097 0.363802,0 0.650434,-0.11024 0.297656,-0.12127 0.507118,-0.33073 0.220486,-0.20946 0.330729,-0.49609 0.121267,-0.28664 0.121267,-0.63941 v -4.60816 q 0,-0.0882 0.05512,-0.14332 0.06615,-0.0661 0.15434,-0.0661 h 1.047309 q 0.08819,0 0.143316,0.0661 0.06615,0.0551 0.06615,0.14332 v 4.6743 q 0,0.62839 -0.242535,1.16858 -0.23151,0.54019 -0.650434,0.93706 -0.407899,0.38585 -0.970139,0.61736 -0.562239,0.22049 -1.212673,0.22049 -0.650434,0 -1.212674,-0.22049 -0.551215,-0.23151 -0.970139,-0.61736 -0.407899,-0.39687 -0.650434,-0.93706 -0.23151,-0.54019 -0.23151,-1.16858 z"
         style="font-style:normal;font-variant:normal;font-weight:normal;font-stretch:normal;font-size:11.02430534px;font-family:'iCiel Brandon Text';-inkscape-font-specification:'iCiel Brandon Text';font-variant-ligatures:normal;font-variant-caps:normal;font-variant-numeric:normal;font-feature-settings:normal;text-align:center;letter-spacing:2.64583325px;writing-mode:lr-tb;text-anchor:middle;fill:#ffffff;fill-opacity:1;stroke-width:0.27560762"
         id="path2246" />
      <path
         d="m 75.075738,221.19007 q 0,-0.0882 0.05512,-0.14332 0.05512,-0.0661 0.143316,-0.0661 h 2.61276 q 0.79375,0 1.499306,0.30868 0.705555,0.29766 1.234722,0.82683 0.529166,0.51814 0.826823,1.2237 0.30868,0.69453 0.30868,1.48828 0,0.80477 -0.30868,1.51033 -0.297657,0.70555 -0.826823,1.23472 -0.529167,0.51814 -1.234722,0.82682 -0.705556,0.29766 -1.499306,0.29766 h -2.61276 q -0.08819,0 -0.143316,-0.0551 -0.05512,-0.0662 -0.05512,-0.15434 z m 2.678906,6.16258 q 0.540191,0 0.992188,-0.17639 0.451996,-0.18741 0.782725,-0.51814 0.33073,-0.33073 0.518143,-0.79375 0.187413,-0.47404 0.187413,-1.03628 0,-0.56224 -0.187413,-1.02526 -0.187413,-0.46302 -0.518143,-0.79375 -0.330729,-0.33073 -0.782725,-0.50712 -0.451997,-0.18741 -0.992188,-0.18741 h -1.25677 v 5.0381 z"
         style="font-style:normal;font-variant:normal;font-weight:normal;font-stretch:normal;font-size:11.02430534px;font-family:'iCiel Brandon Text';-inkscape-font-specification:'iCiel Brandon Text';font-variant-ligatures:normal;font-variant-caps:normal;font-variant-numeric:normal;font-feature-settings:normal;text-align:center;letter-spacing:2.64583325px;writing-mode:lr-tb;text-anchor:middle;fill:#ffffff;fill-opacity:1;stroke-width:0.27560762"
         id="path2248" />
      <path
         d="m 85.817544,221.19007 q 0,-0.0882 0.05512,-0.14332 0.06615,-0.0661 0.15434,-0.0661 h 4.486892 q 0.08819,0 0.143316,0.0661 0.06615,0.0551 0.06615,0.14332 v 0.90399 q 0,0.0882 -0.06615,0.15434 -0.05512,0.0551 -0.143316,0.0551 h -3.263194 v 1.80799 h 2.723003 q 0.08819,0 0.143316,0.0661 0.06615,0.0551 0.06615,0.14332 v 0.91502 q 0,0.0882 -0.06615,0.15434 -0.05512,0.0551 -0.143316,0.0551 h -2.723003 v 1.92925 h 3.263194 q 0.08819,0 0.143316,0.0662 0.06615,0.0551 0.06615,0.14331 v 0.904 q 0,0.0882 -0.06615,0.15434 -0.05512,0.0551 -0.143316,0.0551 h -4.486892 q -0.08819,0 -0.15434,-0.0551 -0.05512,-0.0662 -0.05512,-0.15434 z"
         style="font-style:normal;font-variant:normal;font-weight:normal;font-stretch:normal;font-size:11.02430534px;font-family:'iCiel Brandon Text';-inkscape-font-specification:'iCiel Brandon Text';font-variant-ligatures:normal;font-variant-caps:normal;font-variant-numeric:normal;font-feature-settings:normal;text-align:center;letter-spacing:2.64583325px;writing-mode:lr-tb;text-anchor:middle;fill:#ffffff;fill-opacity:1;stroke-width:0.27560762"
         id="path2250" />
      <path
         d="m 100.10952,221.0688 q 0,-0.0882 0.0551,-0.14332 0.0661,-0.0551 0.15434,-0.0551 h 0.16537 q 0.11024,0 0.18741,0.0772 l 4.49792,4.79557 h 0.0221 v -4.55303 q 0,-0.0882 0.0551,-0.14332 0.0661,-0.0661 0.15434,-0.0661 h 1.01423 q 0.0882,0 0.14332,0.0661 0.0661,0.0551 0.0661,0.14332 v 7.41935 q 0,0.0882 -0.0661,0.14332 -0.0551,0.0551 -0.14332,0.0551 h -0.15434 q -0.11024,0 -0.18741,-0.0772 l -4.51996,-4.98299 h -0.022 v 4.74046 q 0,0.0882 -0.0662,0.15434 -0.0551,0.0551 -0.14332,0.0551 h -1.00321 q -0.0882,0 -0.15434,-0.0551 -0.0551,-0.0662 -0.0551,-0.15434 z"
         style="font-style:normal;font-variant:normal;font-weight:normal;font-stretch:normal;font-size:11.02430534px;font-family:'iCiel Brandon Text';-inkscape-font-specification:'iCiel Brandon Text';font-variant-ligatures:normal;font-variant-caps:normal;font-variant-numeric:normal;font-feature-settings:normal;text-align:center;letter-spacing:2.64583325px;writing-mode:lr-tb;text-anchor:middle;fill:#ffffff;fill-opacity:1;stroke-width:0.27560762"
         id="path2252" />
      <path
         d="m 110.70078,224.85014 q 0,-0.82683 0.30868,-1.55443 0.30868,-0.72761 0.83784,-1.25677 0.54019,-0.54019 1.25677,-0.84887 0.72761,-0.31971 1.55443,-0.31971 0.82682,0 1.5434,0.31971 0.72761,0.30868 1.2678,0.84887 0.54019,0.52916 0.84887,1.25677 0.30868,0.7276 0.30868,1.55443 0,0.82682 -0.30868,1.55442 -0.30868,0.71658 -0.84887,1.25677 -0.54019,0.52917 -1.2678,0.83785 -0.71658,0.30868 -1.5434,0.30868 -0.82682,0 -1.55443,-0.30868 -0.71658,-0.30868 -1.25677,-0.83785 -0.52916,-0.54019 -0.83784,-1.25677 -0.30868,-0.7276 -0.30868,-1.55442 z m 1.43316,0 q 0,0.51814 0.19843,0.98116 0.19844,0.46302 0.54019,0.80477 0.34176,0.34176 0.80478,0.54019 0.46302,0.19844 0.98116,0.19844 0.51814,0 0.98116,-0.19844 0.46303,-0.19843 0.80478,-0.54019 0.35278,-0.34175 0.55121,-0.80477 0.19844,-0.46302 0.19844,-0.98116 0,-0.51815 -0.19844,-0.98117 -0.19843,-0.46302 -0.55121,-0.80477 -0.34175,-0.35278 -0.80478,-0.55122 -0.46302,-0.20946 -0.98116,-0.20946 -0.51814,0 -0.98116,0.20946 -0.46302,0.19844 -0.80478,0.55122 -0.34175,0.34175 -0.54019,0.80477 -0.19843,0.46302 -0.19843,0.98117 z"
         style="font-style:normal;font-variant:normal;font-weight:normal;font-stretch:normal;font-size:11.02430534px;font-family:'iCiel Brandon Text';-inkscape-font-specification:'iCiel Brandon Text';font-variant-ligatures:normal;font-variant-caps:normal;font-variant-numeric:normal;font-feature-settings:normal;text-align:center;letter-spacing:2.64583325px;writing-mode:lr-tb;text-anchor:middle;fill:#ffffff;fill-opacity:1;stroke-width:0.27560762"
         id="path2254" />
      <path
         d="m 122.05495,227.77158 q 0,-0.20947 0.0772,-0.39688 0.0882,-0.19844 0.23151,-0.34175 0.14331,-0.15434 0.33073,-0.23151 0.18741,-0.0882 0.4079,-0.0882 0.20946,0 0.39687,0.0882 0.19844,0.0772 0.34176,0.23151 0.15434,0.14331 0.23151,0.34175 0.0882,0.18741 0.0882,0.39688 0,0.20946 -0.0882,0.4079 -0.0772,0.18741 -0.23151,0.33072 -0.14332,0.14332 -0.34176,0.22049 -0.18741,0.0882 -0.39687,0.0882 -0.22049,0 -0.4079,-0.0882 -0.18742,-0.0772 -0.33073,-0.22049 -0.14332,-0.14331 -0.23151,-0.33072 -0.0772,-0.19844 -0.0772,-0.4079 z"
         style="font-style:normal;font-variant:normal;font-weight:normal;font-stretch:normal;font-size:11.02430534px;font-family:'iCiel Brandon Text';-inkscape-font-specification:'iCiel Brandon Text';font-variant-ligatures:normal;font-variant-caps:normal;font-variant-numeric:normal;font-feature-settings:normal;text-align:center;letter-spacing:2.64583325px;writing-mode:lr-tb;text-anchor:middle;fill:#ffffff;fill-opacity:1;stroke-width:0.27560762"
         id="path2256" />
      <path
         d="m 128.67005,223.04215 -0.99219,0.22049 q -0.0882,0.022 -0.15434,-0.0221 -0.0661,-0.0441 -0.0772,-0.13229 l -0.0661,-0.55122 q -0.011,-0.0882 0.011,-0.13229 0.0221,-0.0551 0.0992,-0.11024 l 1.41111,-1.19063 q 0.15434,-0.14332 0.38585,-0.14332 h 0.57326 q 0.0882,0 0.14332,0.0661 0.0662,0.0551 0.0662,0.14332 v 7.28706 q 0,0.0882 -0.0662,0.15434 -0.0551,0.0661 -0.14332,0.0661 h -0.97013 q -0.0992,0 -0.16537,-0.0661 -0.0551,-0.0661 -0.0551,-0.15434 z"
         style="font-style:normal;font-variant:normal;font-weight:normal;font-stretch:normal;font-size:11.02430534px;font-family:'iCiel Brandon Text';-inkscape-font-specification:'iCiel Brandon Text';font-variant-ligatures:normal;font-variant-caps:normal;font-variant-numeric:normal;font-feature-settings:normal;text-align:center;letter-spacing:2.64583325px;writing-mode:lr-tb;text-anchor:middle;fill:#ffffff;fill-opacity:1;stroke-width:0.27560762"
         id="path2258" />
    </g>
  </g>
</svg>
