<?xml version="1.0" encoding="UTF-8" standalone="no"?>
<!-- Created with Inkscape (http://www.inkscape.org/) -->

<svg
   xmlns:dc="http://purl.org/dc/elements/1.1/"
   xmlns:cc="http://creativecommons.org/ns#"
   xmlns:rdf="http://www.w3.org/1999/02/22-rdf-syntax-ns#"
   xmlns:svg="http://www.w3.org/2000/svg"
   xmlns="http://www.w3.org/2000/svg"
   xmlns:sodipodi="http://sodipodi.sourceforge.net/DTD/sodipodi-0.dtd"
   xmlns:inkscape="http://www.inkscape.org/namespaces/inkscape"
   width="600"
   height="600"
   viewBox="0 0 158.75 158.75"
   version="1.1"
   id="svg8"
   sodipodi:docname="CP-No9n2-thumb.svg"
   inkscape:version="0.92.3 (2405546, 2018-03-11)">
  <defs
     id="defs2" />
  <sodipodi:namedview
     id="base"
     pagecolor="#ffffff"
     bordercolor="#666666"
     borderopacity="1.0"
     inkscape:pageopacity="0.0"
     inkscape:pageshadow="2"
     inkscape:zoom="0.94333333"
     inkscape:cx="363.07421"
     inkscape:cy="300.00002"
     inkscape:document-units="px"
     inkscape:current-layer="layer1"
     showgrid="false"
     units="px"
     inkscape:snap-page="true"
     inkscape:pagecheckerboard="true"
     inkscape:window-width="1366"
     inkscape:window-height="745"
     inkscape:window-x="-8"
     inkscape:window-y="-8"
     inkscape:window-maximized="1" />
  <metadata
     id="metadata5">
    <rdf:RDF>
      <cc:Work
         rdf:about="">
        <dc:format>image/svg+xml</dc:format>
        <dc:type
           rdf:resource="http://purl.org/dc/dcmitype/StillImage" />
        <dc:title></dc:title>
      </cc:Work>
    </rdf:RDF>
  </metadata>
  <g
     inkscape:label="Layer 1"
     inkscape:groupmode="layer"
     id="layer1"
     transform="translate(0,-138.24999)">
    <rect
       style="opacity:0.25;fill:#ffffff;fill-opacity:1;stroke-width:0.26458332"
       id="rect815"
       width="158.75"
       height="158.75"
       x="0"
       y="138.24998" />
    <g
       aria-label="CHOPIN
NOCTURNE OP.9 NO.2"
       style="font-style:normal;font-variant:normal;font-weight:normal;font-stretch:normal;font-size:11.02430534px;line-height:1.25;font-family:sans-serif;-inkscape-font-specification:'sans-serif, Normal';font-variant-ligatures:normal;font-variant-caps:normal;font-variant-numeric:normal;font-feature-settings:normal;text-align:center;letter-spacing:0px;word-spacing:0px;writing-mode:lr-tb;text-anchor:middle;fill:#000000;fill-opacity:1;stroke:none;stroke-width:0.27560762"
       id="text823">
      <path
         d="m 54.972486,210.36265 q 0,-0.82683 0.30868,-1.55443 0.319705,-0.7276 0.848872,-1.25677 0.540191,-0.54019 1.267795,-0.84887 0.727604,-0.31971 1.554427,-0.31971 0.837847,0 1.466233,0.26459 0.639409,0.25355 1.201649,0.76067 0.165364,0.15434 0.01102,0.30868 l -0.672483,0.69453 q -0.132291,0.14332 -0.275607,0 -0.352778,-0.30868 -0.79375,-0.47404 -0.440972,-0.17639 -0.903993,-0.17639 -0.529167,0 -0.981163,0.20946 -0.451997,0.19844 -0.782726,0.55122 -0.319705,0.35277 -0.507118,0.82682 -0.187413,0.46302 -0.187413,0.98116 0,0.51815 0.187413,0.98117 0.187413,0.46302 0.518142,0.8158 0.330729,0.34175 0.782726,0.55121 0.451996,0.19844 0.981163,0.19844 0.496094,0 0.915017,-0.16537 0.418924,-0.17639 0.771702,-0.46302 0.06615,-0.0551 0.143316,-0.0551 0.07717,0 0.132291,0.0551 l 0.683507,0.70556 q 0.06615,0.0551 0.05512,0.15434 -0.01102,0.0882 -0.06615,0.14331 -0.562239,0.55122 -1.256771,0.8158 -0.683507,0.25356 -1.422135,0.25356 -0.826823,0 -1.554427,-0.30868 -0.727604,-0.30868 -1.267795,-0.83785 -0.529167,-0.54019 -0.848872,-1.25677 -0.30868,-0.7276 -0.30868,-1.55442 z"
         style="font-style:normal;font-variant:normal;font-weight:normal;font-stretch:normal;font-size:11.02430534px;font-family:'iCiel Brandon Text';-inkscape-font-specification:'iCiel Brandon Text';font-variant-ligatures:normal;font-variant-caps:normal;font-variant-numeric:normal;font-feature-settings:normal;text-align:center;letter-spacing:1.32291663px;writing-mode:lr-tb;text-anchor:middle;fill:#ffffff;fill-opacity:1;stroke-width:0.27560762"
         id="path2051" />
      <path
         d="m 64.326609,206.70258 q 0,-0.0882 0.05512,-0.14332 0.06615,-0.0661 0.15434,-0.0661 h 1.025261 q 0.08819,0 0.143316,0.0661 0.06615,0.0551 0.06615,0.14332 v 2.92144 h 3.593923 v -2.92144 q 0,-0.0882 0.05512,-0.14332 0.06615,-0.0661 0.15434,-0.0661 h 1.014236 q 0.08819,0 0.143316,0.0661 0.06615,0.0551 0.06615,0.14332 v 7.29809 q 0,0.0882 -0.06615,0.15434 -0.05512,0.0551 -0.143316,0.0551 h -1.014236 q -0.08819,0 -0.15434,-0.0551 -0.05512,-0.0661 -0.05512,-0.15434 v -3.04271 h -3.593923 v 3.04271 q 0,0.0882 -0.06615,0.15434 -0.05512,0.0551 -0.143316,0.0551 H 64.53607 q -0.08819,0 -0.15434,-0.0551 -0.05512,-0.0661 -0.05512,-0.15434 z"
         style="font-style:normal;font-variant:normal;font-weight:normal;font-stretch:normal;font-size:11.02430534px;font-family:'iCiel Brandon Text';-inkscape-font-specification:'iCiel Brandon Text';font-variant-ligatures:normal;font-variant-caps:normal;font-variant-numeric:normal;font-feature-settings:normal;text-align:center;letter-spacing:1.32291663px;writing-mode:lr-tb;text-anchor:middle;fill:#ffffff;fill-opacity:1;stroke-width:0.27560762"
         id="path2053" />
      <path
         d="m 73.551885,210.36265 q 0,-0.82683 0.30868,-1.55443 0.308681,-0.7276 0.837848,-1.25677 0.540191,-0.54019 1.25677,-0.84887 0.727605,-0.31971 1.554427,-0.31971 0.826823,0 1.543403,0.31971 0.727604,0.30868 1.267795,0.84887 0.540191,0.52917 0.848872,1.25677 0.30868,0.7276 0.30868,1.55443 0,0.82682 -0.30868,1.55442 -0.308681,0.71658 -0.848872,1.25677 -0.540191,0.52917 -1.267795,0.83785 -0.71658,0.30868 -1.543403,0.30868 -0.826822,0 -1.554427,-0.30868 -0.716579,-0.30868 -1.25677,-0.83785 -0.529167,-0.54019 -0.837848,-1.25677 -0.30868,-0.7276 -0.30868,-1.55442 z m 1.433159,0 q 0,0.51814 0.198438,0.98116 0.198437,0.46302 0.540191,0.80477 0.341753,0.34176 0.804774,0.54019 0.463021,0.19844 0.981163,0.19844 0.518143,0 0.981164,-0.19844 0.46302,-0.19843 0.804774,-0.54019 0.352778,-0.34175 0.551215,-0.80477 0.198438,-0.46302 0.198438,-0.98116 0,-0.51815 -0.198438,-0.98117 -0.198437,-0.46302 -0.551215,-0.80477 -0.341754,-0.35278 -0.804774,-0.55122 -0.463021,-0.20946 -0.981164,-0.20946 -0.518142,0 -0.981163,0.20946 -0.463021,0.19844 -0.804774,0.55122 -0.341754,0.34175 -0.540191,0.80477 -0.198438,0.46302 -0.198438,0.98117 z"
         style="font-style:normal;font-variant:normal;font-weight:normal;font-stretch:normal;font-size:11.02430534px;font-family:'iCiel Brandon Text';-inkscape-font-specification:'iCiel Brandon Text';font-variant-ligatures:normal;font-variant-caps:normal;font-variant-numeric:normal;font-feature-settings:normal;text-align:center;letter-spacing:1.32291663px;writing-mode:lr-tb;text-anchor:middle;fill:#ffffff;fill-opacity:1;stroke-width:0.27560762"
         id="path2055" />
      <path
         d="m 84.219452,206.70258 q 0,-0.0882 0.05512,-0.14332 0.06615,-0.0661 0.154341,-0.0661 h 2.590711 q 0.507118,0 0.959115,0.19843 0.451996,0.18742 0.782726,0.51814 0.341753,0.33073 0.529166,0.78273 0.198438,0.44097 0.198438,0.93707 0,0.51814 -0.198438,0.97014 -0.187413,0.44097 -0.529166,0.78272 -0.33073,0.34175 -0.782726,0.54019 -0.440972,0.18742 -0.94809,0.18742 h -1.378039 v 2.59071 q 0,0.0882 -0.06614,0.15434 -0.05512,0.0551 -0.143316,0.0551 h -1.014236 q -0.08819,0 -0.154341,-0.0551 -0.05512,-0.0661 -0.05512,-0.15434 z m 2.756076,3.36241 q 0.231511,0 0.429948,-0.0882 0.198438,-0.0882 0.341753,-0.24254 0.154341,-0.15434 0.231511,-0.3638 0.08819,-0.20946 0.08819,-0.452 0,-0.23151 -0.08819,-0.41892 -0.07717,-0.19844 -0.231511,-0.34175 -0.143315,-0.14332 -0.341753,-0.22049 -0.198437,-0.0882 -0.429948,-0.0882 h -1.322917 v 2.21589 z"
         style="font-style:normal;font-variant:normal;font-weight:normal;font-stretch:normal;font-size:11.02430534px;font-family:'iCiel Brandon Text';-inkscape-font-specification:'iCiel Brandon Text';font-variant-ligatures:normal;font-variant-caps:normal;font-variant-numeric:normal;font-feature-settings:normal;text-align:center;letter-spacing:1.32291663px;writing-mode:lr-tb;text-anchor:middle;fill:#ffffff;fill-opacity:1;stroke-width:0.27560762"
         id="path2057" />
      <path
         d="m 92.044985,206.70258 q 0,-0.0882 0.05512,-0.14332 0.06615,-0.0661 0.15434,-0.0661 h 1.025261 q 0.08819,0 0.143316,0.0661 0.06615,0.0551 0.06615,0.14332 v 7.29809 q 0,0.0882 -0.06615,0.15434 -0.05512,0.0551 -0.143316,0.0551 h -1.025261 q -0.08819,0 -0.15434,-0.0551 -0.05512,-0.0661 -0.05512,-0.15434 z"
         style="font-style:normal;font-variant:normal;font-weight:normal;font-stretch:normal;font-size:11.02430534px;font-family:'iCiel Brandon Text';-inkscape-font-specification:'iCiel Brandon Text';font-variant-ligatures:normal;font-variant-caps:normal;font-variant-numeric:normal;font-feature-settings:normal;text-align:center;letter-spacing:1.32291663px;writing-mode:lr-tb;text-anchor:middle;fill:#ffffff;fill-opacity:1;stroke-width:0.27560762"
         id="path2059" />
      <path
         d="m 96.683805,206.58131 q 0,-0.0882 0.05512,-0.14332 0.06615,-0.0551 0.15434,-0.0551 h 0.165365 q 0.110243,0 0.187413,0.0772 l 4.497915,4.79557 h 0.022 v -4.55303 q 0,-0.0882 0.0551,-0.14332 0.0662,-0.0661 0.15434,-0.0661 h 1.01424 q 0.0882,0 0.14331,0.0661 0.0661,0.0551 0.0661,0.14332 v 7.41935 q 0,0.0882 -0.0661,0.14332 -0.0551,0.0551 -0.14331,0.0551 h -0.15434 q -0.11025,0 -0.18742,-0.0772 l -4.519961,-4.98298 h -0.02205 v 4.74045 q 0,0.0882 -0.06615,0.15434 -0.05512,0.0551 -0.143316,0.0551 h -1.003212 q -0.08819,0 -0.15434,-0.0551 -0.05512,-0.0661 -0.05512,-0.15434 z"
         style="font-style:normal;font-variant:normal;font-weight:normal;font-stretch:normal;font-size:11.02430534px;font-family:'iCiel Brandon Text';-inkscape-font-specification:'iCiel Brandon Text';font-variant-ligatures:normal;font-variant-caps:normal;font-variant-numeric:normal;font-feature-settings:normal;text-align:center;letter-spacing:1.32291663px;writing-mode:lr-tb;text-anchor:middle;fill:#ffffff;fill-opacity:1;stroke-width:0.27560762"
         id="path2061" />
      <path
         d="m 22.159933,221.02057 q 0,-0.0882 0.05512,-0.14332 0.06615,-0.0551 0.154341,-0.0551 h 0.165364 q 0.110243,0 0.187413,0.0772 l 4.497917,4.79557 h 0.02205 v -4.55304 q 0,-0.0882 0.05512,-0.14331 0.06615,-0.0662 0.15434,-0.0662 h 1.014236 q 0.0882,0 0.143316,0.0662 0.06615,0.0551 0.06615,0.14331 v 7.41936 q 0,0.0882 -0.06615,0.14332 -0.05512,0.0551 -0.143316,0.0551 h -0.15434 q -0.110243,0 -0.187413,-0.0772 l -4.519965,-4.98299 h -0.02205 v 4.74045 q 0,0.0882 -0.06615,0.15434 -0.05512,0.0551 -0.143316,0.0551 h -1.003211 q -0.0882,0 -0.154341,-0.0551 -0.05512,-0.0661 -0.05512,-0.15434 z"
         style="font-style:normal;font-variant:normal;font-weight:normal;font-stretch:normal;font-size:11.02430534px;font-family:'iCiel Brandon Text';-inkscape-font-specification:'iCiel Brandon Text';font-variant-ligatures:normal;font-variant-caps:normal;font-variant-numeric:normal;font-feature-settings:normal;text-align:center;letter-spacing:0px;writing-mode:lr-tb;text-anchor:middle;fill:#ffffff;fill-opacity:1;stroke-width:0.27560762"
         id="path2063" />
      <path
         d="m 30.105356,224.8019 q 0,-0.82682 0.308681,-1.55442 0.30868,-0.72761 0.837847,-1.25678 0.540191,-0.54019 1.256771,-0.84887 0.727604,-0.3197 1.554427,-0.3197 0.826823,0 1.543402,0.3197 0.727605,0.30868 1.267796,0.84887 0.540191,0.52917 0.848871,1.25678 0.308681,0.7276 0.308681,1.55442 0,0.82683 -0.308681,1.55443 -0.30868,0.71658 -0.848871,1.25677 -0.540191,0.52917 -1.267796,0.83785 -0.716579,0.30868 -1.543402,0.30868 -0.826823,0 -1.554427,-0.30868 -0.71658,-0.30868 -1.256771,-0.83785 -0.529167,-0.54019 -0.837847,-1.25677 -0.308681,-0.7276 -0.308681,-1.55443 z m 1.43316,0 q 0,0.51814 0.198437,0.98117 0.198438,0.46302 0.540191,0.80477 0.341754,0.34175 0.804775,0.54019 0.46302,0.19844 0.981163,0.19844 0.518142,0 0.981163,-0.19844 0.463021,-0.19844 0.804774,-0.54019 0.352778,-0.34175 0.551215,-0.80477 0.198438,-0.46303 0.198438,-0.98117 0,-0.51814 -0.198438,-0.98116 -0.198437,-0.46302 -0.551215,-0.80478 -0.341753,-0.35277 -0.804774,-0.55121 -0.463021,-0.20946 -0.981163,-0.20946 -0.518143,0 -0.981163,0.20946 -0.463021,0.19844 -0.804775,0.55121 -0.341753,0.34176 -0.540191,0.80478 -0.198437,0.46302 -0.198437,0.98116 z"
         style="font-style:normal;font-variant:normal;font-weight:normal;font-stretch:normal;font-size:11.02430534px;font-family:'iCiel Brandon Text';-inkscape-font-specification:'iCiel Brandon Text';font-variant-ligatures:normal;font-variant-caps:normal;font-variant-numeric:normal;font-feature-settings:normal;text-align:center;letter-spacing:0px;writing-mode:lr-tb;text-anchor:middle;fill:#ffffff;fill-opacity:1;stroke-width:0.27560762"
         id="path2065" />
      <path
         d="m 38.99801,224.8019 q 0,-0.82682 0.30868,-1.55442 0.319705,-0.72761 0.848872,-1.25678 0.540191,-0.54019 1.267795,-0.84887 0.727604,-0.3197 1.554427,-0.3197 0.837847,0 1.466232,0.26458 0.63941,0.25356 1.20165,0.76068 0.165364,0.15434 0.01102,0.30868 l -0.672483,0.69453 q -0.132291,0.14332 -0.275607,0 -0.352778,-0.30868 -0.79375,-0.47404 -0.440972,-0.17639 -0.903993,-0.17639 -0.529167,0 -0.981163,0.20946 -0.451997,0.19844 -0.782726,0.55121 -0.319705,0.35278 -0.507118,0.82683 -0.187413,0.46302 -0.187413,0.98116 0,0.51814 0.187413,0.98116 0.187413,0.46302 0.518142,0.8158 0.330729,0.34175 0.782726,0.55122 0.451996,0.19843 0.981163,0.19843 0.496094,0 0.915017,-0.16536 0.418924,-0.17639 0.771702,-0.46302 0.06615,-0.0551 0.143316,-0.0551 0.07717,0 0.132291,0.0551 l 0.683507,0.70555 q 0.06615,0.0551 0.05512,0.15434 -0.01102,0.0882 -0.06615,0.14332 -0.56224,0.55122 -1.256771,0.8158 -0.683507,0.25356 -1.422135,0.25356 -0.826823,0 -1.554427,-0.30868 -0.727604,-0.30868 -1.267795,-0.83785 -0.529167,-0.54019 -0.848872,-1.25677 -0.30868,-0.7276 -0.30868,-1.55443 z"
         style="font-style:normal;font-variant:normal;font-weight:normal;font-stretch:normal;font-size:11.02430534px;font-family:'iCiel Brandon Text';-inkscape-font-specification:'iCiel Brandon Text';font-variant-ligatures:normal;font-variant-caps:normal;font-variant-numeric:normal;font-feature-settings:normal;text-align:center;letter-spacing:0px;writing-mode:lr-tb;text-anchor:middle;fill:#ffffff;fill-opacity:1;stroke-width:0.27560762"
         id="path2067" />
      <path
         d="m 48.274961,222.25529 h -1.686719 q -0.08819,0 -0.15434,-0.0551 -0.05512,-0.0662 -0.05512,-0.15434 v -0.904 q 0,-0.0882 0.05512,-0.14331 0.06615,-0.0662 0.15434,-0.0662 h 4.817622 q 0.08819,0 0.143316,0.0662 0.06614,0.0551 0.06614,0.14331 v 0.904 q 0,0.0882 -0.06614,0.15434 -0.05512,0.0551 -0.143316,0.0551 h -1.686719 v 6.18463 q 0,0.0882 -0.06615,0.15434 -0.05512,0.0551 -0.143316,0.0551 h -1.02526 q -0.08819,0 -0.15434,-0.0551 -0.05512,-0.0661 -0.05512,-0.15434 z"
         style="font-style:normal;font-variant:normal;font-weight:normal;font-stretch:normal;font-size:11.02430534px;font-family:'iCiel Brandon Text';-inkscape-font-specification:'iCiel Brandon Text';font-variant-ligatures:normal;font-variant-caps:normal;font-variant-numeric:normal;font-feature-settings:normal;text-align:center;letter-spacing:0px;writing-mode:lr-tb;text-anchor:middle;fill:#ffffff;fill-opacity:1;stroke-width:0.27560762"
         id="path2069" />
      <path
         d="m 52.765643,221.14183 q 0,-0.0882 0.05512,-0.14331 0.06615,-0.0662 0.154341,-0.0662 h 1.047309 q 0.08819,0 0.143316,0.0662 0.06615,0.0551 0.06615,0.14331 v 4.59714 q 0,0.70555 0.429947,1.14653 0.440973,0.44097 1.168577,0.44097 0.363802,0 0.650434,-0.11024 0.297656,-0.12127 0.507118,-0.33073 0.220486,-0.20947 0.330729,-0.4961 0.121267,-0.28663 0.121267,-0.63941 v -4.60816 q 0,-0.0882 0.05512,-0.14331 0.06615,-0.0662 0.15434,-0.0662 h 1.047309 q 0.08819,0 0.143316,0.0662 0.06615,0.0551 0.06615,0.14331 v 4.67431 q 0,0.62838 -0.242535,1.16857 -0.23151,0.5402 -0.650434,0.93707 -0.407899,0.38585 -0.970139,0.61736 -0.562239,0.22049 -1.212673,0.22049 -0.650434,0 -1.212674,-0.22049 -0.551215,-0.23151 -0.970139,-0.61736 -0.407899,-0.39687 -0.650434,-0.93707 -0.23151,-0.54019 -0.23151,-1.16857 z"
         style="font-style:normal;font-variant:normal;font-weight:normal;font-stretch:normal;font-size:11.02430534px;font-family:'iCiel Brandon Text';-inkscape-font-specification:'iCiel Brandon Text';font-variant-ligatures:normal;font-variant-caps:normal;font-variant-numeric:normal;font-feature-settings:normal;text-align:center;letter-spacing:0px;writing-mode:lr-tb;text-anchor:middle;fill:#ffffff;fill-opacity:1;stroke-width:0.27560762"
         id="path2071" />
      <path
         d="m 60.701936,221.14183 q 0,-0.0882 0.05512,-0.14331 0.06615,-0.0662 0.15434,-0.0662 h 3.152951 q 0.496094,0 0.926042,0.18741 0.440972,0.18742 0.771701,0.50712 0.33073,0.31971 0.518143,0.74966 0.187413,0.42994 0.187413,0.92604 0,0.38585 -0.121267,0.7276 -0.121268,0.33073 -0.341754,0.61736 -0.209462,0.28663 -0.507118,0.51814 -0.297656,0.22049 -0.661458,0.36381 l 1.51033,2.80017 q 0.05512,0.11024 0,0.22049 -0.0441,0.0992 -0.187414,0.0992 h -1.157552 q -0.07717,0 -0.121267,-0.0331 -0.03307,-0.0331 -0.05512,-0.0661 l -1.466233,-2.92144 h -1.223698 v 2.81119 q 0,0.0882 -0.06615,0.15434 -0.05512,0.0551 -0.143316,0.0551 h -1.014236 q -0.08819,0 -0.15434,-0.0551 -0.05512,-0.0661 -0.05512,-0.15434 z m 3.241146,3.30729 q 0.220486,0 0.418924,-0.0882 0.198437,-0.0882 0.341753,-0.24253 0.15434,-0.15434 0.242535,-0.35278 0.08819,-0.20946 0.08819,-0.44097 0,-0.22049 -0.08819,-0.4079 -0.08819,-0.19844 -0.242535,-0.34176 -0.143316,-0.15434 -0.341753,-0.23151 -0.198438,-0.0882 -0.418924,-0.0882 H 62.14612 v 2.19383 z"
         style="font-style:normal;font-variant:normal;font-weight:normal;font-stretch:normal;font-size:11.02430534px;font-family:'iCiel Brandon Text';-inkscape-font-specification:'iCiel Brandon Text';font-variant-ligatures:normal;font-variant-caps:normal;font-variant-numeric:normal;font-feature-settings:normal;text-align:center;letter-spacing:0px;writing-mode:lr-tb;text-anchor:middle;fill:#ffffff;fill-opacity:1;stroke-width:0.27560762"
         id="path2073" />
      <path
         d="m 67.9797,221.02057 q 0,-0.0882 0.05512,-0.14332 0.06615,-0.0551 0.154341,-0.0551 h 0.165364 q 0.110243,0 0.187413,0.0772 l 4.497917,4.79557 h 0.02205 v -4.55304 q 0,-0.0882 0.05512,-0.14331 0.06615,-0.0662 0.15434,-0.0662 h 1.014236 q 0.08819,0 0.143316,0.0662 0.06615,0.0551 0.06615,0.14331 v 7.41936 q 0,0.0882 -0.06615,0.14332 -0.05512,0.0551 -0.143316,0.0551 h -0.15434 q -0.110243,0 -0.187413,-0.0772 l -4.519965,-4.98299 h -0.02205 v 4.74045 q 0,0.0882 -0.06615,0.15434 -0.05512,0.0551 -0.143316,0.0551 h -1.003211 q -0.08819,0 -0.154341,-0.0551 -0.05512,-0.0661 -0.05512,-0.15434 z"
         style="font-style:normal;font-variant:normal;font-weight:normal;font-stretch:normal;font-size:11.02430534px;font-family:'iCiel Brandon Text';-inkscape-font-specification:'iCiel Brandon Text';font-variant-ligatures:normal;font-variant-caps:normal;font-variant-numeric:normal;font-feature-settings:normal;text-align:center;letter-spacing:0px;writing-mode:lr-tb;text-anchor:middle;fill:#ffffff;fill-opacity:1;stroke-width:0.27560762"
         id="path2075" />
      <path
         d="m 76.377122,221.14183 q 0,-0.0882 0.05512,-0.14331 0.06615,-0.0662 0.15434,-0.0662 h 4.486893 q 0.08819,0 0.143316,0.0662 0.06615,0.0551 0.06615,0.14331 v 0.904 q 0,0.0882 -0.06615,0.15434 -0.05512,0.0551 -0.143316,0.0551 h -3.263195 v 1.80798 h 2.723004 q 0.08819,0 0.143316,0.0662 0.06614,0.0551 0.06614,0.14332 v 0.91501 q 0,0.0882 -0.06614,0.15434 -0.05512,0.0551 -0.143316,0.0551 h -2.723004 v 1.92926 h 3.263195 q 0.08819,0 0.143316,0.0661 0.06615,0.0551 0.06615,0.14332 v 0.90399 q 0,0.0882 -0.06615,0.15434 -0.05512,0.0551 -0.143316,0.0551 h -4.486893 q -0.08819,0 -0.15434,-0.0551 -0.05512,-0.0661 -0.05512,-0.15434 z"
         style="font-style:normal;font-variant:normal;font-weight:normal;font-stretch:normal;font-size:11.02430534px;font-family:'iCiel Brandon Text';-inkscape-font-specification:'iCiel Brandon Text';font-variant-ligatures:normal;font-variant-caps:normal;font-variant-numeric:normal;font-feature-settings:normal;text-align:center;letter-spacing:0px;writing-mode:lr-tb;text-anchor:middle;fill:#ffffff;fill-opacity:1;stroke-width:0.27560762"
         id="path2077" />
      <path
         d="m 84.925435,224.8019 q 0,-0.82682 0.308681,-1.55442 0.30868,-0.72761 0.837847,-1.25678 0.540191,-0.54019 1.256771,-0.84887 0.727604,-0.3197 1.554427,-0.3197 0.826822,0 1.543402,0.3197 0.727604,0.30868 1.267795,0.84887 0.540191,0.52917 0.848872,1.25678 0.308681,0.7276 0.308681,1.55442 0,0.82683 -0.308681,1.55443 -0.308681,0.71658 -0.848872,1.25677 -0.540191,0.52917 -1.267795,0.83785 -0.71658,0.30868 -1.543402,0.30868 -0.826823,0 -1.554427,-0.30868 -0.71658,-0.30868 -1.256771,-0.83785 -0.529167,-0.54019 -0.837847,-1.25677 -0.308681,-0.7276 -0.308681,-1.55443 z m 1.43316,0 q 0,0.51814 0.198437,0.98117 0.198438,0.46302 0.540191,0.80477 0.341754,0.34175 0.804774,0.54019 0.463021,0.19844 0.981164,0.19844 0.518142,0 0.981163,-0.19844 0.463021,-0.19844 0.804774,-0.54019 0.352778,-0.34175 0.551215,-0.80477 0.198438,-0.46303 0.198438,-0.98117 0,-0.51814 -0.198438,-0.98116 -0.198437,-0.46302 -0.551215,-0.80478 -0.341753,-0.35277 -0.804774,-0.55121 -0.463021,-0.20946 -0.981163,-0.20946 -0.518143,0 -0.981164,0.20946 -0.46302,0.19844 -0.804774,0.55121 -0.341753,0.34176 -0.540191,0.80478 -0.198437,0.46302 -0.198437,0.98116 z"
         style="font-style:normal;font-variant:normal;font-weight:normal;font-stretch:normal;font-size:11.02430534px;font-family:'iCiel Brandon Text';-inkscape-font-specification:'iCiel Brandon Text';font-variant-ligatures:normal;font-variant-caps:normal;font-variant-numeric:normal;font-feature-settings:normal;text-align:center;letter-spacing:0px;writing-mode:lr-tb;text-anchor:middle;fill:#ffffff;fill-opacity:1;stroke-width:0.27560762"
         id="path2079" />
      <path
         d="m 94.270086,221.14183 q 0,-0.0882 0.05512,-0.14331 0.06615,-0.0662 0.154341,-0.0662 h 2.590711 q 0.507119,0 0.959115,0.19844 0.451997,0.18741 0.782726,0.51814 0.341753,0.33073 0.529166,0.78273 0.198438,0.44097 0.198438,0.93706 0,0.51815 -0.198438,0.97014 -0.187413,0.44097 -0.529166,0.78273 -0.330729,0.34175 -0.782726,0.54019 -0.440972,0.18741 -0.94809,0.18741 h -1.378038 v 2.59071 q 0,0.0882 -0.06615,0.15434 -0.05512,0.0551 -0.143316,0.0551 h -1.014236 q -0.08819,0 -0.154341,-0.0551 -0.05512,-0.0661 -0.05512,-0.15434 z m 2.756076,3.36242 q 0.231511,0 0.429948,-0.0882 0.198438,-0.0882 0.341754,-0.24253 0.15434,-0.15434 0.23151,-0.36381 0.08819,-0.20946 0.08819,-0.45199 0,-0.23151 -0.08819,-0.41893 -0.07717,-0.19843 -0.23151,-0.34175 -0.143316,-0.14331 -0.341754,-0.22048 -0.198437,-0.0882 -0.429948,-0.0882 h -1.322916 v 2.21589 z"
         style="font-style:normal;font-variant:normal;font-weight:normal;font-stretch:normal;font-size:11.02430534px;font-family:'iCiel Brandon Text';-inkscape-font-specification:'iCiel Brandon Text';font-variant-ligatures:normal;font-variant-caps:normal;font-variant-numeric:normal;font-feature-settings:normal;text-align:center;letter-spacing:0px;writing-mode:lr-tb;text-anchor:middle;fill:#ffffff;fill-opacity:1;stroke-width:0.27560762"
         id="path2081" />
      <path
         d="m 99.791883,227.72334 q 0,-0.20946 0.07717,-0.39687 0.0882,-0.19844 0.231507,-0.34176 0.14332,-0.15434 0.33073,-0.23151 0.18742,-0.0882 0.4079,-0.0882 0.20946,0 0.39688,0.0882 0.19843,0.0772 0.34175,0.23151 0.15434,0.14332 0.23151,0.34176 0.0882,0.18741 0.0882,0.39687 0,0.20947 -0.0882,0.4079 -0.0772,0.18742 -0.23151,0.33073 -0.14332,0.14332 -0.34175,0.22049 -0.18742,0.0882 -0.39688,0.0882 -0.22048,0 -0.4079,-0.0882 -0.18741,-0.0772 -0.33073,-0.22049 -0.143312,-0.14331 -0.231507,-0.33073 -0.07717,-0.19843 -0.07717,-0.4079 z"
         style="font-style:normal;font-variant:normal;font-weight:normal;font-stretch:normal;font-size:11.02430534px;font-family:'iCiel Brandon Text';-inkscape-font-specification:'iCiel Brandon Text';font-variant-ligatures:normal;font-variant-caps:normal;font-variant-numeric:normal;font-feature-settings:normal;text-align:center;letter-spacing:0px;writing-mode:lr-tb;text-anchor:middle;fill:#ffffff;fill-opacity:1;stroke-width:0.27560762"
         id="path2083" />
      <path
         d="m 103.57271,228.021 q -0.0441,-0.0992 0,-0.18741 0.0441,-0.0882 0.20946,-0.14332 0.19844,-0.0661 0.56224,-0.22049 0.3638,-0.16536 0.74965,-0.42994 0.38585,-0.26459 0.71658,-0.62839 0.33073,-0.37483 0.46302,-0.83785 -0.0662,0.0441 -0.20946,0.0992 -0.13229,0.0551 -0.30868,0.11025 -0.17639,0.0441 -0.37483,0.0772 -0.19844,0.0331 -0.39687,0.0331 -0.42995,0 -0.84887,-0.15434 -0.4079,-0.16537 -0.73863,-0.47405 -0.31971,-0.30868 -0.52917,-0.7717 -0.19844,-0.46302 -0.19844,-1.06936 0,-0.54019 0.19844,-1.01423 0.20946,-0.47405 0.56224,-0.82682 0.35278,-0.35278 0.8158,-0.55122 0.46302,-0.20946 0.99219,-0.20946 0.66145,0 1.16857,0.25356 0.50712,0.24253 0.84887,0.67248 0.34176,0.42995 0.50712,1.00321 0.17639,0.56224 0.17639,1.20165 0,0.82682 -0.22049,1.49931 -0.20946,0.66145 -0.55121,1.1796 -0.33073,0.51814 -0.76068,0.90399 -0.41892,0.37483 -0.83784,0.65043 -0.41893,0.26459 -0.79375,0.42995 -0.37483,0.15434 -0.61737,0.23151 -0.24253,0.0772 -0.3197,-0.15434 z m 1.68671,-3.24115 q 0.27561,0 0.4961,-0.0992 0.23151,-0.0992 0.39687,-0.24254 0.16537,-0.15434 0.26459,-0.3197 0.11024,-0.17639 0.15434,-0.33073 0,-0.28664 -0.0772,-0.58429 -0.0772,-0.30868 -0.24254,-0.55122 -0.16536,-0.24253 -0.41892,-0.39687 -0.24254,-0.15434 -0.58429,-0.15434 -0.26458,0 -0.50712,0.11024 -0.23151,0.11024 -0.4079,0.29766 -0.17639,0.17639 -0.28663,0.42994 -0.0992,0.24254 -0.0992,0.50712 0,0.27561 0.0992,0.51815 0.11024,0.24253 0.28663,0.42994 0.17639,0.17639 0.4079,0.28664 0.24254,0.0992 0.51814,0.0992 z"
         style="font-style:normal;font-variant:normal;font-weight:normal;font-stretch:normal;font-size:11.02430534px;font-family:'iCiel Brandon Text';-inkscape-font-specification:'iCiel Brandon Text';font-variant-ligatures:normal;font-variant-caps:normal;font-variant-numeric:normal;font-feature-settings:normal;text-align:center;letter-spacing:0px;writing-mode:lr-tb;text-anchor:middle;fill:#ffffff;fill-opacity:1;stroke-width:0.27560762"
         id="path2085" />
      <path
         d="m 112.11999,221.02057 q 0,-0.0882 0.0551,-0.14332 0.0661,-0.0551 0.15434,-0.0551 h 0.16536 q 0.11024,0 0.18741,0.0772 l 4.49792,4.79557 h 0.0221 v -4.55304 q 0,-0.0882 0.0551,-0.14331 0.0661,-0.0662 0.15434,-0.0662 h 1.01424 q 0.0882,0 0.14331,0.0662 0.0662,0.0551 0.0662,0.14331 v 7.41936 q 0,0.0882 -0.0662,0.14332 -0.0551,0.0551 -0.14331,0.0551 h -0.15434 q -0.11025,0 -0.18742,-0.0772 l -4.51996,-4.98299 h -0.0221 v 4.74045 q 0,0.0882 -0.0661,0.15434 -0.0551,0.0551 -0.14331,0.0551 h -1.00321 q -0.0882,0 -0.15434,-0.0551 -0.0551,-0.0661 -0.0551,-0.15434 z"
         style="font-style:normal;font-variant:normal;font-weight:normal;font-stretch:normal;font-size:11.02430534px;font-family:'iCiel Brandon Text';-inkscape-font-specification:'iCiel Brandon Text';font-variant-ligatures:normal;font-variant-caps:normal;font-variant-numeric:normal;font-feature-settings:normal;text-align:center;letter-spacing:0px;writing-mode:lr-tb;text-anchor:middle;fill:#ffffff;fill-opacity:1;stroke-width:0.27560762"
         id="path2087" />
      <path
         d="m 120.06541,224.8019 q 0,-0.82682 0.30868,-1.55442 0.30868,-0.72761 0.83785,-1.25678 0.54019,-0.54019 1.25677,-0.84887 0.7276,-0.3197 1.55443,-0.3197 0.82682,0 1.5434,0.3197 0.7276,0.30868 1.26779,0.84887 0.5402,0.52917 0.84888,1.25678 0.30868,0.7276 0.30868,1.55442 0,0.82683 -0.30868,1.55443 -0.30868,0.71658 -0.84888,1.25677 -0.54019,0.52917 -1.26779,0.83785 -0.71658,0.30868 -1.5434,0.30868 -0.82683,0 -1.55443,-0.30868 -0.71658,-0.30868 -1.25677,-0.83785 -0.52917,-0.54019 -0.83785,-1.25677 -0.30868,-0.7276 -0.30868,-1.55443 z m 1.43316,0 q 0,0.51814 0.19844,0.98117 0.19844,0.46302 0.54019,0.80477 0.34175,0.34175 0.80477,0.54019 0.46302,0.19844 0.98117,0.19844 0.51814,0 0.98116,-0.19844 0.46302,-0.19844 0.80477,-0.54019 0.35278,-0.34175 0.55122,-0.80477 0.19844,-0.46303 0.19844,-0.98117 0,-0.51814 -0.19844,-0.98116 -0.19844,-0.46302 -0.55122,-0.80478 -0.34175,-0.35277 -0.80477,-0.55121 -0.46302,-0.20946 -0.98116,-0.20946 -0.51815,0 -0.98117,0.20946 -0.46302,0.19844 -0.80477,0.55121 -0.34175,0.34176 -0.54019,0.80478 -0.19844,0.46302 -0.19844,0.98116 z"
         style="font-style:normal;font-variant:normal;font-weight:normal;font-stretch:normal;font-size:11.02430534px;font-family:'iCiel Brandon Text';-inkscape-font-specification:'iCiel Brandon Text';font-variant-ligatures:normal;font-variant-caps:normal;font-variant-numeric:normal;font-feature-settings:normal;text-align:center;letter-spacing:0px;writing-mode:lr-tb;text-anchor:middle;fill:#ffffff;fill-opacity:1;stroke-width:0.27560762"
         id="path2089" />
      <path
         d="m 128.77375,227.72334 q 0,-0.20946 0.0772,-0.39687 0.0882,-0.19844 0.23151,-0.34176 0.14331,-0.15434 0.33073,-0.23151 0.18741,-0.0882 0.4079,-0.0882 0.20946,0 0.39687,0.0882 0.19844,0.0772 0.34176,0.23151 0.15434,0.14332 0.23151,0.34176 0.0882,0.18741 0.0882,0.39687 0,0.20947 -0.0882,0.4079 -0.0772,0.18742 -0.23151,0.33073 -0.14332,0.14332 -0.34176,0.22049 -0.18741,0.0882 -0.39687,0.0882 -0.22049,0 -0.4079,-0.0882 -0.18742,-0.0772 -0.33073,-0.22049 -0.14332,-0.14331 -0.23151,-0.33073 -0.0772,-0.19843 -0.0772,-0.4079 z"
         style="font-style:normal;font-variant:normal;font-weight:normal;font-stretch:normal;font-size:11.02430534px;font-family:'iCiel Brandon Text';-inkscape-font-specification:'iCiel Brandon Text';font-variant-ligatures:normal;font-variant-caps:normal;font-variant-numeric:normal;font-feature-settings:normal;text-align:center;letter-spacing:0px;writing-mode:lr-tb;text-anchor:middle;fill:#ffffff;fill-opacity:1;stroke-width:0.27560762"
         id="path2091" />
      <path
         d="m 134.0382,227.43671 h 2.42535 q 0.0882,0 0.15434,0.0661 0.0661,0.0551 0.0661,0.14331 v 0.78273 q 0,0.0882 -0.0661,0.15434 -0.0661,0.0661 -0.15434,0.0661 h -4.47587 q -0.0882,0 -0.15434,-0.0661 -0.0551,-0.0661 -0.0551,-0.15434 v -0.11024 q 0,-0.0882 0.0331,-0.15434 0.0331,-0.0661 0.0551,-0.0992 0.28663,-0.35278 0.66146,-0.83785 0.38585,-0.48507 0.78273,-0.99219 0.39687,-0.50712 0.76067,-0.99219 0.37483,-0.48506 0.65044,-0.84887 0.26458,-0.3197 0.41892,-0.63941 0.15434,-0.33073 0.15434,-0.61736 0,-0.18741 -0.0772,-0.37482 -0.0661,-0.18742 -0.22048,-0.33073 -0.14332,-0.14332 -0.37483,-0.23151 -0.22049,-0.0882 -0.52917,-0.0882 -0.19843,0 -0.38585,0.0661 -0.18741,0.0661 -0.35278,0.16536 -0.16536,0.0992 -0.29765,0.22049 -0.13229,0.11024 -0.23151,0.20946 -0.16537,0.16536 -0.30868,0 l -0.55122,-0.54019 q -0.0551,-0.0551 -0.0661,-0.14332 0,-0.0882 0.0551,-0.15434 0.26458,-0.30868 0.61736,-0.55121 0.28663,-0.20946 0.69453,-0.38585 0.41892,-0.17639 0.92604,-0.17639 0.60634,0 1.08038,0.18741 0.47405,0.17639 0.79375,0.48507 0.33073,0.30868 0.4961,0.71658 0.16536,0.4079 0.16536,0.87092 0,0.55122 -0.22048,0.95912 -0.20947,0.39687 -0.5402,0.87092 -0.17638,0.25355 -0.41892,0.57326 -0.24253,0.3197 -0.50712,0.65043 -0.25356,0.33073 -0.51814,0.66146 -0.26458,0.33073 -0.48507,0.61736 z"
         style="font-style:normal;font-variant:normal;font-weight:normal;font-stretch:normal;font-size:11.02430534px;font-family:'iCiel Brandon Text';-inkscape-font-specification:'iCiel Brandon Text';font-variant-ligatures:normal;font-variant-caps:normal;font-variant-numeric:normal;font-feature-settings:normal;text-align:center;letter-spacing:0px;writing-mode:lr-tb;text-anchor:middle;fill:#ffffff;fill-opacity:1;stroke-width:0.27560762"
         id="path2093" />
    </g>
  </g>
</svg>
