<?xml version="1.0" encoding="UTF-8" standalone="no"?>
<!-- Created with Inkscape (http://www.inkscape.org/) -->

<svg
   xmlns:dc="http://purl.org/dc/elements/1.1/"
   xmlns:cc="http://creativecommons.org/ns#"
   xmlns:rdf="http://www.w3.org/1999/02/22-rdf-syntax-ns#"
   xmlns:svg="http://www.w3.org/2000/svg"
   xmlns="http://www.w3.org/2000/svg"
   xmlns:sodipodi="http://sodipodi.sourceforge.net/DTD/sodipodi-0.dtd"
   xmlns:inkscape="http://www.inkscape.org/namespaces/inkscape"
   width="600"
   height="600"
   viewBox="0 0 158.75 158.75"
   version="1.1"
   id="svg8"
   sodipodi:docname="CP-Po28n4-thumb.svg"
   inkscape:version="0.92.3 (2405546, 2018-03-11)">
  <defs
     id="defs2" />
  <sodipodi:namedview
     id="base"
     pagecolor="#ffffff"
     bordercolor="#666666"
     borderopacity="1.0"
     inkscape:pageopacity="0.0"
     inkscape:pageshadow="2"
     inkscape:zoom="0.94333333"
     inkscape:cx="363.07421"
     inkscape:cy="300.00002"
     inkscape:document-units="px"
     inkscape:current-layer="layer1"
     showgrid="false"
     units="px"
     inkscape:snap-page="true"
     inkscape:pagecheckerboard="true"
     inkscape:window-width="1366"
     inkscape:window-height="745"
     inkscape:window-x="-8"
     inkscape:window-y="-8"
     inkscape:window-maximized="1" />
  <metadata
     id="metadata5">
    <rdf:RDF>
      <cc:Work
         rdf:about="">
        <dc:format>image/svg+xml</dc:format>
        <dc:type
           rdf:resource="http://purl.org/dc/dcmitype/StillImage" />
        <dc:title></dc:title>
      </cc:Work>
    </rdf:RDF>
  </metadata>
  <g
     inkscape:label="Layer 1"
     inkscape:groupmode="layer"
     id="layer1"
     transform="translate(0,-138.24999)">
    <rect
       style="opacity:0.25;fill:#ffffff;fill-opacity:1;stroke-width:0.26458332"
       id="rect815"
       width="158.75"
       height="158.75"
       x="0"
       y="138.24998" />
    <g
       aria-label="CHOPIN
PRELUDE OP.28 NO.4"
       style="font-style:normal;font-variant:normal;font-weight:normal;font-stretch:normal;font-size:11.02430534px;line-height:1.25;font-family:sans-serif;-inkscape-font-specification:'sans-serif, Normal';font-variant-ligatures:normal;font-variant-caps:normal;font-variant-numeric:normal;font-feature-settings:normal;text-align:center;letter-spacing:0px;word-spacing:0px;writing-mode:lr-tb;text-anchor:middle;fill:#000000;fill-opacity:1;stroke:none;stroke-width:0.27560762"
       id="text823">
      <path
         d="m 54.972486,210.36265 q 0,-0.82683 0.30868,-1.55443 0.319705,-0.7276 0.848872,-1.25677 0.540191,-0.54019 1.267795,-0.84887 0.727604,-0.31971 1.554427,-0.31971 0.837847,0 1.466233,0.26459 0.639409,0.25355 1.201649,0.76067 0.165364,0.15434 0.01102,0.30868 l -0.672483,0.69453 q -0.132291,0.14332 -0.275607,0 -0.352778,-0.30868 -0.79375,-0.47404 -0.440972,-0.17639 -0.903993,-0.17639 -0.529167,0 -0.981163,0.20946 -0.451997,0.19844 -0.782726,0.55122 -0.319705,0.35277 -0.507118,0.82682 -0.187413,0.46302 -0.187413,0.98116 0,0.51815 0.187413,0.98117 0.187413,0.46302 0.518142,0.8158 0.330729,0.34175 0.782726,0.55121 0.451996,0.19844 0.981163,0.19844 0.496094,0 0.915017,-0.16537 0.418924,-0.17639 0.771702,-0.46302 0.06615,-0.0551 0.143316,-0.0551 0.07717,0 0.132291,0.0551 l 0.683507,0.70556 q 0.06615,0.0551 0.05512,0.15434 -0.01102,0.0882 -0.06615,0.14331 -0.562239,0.55122 -1.256771,0.8158 -0.683507,0.25356 -1.422135,0.25356 -0.826823,0 -1.554427,-0.30868 -0.727604,-0.30868 -1.267795,-0.83785 -0.529167,-0.54019 -0.848872,-1.25677 -0.30868,-0.7276 -0.30868,-1.55442 z"
         style="font-style:normal;font-variant:normal;font-weight:normal;font-stretch:normal;font-size:11.02430534px;font-family:'iCiel Brandon Text';-inkscape-font-specification:'iCiel Brandon Text';font-variant-ligatures:normal;font-variant-caps:normal;font-variant-numeric:normal;font-feature-settings:normal;text-align:center;letter-spacing:1.32291663px;writing-mode:lr-tb;text-anchor:middle;fill:#ffffff;fill-opacity:1;stroke-width:0.27560762"
         id="path2096" />
      <path
         d="m 64.326609,206.70258 q 0,-0.0882 0.05512,-0.14332 0.06615,-0.0661 0.15434,-0.0661 h 1.025261 q 0.08819,0 0.143316,0.0661 0.06615,0.0551 0.06615,0.14332 v 2.92144 h 3.593923 v -2.92144 q 0,-0.0882 0.05512,-0.14332 0.06615,-0.0661 0.15434,-0.0661 h 1.014236 q 0.08819,0 0.143316,0.0661 0.06615,0.0551 0.06615,0.14332 v 7.29809 q 0,0.0882 -0.06615,0.15434 -0.05512,0.0551 -0.143316,0.0551 h -1.014236 q -0.08819,0 -0.15434,-0.0551 -0.05512,-0.0661 -0.05512,-0.15434 v -3.04271 h -3.593923 v 3.04271 q 0,0.0882 -0.06615,0.15434 -0.05512,0.0551 -0.143316,0.0551 H 64.53607 q -0.08819,0 -0.15434,-0.0551 -0.05512,-0.0661 -0.05512,-0.15434 z"
         style="font-style:normal;font-variant:normal;font-weight:normal;font-stretch:normal;font-size:11.02430534px;font-family:'iCiel Brandon Text';-inkscape-font-specification:'iCiel Brandon Text';font-variant-ligatures:normal;font-variant-caps:normal;font-variant-numeric:normal;font-feature-settings:normal;text-align:center;letter-spacing:1.32291663px;writing-mode:lr-tb;text-anchor:middle;fill:#ffffff;fill-opacity:1;stroke-width:0.27560762"
         id="path2098" />
      <path
         d="m 73.551885,210.36265 q 0,-0.82683 0.30868,-1.55443 0.308681,-0.7276 0.837848,-1.25677 0.540191,-0.54019 1.25677,-0.84887 0.727605,-0.31971 1.554427,-0.31971 0.826823,0 1.543403,0.31971 0.727604,0.30868 1.267795,0.84887 0.540191,0.52917 0.848872,1.25677 0.30868,0.7276 0.30868,1.55443 0,0.82682 -0.30868,1.55442 -0.308681,0.71658 -0.848872,1.25677 -0.540191,0.52917 -1.267795,0.83785 -0.71658,0.30868 -1.543403,0.30868 -0.826822,0 -1.554427,-0.30868 -0.716579,-0.30868 -1.25677,-0.83785 -0.529167,-0.54019 -0.837848,-1.25677 -0.30868,-0.7276 -0.30868,-1.55442 z m 1.433159,0 q 0,0.51814 0.198438,0.98116 0.198437,0.46302 0.540191,0.80477 0.341753,0.34176 0.804774,0.54019 0.463021,0.19844 0.981163,0.19844 0.518143,0 0.981164,-0.19844 0.46302,-0.19843 0.804774,-0.54019 0.352778,-0.34175 0.551215,-0.80477 0.198438,-0.46302 0.198438,-0.98116 0,-0.51815 -0.198438,-0.98117 -0.198437,-0.46302 -0.551215,-0.80477 -0.341754,-0.35278 -0.804774,-0.55122 -0.463021,-0.20946 -0.981164,-0.20946 -0.518142,0 -0.981163,0.20946 -0.463021,0.19844 -0.804774,0.55122 -0.341754,0.34175 -0.540191,0.80477 -0.198438,0.46302 -0.198438,0.98117 z"
         style="font-style:normal;font-variant:normal;font-weight:normal;font-stretch:normal;font-size:11.02430534px;font-family:'iCiel Brandon Text';-inkscape-font-specification:'iCiel Brandon Text';font-variant-ligatures:normal;font-variant-caps:normal;font-variant-numeric:normal;font-feature-settings:normal;text-align:center;letter-spacing:1.32291663px;writing-mode:lr-tb;text-anchor:middle;fill:#ffffff;fill-opacity:1;stroke-width:0.27560762"
         id="path2100" />
      <path
         d="m 84.219452,206.70258 q 0,-0.0882 0.05512,-0.14332 0.06615,-0.0661 0.154341,-0.0661 h 2.590711 q 0.507118,0 0.959115,0.19843 0.451996,0.18742 0.782726,0.51814 0.341753,0.33073 0.529166,0.78273 0.198438,0.44097 0.198438,0.93707 0,0.51814 -0.198438,0.97014 -0.187413,0.44097 -0.529166,0.78272 -0.33073,0.34175 -0.782726,0.54019 -0.440972,0.18742 -0.94809,0.18742 h -1.378039 v 2.59071 q 0,0.0882 -0.06614,0.15434 -0.05512,0.0551 -0.143316,0.0551 h -1.014236 q -0.08819,0 -0.154341,-0.0551 -0.05512,-0.0661 -0.05512,-0.15434 z m 2.756076,3.36241 q 0.231511,0 0.429948,-0.0882 0.198438,-0.0882 0.341753,-0.24254 0.154341,-0.15434 0.231511,-0.3638 0.08819,-0.20946 0.08819,-0.452 0,-0.23151 -0.08819,-0.41892 -0.07717,-0.19844 -0.231511,-0.34175 -0.143315,-0.14332 -0.341753,-0.22049 -0.198437,-0.0882 -0.429948,-0.0882 h -1.322917 v 2.21589 z"
         style="font-style:normal;font-variant:normal;font-weight:normal;font-stretch:normal;font-size:11.02430534px;font-family:'iCiel Brandon Text';-inkscape-font-specification:'iCiel Brandon Text';font-variant-ligatures:normal;font-variant-caps:normal;font-variant-numeric:normal;font-feature-settings:normal;text-align:center;letter-spacing:1.32291663px;writing-mode:lr-tb;text-anchor:middle;fill:#ffffff;fill-opacity:1;stroke-width:0.27560762"
         id="path2102" />
      <path
         d="m 92.044985,206.70258 q 0,-0.0882 0.05512,-0.14332 0.06615,-0.0661 0.15434,-0.0661 h 1.025261 q 0.08819,0 0.143316,0.0661 0.06615,0.0551 0.06615,0.14332 v 7.29809 q 0,0.0882 -0.06615,0.15434 -0.05512,0.0551 -0.143316,0.0551 h -1.025261 q -0.08819,0 -0.15434,-0.0551 -0.05512,-0.0661 -0.05512,-0.15434 z"
         style="font-style:normal;font-variant:normal;font-weight:normal;font-stretch:normal;font-size:11.02430534px;font-family:'iCiel Brandon Text';-inkscape-font-specification:'iCiel Brandon Text';font-variant-ligatures:normal;font-variant-caps:normal;font-variant-numeric:normal;font-feature-settings:normal;text-align:center;letter-spacing:1.32291663px;writing-mode:lr-tb;text-anchor:middle;fill:#ffffff;fill-opacity:1;stroke-width:0.27560762"
         id="path2104" />
      <path
         d="m 96.683805,206.58131 q 0,-0.0882 0.05512,-0.14332 0.06615,-0.0551 0.15434,-0.0551 h 0.165365 q 0.110243,0 0.187413,0.0772 l 4.497915,4.79557 h 0.022 v -4.55303 q 0,-0.0882 0.0551,-0.14332 0.0662,-0.0661 0.15434,-0.0661 h 1.01424 q 0.0882,0 0.14331,0.0661 0.0661,0.0551 0.0661,0.14332 v 7.41935 q 0,0.0882 -0.0661,0.14332 -0.0551,0.0551 -0.14331,0.0551 h -0.15434 q -0.11025,0 -0.18742,-0.0772 l -4.519961,-4.98298 h -0.02205 v 4.74045 q 0,0.0882 -0.06615,0.15434 -0.05512,0.0551 -0.143316,0.0551 h -1.003212 q -0.08819,0 -0.15434,-0.0551 -0.05512,-0.0661 -0.05512,-0.15434 z"
         style="font-style:normal;font-variant:normal;font-weight:normal;font-stretch:normal;font-size:11.02430534px;font-family:'iCiel Brandon Text';-inkscape-font-specification:'iCiel Brandon Text';font-variant-ligatures:normal;font-variant-caps:normal;font-variant-numeric:normal;font-feature-settings:normal;text-align:center;letter-spacing:1.32291663px;writing-mode:lr-tb;text-anchor:middle;fill:#ffffff;fill-opacity:1;stroke-width:0.27560762"
         id="path2106" />
      <path
         d="m 24.75452,221.14183 q 0,-0.0882 0.05512,-0.14331 0.06615,-0.0662 0.15434,-0.0662 h 2.590712 q 0.507118,0 0.959114,0.19844 0.451997,0.18741 0.782726,0.51814 0.341753,0.33073 0.529167,0.78273 0.198437,0.44097 0.198437,0.93706 0,0.51815 -0.198437,0.97014 -0.187414,0.44097 -0.529167,0.78273 -0.330729,0.34175 -0.782726,0.54019 -0.440972,0.18741 -0.94809,0.18741 H 26.18768 v 2.59071 q 0,0.0882 -0.06615,0.15434 -0.05512,0.0551 -0.143316,0.0551 h -1.014236 q -0.08819,0 -0.15434,-0.0551 -0.05512,-0.0661 -0.05512,-0.15434 z m 2.756077,3.36242 q 0.23151,0 0.429947,-0.0882 0.198438,-0.0882 0.341754,-0.24253 0.15434,-0.15434 0.23151,-0.36381 0.08819,-0.20946 0.08819,-0.45199 0,-0.23151 -0.08819,-0.41893 -0.07717,-0.19843 -0.23151,-0.34175 -0.143316,-0.14331 -0.341754,-0.22048 -0.198437,-0.0882 -0.429947,-0.0882 H 26.18768 v 2.21589 z"
         style="font-style:normal;font-variant:normal;font-weight:normal;font-stretch:normal;font-size:11.02430534px;font-family:'iCiel Brandon Text';-inkscape-font-specification:'iCiel Brandon Text';font-variant-ligatures:normal;font-variant-caps:normal;font-variant-numeric:normal;font-feature-settings:normal;text-align:center;letter-spacing:0px;writing-mode:lr-tb;text-anchor:middle;fill:#ffffff;fill-opacity:1;stroke-width:0.27560762"
         id="path2108" />
      <path
         d="m 31.257138,221.14183 q 0,-0.0882 0.05512,-0.14331 0.06615,-0.0662 0.15434,-0.0662 h 3.152951 q 0.496094,0 0.926042,0.18741 0.440972,0.18742 0.771701,0.50712 0.330729,0.31971 0.518143,0.74966 0.187413,0.42994 0.187413,0.92604 0,0.38585 -0.121268,0.7276 -0.121267,0.33073 -0.341753,0.61736 -0.209462,0.28663 -0.507118,0.51814 -0.297656,0.22049 -0.661458,0.36381 l 1.510329,2.80017 q 0.05512,0.11024 0,0.22049 -0.0441,0.0992 -0.187413,0.0992 h -1.157552 q -0.07717,0 -0.121267,-0.0331 -0.03307,-0.0331 -0.05512,-0.0661 l -1.466232,-2.92144 h -1.223698 v 2.81119 q 0,0.0882 -0.06615,0.15434 -0.05512,0.0551 -0.143316,0.0551 H 31.4666 q -0.08819,0 -0.15434,-0.0551 -0.05512,-0.0661 -0.05512,-0.15434 z m 3.241146,3.30729 q 0.220486,0 0.418923,-0.0882 0.198438,-0.0882 0.341754,-0.24253 0.15434,-0.15434 0.242535,-0.35278 0.08819,-0.20946 0.08819,-0.44097 0,-0.22049 -0.08819,-0.4079 -0.0882,-0.19844 -0.242535,-0.34176 -0.143316,-0.15434 -0.341754,-0.23151 -0.198437,-0.0882 -0.418923,-0.0882 h -1.796962 v 2.19383 z"
         style="font-style:normal;font-variant:normal;font-weight:normal;font-stretch:normal;font-size:11.02430534px;font-family:'iCiel Brandon Text';-inkscape-font-specification:'iCiel Brandon Text';font-variant-ligatures:normal;font-variant-caps:normal;font-variant-numeric:normal;font-feature-settings:normal;text-align:center;letter-spacing:0px;writing-mode:lr-tb;text-anchor:middle;fill:#ffffff;fill-opacity:1;stroke-width:0.27560762"
         id="path2110" />
      <path
         d="m 38.534902,221.14183 q 0,-0.0882 0.05512,-0.14331 0.06615,-0.0662 0.15434,-0.0662 h 4.486892 q 0.08819,0 0.143316,0.0662 0.06615,0.0551 0.06615,0.14331 v 0.904 q 0,0.0882 -0.06615,0.15434 -0.05512,0.0551 -0.143316,0.0551 h -3.263194 v 1.80798 h 2.723003 q 0.08819,0 0.143316,0.0662 0.06615,0.0551 0.06615,0.14332 v 0.91501 q 0,0.0882 -0.06615,0.15434 -0.05512,0.0551 -0.143316,0.0551 h -2.723003 v 1.92926 h 3.263194 q 0.08819,0 0.143316,0.0661 0.06615,0.0551 0.06615,0.14332 v 0.90399 q 0,0.0882 -0.06615,0.15434 -0.05512,0.0551 -0.143316,0.0551 h -4.486892 q -0.08819,0 -0.15434,-0.0551 -0.05512,-0.0661 -0.05512,-0.15434 z"
         style="font-style:normal;font-variant:normal;font-weight:normal;font-stretch:normal;font-size:11.02430534px;font-family:'iCiel Brandon Text';-inkscape-font-specification:'iCiel Brandon Text';font-variant-ligatures:normal;font-variant-caps:normal;font-variant-numeric:normal;font-feature-settings:normal;text-align:center;letter-spacing:0px;writing-mode:lr-tb;text-anchor:middle;fill:#ffffff;fill-opacity:1;stroke-width:0.27560762"
         id="path2112" />
      <path
         d="m 44.886797,221.14183 q 0,-0.0882 0.05512,-0.14331 0.06615,-0.0662 0.154341,-0.0662 h 1.014236 q 0.08819,0 0.143316,0.0662 0.06614,0.0551 0.06614,0.14331 v 6.18464 h 2.811198 q 0.08819,0 0.143316,0.0661 0.06615,0.0551 0.06615,0.14332 v 0.90399 q 0,0.0882 -0.06615,0.15434 -0.05512,0.0551 -0.143316,0.0551 h -4.034895 q -0.0882,0 -0.154341,-0.0551 -0.05512,-0.0661 -0.05512,-0.15434 z"
         style="font-style:normal;font-variant:normal;font-weight:normal;font-stretch:normal;font-size:11.02430534px;font-family:'iCiel Brandon Text';-inkscape-font-specification:'iCiel Brandon Text';font-variant-ligatures:normal;font-variant-caps:normal;font-variant-numeric:normal;font-feature-settings:normal;text-align:center;letter-spacing:0px;writing-mode:lr-tb;text-anchor:middle;fill:#ffffff;fill-opacity:1;stroke-width:0.27560762"
         id="path2114" />
      <path
         d="m 50.21412,221.14183 q 0,-0.0882 0.05512,-0.14331 0.06615,-0.0662 0.154341,-0.0662 h 1.047309 q 0.08819,0 0.143316,0.0662 0.06615,0.0551 0.06615,0.14331 v 4.59714 q 0,0.70555 0.429947,1.14653 0.440973,0.44097 1.168577,0.44097 0.363802,0 0.650434,-0.11024 0.297656,-0.12127 0.507118,-0.33073 0.220486,-0.20947 0.330729,-0.4961 0.121267,-0.28663 0.121267,-0.63941 v -4.60816 q 0,-0.0882 0.05512,-0.14331 0.06615,-0.0662 0.15434,-0.0662 h 1.047309 q 0.08819,0 0.143316,0.0662 0.06615,0.0551 0.06615,0.14331 v 4.67431 q 0,0.62838 -0.242535,1.16857 -0.23151,0.5402 -0.650434,0.93707 -0.407899,0.38585 -0.970139,0.61736 -0.562239,0.22049 -1.212673,0.22049 -0.650434,0 -1.212674,-0.22049 -0.551215,-0.23151 -0.970139,-0.61736 -0.407899,-0.39687 -0.650434,-0.93707 -0.23151,-0.54019 -0.23151,-1.16857 z"
         style="font-style:normal;font-variant:normal;font-weight:normal;font-stretch:normal;font-size:11.02430534px;font-family:'iCiel Brandon Text';-inkscape-font-specification:'iCiel Brandon Text';font-variant-ligatures:normal;font-variant-caps:normal;font-variant-numeric:normal;font-feature-settings:normal;text-align:center;letter-spacing:0px;writing-mode:lr-tb;text-anchor:middle;fill:#ffffff;fill-opacity:1;stroke-width:0.27560762"
         id="path2116" />
      <path
         d="m 58.150413,221.14183 q 0,-0.0882 0.05512,-0.14331 0.05512,-0.0662 0.143316,-0.0662 h 2.61276 q 0.79375,0 1.499306,0.30868 0.705555,0.29766 1.234722,0.82682 0.529167,0.51815 0.826823,1.2237 0.30868,0.69453 0.30868,1.48828 0,0.80478 -0.30868,1.51033 -0.297656,0.70556 -0.826823,1.23473 -0.529167,0.51814 -1.234722,0.82682 -0.705556,0.29765 -1.499306,0.29765 h -2.61276 q -0.0882,0 -0.143316,-0.0551 -0.05512,-0.0661 -0.05512,-0.15434 z m 2.678906,6.16259 q 0.540191,0 0.992188,-0.17639 0.451996,-0.18741 0.782726,-0.51814 0.330729,-0.33073 0.518142,-0.79375 0.187413,-0.47405 0.187413,-1.03629 0,-0.56224 -0.187413,-1.02526 -0.187413,-0.46302 -0.518142,-0.79375 -0.33073,-0.33073 -0.782726,-0.50711 -0.451997,-0.18742 -0.992188,-0.18742 h -1.25677 v 5.03811 z"
         style="font-style:normal;font-variant:normal;font-weight:normal;font-stretch:normal;font-size:11.02430534px;font-family:'iCiel Brandon Text';-inkscape-font-specification:'iCiel Brandon Text';font-variant-ligatures:normal;font-variant-caps:normal;font-variant-numeric:normal;font-feature-settings:normal;text-align:center;letter-spacing:0px;writing-mode:lr-tb;text-anchor:middle;fill:#ffffff;fill-opacity:1;stroke-width:0.27560762"
         id="path2118" />
      <path
         d="m 66.246387,221.14183 q 0,-0.0882 0.05512,-0.14331 0.06615,-0.0662 0.15434,-0.0662 h 4.486892 q 0.08819,0 0.143316,0.0662 0.06615,0.0551 0.06615,0.14331 v 0.904 q 0,0.0882 -0.06615,0.15434 -0.05512,0.0551 -0.143316,0.0551 h -3.263194 v 1.80798 h 2.723003 q 0.08819,0 0.143316,0.0662 0.06615,0.0551 0.06615,0.14332 v 0.91501 q 0,0.0882 -0.06615,0.15434 -0.05512,0.0551 -0.143316,0.0551 h -2.723003 v 1.92926 h 3.263194 q 0.08819,0 0.143316,0.0661 0.06615,0.0551 0.06615,0.14332 v 0.90399 q 0,0.0882 -0.06615,0.15434 -0.05512,0.0551 -0.143316,0.0551 h -4.486892 q -0.08819,0 -0.15434,-0.0551 -0.05512,-0.0661 -0.05512,-0.15434 z"
         style="font-style:normal;font-variant:normal;font-weight:normal;font-stretch:normal;font-size:11.02430534px;font-family:'iCiel Brandon Text';-inkscape-font-specification:'iCiel Brandon Text';font-variant-ligatures:normal;font-variant-caps:normal;font-variant-numeric:normal;font-feature-settings:normal;text-align:center;letter-spacing:0px;writing-mode:lr-tb;text-anchor:middle;fill:#ffffff;fill-opacity:1;stroke-width:0.27560762"
         id="path2120" />
      <path
         d="m 74.794704,224.8019 q 0,-0.82682 0.30868,-1.55442 0.308681,-0.72761 0.837847,-1.25678 0.540191,-0.54019 1.256771,-0.84887 0.727604,-0.3197 1.554427,-0.3197 0.826823,0 1.543403,0.3197 0.727604,0.30868 1.267795,0.84887 0.540191,0.52917 0.848872,1.25678 0.30868,0.7276 0.30868,1.55442 0,0.82683 -0.30868,1.55443 -0.308681,0.71658 -0.848872,1.25677 -0.540191,0.52917 -1.267795,0.83785 -0.71658,0.30868 -1.543403,0.30868 -0.826823,0 -1.554427,-0.30868 -0.71658,-0.30868 -1.256771,-0.83785 -0.529166,-0.54019 -0.837847,-1.25677 -0.30868,-0.7276 -0.30868,-1.55443 z m 1.433159,0 q 0,0.51814 0.198438,0.98117 0.198437,0.46302 0.540191,0.80477 0.341753,0.34175 0.804774,0.54019 0.463021,0.19844 0.981163,0.19844 0.518143,0 0.981163,-0.19844 0.463021,-0.19844 0.804775,-0.54019 0.352777,-0.34175 0.551215,-0.80477 0.198437,-0.46303 0.198437,-0.98117 0,-0.51814 -0.198437,-0.98116 -0.198438,-0.46302 -0.551215,-0.80478 -0.341754,-0.35277 -0.804775,-0.55121 -0.46302,-0.20946 -0.981163,-0.20946 -0.518142,0 -0.981163,0.20946 -0.463021,0.19844 -0.804774,0.55121 -0.341754,0.34176 -0.540191,0.80478 -0.198438,0.46302 -0.198438,0.98116 z"
         style="font-style:normal;font-variant:normal;font-weight:normal;font-stretch:normal;font-size:11.02430534px;font-family:'iCiel Brandon Text';-inkscape-font-specification:'iCiel Brandon Text';font-variant-ligatures:normal;font-variant-caps:normal;font-variant-numeric:normal;font-feature-settings:normal;text-align:center;letter-spacing:0px;writing-mode:lr-tb;text-anchor:middle;fill:#ffffff;fill-opacity:1;stroke-width:0.27560762"
         id="path2122" />
      <path
         d="m 84.139351,221.14183 q 0,-0.0882 0.05512,-0.14331 0.06615,-0.0662 0.15434,-0.0662 h 2.590712 q 0.507118,0 0.959115,0.19844 0.451996,0.18741 0.782725,0.51814 0.341754,0.33073 0.529167,0.78273 0.198438,0.44097 0.198438,0.93706 0,0.51815 -0.198438,0.97014 -0.187413,0.44097 -0.529167,0.78273 -0.330729,0.34175 -0.782725,0.54019 -0.440972,0.18741 -0.94809,0.18741 H 85.57251 v 2.59071 q 0,0.0882 -0.06614,0.15434 -0.05512,0.0551 -0.143316,0.0551 h -1.014237 q -0.08819,0 -0.15434,-0.0551 -0.05512,-0.0661 -0.05512,-0.15434 z m 2.756076,3.36242 q 0.23151,0 0.429948,-0.0882 0.198437,-0.0882 0.341753,-0.24253 0.154341,-0.15434 0.231511,-0.36381 0.08819,-0.20946 0.08819,-0.45199 0,-0.23151 -0.08819,-0.41893 -0.07717,-0.19843 -0.231511,-0.34175 -0.143316,-0.14331 -0.341753,-0.22048 -0.198438,-0.0882 -0.429948,-0.0882 H 85.57251 v 2.21589 z"
         style="font-style:normal;font-variant:normal;font-weight:normal;font-stretch:normal;font-size:11.02430534px;font-family:'iCiel Brandon Text';-inkscape-font-specification:'iCiel Brandon Text';font-variant-ligatures:normal;font-variant-caps:normal;font-variant-numeric:normal;font-feature-settings:normal;text-align:center;letter-spacing:0px;writing-mode:lr-tb;text-anchor:middle;fill:#ffffff;fill-opacity:1;stroke-width:0.27560762"
         id="path2124" />
      <path
         d="m 89.661152,227.72334 q 0,-0.20946 0.07717,-0.39687 0.08819,-0.19844 0.23151,-0.34176 0.143316,-0.15434 0.33073,-0.23151 0.187413,-0.0882 0.407899,-0.0882 0.209462,0 0.396875,0.0882 0.198437,0.0772 0.341753,0.23151 0.154341,0.14332 0.231511,0.34176 0.08819,0.18741 0.08819,0.39687 0,0.20947 -0.08819,0.4079 -0.07717,0.18742 -0.231511,0.33073 -0.143316,0.14332 -0.341753,0.22049 -0.187413,0.0882 -0.396875,0.0882 -0.220486,0 -0.407899,-0.0882 -0.187414,-0.0772 -0.33073,-0.22049 -0.143316,-0.14331 -0.23151,-0.33073 -0.07717,-0.19843 -0.07717,-0.4079 z"
         style="font-style:normal;font-variant:normal;font-weight:normal;font-stretch:normal;font-size:11.02430534px;font-family:'iCiel Brandon Text';-inkscape-font-specification:'iCiel Brandon Text';font-variant-ligatures:normal;font-variant-caps:normal;font-variant-numeric:normal;font-feature-settings:normal;text-align:center;letter-spacing:0px;writing-mode:lr-tb;text-anchor:middle;fill:#ffffff;fill-opacity:1;stroke-width:0.27560762"
         id="path2126" />
      <path
         d="m 94.925605,227.43671 h 2.425347 q 0.08819,0 0.15434,0.0661 0.06615,0.0551 0.06615,0.14331 v 0.78273 q 0,0.0882 -0.06615,0.15434 -0.06615,0.0661 -0.15434,0.0661 h -4.475868 q -0.08819,0 -0.15434,-0.0661 -0.05512,-0.0661 -0.05512,-0.15434 v -0.11024 q 0,-0.0882 0.03307,-0.15434 0.03307,-0.0661 0.05512,-0.0992 0.286632,-0.35278 0.661458,-0.83785 0.385851,-0.48507 0.782726,-0.99219 0.396875,-0.50712 0.760677,-0.99219 0.374826,-0.48506 0.650434,-0.84887 0.264583,-0.3197 0.418923,-0.63941 0.154341,-0.33073 0.154341,-0.61736 0,-0.18741 -0.07717,-0.37482 -0.06614,-0.18742 -0.220486,-0.33073 -0.143316,-0.14332 -0.374826,-0.23151 -0.220486,-0.0882 -0.529167,-0.0882 -0.198437,0 -0.38585,0.0661 -0.187414,0.0661 -0.352778,0.16536 -0.165365,0.0992 -0.297656,0.22049 -0.132292,0.11024 -0.231511,0.20946 -0.165364,0.16536 -0.30868,0 l -0.551216,-0.54019 q -0.05512,-0.0551 -0.06615,-0.14332 0,-0.0882 0.05512,-0.15434 0.264583,-0.30868 0.617361,-0.55121 0.286632,-0.20946 0.694531,-0.38585 0.418924,-0.17639 0.926042,-0.17639 0.606337,0 1.080382,0.18741 0.474045,0.17639 0.79375,0.48507 0.330729,0.30868 0.496094,0.71658 0.165364,0.4079 0.165364,0.87092 0,0.55122 -0.220486,0.95912 -0.209462,0.39687 -0.540191,0.87092 -0.176389,0.25355 -0.418923,0.57326 -0.242535,0.3197 -0.507118,0.65043 -0.253559,0.33073 -0.518143,0.66146 -0.264583,0.33073 -0.485069,0.61736 z"
         style="font-style:normal;font-variant:normal;font-weight:normal;font-stretch:normal;font-size:11.02430534px;font-family:'iCiel Brandon Text';-inkscape-font-specification:'iCiel Brandon Text';font-variant-ligatures:normal;font-variant-caps:normal;font-variant-numeric:normal;font-feature-settings:normal;text-align:center;letter-spacing:0px;writing-mode:lr-tb;text-anchor:middle;fill:#ffffff;fill-opacity:1;stroke-width:0.27560762"
         id="path2128" />
      <path
         d="m 98.946541,226.58784 q 0,-0.37483 0.121268,-0.67248 0.132291,-0.30868 0.330729,-0.54019 0.198437,-0.23151 0.440972,-0.39688 0.24253,-0.17639 0.48507,-0.28663 v -0.0441 q -0.19844,-0.0882 -0.4079,-0.24253 -0.209462,-0.16537 -0.385851,-0.38585 -0.165364,-0.22049 -0.275607,-0.4961 -0.09922,-0.28663 -0.09922,-0.61736 0,-0.47404 0.187413,-0.85989 0.198438,-0.38585 0.529167,-0.65044 0.330727,-0.27561 0.771697,-0.41892 0.452,-0.15434 0.97014,-0.15434 0.52917,0 0.99219,0.15434 0.46302,0.14331 0.79375,0.41892 0.34175,0.26459 0.52917,0.65044 0.19843,0.38585 0.19843,0.85989 0,0.31971 -0.11024,0.59531 -0.11024,0.27561 -0.28663,0.50712 -0.16536,0.22049 -0.37483,0.38585 -0.19843,0.15434 -0.39687,0.24254 v 0.0551 q 0.25356,0.11024 0.49609,0.28663 0.25356,0.16537 0.44097,0.4079 0.19844,0.23151 0.31971,0.54019 0.12127,0.29766 0.12127,0.66146 0,0.46302 -0.18742,0.8599 -0.18741,0.39687 -0.55121,0.69453 -0.35278,0.28663 -0.8599,0.45199 -0.49609,0.16537 -1.12448,0.16537 -0.60633,0 -1.10243,-0.16537 -0.49609,-0.16536 -0.848869,-0.45199 -0.341753,-0.29766 -0.529167,-0.69453 -0.187413,-0.39688 -0.187413,-0.8599 z m 2.700959,-2.55764 q 0.52916,-0.12127 0.7717,-0.4079 0.25356,-0.29765 0.25356,-0.66146 0,-0.4079 -0.28664,-0.6835 -0.28663,-0.28664 -0.7717,-0.28664 -0.45199,0 -0.7276,0.28664 -0.27561,0.2756 -0.27561,0.6835 0,0.38585 0.24254,0.66146 0.25356,0.27561 0.79375,0.4079 z m -1.19063,2.52457 q 0,0.47404 0.31971,0.76067 0.33073,0.28664 0.87092,0.28664 0.52916,0 0.84887,-0.28664 0.33073,-0.28663 0.33073,-0.76067 0,-0.38585 -0.30868,-0.72761 -0.29766,-0.34175 -0.87092,-0.47404 -0.57327,0.13229 -0.88195,0.47404 -0.30868,0.34176 -0.30868,0.72761 z"
         style="font-style:normal;font-variant:normal;font-weight:normal;font-stretch:normal;font-size:11.02430534px;font-family:'iCiel Brandon Text';-inkscape-font-specification:'iCiel Brandon Text';font-variant-ligatures:normal;font-variant-caps:normal;font-variant-numeric:normal;font-feature-settings:normal;text-align:center;letter-spacing:0px;writing-mode:lr-tb;text-anchor:middle;fill:#ffffff;fill-opacity:1;stroke-width:0.27560762"
         id="path2130" />
      <path
         d="m 108.578,221.02057 q 0,-0.0882 0.0551,-0.14332 0.0661,-0.0551 0.15434,-0.0551 h 0.16537 q 0.11024,0 0.18741,0.0772 l 4.49792,4.79557 h 0.022 v -4.55304 q 0,-0.0882 0.0551,-0.14331 0.0661,-0.0662 0.15434,-0.0662 h 1.01423 q 0.0882,0 0.14332,0.0662 0.0661,0.0551 0.0661,0.14331 v 7.41936 q 0,0.0882 -0.0661,0.14332 -0.0551,0.0551 -0.14332,0.0551 h -0.15434 q -0.11024,0 -0.18741,-0.0772 l -4.51997,-4.98299 h -0.0221 v 4.74045 q 0,0.0882 -0.0661,0.15434 -0.0551,0.0551 -0.14332,0.0551 h -1.00321 q -0.0882,0 -0.15434,-0.0551 -0.0551,-0.0661 -0.0551,-0.15434 z"
         style="font-style:normal;font-variant:normal;font-weight:normal;font-stretch:normal;font-size:11.02430534px;font-family:'iCiel Brandon Text';-inkscape-font-specification:'iCiel Brandon Text';font-variant-ligatures:normal;font-variant-caps:normal;font-variant-numeric:normal;font-feature-settings:normal;text-align:center;letter-spacing:0px;writing-mode:lr-tb;text-anchor:middle;fill:#ffffff;fill-opacity:1;stroke-width:0.27560762"
         id="path2132" />
      <path
         d="m 116.52342,224.8019 q 0,-0.82682 0.30868,-1.55442 0.30868,-0.72761 0.83785,-1.25678 0.54019,-0.54019 1.25677,-0.84887 0.7276,-0.3197 1.55442,-0.3197 0.82683,0 1.54341,0.3197 0.7276,0.30868 1.26779,0.84887 0.54019,0.52917 0.84887,1.25678 0.30868,0.7276 0.30868,1.55442 0,0.82683 -0.30868,1.55443 -0.30868,0.71658 -0.84887,1.25677 -0.54019,0.52917 -1.26779,0.83785 -0.71658,0.30868 -1.54341,0.30868 -0.82682,0 -1.55442,-0.30868 -0.71658,-0.30868 -1.25677,-0.83785 -0.52917,-0.54019 -0.83785,-1.25677 -0.30868,-0.7276 -0.30868,-1.55443 z m 1.43316,0 q 0,0.51814 0.19843,0.98117 0.19844,0.46302 0.5402,0.80477 0.34175,0.34175 0.80477,0.54019 0.46302,0.19844 0.98116,0.19844 0.51815,0 0.98117,-0.19844 0.46302,-0.19844 0.80477,-0.54019 0.35278,-0.34175 0.55122,-0.80477 0.19843,-0.46303 0.19843,-0.98117 0,-0.51814 -0.19843,-0.98116 -0.19844,-0.46302 -0.55122,-0.80478 -0.34175,-0.35277 -0.80477,-0.55121 -0.46302,-0.20946 -0.98117,-0.20946 -0.51814,0 -0.98116,0.20946 -0.46302,0.19844 -0.80477,0.55121 -0.34176,0.34176 -0.5402,0.80478 -0.19843,0.46302 -0.19843,0.98116 z"
         style="font-style:normal;font-variant:normal;font-weight:normal;font-stretch:normal;font-size:11.02430534px;font-family:'iCiel Brandon Text';-inkscape-font-specification:'iCiel Brandon Text';font-variant-ligatures:normal;font-variant-caps:normal;font-variant-numeric:normal;font-feature-settings:normal;text-align:center;letter-spacing:0px;writing-mode:lr-tb;text-anchor:middle;fill:#ffffff;fill-opacity:1;stroke-width:0.27560762"
         id="path2134" />
      <path
         d="m 125.23176,227.72334 q 0,-0.20946 0.0772,-0.39687 0.0882,-0.19844 0.23151,-0.34176 0.14332,-0.15434 0.33073,-0.23151 0.18741,-0.0882 0.4079,-0.0882 0.20946,0 0.39688,0.0882 0.19843,0.0772 0.34175,0.23151 0.15434,0.14332 0.23151,0.34176 0.0882,0.18741 0.0882,0.39687 0,0.20947 -0.0882,0.4079 -0.0772,0.18742 -0.23151,0.33073 -0.14332,0.14332 -0.34175,0.22049 -0.18742,0.0882 -0.39688,0.0882 -0.22049,0 -0.4079,-0.0882 -0.18741,-0.0772 -0.33073,-0.22049 -0.14331,-0.14331 -0.23151,-0.33073 -0.0772,-0.19843 -0.0772,-0.4079 z"
         style="font-style:normal;font-variant:normal;font-weight:normal;font-stretch:normal;font-size:11.02430534px;font-family:'iCiel Brandon Text';-inkscape-font-specification:'iCiel Brandon Text';font-variant-ligatures:normal;font-variant-caps:normal;font-variant-numeric:normal;font-feature-settings:normal;text-align:center;letter-spacing:0px;writing-mode:lr-tb;text-anchor:middle;fill:#ffffff;fill-opacity:1;stroke-width:0.27560762"
         id="path2136" />
      <path
         d="m 128.31339,227.00676 q -0.0882,0 -0.15434,-0.0661 -0.0661,-0.0661 -0.0661,-0.15434 v -0.71658 q 0,-0.23151 0.14331,-0.38585 l 3.90261,-4.74045 q 0.0551,-0.0661 0.11024,-0.0882 0.0662,-0.0331 0.17639,-0.0331 h 0.54019 q 0.0882,0 0.15434,0.0661 0.0661,0.0661 0.0661,0.15434 v 4.78455 h 0.90399 q 0.0992,0 0.15434,0.0551 0.0661,0.0551 0.0661,0.14332 v 0.76068 q 0,0.0882 -0.0661,0.15434 -0.0551,0.0661 -0.15434,0.0661 h -0.90399 l 0.011,1.42214 q 0,0.0882 -0.0661,0.15434 -0.0661,0.0661 -0.15434,0.0661 h -0.93707 q -0.0882,0 -0.15434,-0.0661 -0.0661,-0.0661 -0.0661,-0.15434 v -1.42214 z m 1.30087,-1.14652 h 2.24896 v -2.74506 h -0.0221 l -2.22691,2.72301 z"
         style="font-style:normal;font-variant:normal;font-weight:normal;font-stretch:normal;font-size:11.02430534px;font-family:'iCiel Brandon Text';-inkscape-font-specification:'iCiel Brandon Text';font-variant-ligatures:normal;font-variant-caps:normal;font-variant-numeric:normal;font-feature-settings:normal;text-align:center;letter-spacing:0px;writing-mode:lr-tb;text-anchor:middle;fill:#ffffff;fill-opacity:1;stroke-width:0.27560762"
         id="path2138" />
    </g>
  </g>
</svg>
