<?xml version="1.0" encoding="UTF-8" standalone="no"?>
<!-- Created with Inkscape (http://www.inkscape.org/) -->

<svg
   xmlns:dc="http://purl.org/dc/elements/1.1/"
   xmlns:cc="http://creativecommons.org/ns#"
   xmlns:rdf="http://www.w3.org/1999/02/22-rdf-syntax-ns#"
   xmlns:svg="http://www.w3.org/2000/svg"
   xmlns="http://www.w3.org/2000/svg"
   xmlns:sodipodi="http://sodipodi.sourceforge.net/DTD/sodipodi-0.dtd"
   xmlns:inkscape="http://www.inkscape.org/namespaces/inkscape"
   width="600"
   height="600"
   viewBox="0 0 158.75 158.75"
   version="1.1"
   id="svg8"
   sodipodi:docname="DoYou-thumb.svg"
   inkscape:version="0.92.3 (2405546, 2018-03-11)">
  <defs
     id="defs2" />
  <sodipodi:namedview
     id="base"
     pagecolor="#ffffff"
     bordercolor="#666666"
     borderopacity="1.0"
     inkscape:pageopacity="0.0"
     inkscape:pageshadow="2"
     inkscape:zoom="0.94333333"
     inkscape:cx="363.07421"
     inkscape:cy="300.00002"
     inkscape:document-units="px"
     inkscape:current-layer="layer1"
     showgrid="false"
     units="px"
     inkscape:snap-page="true"
     inkscape:pagecheckerboard="true"
     inkscape:window-width="1366"
     inkscape:window-height="745"
     inkscape:window-x="-8"
     inkscape:window-y="-8"
     inkscape:window-maximized="1" />
  <metadata
     id="metadata5">
    <rdf:RDF>
      <cc:Work
         rdf:about="">
        <dc:format>image/svg+xml</dc:format>
        <dc:type
           rdf:resource="http://purl.org/dc/dcmitype/StillImage" />
        <dc:title></dc:title>
      </cc:Work>
    </rdf:RDF>
  </metadata>
  <g
     inkscape:label="Layer 1"
     inkscape:groupmode="layer"
     id="layer1"
     transform="translate(0,-138.24999)">
    <rect
       style="opacity:0.25;fill:#ffffff;fill-opacity:1;stroke-width:0.26458332"
       id="rect815"
       width="158.75"
       height="158.75"
       x="0"
       y="138.24998" />
    <g
       aria-label="DO YOU"
       style="font-style:normal;font-variant:normal;font-weight:normal;font-stretch:normal;font-size:11.02430534px;line-height:1.25;font-family:sans-serif;-inkscape-font-specification:'sans-serif, Normal';font-variant-ligatures:normal;font-variant-caps:normal;font-variant-numeric:normal;font-feature-settings:normal;text-align:center;letter-spacing:0px;word-spacing:0px;writing-mode:lr-tb;text-anchor:middle;fill:#000000;fill-opacity:1;stroke:none;stroke-width:0.27560762"
       id="text823">
      <path
         d="m 45.66526,213.97594 q 0,-0.0882 0.05512,-0.14332 0.05512,-0.0661 0.143316,-0.0661 h 2.61276 q 0.79375,0 1.499306,0.30868 0.705555,0.29765 1.234722,0.82682 0.529167,0.51814 0.826823,1.2237 0.30868,0.69453 0.30868,1.48828 0,0.80477 -0.30868,1.51033 -0.297656,0.70555 -0.826823,1.23472 -0.529167,0.51814 -1.234722,0.82682 -0.705556,0.29766 -1.499306,0.29766 h -2.61276 q -0.08819,0 -0.143316,-0.0551 -0.05512,-0.0661 -0.05512,-0.15434 z m 2.678906,6.16258 q 0.540191,0 0.992188,-0.17638 0.451996,-0.18742 0.782726,-0.51815 0.330729,-0.33073 0.518142,-0.79375 0.187413,-0.47404 0.187413,-1.03628 0,-0.56224 -0.187413,-1.02526 -0.187413,-0.46302 -0.518142,-0.79375 -0.33073,-0.33073 -0.782726,-0.50712 -0.451997,-0.18741 -0.992188,-0.18741 h -1.25677 v 5.0381 z"
         style="font-style:normal;font-variant:normal;font-weight:normal;font-stretch:normal;font-size:11.02430534px;font-family:'iCiel Brandon Text';-inkscape-font-specification:'iCiel Brandon Text';font-variant-ligatures:normal;font-variant-caps:normal;font-variant-numeric:normal;font-feature-settings:normal;text-align:center;letter-spacing:5.29166651px;writing-mode:lr-tb;text-anchor:middle;fill:#ffffff;fill-opacity:1;stroke-width:0.27560762"
         id="path2287" />
      <path
         d="m 58.600904,217.63601 q 0,-0.82683 0.30868,-1.55443 0.308681,-0.7276 0.837847,-1.25677 0.540191,-0.54019 1.256771,-0.84887 0.727604,-0.31971 1.554427,-0.31971 0.826823,0 1.543403,0.31971 0.727604,0.30868 1.267795,0.84887 0.540191,0.52917 0.848872,1.25677 0.30868,0.7276 0.30868,1.55443 0,0.82682 -0.30868,1.55442 -0.308681,0.71658 -0.848872,1.25678 -0.540191,0.52916 -1.267795,0.83784 -0.71658,0.30868 -1.543403,0.30868 -0.826823,0 -1.554427,-0.30868 -0.71658,-0.30868 -1.256771,-0.83784 -0.529166,-0.5402 -0.837847,-1.25678 -0.30868,-0.7276 -0.30868,-1.55442 z m 1.433159,0 q 0,0.51814 0.198438,0.98116 0.198437,0.46302 0.540191,0.80477 0.341753,0.34176 0.804774,0.5402 0.463021,0.19843 0.981163,0.19843 0.518143,0 0.981164,-0.19843 0.46302,-0.19844 0.804774,-0.5402 0.352778,-0.34175 0.551215,-0.80477 0.198438,-0.46302 0.198438,-0.98116 0,-0.51814 -0.198438,-0.98117 -0.198437,-0.46302 -0.551215,-0.80477 -0.341754,-0.35278 -0.804774,-0.55122 -0.463021,-0.20946 -0.981164,-0.20946 -0.518142,0 -0.981163,0.20946 -0.463021,0.19844 -0.804774,0.55122 -0.341754,0.34175 -0.540191,0.80477 -0.198438,0.46303 -0.198438,0.98117 z"
         style="font-style:normal;font-variant:normal;font-weight:normal;font-stretch:normal;font-size:11.02430534px;font-family:'iCiel Brandon Text';-inkscape-font-specification:'iCiel Brandon Text';font-variant-ligatures:normal;font-variant-caps:normal;font-variant-numeric:normal;font-feature-settings:normal;text-align:center;letter-spacing:5.29166651px;writing-mode:lr-tb;text-anchor:middle;fill:#ffffff;fill-opacity:1;stroke-width:0.27560762"
         id="path2289" />
      <path
         d="m 82.786852,217.7683 -2.513542,-3.68212 q -0.06615,-0.11024 -0.01102,-0.20946 0.05512,-0.11024 0.187413,-0.11024 h 1.124479 q 0.06615,0 0.110243,0.0331 0.0441,0.0331 0.06615,0.0661 l 1.763889,2.5356 1.763889,-2.5356 q 0.02205,-0.0331 0.06615,-0.0661 0.0441,-0.0331 0.110243,-0.0331 h 1.135503 q 0.132292,0 0.187413,0.11024 0.05512,0.0992 -0.01102,0.20946 l -2.546614,3.67109 v 3.51676 q 0,0.0882 -0.06615,0.15434 -0.05512,0.0551 -0.143316,0.0551 h -1.014236 q -0.08819,0 -0.154341,-0.0551 -0.05512,-0.0661 -0.05512,-0.15434 z"
         style="font-style:normal;font-variant:normal;font-weight:normal;font-stretch:normal;font-size:11.02430534px;font-family:'iCiel Brandon Text';-inkscape-font-specification:'iCiel Brandon Text';font-variant-ligatures:normal;font-variant-caps:normal;font-variant-numeric:normal;font-feature-settings:normal;text-align:center;letter-spacing:5.29166651px;writing-mode:lr-tb;text-anchor:middle;fill:#ffffff;fill-opacity:1;stroke-width:0.27560762"
         id="path2291" />
      <path
         d="m 92.239677,217.63601 q 0,-0.82683 0.30868,-1.55443 0.308681,-0.7276 0.837847,-1.25677 0.540191,-0.54019 1.256771,-0.84887 0.727604,-0.31971 1.554427,-0.31971 0.826823,0 1.543403,0.31971 0.727604,0.30868 1.267795,0.84887 0.540191,0.52917 0.848872,1.25677 0.308678,0.7276 0.308678,1.55443 0,0.82682 -0.308678,1.55442 -0.308681,0.71658 -0.848872,1.25678 -0.540191,0.52916 -1.267795,0.83784 -0.71658,0.30868 -1.543403,0.30868 -0.826823,0 -1.554427,-0.30868 -0.71658,-0.30868 -1.256771,-0.83784 -0.529166,-0.5402 -0.837847,-1.25678 -0.30868,-0.7276 -0.30868,-1.55442 z m 1.433159,0 q 0,0.51814 0.198438,0.98116 0.198437,0.46302 0.540191,0.80477 0.341753,0.34176 0.804774,0.5402 0.463021,0.19843 0.981163,0.19843 0.518143,0 0.981163,-0.19843 0.463021,-0.19844 0.804775,-0.5402 0.352778,-0.34175 0.551215,-0.80477 0.198438,-0.46302 0.198438,-0.98116 0,-0.51814 -0.198438,-0.98117 -0.198437,-0.46302 -0.551215,-0.80477 -0.341754,-0.35278 -0.804775,-0.55122 -0.46302,-0.20946 -0.981163,-0.20946 -0.518142,0 -0.981163,0.20946 -0.463021,0.19844 -0.804774,0.55122 -0.341754,0.34175 -0.540191,0.80477 -0.198438,0.46303 -0.198438,0.98117 z"
         style="font-style:normal;font-variant:normal;font-weight:normal;font-stretch:normal;font-size:11.02430534px;font-family:'iCiel Brandon Text';-inkscape-font-specification:'iCiel Brandon Text';font-variant-ligatures:normal;font-variant-caps:normal;font-variant-numeric:normal;font-feature-settings:normal;text-align:center;letter-spacing:5.29166651px;writing-mode:lr-tb;text-anchor:middle;fill:#ffffff;fill-opacity:1;stroke-width:0.27560762"
         id="path2293" />
      <path
         d="m 106.79882,213.97594 q 0,-0.0882 0.0551,-0.14332 0.0662,-0.0661 0.15434,-0.0661 h 1.04731 q 0.0882,0 0.14332,0.0661 0.0661,0.0551 0.0661,0.14332 v 4.59713 q 0,0.70556 0.42995,1.14653 0.44097,0.44097 1.16858,0.44097 0.3638,0 0.65043,-0.11024 0.29766,-0.12127 0.50712,-0.33073 0.22049,-0.20946 0.33073,-0.49609 0.12127,-0.28663 0.12127,-0.63941 v -4.60816 q 0,-0.0882 0.0551,-0.14332 0.0661,-0.0661 0.15434,-0.0661 h 1.04731 q 0.0882,0 0.14331,0.0661 0.0661,0.0551 0.0661,0.14332 v 4.6743 q 0,0.62839 -0.24254,1.16858 -0.23151,0.54019 -0.65043,0.93707 -0.4079,0.38585 -0.97014,0.61736 -0.56224,0.22048 -1.21267,0.22048 -0.65044,0 -1.21268,-0.22048 -0.55121,-0.23151 -0.97013,-0.61736 -0.4079,-0.39688 -0.65044,-0.93707 -0.23151,-0.54019 -0.23151,-1.16858 z"
         style="font-style:normal;font-variant:normal;font-weight:normal;font-stretch:normal;font-size:11.02430534px;font-family:'iCiel Brandon Text';-inkscape-font-specification:'iCiel Brandon Text';font-variant-ligatures:normal;font-variant-caps:normal;font-variant-numeric:normal;font-feature-settings:normal;text-align:center;letter-spacing:5.29166651px;writing-mode:lr-tb;text-anchor:middle;fill:#ffffff;fill-opacity:1;stroke-width:0.27560762"
         id="path2295" />
    </g>
  </g>
</svg>
