<?xml version="1.0" encoding="UTF-8" standalone="no"?>
<!-- Created with Inkscape (http://www.inkscape.org/) -->

<svg
   xmlns:dc="http://purl.org/dc/elements/1.1/"
   xmlns:cc="http://creativecommons.org/ns#"
   xmlns:rdf="http://www.w3.org/1999/02/22-rdf-syntax-ns#"
   xmlns:svg="http://www.w3.org/2000/svg"
   xmlns="http://www.w3.org/2000/svg"
   xmlns:sodipodi="http://sodipodi.sourceforge.net/DTD/sodipodi-0.dtd"
   xmlns:inkscape="http://www.inkscape.org/namespaces/inkscape"
   width="600"
   height="600"
   viewBox="0 0 158.75 158.75"
   version="1.1"
   id="svg8"
   sodipodi:docname="Dream-thumb.svg"
   inkscape:version="0.92.3 (2405546, 2018-03-11)">
  <defs
     id="defs2" />
  <sodipodi:namedview
     id="base"
     pagecolor="#ffffff"
     bordercolor="#666666"
     borderopacity="1.0"
     inkscape:pageopacity="0.0"
     inkscape:pageshadow="2"
     inkscape:zoom="0.94333333"
     inkscape:cx="363.07421"
     inkscape:cy="300.00002"
     inkscape:document-units="px"
     inkscape:current-layer="layer1"
     showgrid="false"
     units="px"
     inkscape:snap-page="true"
     inkscape:pagecheckerboard="true"
     inkscape:window-width="1366"
     inkscape:window-height="745"
     inkscape:window-x="-8"
     inkscape:window-y="-8"
     inkscape:window-maximized="1" />
  <metadata
     id="metadata5">
    <rdf:RDF>
      <cc:Work
         rdf:about="">
        <dc:format>image/svg+xml</dc:format>
        <dc:type
           rdf:resource="http://purl.org/dc/dcmitype/StillImage" />
        <dc:title></dc:title>
      </cc:Work>
    </rdf:RDF>
  </metadata>
  <g
     inkscape:label="Layer 1"
     inkscape:groupmode="layer"
     id="layer1"
     transform="translate(0,-138.24999)">
    <rect
       style="opacity:0.25;fill:#ffffff;fill-opacity:1;stroke-width:0.26458332"
       id="rect815"
       width="158.75"
       height="158.75"
       x="0"
       y="138.24998" />
    <g
       aria-label="DREAM"
       style="font-style:normal;font-variant:normal;font-weight:normal;font-stretch:normal;font-size:11.02430534px;line-height:1.25;font-family:sans-serif;-inkscape-font-specification:'sans-serif, Normal';font-variant-ligatures:normal;font-variant-caps:normal;font-variant-numeric:normal;font-feature-settings:normal;text-align:center;letter-spacing:0px;word-spacing:0px;writing-mode:lr-tb;text-anchor:middle;fill:#000000;fill-opacity:1;stroke:none;stroke-width:0.27560762"
       id="text823">
      <path
         d="m 50.238194,213.97594 q 0,-0.0882 0.05512,-0.14332 0.05512,-0.0661 0.143316,-0.0661 h 2.612761 q 0.79375,0 1.499305,0.30868 0.705556,0.29765 1.234722,0.82682 0.529167,0.51814 0.826823,1.2237 0.308681,0.69453 0.308681,1.48828 0,0.80477 -0.308681,1.51033 -0.297656,0.70555 -0.826823,1.23472 -0.529166,0.51814 -1.234722,0.82682 -0.705555,0.29766 -1.499305,0.29766 h -2.612761 q -0.08819,0 -0.143316,-0.0551 -0.05512,-0.0661 -0.05512,-0.15434 z m 2.678906,6.16258 q 0.540191,0 0.992187,-0.17638 0.451997,-0.18742 0.782726,-0.51815 0.330729,-0.33073 0.518142,-0.79375 0.187414,-0.47404 0.187414,-1.03628 0,-0.56224 -0.187414,-1.02526 -0.187413,-0.46302 -0.518142,-0.79375 -0.330729,-0.33073 -0.782726,-0.50712 -0.451996,-0.18741 -0.992187,-0.18741 h -1.256771 v 5.0381 z"
         style="font-style:normal;font-variant:normal;font-weight:normal;font-stretch:normal;font-size:11.02430534px;font-family:'iCiel Brandon Text';-inkscape-font-specification:'iCiel Brandon Text';font-variant-ligatures:normal;font-variant-caps:normal;font-variant-numeric:normal;font-feature-settings:normal;text-align:center;letter-spacing:5.29166651px;writing-mode:lr-tb;text-anchor:middle;fill:#ffffff;fill-opacity:1;stroke-width:0.27560762"
         id="path2311" />
      <path
         d="m 63.625834,213.97594 q 0,-0.0882 0.05512,-0.14332 0.06615,-0.0661 0.154341,-0.0661 h 3.152951 q 0.496094,0 0.926042,0.18741 0.440972,0.18741 0.771701,0.50712 0.330729,0.3197 0.518142,0.74965 0.187413,0.42995 0.187413,0.92604 0,0.38585 -0.121267,0.72761 -0.121267,0.33073 -0.341753,0.61736 -0.209462,0.28663 -0.507118,0.51814 -0.297657,0.22049 -0.661459,0.3638 l 1.51033,2.80018 q 0.05512,0.11024 0,0.22048 -0.0441,0.0992 -0.187413,0.0992 h -1.157552 q -0.07717,0 -0.121268,-0.0331 -0.03307,-0.0331 -0.05512,-0.0662 l -1.466233,-2.92144 h -1.223698 v 2.8112 q 0,0.0882 -0.06615,0.15434 -0.05512,0.0551 -0.143316,0.0551 h -1.014236 q -0.08819,0 -0.154341,-0.0551 -0.05512,-0.0661 -0.05512,-0.15434 z m 3.241146,3.30729 q 0.220486,0 0.418923,-0.0882 0.198438,-0.0882 0.341754,-0.24254 0.15434,-0.15434 0.242534,-0.35278 0.08819,-0.20946 0.08819,-0.44097 0,-0.22049 -0.08819,-0.4079 -0.08819,-0.19844 -0.242534,-0.34175 -0.143316,-0.15434 -0.341754,-0.23151 -0.198437,-0.0882 -0.418923,-0.0882 h -1.796962 v 2.19384 z"
         style="font-style:normal;font-variant:normal;font-weight:normal;font-stretch:normal;font-size:11.02430534px;font-family:'iCiel Brandon Text';-inkscape-font-specification:'iCiel Brandon Text';font-variant-ligatures:normal;font-variant-caps:normal;font-variant-numeric:normal;font-feature-settings:normal;text-align:center;letter-spacing:5.29166651px;writing-mode:lr-tb;text-anchor:middle;fill:#ffffff;fill-opacity:1;stroke-width:0.27560762"
         id="path2313" />
      <path
         d="m 76.195265,213.97594 q 0,-0.0882 0.05512,-0.14332 0.06614,-0.0661 0.15434,-0.0661 h 4.486892 q 0.08819,0 0.143316,0.0661 0.06615,0.0551 0.06615,0.14332 v 0.90399 q 0,0.0882 -0.06615,0.15434 -0.05512,0.0551 -0.143316,0.0551 h -3.263194 v 1.80799 h 2.723003 q 0.08819,0 0.143316,0.0661 0.06615,0.0551 0.06615,0.14332 v 0.91502 q 0,0.0882 -0.06615,0.15434 -0.05512,0.0551 -0.143316,0.0551 h -2.723003 v 1.92925 h 3.263194 q 0.08819,0 0.143316,0.0661 0.06615,0.0551 0.06615,0.14332 v 0.90399 q 0,0.0882 -0.06615,0.15434 -0.05512,0.0551 -0.143316,0.0551 h -4.486892 q -0.08819,0 -0.15434,-0.0551 -0.05512,-0.0661 -0.05512,-0.15434 z"
         style="font-style:normal;font-variant:normal;font-weight:normal;font-stretch:normal;font-size:11.02430534px;font-family:'iCiel Brandon Text';-inkscape-font-specification:'iCiel Brandon Text';font-variant-ligatures:normal;font-variant-caps:normal;font-variant-numeric:normal;font-feature-settings:normal;text-align:center;letter-spacing:5.29166651px;writing-mode:lr-tb;text-anchor:middle;fill:#ffffff;fill-opacity:1;stroke-width:0.27560762"
         id="path2315" />
      <path
         d="m 87.111221,221.48349 q -0.121267,0 -0.187413,-0.0882 -0.05512,-0.0882 0,-0.19844 l 3.428559,-7.41936 q 0.05512,-0.12127 0.187413,-0.12127 h 0.110243 q 0.08819,0 0.121268,0.0331 0.0441,0.0331 0.06615,0.0882 l 3.395486,7.41936 q 0.05512,0.11024 -0.01103,0.19844 -0.05512,0.0882 -0.176389,0.0882 h -0.959114 q -0.121268,0 -0.198438,-0.0441 -0.06615,-0.0551 -0.121267,-0.17639 l -0.540191,-1.19062 h -3.296267 l -0.540191,1.19062 q -0.03307,0.0882 -0.110243,0.15434 -0.07717,0.0661 -0.209462,0.0661 z m 4.575087,-2.63481 -1.10243,-2.42535 h -0.03307 l -1.080382,2.42535 z"
         style="font-style:normal;font-variant:normal;font-weight:normal;font-stretch:normal;font-size:11.02430534px;font-family:'iCiel Brandon Text';-inkscape-font-specification:'iCiel Brandon Text';font-variant-ligatures:normal;font-variant-caps:normal;font-variant-numeric:normal;font-feature-settings:normal;text-align:center;letter-spacing:5.29166651px;writing-mode:lr-tb;text-anchor:middle;fill:#ffffff;fill-opacity:1;stroke-width:0.27560762"
         id="path2317" />
      <path
         d="m 101.38735,213.8216 q 0.011,-0.0661 0.0551,-0.11025 0.0551,-0.0551 0.14331,-0.0551 h 0.17639 q 0.13229,0 0.18741,0.11025 l 2.42535,5.20347 h 0.0331 l 2.42535,-5.20347 q 0.0551,-0.11025 0.18741,-0.11025 h 0.17639 q 0.0882,0 0.13229,0.0551 0.0551,0.0441 0.0662,0.11025 l 1.30087,7.40833 q 0.022,0.12127 -0.0331,0.18741 -0.0551,0.0661 -0.16537,0.0661 h -1.00321 q -0.0772,0 -0.13229,-0.0551 -0.0551,-0.0551 -0.0772,-0.11024 l -0.65044,-4.17822 h -0.0331 l -1.92925,4.33256 q -0.0441,0.12126 -0.18742,0.12126 h -0.19843 q -0.1323,0 -0.18742,-0.12126 l -1.9513,-4.33256 h -0.0331 l -0.63941,4.17822 q -0.011,0.0551 -0.0661,0.11024 -0.0551,0.0551 -0.13229,0.0551 h -0.99219 q -0.24253,0 -0.20946,-0.25356 z"
         style="font-style:normal;font-variant:normal;font-weight:normal;font-stretch:normal;font-size:11.02430534px;font-family:'iCiel Brandon Text';-inkscape-font-specification:'iCiel Brandon Text';font-variant-ligatures:normal;font-variant-caps:normal;font-variant-numeric:normal;font-feature-settings:normal;text-align:center;letter-spacing:5.29166651px;writing-mode:lr-tb;text-anchor:middle;fill:#ffffff;fill-opacity:1;stroke-width:0.27560762"
         id="path2319" />
    </g>
  </g>
</svg>
