<?xml version="1.0" encoding="UTF-8" standalone="no"?>
<!-- Created with Inkscape (http://www.inkscape.org/) -->

<svg
   xmlns:dc="http://purl.org/dc/elements/1.1/"
   xmlns:cc="http://creativecommons.org/ns#"
   xmlns:rdf="http://www.w3.org/1999/02/22-rdf-syntax-ns#"
   xmlns:svg="http://www.w3.org/2000/svg"
   xmlns="http://www.w3.org/2000/svg"
   xmlns:sodipodi="http://sodipodi.sourceforge.net/DTD/sodipodi-0.dtd"
   xmlns:inkscape="http://www.inkscape.org/namespaces/inkscape"
   width="600"
   height="600"
   viewBox="0 0 158.75 158.75"
   version="1.1"
   id="svg8"
   sodipodi:docname="ForElise-thumb.svg"
   inkscape:version="0.92.3 (2405546, 2018-03-11)">
  <defs
     id="defs2" />
  <sodipodi:namedview
     id="base"
     pagecolor="#ffffff"
     bordercolor="#666666"
     borderopacity="1.0"
     inkscape:pageopacity="0.0"
     inkscape:pageshadow="2"
     inkscape:zoom="0.94333333"
     inkscape:cx="363.07421"
     inkscape:cy="300.00002"
     inkscape:document-units="px"
     inkscape:current-layer="layer1"
     showgrid="false"
     units="px"
     inkscape:snap-page="true"
     inkscape:pagecheckerboard="true"
     inkscape:window-width="1366"
     inkscape:window-height="745"
     inkscape:window-x="-8"
     inkscape:window-y="-8"
     inkscape:window-maximized="1" />
  <metadata
     id="metadata5">
    <rdf:RDF>
      <cc:Work
         rdf:about="">
        <dc:format>image/svg+xml</dc:format>
        <dc:type
           rdf:resource="http://purl.org/dc/dcmitype/StillImage" />
        <dc:title></dc:title>
      </cc:Work>
    </rdf:RDF>
  </metadata>
  <g
     inkscape:label="Layer 1"
     inkscape:groupmode="layer"
     id="layer1"
     transform="translate(0,-138.24999)">
    <rect
       style="opacity:0.25;fill:#ffffff;fill-opacity:1;stroke-width:0.26458332"
       id="rect815"
       width="158.75"
       height="158.75"
       x="0"
       y="138.24998" />
    <g
       aria-label="FOR ELISE"
       style="font-style:normal;font-variant:normal;font-weight:normal;font-stretch:normal;font-size:11.02430534px;line-height:1.25;font-family:sans-serif;-inkscape-font-specification:'sans-serif, Normal';font-variant-ligatures:normal;font-variant-caps:normal;font-variant-numeric:normal;font-feature-settings:normal;text-align:center;letter-spacing:0px;word-spacing:0px;writing-mode:lr-tb;text-anchor:middle;fill:#000000;fill-opacity:1;stroke:none;stroke-width:0.27560762"
       id="text823">
      <path
         d="m 38.098236,213.97594 q 0,-0.0882 0.05512,-0.14332 0.06615,-0.0661 0.154341,-0.0661 h 4.486892 q 0.08819,0 0.143316,0.0661 0.06615,0.0551 0.06615,0.14332 v 0.90399 q 0,0.0882 -0.06615,0.15434 -0.05512,0.0551 -0.143316,0.0551 h -3.263195 v 2.07257 h 2.723004 q 0.08819,0 0.143316,0.0661 0.06615,0.0551 0.06615,0.14331 v 0.904 q 0,0.0882 -0.06615,0.15434 -0.05512,0.0551 -0.143316,0.0551 h -2.723004 v 2.78915 q 0,0.0882 -0.06615,0.15434 -0.05512,0.0551 -0.143316,0.0551 h -1.014236 q -0.08819,0 -0.154341,-0.0551 -0.05512,-0.0661 -0.05512,-0.15434 z"
         style="font-style:normal;font-variant:normal;font-weight:normal;font-stretch:normal;font-size:11.02430534px;font-family:'iCiel Brandon Text';-inkscape-font-specification:'iCiel Brandon Text';font-variant-ligatures:normal;font-variant-caps:normal;font-variant-numeric:normal;font-feature-settings:normal;text-align:center;letter-spacing:3.96875px;writing-mode:lr-tb;text-anchor:middle;fill:#ffffff;fill-opacity:1;stroke-width:0.27560762"
         id="path2143" />
      <path
         d="m 47.751565,217.63601 q 0,-0.82683 0.30868,-1.55443 0.308681,-0.7276 0.837848,-1.25677 0.540191,-0.54019 1.25677,-0.84887 0.727605,-0.31971 1.554428,-0.31971 0.826822,0 1.543402,0.31971 0.727604,0.30868 1.267795,0.84887 0.540191,0.52917 0.848872,1.25677 0.30868,0.7276 0.30868,1.55443 0,0.82682 -0.30868,1.55442 -0.308681,0.71658 -0.848872,1.25678 -0.540191,0.52916 -1.267795,0.83784 -0.71658,0.30868 -1.543402,0.30868 -0.826823,0 -1.554428,-0.30868 -0.716579,-0.30868 -1.25677,-0.83784 -0.529167,-0.5402 -0.837848,-1.25678 -0.30868,-0.7276 -0.30868,-1.55442 z m 1.43316,0 q 0,0.51814 0.198437,0.98116 0.198438,0.46302 0.540191,0.80477 0.341754,0.34176 0.804774,0.5402 0.463021,0.19843 0.981164,0.19843 0.518142,0 0.981163,-0.19843 0.463021,-0.19844 0.804774,-0.5402 0.352778,-0.34175 0.551215,-0.80477 0.198438,-0.46302 0.198438,-0.98116 0,-0.51814 -0.198438,-0.98117 -0.198437,-0.46302 -0.551215,-0.80477 -0.341753,-0.35278 -0.804774,-0.55122 -0.463021,-0.20946 -0.981163,-0.20946 -0.518143,0 -0.981164,0.20946 -0.46302,0.19844 -0.804774,0.55122 -0.341753,0.34175 -0.540191,0.80477 -0.198437,0.46303 -0.198437,0.98117 z"
         style="font-style:normal;font-variant:normal;font-weight:normal;font-stretch:normal;font-size:11.02430534px;font-family:'iCiel Brandon Text';-inkscape-font-specification:'iCiel Brandon Text';font-variant-ligatures:normal;font-variant-caps:normal;font-variant-numeric:normal;font-feature-settings:normal;text-align:center;letter-spacing:3.96875px;writing-mode:lr-tb;text-anchor:middle;fill:#ffffff;fill-opacity:1;stroke-width:0.27560762"
         id="path2145" />
      <path
         d="m 61.064964,213.97594 q 0,-0.0882 0.05512,-0.14332 0.06615,-0.0661 0.154341,-0.0661 h 3.152951 q 0.496094,0 0.926042,0.18741 0.440972,0.18741 0.771701,0.50712 0.330729,0.3197 0.518142,0.74965 0.187414,0.42995 0.187414,0.92604 0,0.38585 -0.121268,0.72761 -0.121267,0.33073 -0.341753,0.61736 -0.209462,0.28663 -0.507118,0.51814 -0.297656,0.22049 -0.661459,0.3638 l 1.51033,2.80018 q 0.05512,0.11024 0,0.22048 -0.0441,0.0992 -0.187413,0.0992 h -1.157552 q -0.07717,0 -0.121267,-0.0331 -0.03307,-0.0331 -0.05512,-0.0662 l -1.466232,-2.92144 h -1.223698 v 2.8112 q 0,0.0882 -0.06615,0.15434 -0.05512,0.0551 -0.143316,0.0551 h -1.014236 q -0.08819,0 -0.154341,-0.0551 -0.05512,-0.0661 -0.05512,-0.15434 z m 3.241146,3.30729 q 0.220486,0 0.418923,-0.0882 0.198438,-0.0882 0.341754,-0.24254 0.15434,-0.15434 0.242534,-0.35278 0.08819,-0.20946 0.08819,-0.44097 0,-0.22049 -0.08819,-0.4079 -0.08819,-0.19844 -0.242534,-0.34175 -0.143316,-0.15434 -0.341754,-0.23151 -0.198437,-0.0882 -0.418923,-0.0882 h -1.796962 v 2.19384 z"
         style="font-style:normal;font-variant:normal;font-weight:normal;font-stretch:normal;font-size:11.02430534px;font-family:'iCiel Brandon Text';-inkscape-font-specification:'iCiel Brandon Text';font-variant-ligatures:normal;font-variant-caps:normal;font-variant-numeric:normal;font-feature-settings:normal;text-align:center;letter-spacing:3.96875px;writing-mode:lr-tb;text-anchor:middle;fill:#ffffff;fill-opacity:1;stroke-width:0.27560762"
         id="path2147" />
      <path
         d="m 78.928646,213.97594 q 0,-0.0882 0.05512,-0.14332 0.06615,-0.0661 0.154341,-0.0661 H 83.625 q 0.08819,0 0.143316,0.0661 0.06615,0.0551 0.06615,0.14332 v 0.90399 q 0,0.0882 -0.06615,0.15434 -0.05512,0.0551 -0.143316,0.0551 h -3.263195 v 1.80799 h 2.723004 q 0.08819,0 0.143316,0.0661 0.06615,0.0551 0.06615,0.14332 v 0.91502 q 0,0.0882 -0.06615,0.15434 -0.05512,0.0551 -0.143316,0.0551 h -2.723004 v 1.92925 H 83.625 q 0.08819,0 0.143316,0.0661 0.06615,0.0551 0.06615,0.14332 v 0.90399 q 0,0.0882 -0.06615,0.15434 -0.05512,0.0551 -0.143316,0.0551 h -4.486892 q -0.08819,0 -0.154341,-0.0551 -0.05512,-0.0661 -0.05512,-0.15434 z"
         style="font-style:normal;font-variant:normal;font-weight:normal;font-stretch:normal;font-size:11.02430534px;font-family:'iCiel Brandon Text';-inkscape-font-specification:'iCiel Brandon Text';font-variant-ligatures:normal;font-variant-caps:normal;font-variant-numeric:normal;font-feature-settings:normal;text-align:center;letter-spacing:3.96875px;writing-mode:lr-tb;text-anchor:middle;fill:#ffffff;fill-opacity:1;stroke-width:0.27560762"
         id="path2149" />
      <path
         d="m 89.24929,213.97594 q 0,-0.0882 0.05512,-0.14332 0.06615,-0.0661 0.15434,-0.0661 h 1.014236 q 0.08819,0 0.143316,0.0661 0.06615,0.0551 0.06615,0.14332 v 6.18463 h 2.811198 q 0.08819,0 0.143316,0.0661 0.06614,0.0551 0.06614,0.14332 v 0.90399 q 0,0.0882 -0.06614,0.15434 -0.05512,0.0551 -0.143316,0.0551 h -4.034896 q -0.08819,0 -0.15434,-0.0551 -0.05512,-0.0661 -0.05512,-0.15434 z"
         style="font-style:normal;font-variant:normal;font-weight:normal;font-stretch:normal;font-size:11.02430534px;font-family:'iCiel Brandon Text';-inkscape-font-specification:'iCiel Brandon Text';font-variant-ligatures:normal;font-variant-caps:normal;font-variant-numeric:normal;font-feature-settings:normal;text-align:center;letter-spacing:3.96875px;writing-mode:lr-tb;text-anchor:middle;fill:#ffffff;fill-opacity:1;stroke-width:0.27560762"
         id="path2151" />
      <path
         d="m 98.794788,213.97594 q 0,-0.0882 0.05512,-0.14332 0.06615,-0.0661 0.15434,-0.0661 h 1.02526 q 0.0882,0 0.14332,0.0661 0.0661,0.0551 0.0661,0.14332 v 7.29809 q 0,0.0882 -0.0661,0.15434 -0.0551,0.0551 -0.14332,0.0551 h -1.02526 q -0.08819,0 -0.15434,-0.0551 -0.05512,-0.0661 -0.05512,-0.15434 z"
         style="font-style:normal;font-variant:normal;font-weight:normal;font-stretch:normal;font-size:11.02430534px;font-family:'iCiel Brandon Text';-inkscape-font-specification:'iCiel Brandon Text';font-variant-ligatures:normal;font-variant-caps:normal;font-variant-numeric:normal;font-feature-settings:normal;text-align:center;letter-spacing:3.96875px;writing-mode:lr-tb;text-anchor:middle;fill:#ffffff;fill-opacity:1;stroke-width:0.27560762"
         id="path2153" />
      <path
         d="m 108.18509,221.59373 q -0.51815,0 -0.92604,-0.0992 -0.39688,-0.0882 -0.69454,-0.22048 -0.28663,-0.14332 -0.48507,-0.28663 -0.19843,-0.15434 -0.3197,-0.25356 -0.0882,-0.0661 -0.11024,-0.13229 -0.0221,-0.0661 0.0551,-0.19844 l 0.39687,-0.68351 q 0.0662,-0.12127 0.17639,-0.12127 0.12127,-0.011 0.19844,0.0441 0.34175,0.25356 0.7276,0.47405 0.39688,0.20946 0.93707,0.20946 0.42995,0 0.71658,-0.24254 0.28663,-0.25356 0.28663,-0.60633 0,-0.41893 -0.35278,-0.72761 -0.35277,-0.30868 -1.04731,-0.59531 -0.38585,-0.15434 -0.76067,-0.3638 -0.37483,-0.20946 -0.67249,-0.4961 -0.28663,-0.28663 -0.46302,-0.66145 -0.17638,-0.37483 -0.17638,-0.8599 0,-0.3638 0.14331,-0.73863 0.14332,-0.38585 0.44097,-0.68351 0.29766,-0.30868 0.76068,-0.49609 0.47405,-0.19844 1.1355,-0.19844 0.41893,0 0.78273,0.0992 0.37483,0.0882 0.66146,0.20946 0.28663,0.12127 0.47404,0.24254 0.19844,0.12127 0.28663,0.18741 0.0882,0.0551 0.0992,0.16537 0.022,0.11024 -0.0331,0.19843 l -0.41892,0.62839 q -0.0661,0.0992 -0.17639,0.15434 -0.11024,0.0441 -0.20946,-0.0221 -0.35278,-0.22049 -0.71658,-0.4079 -0.35278,-0.19844 -0.8158,-0.19844 -0.47405,0 -0.72761,0.23151 -0.24253,0.22049 -0.24253,0.5402 0,0.38585 0.30868,0.67248 0.3197,0.28663 0.99219,0.56224 0.39687,0.16536 0.80477,0.37482 0.41893,0.20947 0.74965,0.50712 0.33073,0.28663 0.5402,0.68351 0.20946,0.39687 0.20946,0.92604 0,0.42995 -0.17639,0.82682 -0.17639,0.38585 -0.50712,0.69453 -0.33073,0.29766 -0.80477,0.48507 -0.46302,0.17639 -1.04731,0.17639 z"
         style="font-style:normal;font-variant:normal;font-weight:normal;font-stretch:normal;font-size:11.02430534px;font-family:'iCiel Brandon Text';-inkscape-font-specification:'iCiel Brandon Text';font-variant-ligatures:normal;font-variant-caps:normal;font-variant-numeric:normal;font-feature-settings:normal;text-align:center;letter-spacing:3.96875px;writing-mode:lr-tb;text-anchor:middle;fill:#ffffff;fill-opacity:1;stroke-width:0.27560762"
         id="path2155" />
      <path
         d="m 116.05558,213.97594 q 0,-0.0882 0.0551,-0.14332 0.0662,-0.0661 0.15434,-0.0661 h 4.48689 q 0.0882,0 0.14332,0.0661 0.0661,0.0551 0.0661,0.14332 v 0.90399 q 0,0.0882 -0.0661,0.15434 -0.0551,0.0551 -0.14332,0.0551 h -3.26319 v 1.80799 h 2.723 q 0.0882,0 0.14332,0.0661 0.0661,0.0551 0.0661,0.14332 v 0.91502 q 0,0.0882 -0.0661,0.15434 -0.0551,0.0551 -0.14332,0.0551 h -2.723 v 1.92925 h 3.26319 q 0.0882,0 0.14332,0.0661 0.0661,0.0551 0.0661,0.14332 v 0.90399 q 0,0.0882 -0.0661,0.15434 -0.0551,0.0551 -0.14332,0.0551 h -4.48689 q -0.0882,0 -0.15434,-0.0551 -0.0551,-0.0661 -0.0551,-0.15434 z"
         style="font-style:normal;font-variant:normal;font-weight:normal;font-stretch:normal;font-size:11.02430534px;font-family:'iCiel Brandon Text';-inkscape-font-specification:'iCiel Brandon Text';font-variant-ligatures:normal;font-variant-caps:normal;font-variant-numeric:normal;font-feature-settings:normal;text-align:center;letter-spacing:3.96875px;writing-mode:lr-tb;text-anchor:middle;fill:#ffffff;fill-opacity:1;stroke-width:0.27560762"
         id="path2157" />
    </g>
  </g>
</svg>
