<?xml version="1.0" encoding="UTF-8" standalone="no"?>
<!-- Created with Inkscape (http://www.inkscape.org/) -->

<svg
   xmlns:dc="http://purl.org/dc/elements/1.1/"
   xmlns:cc="http://creativecommons.org/ns#"
   xmlns:rdf="http://www.w3.org/1999/02/22-rdf-syntax-ns#"
   xmlns:svg="http://www.w3.org/2000/svg"
   xmlns="http://www.w3.org/2000/svg"
   xmlns:sodipodi="http://sodipodi.sourceforge.net/DTD/sodipodi-0.dtd"
   xmlns:inkscape="http://www.inkscape.org/namespaces/inkscape"
   width="600"
   height="600"
   viewBox="0 0 158.75 158.75"
   version="1.1"
   id="svg8"
   sodipodi:docname="Indigo-thumb.svg"
   inkscape:version="0.92.3 (2405546, 2018-03-11)">
  <defs
     id="defs2" />
  <sodipodi:namedview
     id="base"
     pagecolor="#ffffff"
     bordercolor="#666666"
     borderopacity="1.0"
     inkscape:pageopacity="0.0"
     inkscape:pageshadow="2"
     inkscape:zoom="0.94333333"
     inkscape:cx="363.07421"
     inkscape:cy="300.00002"
     inkscape:document-units="px"
     inkscape:current-layer="layer1"
     showgrid="false"
     units="px"
     inkscape:snap-page="true"
     inkscape:pagecheckerboard="true"
     inkscape:window-width="1366"
     inkscape:window-height="745"
     inkscape:window-x="-8"
     inkscape:window-y="-8"
     inkscape:window-maximized="1" />
  <metadata
     id="metadata5">
    <rdf:RDF>
      <cc:Work
         rdf:about="">
        <dc:format>image/svg+xml</dc:format>
        <dc:type
           rdf:resource="http://purl.org/dc/dcmitype/StillImage" />
        <dc:title></dc:title>
      </cc:Work>
    </rdf:RDF>
  </metadata>
  <g
     inkscape:label="Layer 1"
     inkscape:groupmode="layer"
     id="layer1"
     transform="translate(0,-138.24999)">
    <rect
       style="opacity:0.25;fill:#ffffff;fill-opacity:1;stroke-width:0.26458332"
       id="rect815"
       width="158.75"
       height="158.75"
       x="0"
       y="138.24998" />
    <g
       aria-label="INDIGO"
       style="font-style:normal;font-variant:normal;font-weight:normal;font-stretch:normal;font-size:11.02430534px;line-height:1.25;font-family:sans-serif;-inkscape-font-specification:'sans-serif, Normal';font-variant-ligatures:normal;font-variant-caps:normal;font-variant-numeric:normal;font-feature-settings:normal;text-align:center;letter-spacing:0px;word-spacing:0px;writing-mode:lr-tb;text-anchor:middle;fill:#000000;fill-opacity:1;stroke:none;stroke-width:0.27560762"
       id="text823">
      <path
         d="m 47.000235,213.97594 q 0,-0.0882 0.05512,-0.14332 0.06615,-0.0661 0.154341,-0.0661 h 1.02526 q 0.08819,0 0.143316,0.0661 0.06615,0.0551 0.06615,0.14332 v 7.29809 q 0,0.0882 -0.06615,0.15434 -0.05512,0.0551 -0.143316,0.0551 h -1.02526 q -0.08819,0 -0.154341,-0.0551 -0.05512,-0.0661 -0.05512,-0.15434 z"
         style="font-style:normal;font-variant:normal;font-weight:normal;font-stretch:normal;font-size:11.02430534px;font-family:'iCiel Brandon Text';-inkscape-font-specification:'iCiel Brandon Text';font-variant-ligatures:normal;font-variant-caps:normal;font-variant-numeric:normal;font-feature-settings:normal;text-align:center;letter-spacing:5.29166651px;writing-mode:lr-tb;text-anchor:middle;fill:#ffffff;fill-opacity:1;stroke-width:0.27560762"
         id="path2298" />
      <path
         d="m 55.607805,213.85467 q 0,-0.0882 0.05512,-0.14332 0.06615,-0.0551 0.15434,-0.0551 h 0.165365 q 0.110243,0 0.187413,0.0772 l 4.497917,4.79558 h 0.02205 v -4.55304 q 0,-0.0882 0.05512,-0.14332 0.06615,-0.0661 0.15434,-0.0661 h 1.014236 q 0.08819,0 0.143316,0.0661 0.06615,0.0551 0.06615,0.14332 v 7.41936 q 0,0.0882 -0.06615,0.14331 -0.05512,0.0551 -0.143316,0.0551 h -0.15434 q -0.110243,0 -0.187413,-0.0772 l -4.519966,-4.98298 h -0.02205 v 4.74045 q 0,0.0882 -0.06615,0.15434 -0.05512,0.0551 -0.143316,0.0551 h -1.003212 q -0.08819,0 -0.15434,-0.0551 -0.05512,-0.0661 -0.05512,-0.15434 z"
         style="font-style:normal;font-variant:normal;font-weight:normal;font-stretch:normal;font-size:11.02430534px;font-family:'iCiel Brandon Text';-inkscape-font-specification:'iCiel Brandon Text';font-variant-ligatures:normal;font-variant-caps:normal;font-variant-numeric:normal;font-feature-settings:normal;text-align:center;letter-spacing:5.29166651px;writing-mode:lr-tb;text-anchor:middle;fill:#ffffff;fill-opacity:1;stroke-width:0.27560762"
         id="path2300" />
      <path
         d="m 69.296892,213.97594 q 0,-0.0882 0.05512,-0.14332 0.05512,-0.0661 0.143316,-0.0661 h 2.61276 q 0.79375,0 1.499306,0.30868 0.705555,0.29765 1.234722,0.82682 0.529167,0.51814 0.826823,1.2237 0.30868,0.69453 0.30868,1.48828 0,0.80477 -0.30868,1.51033 -0.297656,0.70555 -0.826823,1.23472 -0.529167,0.51814 -1.234722,0.82682 -0.705556,0.29766 -1.499306,0.29766 h -2.61276 q -0.08819,0 -0.143316,-0.0551 -0.05512,-0.0661 -0.05512,-0.15434 z m 2.678906,6.16258 q 0.540191,0 0.992188,-0.17638 0.451996,-0.18742 0.782726,-0.51815 0.330729,-0.33073 0.518142,-0.79375 0.187413,-0.47404 0.187413,-1.03628 0,-0.56224 -0.187413,-1.02526 -0.187413,-0.46302 -0.518142,-0.79375 -0.33073,-0.33073 -0.782726,-0.50712 -0.451997,-0.18741 -0.992188,-0.18741 h -1.25677 v 5.0381 z"
         style="font-style:normal;font-variant:normal;font-weight:normal;font-stretch:normal;font-size:11.02430534px;font-family:'iCiel Brandon Text';-inkscape-font-specification:'iCiel Brandon Text';font-variant-ligatures:normal;font-variant-caps:normal;font-variant-numeric:normal;font-feature-settings:normal;text-align:center;letter-spacing:5.29166651px;writing-mode:lr-tb;text-anchor:middle;fill:#ffffff;fill-opacity:1;stroke-width:0.27560762"
         id="path2302" />
      <path
         d="m 82.684534,213.97594 q 0,-0.0882 0.05512,-0.14332 0.06615,-0.0661 0.15434,-0.0661 h 1.02526 q 0.08819,0 0.143316,0.0661 0.06615,0.0551 0.06615,0.14332 v 7.29809 q 0,0.0882 -0.06615,0.15434 -0.05512,0.0551 -0.143316,0.0551 h -1.02526 q -0.08819,0 -0.15434,-0.0551 -0.05512,-0.0661 -0.05512,-0.15434 z"
         style="font-style:normal;font-variant:normal;font-weight:normal;font-stretch:normal;font-size:11.02430534px;font-family:'iCiel Brandon Text';-inkscape-font-specification:'iCiel Brandon Text';font-variant-ligatures:normal;font-variant-caps:normal;font-variant-numeric:normal;font-feature-settings:normal;text-align:center;letter-spacing:5.29166651px;writing-mode:lr-tb;text-anchor:middle;fill:#ffffff;fill-opacity:1;stroke-width:0.27560762"
         id="path2304" />
      <path
         d="m 90.840108,217.63601 q 0,-0.82683 0.308681,-1.55443 0.30868,-0.7276 0.848871,-1.25677 0.540191,-0.54019 1.256771,-0.84887 0.71658,-0.31971 1.543403,-0.31971 0.749653,0 1.43316,0.27561 0.694531,0.26458 1.25677,0.74965 0.06615,0.0661 0.06615,0.15434 0.01103,0.0882 -0.05512,0.15434 l -0.683507,0.71658 q -0.132292,0.1323 -0.286632,0 -0.727604,-0.63941 -1.66467,-0.63941 -0.518143,0 -0.970139,0.20947 -0.451997,0.19843 -0.782726,0.55121 -0.330729,0.35278 -0.529166,0.8158 -0.187414,0.46302 -0.187414,0.98116 0,0.51815 0.187414,0.98117 0.198437,0.45199 0.529166,0.79375 0.341754,0.34175 0.79375,0.55121 0.451997,0.19844 0.970139,0.19844 0.463021,0 0.804774,-0.0992 0.341754,-0.11024 0.507118,-0.17639 v -0.93706 h -0.881944 q -0.08819,0 -0.15434,-0.0551 -0.05512,-0.0551 -0.05512,-0.14331 v -0.87092 q 0,-0.20946 0.209462,-0.20946 h 2.116667 q 0.08819,0 0.143316,0.0661 0.05512,0.0551 0.05512,0.14332 v 2.82222 q 0,0.11024 -0.08819,0.17639 -0.341754,0.20946 -0.771702,0.3638 -0.363802,0.13229 -0.87092,0.24254 -0.496094,0.11024 -1.091406,0.11024 -0.826823,0 -1.543403,-0.30868 -0.71658,-0.30868 -1.256771,-0.83785 -0.540191,-0.52917 -0.848871,-1.24575 -0.308681,-0.7276 -0.308681,-1.55442 z"
         style="font-style:normal;font-variant:normal;font-weight:normal;font-stretch:normal;font-size:11.02430534px;font-family:'iCiel Brandon Text';-inkscape-font-specification:'iCiel Brandon Text';font-variant-ligatures:normal;font-variant-caps:normal;font-variant-numeric:normal;font-feature-settings:normal;text-align:center;letter-spacing:5.29166651px;writing-mode:lr-tb;text-anchor:middle;fill:#ffffff;fill-opacity:1;stroke-width:0.27560762"
         id="path2306" />
      <path
         d="m 104.05549,217.63601 q 0,-0.82683 0.30868,-1.55443 0.30868,-0.7276 0.83785,-1.25677 0.54019,-0.54019 1.25677,-0.84887 0.72761,-0.31971 1.55443,-0.31971 0.82682,0 1.5434,0.31971 0.72761,0.30868 1.2678,0.84887 0.54019,0.52917 0.84887,1.25677 0.30868,0.7276 0.30868,1.55443 0,0.82682 -0.30868,1.55442 -0.30868,0.71658 -0.84887,1.25678 -0.54019,0.52916 -1.2678,0.83784 -0.71658,0.30868 -1.5434,0.30868 -0.82682,0 -1.55443,-0.30868 -0.71658,-0.30868 -1.25677,-0.83784 -0.52917,-0.5402 -0.83785,-1.25678 -0.30868,-0.7276 -0.30868,-1.55442 z m 1.43316,0 q 0,0.51814 0.19844,0.98116 0.19844,0.46302 0.54019,0.80477 0.34176,0.34176 0.80478,0.5402 0.46302,0.19843 0.98116,0.19843 0.51814,0 0.98116,-0.19843 0.46302,-0.19844 0.80478,-0.5402 0.35277,-0.34175 0.55121,-0.80477 0.19844,-0.46302 0.19844,-0.98116 0,-0.51814 -0.19844,-0.98117 -0.19844,-0.46302 -0.55121,-0.80477 -0.34176,-0.35278 -0.80478,-0.55122 -0.46302,-0.20946 -0.98116,-0.20946 -0.51814,0 -0.98116,0.20946 -0.46302,0.19844 -0.80478,0.55122 -0.34175,0.34175 -0.54019,0.80477 -0.19844,0.46303 -0.19844,0.98117 z"
         style="font-style:normal;font-variant:normal;font-weight:normal;font-stretch:normal;font-size:11.02430534px;font-family:'iCiel Brandon Text';-inkscape-font-specification:'iCiel Brandon Text';font-variant-ligatures:normal;font-variant-caps:normal;font-variant-numeric:normal;font-feature-settings:normal;text-align:center;letter-spacing:5.29166651px;writing-mode:lr-tb;text-anchor:middle;fill:#ffffff;fill-opacity:1;stroke-width:0.27560762"
         id="path2308" />
    </g>
  </g>
</svg>
