<?xml version="1.0" encoding="UTF-8" standalone="no"?>
<!-- Created with Inkscape (http://www.inkscape.org/) -->

<svg
   xmlns:dc="http://purl.org/dc/elements/1.1/"
   xmlns:cc="http://creativecommons.org/ns#"
   xmlns:rdf="http://www.w3.org/1999/02/22-rdf-syntax-ns#"
   xmlns:svg="http://www.w3.org/2000/svg"
   xmlns="http://www.w3.org/2000/svg"
   xmlns:sodipodi="http://sodipodi.sourceforge.net/DTD/sodipodi-0.dtd"
   xmlns:inkscape="http://www.inkscape.org/namespaces/inkscape"
   width="600"
   height="600"
   viewBox="0 0 158.75 158.75"
   version="1.1"
   id="svg8"
   sodipodi:docname="KissTheRain-thumb.svg"
   inkscape:version="0.92.3 (2405546, 2018-03-11)">
  <defs
     id="defs2" />
  <sodipodi:namedview
     id="base"
     pagecolor="#ffffff"
     bordercolor="#666666"
     borderopacity="1.0"
     inkscape:pageopacity="0.0"
     inkscape:pageshadow="2"
     inkscape:zoom="0.94333333"
     inkscape:cx="174.38163"
     inkscape:cy="300.00002"
     inkscape:document-units="px"
     inkscape:current-layer="layer1"
     showgrid="false"
     units="px"
     inkscape:snap-page="true"
     inkscape:pagecheckerboard="true"
     inkscape:window-width="1366"
     inkscape:window-height="745"
     inkscape:window-x="-8"
     inkscape:window-y="-8"
     inkscape:window-maximized="1" />
  <metadata
     id="metadata5">
    <rdf:RDF>
      <cc:Work
         rdf:about="">
        <dc:format>image/svg+xml</dc:format>
        <dc:type
           rdf:resource="http://purl.org/dc/dcmitype/StillImage" />
        <dc:title />
      </cc:Work>
    </rdf:RDF>
  </metadata>
  <g
     inkscape:label="Layer 1"
     inkscape:groupmode="layer"
     id="layer1"
     transform="translate(0,-138.24999)">
    <rect
       style="opacity:0.25;fill:#ffffff;fill-opacity:1;stroke-width:0.26458332"
       id="rect815"
       width="158.75"
       height="158.75"
       x="0"
       y="138.24998" />
    <g
       aria-label="KISS THE RAIN"
       style="font-style:normal;font-weight:normal;font-size:11.02430534px;line-height:1.25;font-family:sans-serif;letter-spacing:0px;word-spacing:0px;fill:#000000;fill-opacity:1;stroke:none;stroke-width:0.27560762"
       id="text823"
       transform="translate(3.0444875)">
      <path
         d="m 24.26489,214.03106 q 0,-0.11024 0.06614,-0.18741 0.07717,-0.0772 0.198438,-0.0772 h 0.970139 q 0.110243,0 0.187413,0.0772 0.07717,0.0772 0.07717,0.18741 v 2.97656 l 2.778125,-3.1309 q 0.03307,-0.0441 0.07717,-0.0772 0.05512,-0.0331 0.132292,-0.0331 h 1.10243 q 0.154341,0 0.220487,0.14331 0.06615,0.13229 -0.0441,0.25356 l -2.877343,3.24115 3.086805,3.69314 q 0.0882,0.11024 0.02205,0.25356 -0.05512,0.13229 -0.220486,0.13229 h -1.20165 q -0.08819,0 -0.132291,-0.022 -0.0441,-0.0331 -0.06615,-0.0551 l -2.877344,-3.54983 v 3.36242 q 0,0.11024 -0.07717,0.18741 -0.07717,0.0772 -0.187413,0.0772 h -0.970139 q -0.121267,0 -0.198438,-0.0772 -0.06614,-0.0772 -0.06614,-0.18741 z"
         style="font-style:normal;font-variant:normal;font-weight:normal;font-stretch:normal;font-family:'iCiel Brandon Text';-inkscape-font-specification:'iCiel Brandon Text';letter-spacing:2.64583325px;fill:#ffffff;fill-opacity:1;stroke-width:0.27560762"
         id="path831"
         inkscape:connector-curvature="0" />
      <path
         d="m 33.9947,213.97594 q 0,-0.0882 0.05512,-0.14332 0.06615,-0.0661 0.15434,-0.0661 h 1.025261 q 0.08819,0 0.143315,0.0661 0.06615,0.0551 0.06615,0.14332 v 7.29809 q 0,0.0882 -0.06615,0.15434 -0.05512,0.0551 -0.143315,0.0551 H 34.20416 q -0.08819,0 -0.15434,-0.0551 -0.05512,-0.0661 -0.05512,-0.15434 z"
         style="font-style:normal;font-variant:normal;font-weight:normal;font-stretch:normal;font-family:'iCiel Brandon Text';-inkscape-font-specification:'iCiel Brandon Text';letter-spacing:2.64583325px;fill:#ffffff;fill-opacity:1;stroke-width:0.27560762"
         id="path833"
         inkscape:connector-curvature="0" />
      <path
         d="m 42.06208,221.59373 q -0.518142,0 -0.926041,-0.0992 -0.396875,-0.0882 -0.694532,-0.22048 -0.286632,-0.14332 -0.485069,-0.28663 -0.198438,-0.15434 -0.319705,-0.25356 -0.08819,-0.0661 -0.110243,-0.13229 -0.02205,-0.0661 0.05512,-0.19844 l 0.396875,-0.68351 q 0.06614,-0.12127 0.176388,-0.12127 0.121268,-0.011 0.198438,0.0441 0.341753,0.25356 0.727604,0.47405 0.396875,0.20946 0.937066,0.20946 0.429948,0 0.71658,-0.24254 0.286632,-0.25356 0.286632,-0.60633 0,-0.41893 -0.352778,-0.72761 -0.352778,-0.30868 -1.047309,-0.59531 -0.385851,-0.15434 -0.760677,-0.3638 -0.374826,-0.20946 -0.672483,-0.4961 -0.286632,-0.28663 -0.46302,-0.66145 -0.176389,-0.37483 -0.176389,-0.8599 0,-0.3638 0.143316,-0.73863 0.143316,-0.38585 0.440972,-0.68351 0.297656,-0.30868 0.760677,-0.49609 0.474045,-0.19844 1.135503,-0.19844 0.418924,0 0.782726,0.0992 0.374826,0.0882 0.661458,0.20946 0.286632,0.12127 0.474045,0.24254 0.198438,0.12127 0.286632,0.18741 0.08819,0.0551 0.09922,0.16537 0.02205,0.11024 -0.03307,0.19843 l -0.418923,0.62839 q -0.06615,0.0992 -0.176389,0.15434 -0.110243,0.0441 -0.209462,-0.0221 -0.352778,-0.22049 -0.71658,-0.4079 -0.352778,-0.19844 -0.815798,-0.19844 -0.474046,0 -0.727605,0.23151 -0.242534,0.22049 -0.242534,0.5402 0,0.38585 0.30868,0.67248 0.319705,0.28663 0.992188,0.56224 0.396875,0.16536 0.804774,0.37482 0.418924,0.20947 0.749653,0.50712 0.330729,0.28663 0.540191,0.68351 0.209461,0.39687 0.209461,0.92604 0,0.42995 -0.176388,0.82682 -0.176389,0.38585 -0.507118,0.69453 -0.33073,0.29766 -0.804775,0.48507 -0.463021,0.17639 -1.047309,0.17639 z"
         style="font-style:normal;font-variant:normal;font-weight:normal;font-stretch:normal;font-family:'iCiel Brandon Text';-inkscape-font-specification:'iCiel Brandon Text';letter-spacing:2.64583325px;fill:#ffffff;fill-opacity:1;stroke-width:0.27560762"
         id="path835"
         inkscape:connector-curvature="0" />
      <path
         d="m 50.715299,221.59373 q -0.518143,0 -0.926042,-0.0992 -0.396875,-0.0882 -0.694531,-0.22048 -0.286632,-0.14332 -0.48507,-0.28663 -0.198437,-0.15434 -0.319705,-0.25356 -0.08819,-0.0661 -0.110243,-0.13229 -0.02205,-0.0661 0.05512,-0.19844 l 0.396875,-0.68351 q 0.06615,-0.12127 0.176389,-0.12127 0.121267,-0.011 0.198437,0.0441 0.341754,0.25356 0.727604,0.47405 0.396875,0.20946 0.937066,0.20946 0.429948,0 0.71658,-0.24254 0.286632,-0.25356 0.286632,-0.60633 0,-0.41893 -0.352778,-0.72761 -0.352777,-0.30868 -1.047309,-0.59531 -0.38585,-0.15434 -0.760677,-0.3638 -0.374826,-0.20946 -0.672482,-0.4961 -0.286632,-0.28663 -0.463021,-0.66145 -0.176389,-0.37483 -0.176389,-0.8599 0,-0.3638 0.143316,-0.73863 0.143316,-0.38585 0.440972,-0.68351 0.297656,-0.30868 0.760677,-0.49609 0.474045,-0.19844 1.135504,-0.19844 0.418923,0 0.782725,0.0992 0.374827,0.0882 0.661459,0.20946 0.286632,0.12127 0.474045,0.24254 0.198437,0.12127 0.286632,0.18741 0.08819,0.0551 0.09922,0.16537 0.02205,0.11024 -0.03307,0.19843 l -0.418924,0.62839 q -0.06615,0.0992 -0.176389,0.15434 -0.110243,0.0441 -0.209462,-0.0221 -0.352778,-0.22049 -0.71658,-0.4079 -0.352777,-0.19844 -0.815798,-0.19844 -0.474045,0 -0.727604,0.23151 -0.242535,0.22049 -0.242535,0.5402 0,0.38585 0.30868,0.67248 0.319705,0.28663 0.992188,0.56224 0.396875,0.16536 0.804774,0.37482 0.418924,0.20947 0.749653,0.50712 0.330729,0.28663 0.540191,0.68351 0.209462,0.39687 0.209462,0.92604 0,0.42995 -0.176389,0.82682 -0.176389,0.38585 -0.507118,0.69453 -0.330729,0.29766 -0.804774,0.48507 -0.463021,0.17639 -1.047309,0.17639 z"
         style="font-style:normal;font-variant:normal;font-weight:normal;font-stretch:normal;font-family:'iCiel Brandon Text';-inkscape-font-specification:'iCiel Brandon Text';letter-spacing:2.64583325px;fill:#ffffff;fill-opacity:1;stroke-width:0.27560762"
         id="path837"
         inkscape:connector-curvature="0" />
      <path
         d="m 63.479893,215.08939 h -1.686718 q -0.08819,0 -0.154341,-0.0551 -0.05512,-0.0661 -0.05512,-0.15434 v -0.90399 q 0,-0.0882 0.05512,-0.14332 0.06615,-0.0661 0.154341,-0.0661 h 4.817621 q 0.0882,0 0.143316,0.0661 0.06615,0.0551 0.06615,0.14332 v 0.90399 q 0,0.0882 -0.06615,0.15434 -0.05512,0.0551 -0.143316,0.0551 h -1.686719 v 6.18464 q 0,0.0882 -0.06614,0.15434 -0.05512,0.0551 -0.143316,0.0551 H 63.68936 q -0.08819,0 -0.15434,-0.0551 -0.05512,-0.0661 -0.05512,-0.15434 z"
         style="font-style:normal;font-variant:normal;font-weight:normal;font-stretch:normal;font-family:'iCiel Brandon Text';-inkscape-font-specification:'iCiel Brandon Text';letter-spacing:2.64583325px;fill:#ffffff;fill-opacity:1;stroke-width:0.27560762"
         id="path839"
         inkscape:connector-curvature="0" />
      <path
         d="m 70.693578,213.97594 q 0,-0.0882 0.05512,-0.14332 0.06615,-0.0661 0.15434,-0.0661 H 71.9283 q 0.08819,0 0.143316,0.0661 0.06615,0.0551 0.06615,0.14332 v 2.92144 h 3.593923 v -2.92144 q 0,-0.0882 0.05512,-0.14332 0.06615,-0.0661 0.15434,-0.0661 h 1.014236 q 0.08819,0 0.143316,0.0661 0.06615,0.0551 0.06615,0.14332 v 7.29809 q 0,0.0882 -0.06615,0.15434 -0.05512,0.0551 -0.143316,0.0551 h -1.014236 q -0.08819,0 -0.15434,-0.0551 -0.05512,-0.0661 -0.05512,-0.15434 v -3.04271 h -3.593923 v 3.04271 q 0,0.0882 -0.06615,0.15434 -0.05512,0.0551 -0.143316,0.0551 h -1.025261 q -0.08819,0 -0.15434,-0.0551 -0.05512,-0.0661 -0.05512,-0.15434 z"
         style="font-style:normal;font-variant:normal;font-weight:normal;font-stretch:normal;font-family:'iCiel Brandon Text';-inkscape-font-specification:'iCiel Brandon Text';letter-spacing:2.64583325px;fill:#ffffff;fill-opacity:1;stroke-width:0.27560762"
         id="path841"
         inkscape:connector-curvature="0" />
      <path
         d="m 81.693768,213.97594 q 0,-0.0882 0.05512,-0.14332 0.06615,-0.0661 0.15434,-0.0661 h 4.486892 q 0.08819,0 0.143316,0.0661 0.06615,0.0551 0.06615,0.14332 v 0.90399 q 0,0.0882 -0.06615,0.15434 -0.05512,0.0551 -0.143316,0.0551 h -3.263194 v 1.80799 h 2.723003 q 0.08819,0 0.143316,0.0661 0.06615,0.0551 0.06615,0.14332 v 0.91502 q 0,0.0882 -0.06615,0.15434 -0.05512,0.0551 -0.143316,0.0551 h -2.723003 v 1.92925 h 3.263194 q 0.08819,0 0.143316,0.0661 0.06615,0.0551 0.06615,0.14332 v 0.90399 q 0,0.0882 -0.06615,0.15434 -0.05512,0.0551 -0.143316,0.0551 h -4.48689 q -0.08819,0 -0.15434,-0.0551 -0.05512,-0.0661 -0.05512,-0.15434 z"
         style="font-style:normal;font-variant:normal;font-weight:normal;font-stretch:normal;font-family:'iCiel Brandon Text';-inkscape-font-specification:'iCiel Brandon Text';letter-spacing:2.64583325px;fill:#ffffff;fill-opacity:1;stroke-width:0.27560762"
         id="path843"
         inkscape:connector-curvature="0" />
      <path
         d="m 95.985745,213.97594 q 0,-0.0882 0.05512,-0.14332 0.06615,-0.0661 0.15434,-0.0661 h 3.152951 q 0.496094,0 0.926044,0.18741 0.44097,0.18741 0.7717,0.50712 0.33073,0.3197 0.51814,0.74965 0.18742,0.42995 0.18742,0.92604 0,0.38585 -0.12127,0.72761 -0.12127,0.33073 -0.34175,0.61736 -0.20947,0.28663 -0.50712,0.51814 -0.29766,0.22049 -0.66146,0.3638 l 1.51033,2.80018 q 0.0551,0.11024 0,0.22048 -0.0441,0.0992 -0.18741,0.0992 h -1.15756 q -0.0772,0 -0.12126,-0.0331 -0.0331,-0.0331 -0.0551,-0.0662 l -1.466239,-2.92144 h -1.223698 v 2.8112 q 0,0.0882 -0.06615,0.15434 -0.05512,0.0551 -0.143316,0.0551 h -1.014236 q -0.08819,0 -0.15434,-0.0551 -0.05512,-0.0661 -0.05512,-0.15434 z m 3.241146,3.30729 q 0.220486,0 0.418924,-0.0882 0.198437,-0.0882 0.341753,-0.24254 0.154342,-0.15434 0.242532,-0.35278 0.0882,-0.20946 0.0882,-0.44097 0,-0.22049 -0.0882,-0.4079 -0.0882,-0.19844 -0.242532,-0.34175 -0.143316,-0.15434 -0.341753,-0.23151 -0.198438,-0.0882 -0.418924,-0.0882 h -1.796962 v 2.19384 z"
         style="font-style:normal;font-variant:normal;font-weight:normal;font-stretch:normal;font-family:'iCiel Brandon Text';-inkscape-font-specification:'iCiel Brandon Text';letter-spacing:2.64583325px;fill:#ffffff;fill-opacity:1;stroke-width:0.27560762"
         id="path845"
         inkscape:connector-curvature="0" />
      <path
         d="m 105.18174,221.48349 q -0.12127,0 -0.18741,-0.0882 -0.0551,-0.0882 0,-0.19844 l 3.42856,-7.41936 q 0.0551,-0.12127 0.18741,-0.12127 h 0.11024 q 0.0882,0 0.12127,0.0331 0.0441,0.0331 0.0662,0.0882 l 3.39548,7.41936 q 0.0551,0.11024 -0.011,0.19844 -0.0551,0.0882 -0.17639,0.0882 h -0.95912 q -0.12126,0 -0.19843,-0.0441 -0.0661,-0.0551 -0.12127,-0.17639 l -0.54019,-1.19062 h -3.29627 l -0.54019,1.19062 q -0.0331,0.0882 -0.11024,0.15434 -0.0772,0.0661 -0.20947,0.0661 z m 4.57509,-2.63481 -1.10243,-2.42535 h -0.0331 l -1.08038,2.42535 z"
         style="font-style:normal;font-variant:normal;font-weight:normal;font-stretch:normal;font-family:'iCiel Brandon Text';-inkscape-font-specification:'iCiel Brandon Text';letter-spacing:2.64583325px;fill:#ffffff;fill-opacity:1;stroke-width:0.27560762"
         id="path847"
         inkscape:connector-curvature="0" />
      <path
         d="m 115.91907,213.97594 q 0,-0.0882 0.0551,-0.14332 0.0662,-0.0661 0.15434,-0.0661 h 1.02526 q 0.0882,0 0.14332,0.0661 0.0661,0.0551 0.0661,0.14332 v 7.29809 q 0,0.0882 -0.0661,0.15434 -0.0551,0.0551 -0.14332,0.0551 h -1.02526 q -0.0882,0 -0.15434,-0.0551 -0.0551,-0.0661 -0.0551,-0.15434 z"
         style="font-style:normal;font-variant:normal;font-weight:normal;font-stretch:normal;font-family:'iCiel Brandon Text';-inkscape-font-specification:'iCiel Brandon Text';letter-spacing:2.64583325px;fill:#ffffff;fill-opacity:1;stroke-width:0.27560762"
         id="path849"
         inkscape:connector-curvature="0" />
      <path
         d="m 121.88081,213.85467 q 0,-0.0882 0.0551,-0.14332 0.0662,-0.0551 0.15434,-0.0551 h 0.16537 q 0.11024,0 0.18741,0.0772 l 4.49792,4.79558 h 0.0221 v -4.55304 q 0,-0.0882 0.0551,-0.14332 0.0661,-0.0661 0.15434,-0.0661 h 1.01423 q 0.0882,0 0.14332,0.0661 0.0661,0.0551 0.0661,0.14332 v 7.41936 q 0,0.0882 -0.0661,0.14331 -0.0551,0.0551 -0.14332,0.0551 h -0.15434 q -0.11024,0 -0.18741,-0.0772 l -4.51997,-4.98298 h -0.022 v 4.74045 q 0,0.0882 -0.0661,0.15434 -0.0551,0.0551 -0.14332,0.0551 h -1.00321 q -0.0882,0 -0.15434,-0.0551 -0.0551,-0.0661 -0.0551,-0.15434 z"
         style="font-style:normal;font-variant:normal;font-weight:normal;font-stretch:normal;font-family:'iCiel Brandon Text';-inkscape-font-specification:'iCiel Brandon Text';letter-spacing:2.64583325px;fill:#ffffff;fill-opacity:1;stroke-width:0.27560762"
         id="path851"
         inkscape:connector-curvature="0" />
    </g>
  </g>
</svg>
