<?xml version="1.0" encoding="UTF-8" standalone="no"?>
<!-- Created with Inkscape (http://www.inkscape.org/) -->

<svg
   xmlns:dc="http://purl.org/dc/elements/1.1/"
   xmlns:cc="http://creativecommons.org/ns#"
   xmlns:rdf="http://www.w3.org/1999/02/22-rdf-syntax-ns#"
   xmlns:svg="http://www.w3.org/2000/svg"
   xmlns="http://www.w3.org/2000/svg"
   xmlns:sodipodi="http://sodipodi.sourceforge.net/DTD/sodipodi-0.dtd"
   xmlns:inkscape="http://www.inkscape.org/namespaces/inkscape"
   width="600"
   height="600"
   viewBox="0 0 158.75 158.75"
   version="1.1"
   id="svg8"
   sodipodi:docname="LoveHurt-thumb.svg"
   inkscape:version="0.92.3 (2405546, 2018-03-11)">
  <defs
     id="defs2" />
  <sodipodi:namedview
     id="base"
     pagecolor="#ffffff"
     bordercolor="#666666"
     borderopacity="1.0"
     inkscape:pageopacity="0.0"
     inkscape:pageshadow="2"
     inkscape:zoom="0.94333333"
     inkscape:cx="363.07421"
     inkscape:cy="300.00002"
     inkscape:document-units="px"
     inkscape:current-layer="layer1"
     showgrid="false"
     units="px"
     inkscape:snap-page="true"
     inkscape:pagecheckerboard="true"
     inkscape:window-width="1366"
     inkscape:window-height="745"
     inkscape:window-x="-8"
     inkscape:window-y="-8"
     inkscape:window-maximized="1" />
  <metadata
     id="metadata5">
    <rdf:RDF>
      <cc:Work
         rdf:about="">
        <dc:format>image/svg+xml</dc:format>
        <dc:type
           rdf:resource="http://purl.org/dc/dcmitype/StillImage" />
        <dc:title></dc:title>
      </cc:Work>
    </rdf:RDF>
  </metadata>
  <g
     inkscape:label="Layer 1"
     inkscape:groupmode="layer"
     id="layer1"
     transform="translate(0,-138.24999)">
    <rect
       style="opacity:0.25;fill:#ffffff;fill-opacity:1;stroke-width:0.26458332"
       id="rect815"
       width="158.75"
       height="158.75"
       x="0"
       y="138.24998" />
    <g
       aria-label="LOVE HURT"
       style="font-style:normal;font-variant:normal;font-weight:normal;font-stretch:normal;font-size:11.02430534px;line-height:1.25;font-family:sans-serif;-inkscape-font-specification:'sans-serif, Normal';font-variant-ligatures:normal;font-variant-caps:normal;font-variant-numeric:normal;font-feature-settings:normal;text-align:center;letter-spacing:0px;word-spacing:0px;writing-mode:lr-tb;text-anchor:middle;fill:#000000;fill-opacity:1;stroke:none;stroke-width:0.27560762"
       id="text823">
      <path
         d="m 37.698949,213.97594 q 0,-0.0882 0.05512,-0.14332 0.06615,-0.0661 0.15434,-0.0661 h 1.014236 q 0.08819,0 0.143316,0.0661 0.06615,0.0551 0.06615,0.14332 v 6.18463 h 2.811198 q 0.08819,0 0.143316,0.0661 0.06615,0.0551 0.06615,0.14332 v 0.90399 q 0,0.0882 -0.06615,0.15434 -0.05512,0.0551 -0.143316,0.0551 h -4.034896 q -0.08819,0 -0.15434,-0.0551 -0.05512,-0.0661 -0.05512,-0.15434 z"
         style="font-style:normal;font-variant:normal;font-weight:normal;font-stretch:normal;font-size:11.02430534px;font-family:'iCiel Brandon Text';-inkscape-font-specification:'iCiel Brandon Text';font-variant-ligatures:normal;font-variant-caps:normal;font-variant-numeric:normal;font-feature-settings:normal;text-align:center;letter-spacing:3.17499995px;writing-mode:lr-tb;text-anchor:middle;fill:#ffffff;fill-opacity:1;stroke-width:0.27560762"
         id="path2011" />
      <path
         d="m 45.804914,217.63601 q 0,-0.82683 0.308681,-1.55443 0.30868,-0.7276 0.837847,-1.25677 0.540191,-0.54019 1.256771,-0.84887 0.727604,-0.31971 1.554427,-0.31971 0.826823,0 1.543403,0.31971 0.727604,0.30868 1.267795,0.84887 0.540191,0.52917 0.848871,1.25677 0.308681,0.7276 0.308681,1.55443 0,0.82682 -0.308681,1.55442 -0.30868,0.71658 -0.848871,1.25678 -0.540191,0.52916 -1.267795,0.83784 -0.71658,0.30868 -1.543403,0.30868 -0.826823,0 -1.554427,-0.30868 -0.71658,-0.30868 -1.256771,-0.83784 -0.529167,-0.5402 -0.837847,-1.25678 -0.308681,-0.7276 -0.308681,-1.55442 z m 1.43316,0 q 0,0.51814 0.198438,0.98116 0.198437,0.46302 0.540191,0.80477 0.341753,0.34176 0.804774,0.5402 0.463021,0.19843 0.981163,0.19843 0.518142,0 0.981163,-0.19843 0.463021,-0.19844 0.804774,-0.5402 0.352778,-0.34175 0.551216,-0.80477 0.198437,-0.46302 0.198437,-0.98116 0,-0.51814 -0.198437,-0.98117 -0.198438,-0.46302 -0.551216,-0.80477 -0.341753,-0.35278 -0.804774,-0.55122 -0.463021,-0.20946 -0.981163,-0.20946 -0.518142,0 -0.981163,0.20946 -0.463021,0.19844 -0.804774,0.55122 -0.341754,0.34175 -0.540191,0.80477 -0.198438,0.46303 -0.198438,0.98117 z"
         style="font-style:normal;font-variant:normal;font-weight:normal;font-stretch:normal;font-size:11.02430534px;font-family:'iCiel Brandon Text';-inkscape-font-specification:'iCiel Brandon Text';font-variant-ligatures:normal;font-variant-caps:normal;font-variant-numeric:normal;font-feature-settings:normal;text-align:center;letter-spacing:3.17499995px;writing-mode:lr-tb;text-anchor:middle;fill:#ffffff;fill-opacity:1;stroke-width:0.27560762"
         id="path2013" />
      <path
         d="m 57.204735,214.05311 q -0.05512,-0.11024 0,-0.19844 0.06615,-0.0882 0.187414,-0.0882 h 1.124479 q 0.07717,0 0.121267,0.0441 0.0441,0.0331 0.06615,0.0772 l 2.127691,4.74045 h 0.05512 l 2.127691,-4.74045 q 0.02205,-0.0441 0.06615,-0.0772 0.0441,-0.0441 0.121267,-0.0441 h 1.12448 q 0.121267,0 0.176388,0.0882 0.06615,0.0882 0.01103,0.19844 l -3.417535,7.41936 q -0.06615,0.12126 -0.187413,0.12126 h -0.110243 q -0.132292,0 -0.187413,-0.12126 z"
         style="font-style:normal;font-variant:normal;font-weight:normal;font-stretch:normal;font-size:11.02430534px;font-family:'iCiel Brandon Text';-inkscape-font-specification:'iCiel Brandon Text';font-variant-ligatures:normal;font-variant-caps:normal;font-variant-numeric:normal;font-feature-settings:normal;text-align:center;letter-spacing:3.17499995px;writing-mode:lr-tb;text-anchor:middle;fill:#ffffff;fill-opacity:1;stroke-width:0.27560762"
         id="path2015" />
      <path
         d="m 68.626606,213.97594 q 0,-0.0882 0.05512,-0.14332 0.06615,-0.0661 0.15434,-0.0661 h 4.486893 q 0.08819,0 0.143316,0.0661 0.06615,0.0551 0.06615,0.14332 v 0.90399 q 0,0.0882 -0.06615,0.15434 -0.05512,0.0551 -0.143316,0.0551 h -3.263195 v 1.80799 h 2.723004 q 0.08819,0 0.143316,0.0661 0.06615,0.0551 0.06615,0.14332 v 0.91502 q 0,0.0882 -0.06615,0.15434 -0.05512,0.0551 -0.143316,0.0551 h -2.723004 v 1.92925 h 3.263195 q 0.08819,0 0.143316,0.0661 0.06615,0.0551 0.06615,0.14332 v 0.90399 q 0,0.0882 -0.06615,0.15434 -0.05512,0.0551 -0.143316,0.0551 h -4.486893 q -0.08819,0 -0.15434,-0.0551 -0.05512,-0.0661 -0.05512,-0.15434 z"
         style="font-style:normal;font-variant:normal;font-weight:normal;font-stretch:normal;font-size:11.02430534px;font-family:'iCiel Brandon Text';-inkscape-font-specification:'iCiel Brandon Text';font-variant-ligatures:normal;font-variant-caps:normal;font-variant-numeric:normal;font-feature-settings:normal;text-align:center;letter-spacing:3.17499995px;writing-mode:lr-tb;text-anchor:middle;fill:#ffffff;fill-opacity:1;stroke-width:0.27560762"
         id="path2017" />
      <path
         d="m 83.976915,213.97594 q 0,-0.0882 0.05512,-0.14332 0.06615,-0.0661 0.154341,-0.0661 h 1.02526 q 0.08819,0 0.143316,0.0661 0.06615,0.0551 0.06615,0.14332 v 2.92144 h 3.593924 v -2.92144 q 0,-0.0882 0.05512,-0.14332 0.06615,-0.0661 0.15434,-0.0661 h 1.014236 q 0.08819,0 0.143316,0.0661 0.06615,0.0551 0.06615,0.14332 v 7.29809 q 0,0.0882 -0.06615,0.15434 -0.05512,0.0551 -0.143316,0.0551 h -1.014236 q -0.08819,0 -0.15434,-0.0551 -0.05512,-0.0661 -0.05512,-0.15434 v -3.04271 h -3.593924 v 3.04271 q 0,0.0882 -0.06615,0.15434 -0.05512,0.0551 -0.143316,0.0551 h -1.02526 q -0.08819,0 -0.154341,-0.0551 -0.05512,-0.0661 -0.05512,-0.15434 z"
         style="font-style:normal;font-variant:normal;font-weight:normal;font-stretch:normal;font-size:11.02430534px;font-family:'iCiel Brandon Text';-inkscape-font-specification:'iCiel Brandon Text';font-variant-ligatures:normal;font-variant-caps:normal;font-variant-numeric:normal;font-feature-settings:normal;text-align:center;letter-spacing:3.17499995px;writing-mode:lr-tb;text-anchor:middle;fill:#ffffff;fill-opacity:1;stroke-width:0.27560762"
         id="path2019" />
      <path
         d="m 95.429103,213.97594 q 0,-0.0882 0.05512,-0.14332 0.06615,-0.0661 0.154341,-0.0661 h 1.047309 q 0.08819,0 0.143316,0.0661 0.06615,0.0551 0.06615,0.14332 v 4.59713 q 0,0.70556 0.429948,1.14653 0.440972,0.44097 1.168577,0.44097 0.363802,0 0.650434,-0.11024 0.297656,-0.12127 0.507118,-0.33073 0.220486,-0.20946 0.330729,-0.49609 0.121269,-0.28663 0.121269,-0.63941 v -4.60816 q 0,-0.0882 0.0551,-0.14332 0.0662,-0.0661 0.15434,-0.0661 h 1.04731 q 0.0882,0 0.14331,0.0661 0.0662,0.0551 0.0662,0.14332 v 4.6743 q 0,0.62839 -0.24253,1.16858 -0.23151,0.54019 -0.65044,0.93707 -0.4079,0.38585 -0.970137,0.61736 -0.562239,0.22048 -1.212673,0.22048 -0.650434,0 -1.212674,-0.22048 -0.551215,-0.23151 -0.970139,-0.61736 -0.407899,-0.39688 -0.650434,-0.93707 -0.23151,-0.54019 -0.23151,-1.16858 z"
         style="font-style:normal;font-variant:normal;font-weight:normal;font-stretch:normal;font-size:11.02430534px;font-family:'iCiel Brandon Text';-inkscape-font-specification:'iCiel Brandon Text';font-variant-ligatures:normal;font-variant-caps:normal;font-variant-numeric:normal;font-feature-settings:normal;text-align:center;letter-spacing:3.17499995px;writing-mode:lr-tb;text-anchor:middle;fill:#ffffff;fill-opacity:1;stroke-width:0.27560762"
         id="path2021" />
      <path
         d="m 106.5404,213.97594 q 0,-0.0882 0.0551,-0.14332 0.0661,-0.0661 0.15434,-0.0661 h 3.15295 q 0.49609,0 0.92604,0.18741 0.44097,0.18741 0.7717,0.50712 0.33073,0.3197 0.51814,0.74965 0.18742,0.42995 0.18742,0.92604 0,0.38585 -0.12127,0.72761 -0.12127,0.33073 -0.34175,0.61736 -0.20947,0.28663 -0.50712,0.51814 -0.29766,0.22049 -0.66146,0.3638 l 1.51033,2.80018 q 0.0551,0.11024 0,0.22048 -0.0441,0.0992 -0.18741,0.0992 h -1.15756 q -0.0772,0 -0.12126,-0.0331 -0.0331,-0.0331 -0.0551,-0.0662 l -1.46624,-2.92144 h -1.22369 v 2.8112 q 0,0.0882 -0.0662,0.15434 -0.0551,0.0551 -0.14332,0.0551 h -1.01423 q -0.0882,0 -0.15434,-0.0551 -0.0551,-0.0661 -0.0551,-0.15434 z m 3.24114,3.30729 q 0.22049,0 0.41892,-0.0882 0.19844,-0.0882 0.34176,-0.24254 0.15434,-0.15434 0.24253,-0.35278 0.0882,-0.20946 0.0882,-0.44097 0,-0.22049 -0.0882,-0.4079 -0.0882,-0.19844 -0.24253,-0.34175 -0.14332,-0.15434 -0.34176,-0.23151 -0.19843,-0.0882 -0.41892,-0.0882 h -1.79696 v 2.19384 z"
         style="font-style:normal;font-variant:normal;font-weight:normal;font-stretch:normal;font-size:11.02430534px;font-family:'iCiel Brandon Text';-inkscape-font-specification:'iCiel Brandon Text';font-variant-ligatures:normal;font-variant-caps:normal;font-variant-numeric:normal;font-feature-settings:normal;text-align:center;letter-spacing:3.17499995px;writing-mode:lr-tb;text-anchor:middle;fill:#ffffff;fill-opacity:1;stroke-width:0.27560762"
         id="path2023" />
      <path
         d="m 118.23891,215.08939 h -1.68672 q -0.0882,0 -0.15434,-0.0551 -0.0551,-0.0661 -0.0551,-0.15434 v -0.90399 q 0,-0.0882 0.0551,-0.14332 0.0661,-0.0661 0.15434,-0.0661 h 4.81762 q 0.0882,0 0.14332,0.0661 0.0661,0.0551 0.0661,0.14332 v 0.90399 q 0,0.0882 -0.0661,0.15434 -0.0551,0.0551 -0.14332,0.0551 h -1.68672 v 6.18464 q 0,0.0882 -0.0661,0.15434 -0.0551,0.0551 -0.14332,0.0551 h -1.02526 q -0.0882,0 -0.15434,-0.0551 -0.0551,-0.0661 -0.0551,-0.15434 z"
         style="font-style:normal;font-variant:normal;font-weight:normal;font-stretch:normal;font-size:11.02430534px;font-family:'iCiel Brandon Text';-inkscape-font-specification:'iCiel Brandon Text';font-variant-ligatures:normal;font-variant-caps:normal;font-variant-numeric:normal;font-feature-settings:normal;text-align:center;letter-spacing:3.17499995px;writing-mode:lr-tb;text-anchor:middle;fill:#ffffff;fill-opacity:1;stroke-width:0.27560762"
         id="path2025" />
    </g>
  </g>
</svg>
