<?xml version="1.0" encoding="UTF-8" standalone="no"?>
<!-- Created with Inkscape (http://www.inkscape.org/) -->

<svg
   xmlns:dc="http://purl.org/dc/elements/1.1/"
   xmlns:cc="http://creativecommons.org/ns#"
   xmlns:rdf="http://www.w3.org/1999/02/22-rdf-syntax-ns#"
   xmlns:svg="http://www.w3.org/2000/svg"
   xmlns="http://www.w3.org/2000/svg"
   xmlns:sodipodi="http://sodipodi.sourceforge.net/DTD/sodipodi-0.dtd"
   xmlns:inkscape="http://www.inkscape.org/namespaces/inkscape"
   width="600"
   height="600"
   viewBox="0 0 158.75 158.75"
   version="1.1"
   id="svg8"
   sodipodi:docname="Maybe-thumb.svg"
   inkscape:version="0.92.3 (2405546, 2018-03-11)">
  <defs
     id="defs2" />
  <sodipodi:namedview
     id="base"
     pagecolor="#ffffff"
     bordercolor="#666666"
     borderopacity="1.0"
     inkscape:pageopacity="0.0"
     inkscape:pageshadow="2"
     inkscape:zoom="0.94333333"
     inkscape:cx="363.07421"
     inkscape:cy="300.00002"
     inkscape:document-units="px"
     inkscape:current-layer="layer1"
     showgrid="false"
     units="px"
     inkscape:snap-page="true"
     inkscape:pagecheckerboard="true"
     inkscape:window-width="1366"
     inkscape:window-height="745"
     inkscape:window-x="-8"
     inkscape:window-y="-8"
     inkscape:window-maximized="1" />
  <metadata
     id="metadata5">
    <rdf:RDF>
      <cc:Work
         rdf:about="">
        <dc:format>image/svg+xml</dc:format>
        <dc:type
           rdf:resource="http://purl.org/dc/dcmitype/StillImage" />
        <dc:title></dc:title>
      </cc:Work>
    </rdf:RDF>
  </metadata>
  <g
     inkscape:label="Layer 1"
     inkscape:groupmode="layer"
     id="layer1"
     transform="translate(0,-138.24999)">
    <rect
       style="opacity:0.25;fill:#ffffff;fill-opacity:1;stroke-width:0.26458332"
       id="rect815"
       width="158.75"
       height="158.75"
       x="0"
       y="138.24998" />
    <g
       aria-label="MAYBE"
       style="font-style:normal;font-variant:normal;font-weight:normal;font-stretch:normal;font-size:11.02430534px;line-height:1.25;font-family:sans-serif;-inkscape-font-specification:'sans-serif, Normal';font-variant-ligatures:normal;font-variant-caps:normal;font-variant-numeric:normal;font-feature-settings:normal;text-align:center;letter-spacing:0px;word-spacing:0px;writing-mode:lr-tb;text-anchor:middle;fill:#000000;fill-opacity:1;stroke:none;stroke-width:0.27560762"
       id="text823">
      <path
         d="m 52.519967,213.8216 q 0.01102,-0.0661 0.05512,-0.11025 0.05512,-0.0551 0.143316,-0.0551 h 0.176389 q 0.132292,0 0.187413,0.11025 l 2.425347,5.20347 h 0.03307 l 2.425347,-5.20347 q 0.05512,-0.11025 0.187414,-0.11025 h 0.176389 q 0.08819,0 0.132291,0.0551 0.05512,0.0441 0.06615,0.11025 l 1.300868,7.40833 q 0.02205,0.12127 -0.03307,0.18741 -0.05512,0.0661 -0.165364,0.0661 h -1.003212 q -0.07717,0 -0.132292,-0.0551 -0.05512,-0.0551 -0.07717,-0.11024 l -0.650434,-4.17822 h -0.03307 l -1.929253,4.33256 q -0.0441,0.12126 -0.187414,0.12126 h -0.198437 q -0.132292,0 -0.187413,-0.12126 l -1.951302,-4.33256 h -0.03307 l -0.63941,4.17822 q -0.01102,0.0551 -0.06615,0.11024 -0.05512,0.0551 -0.132291,0.0551 h -0.992188 q -0.242535,0 -0.209462,-0.25356 z"
         style="font-style:normal;font-variant:normal;font-weight:normal;font-stretch:normal;font-size:11.02430534px;font-family:'iCiel Brandon Text';-inkscape-font-specification:'iCiel Brandon Text';font-variant-ligatures:normal;font-variant-caps:normal;font-variant-numeric:normal;font-feature-settings:normal;text-align:center;letter-spacing:5.29166651px;writing-mode:lr-tb;text-anchor:middle;fill:#ffffff;fill-opacity:1;stroke-width:0.27560762"
         id="path2276" />
      <path
         d="m 65.858859,221.48349 q -0.121268,0 -0.187413,-0.0882 -0.05512,-0.0882 0,-0.19844 l 3.428558,-7.41936 q 0.05512,-0.12127 0.187414,-0.12127 h 0.110243 q 0.08819,0 0.121267,0.0331 0.0441,0.0331 0.06615,0.0882 l 3.395486,7.41936 q 0.05512,0.11024 -0.01102,0.19844 -0.05512,0.0882 -0.176389,0.0882 h -0.959115 q -0.121267,0 -0.198437,-0.0441 -0.06615,-0.0551 -0.121268,-0.17639 l -0.540191,-1.19062 h -3.296267 l -0.540191,1.19062 q -0.03307,0.0882 -0.110243,0.15434 -0.07717,0.0661 -0.209462,0.0661 z m 4.575086,-2.63481 -1.10243,-2.42535 h -0.03307 l -1.080382,2.42535 z"
         style="font-style:normal;font-variant:normal;font-weight:normal;font-stretch:normal;font-size:11.02430534px;font-family:'iCiel Brandon Text';-inkscape-font-specification:'iCiel Brandon Text';font-variant-ligatures:normal;font-variant-caps:normal;font-variant-numeric:normal;font-feature-settings:normal;text-align:center;letter-spacing:5.29166651px;writing-mode:lr-tb;text-anchor:middle;fill:#ffffff;fill-opacity:1;stroke-width:0.27560762"
         id="path2278" />
      <path
         d="m 80.119487,217.7683 -2.513542,-3.68212 q -0.06615,-0.11024 -0.01102,-0.20946 0.05512,-0.11024 0.187413,-0.11024 h 1.124479 q 0.06615,0 0.110243,0.0331 0.0441,0.0331 0.06615,0.0661 l 1.763889,2.5356 1.763889,-2.5356 q 0.02205,-0.0331 0.06615,-0.0661 0.0441,-0.0331 0.110243,-0.0331 h 1.135503 q 0.132292,0 0.187413,0.11024 0.05512,0.0992 -0.01102,0.20946 l -2.546615,3.67109 v 3.51676 q 0,0.0882 -0.06614,0.15434 -0.05512,0.0551 -0.143316,0.0551 h -1.014236 q -0.08819,0 -0.154341,-0.0551 -0.05512,-0.0661 -0.05512,-0.15434 z"
         style="font-style:normal;font-variant:normal;font-weight:normal;font-stretch:normal;font-size:11.02430534px;font-family:'iCiel Brandon Text';-inkscape-font-specification:'iCiel Brandon Text';font-variant-ligatures:normal;font-variant-caps:normal;font-variant-numeric:normal;font-feature-settings:normal;text-align:center;letter-spacing:5.29166651px;writing-mode:lr-tb;text-anchor:middle;fill:#ffffff;fill-opacity:1;stroke-width:0.27560762"
         id="path2280" />
      <path
         d="m 94.305011,217.58089 q 0.242535,0.0882 0.474045,0.23151 0.242535,0.13229 0.429948,0.35277 0.187413,0.20947 0.297656,0.50712 0.121267,0.29766 0.121267,0.68351 0,0.46302 -0.187413,0.85989 -0.187413,0.38586 -0.518142,0.67249 -0.319705,0.27561 -0.760677,0.44097 -0.429948,0.15434 -0.937066,0.15434 h -2.667882 q -0.08819,0 -0.15434,-0.0551 -0.05512,-0.0661 -0.05512,-0.15434 v -7.29809 q 0,-0.0882 0.05512,-0.14332 0.06615,-0.0661 0.15434,-0.0661 h 2.524566 q 0.496094,0 0.915017,0.15434 0.429948,0.15434 0.738629,0.42994 0.319705,0.27561 0.496093,0.65044 0.176389,0.37482 0.176389,0.80477 0,0.62839 -0.341753,1.06936 -0.330729,0.42995 -0.760677,0.65043 z m -1.333941,-0.57327 q 0.418923,0 0.672482,-0.28663 0.253559,-0.28663 0.253559,-0.70556 0,-0.41892 -0.253559,-0.67248 -0.253559,-0.26458 -0.672482,-0.26458 h -1.201649 v 1.92925 z m 0.15434,3.175 q 0.418924,0 0.694531,-0.28663 0.275608,-0.28663 0.275608,-0.71658 0,-0.41892 -0.275608,-0.68351 -0.275607,-0.2756 -0.694531,-0.2756 h -1.355989 v 1.96232 z"
         style="font-style:normal;font-variant:normal;font-weight:normal;font-stretch:normal;font-size:11.02430534px;font-family:'iCiel Brandon Text';-inkscape-font-specification:'iCiel Brandon Text';font-variant-ligatures:normal;font-variant-caps:normal;font-variant-numeric:normal;font-feature-settings:normal;text-align:center;letter-spacing:5.29166651px;writing-mode:lr-tb;text-anchor:middle;fill:#ffffff;fill-opacity:1;stroke-width:0.27560762"
         id="path2282" />
      <path
         d="m 102.42148,213.97594 q 0,-0.0882 0.0551,-0.14332 0.0661,-0.0661 0.15434,-0.0661 h 4.48689 q 0.0882,0 0.14331,0.0661 0.0661,0.0551 0.0661,0.14332 v 0.90399 q 0,0.0882 -0.0661,0.15434 -0.0551,0.0551 -0.14331,0.0551 h -3.2632 v 1.80799 h 2.72301 q 0.0882,0 0.14331,0.0661 0.0661,0.0551 0.0661,0.14332 v 0.91502 q 0,0.0882 -0.0661,0.15434 -0.0551,0.0551 -0.14331,0.0551 h -2.72301 v 1.92925 h 3.2632 q 0.0882,0 0.14331,0.0661 0.0661,0.0551 0.0661,0.14332 v 0.90399 q 0,0.0882 -0.0661,0.15434 -0.0551,0.0551 -0.14331,0.0551 h -4.48689 q -0.0882,0 -0.15434,-0.0551 -0.0551,-0.0661 -0.0551,-0.15434 z"
         style="font-style:normal;font-variant:normal;font-weight:normal;font-stretch:normal;font-size:11.02430534px;font-family:'iCiel Brandon Text';-inkscape-font-specification:'iCiel Brandon Text';font-variant-ligatures:normal;font-variant-caps:normal;font-variant-numeric:normal;font-feature-settings:normal;text-align:center;letter-spacing:5.29166651px;writing-mode:lr-tb;text-anchor:middle;fill:#ffffff;fill-opacity:1;stroke-width:0.27560762"
         id="path2284" />
    </g>
  </g>
</svg>
