<?xml version="1.0" encoding="UTF-8" standalone="no"?>
<!-- Created with Inkscape (http://www.inkscape.org/) -->

<svg
   xmlns:dc="http://purl.org/dc/elements/1.1/"
   xmlns:cc="http://creativecommons.org/ns#"
   xmlns:rdf="http://www.w3.org/1999/02/22-rdf-syntax-ns#"
   xmlns:svg="http://www.w3.org/2000/svg"
   xmlns="http://www.w3.org/2000/svg"
   xmlns:sodipodi="http://sodipodi.sourceforge.net/DTD/sodipodi-0.dtd"
   xmlns:inkscape="http://www.inkscape.org/namespaces/inkscape"
   width="600"
   height="600"
   viewBox="0 0 158.75 158.75"
   version="1.1"
   id="svg8"
   sodipodi:docname="Minuet-thumb.svg"
   inkscape:version="0.92.3 (2405546, 2018-03-11)">
  <defs
     id="defs2" />
  <sodipodi:namedview
     id="base"
     pagecolor="#ffffff"
     bordercolor="#666666"
     borderopacity="1.0"
     inkscape:pageopacity="0.0"
     inkscape:pageshadow="2"
     inkscape:zoom="0.94333333"
     inkscape:cx="363.07421"
     inkscape:cy="300.00002"
     inkscape:document-units="px"
     inkscape:current-layer="layer1"
     showgrid="false"
     units="px"
     inkscape:snap-page="true"
     inkscape:pagecheckerboard="true"
     inkscape:window-width="1366"
     inkscape:window-height="745"
     inkscape:window-x="-8"
     inkscape:window-y="-8"
     inkscape:window-maximized="1" />
  <metadata
     id="metadata5">
    <rdf:RDF>
      <cc:Work
         rdf:about="">
        <dc:format>image/svg+xml</dc:format>
        <dc:type
           rdf:resource="http://purl.org/dc/dcmitype/StillImage" />
        <dc:title></dc:title>
      </cc:Work>
    </rdf:RDF>
  </metadata>
  <g
     inkscape:label="Layer 1"
     inkscape:groupmode="layer"
     id="layer1"
     transform="translate(0,-138.24999)">
    <rect
       style="opacity:0.25;fill:#ffffff;fill-opacity:1;stroke-width:0.26458332"
       id="rect815"
       width="158.75"
       height="158.75"
       x="0"
       y="138.24998" />
    <g
       aria-label="MINUET"
       style="font-style:normal;font-variant:normal;font-weight:normal;font-stretch:normal;font-size:11.02430534px;line-height:1.25;font-family:sans-serif;-inkscape-font-specification:'sans-serif, Normal';font-variant-ligatures:normal;font-variant-caps:normal;font-variant-numeric:normal;font-feature-settings:normal;text-align:center;letter-spacing:0px;word-spacing:0px;writing-mode:lr-tb;text-anchor:middle;fill:#000000;fill-opacity:1;stroke:none;stroke-width:0.27560762"
       id="text823">
      <path
         d="m 47.161121,213.8216 q 0.01102,-0.0661 0.05512,-0.11025 0.05512,-0.0551 0.143316,-0.0551 h 0.176389 q 0.132292,0 0.187413,0.11025 l 2.425347,5.20347 h 0.03307 l 2.425348,-5.20347 q 0.05512,-0.11025 0.187413,-0.11025 h 0.176389 q 0.08819,0 0.132291,0.0551 0.05512,0.0441 0.06615,0.11025 l 1.300868,7.40833 q 0.02205,0.12127 -0.03307,0.18741 -0.05512,0.0661 -0.165364,0.0661 h -1.003212 q -0.07717,0 -0.132292,-0.0551 -0.05512,-0.0551 -0.07717,-0.11024 l -0.650434,-4.17822 h -0.03307 l -1.929253,4.33256 q -0.0441,0.12126 -0.187414,0.12126 h -0.198437 q -0.132292,0 -0.187413,-0.12126 l -1.951302,-4.33256 h -0.03307 l -0.63941,4.17822 q -0.01102,0.0551 -0.06615,0.11024 -0.05512,0.0551 -0.132291,0.0551 H 46.05869 q -0.242535,0 -0.209462,-0.25356 z"
         style="font-style:normal;font-variant:normal;font-weight:normal;font-stretch:normal;font-size:11.02430534px;font-family:'iCiel Brandon Text';-inkscape-font-specification:'iCiel Brandon Text';font-variant-ligatures:normal;font-variant-caps:normal;font-variant-numeric:normal;font-feature-settings:normal;text-align:center;letter-spacing:5.29166651px;writing-mode:lr-tb;text-anchor:middle;fill:#ffffff;fill-opacity:1;stroke-width:0.27560762"
         id="path2263" />
      <path
         d="m 61.227617,213.97594 q 0,-0.0882 0.05512,-0.14332 0.06614,-0.0661 0.15434,-0.0661 h 1.02526 q 0.08819,0 0.143316,0.0661 0.06615,0.0551 0.06615,0.14332 v 7.29809 q 0,0.0882 -0.06615,0.15434 -0.05512,0.0551 -0.143316,0.0551 h -1.02526 q -0.08819,0 -0.15434,-0.0551 -0.05512,-0.0661 -0.05512,-0.15434 z"
         style="font-style:normal;font-variant:normal;font-weight:normal;font-stretch:normal;font-size:11.02430534px;font-family:'iCiel Brandon Text';-inkscape-font-specification:'iCiel Brandon Text';font-variant-ligatures:normal;font-variant-caps:normal;font-variant-numeric:normal;font-feature-settings:normal;text-align:center;letter-spacing:5.29166651px;writing-mode:lr-tb;text-anchor:middle;fill:#ffffff;fill-opacity:1;stroke-width:0.27560762"
         id="path2265" />
      <path
         d="m 69.835188,213.85467 q 0,-0.0882 0.05512,-0.14332 0.06615,-0.0551 0.15434,-0.0551 h 0.165365 q 0.110243,0 0.187413,0.0772 l 4.497917,4.79558 h 0.02205 v -4.55304 q 0,-0.0882 0.05512,-0.14332 0.06615,-0.0661 0.15434,-0.0661 h 1.014236 q 0.08819,0 0.143316,0.0661 0.06615,0.0551 0.06615,0.14332 v 7.41936 q 0,0.0882 -0.06615,0.14331 -0.05512,0.0551 -0.143316,0.0551 h -0.15434 q -0.110243,0 -0.187413,-0.0772 l -4.519965,-4.98298 h -0.02205 v 4.74045 q 0,0.0882 -0.06615,0.15434 -0.05512,0.0551 -0.143316,0.0551 h -1.003212 q -0.08819,0 -0.15434,-0.0551 -0.05512,-0.0661 -0.05512,-0.15434 z"
         style="font-style:normal;font-variant:normal;font-weight:normal;font-stretch:normal;font-size:11.02430534px;font-family:'iCiel Brandon Text';-inkscape-font-specification:'iCiel Brandon Text';font-variant-ligatures:normal;font-variant-caps:normal;font-variant-numeric:normal;font-feature-settings:normal;text-align:center;letter-spacing:5.29166651px;writing-mode:lr-tb;text-anchor:middle;fill:#ffffff;fill-opacity:1;stroke-width:0.27560762"
         id="path2267" />
      <path
         d="m 83.447104,213.97594 q 0,-0.0882 0.05512,-0.14332 0.06615,-0.0661 0.15434,-0.0661 h 1.047309 q 0.08819,0 0.143316,0.0661 0.06615,0.0551 0.06615,0.14332 v 4.59713 q 0,0.70556 0.429948,1.14653 0.440972,0.44097 1.168576,0.44097 0.363802,0 0.650434,-0.11024 0.297657,-0.12127 0.507118,-0.33073 0.220486,-0.20946 0.33073,-0.49609 0.121267,-0.28663 0.121267,-0.63941 v -4.60816 q 0,-0.0882 0.05512,-0.14332 0.06615,-0.0661 0.154341,-0.0661 h 1.047309 q 0.08819,0 0.143316,0.0661 0.06615,0.0551 0.06615,0.14332 v 4.6743 q 0,0.62839 -0.242534,1.16858 -0.231511,0.54019 -0.650434,0.93707 -0.4079,0.38585 -0.970139,0.61736 -0.56224,0.22048 -1.212674,0.22048 -0.650434,0 -1.212673,-0.22048 -0.551216,-0.23151 -0.970139,-0.61736 -0.407899,-0.39688 -0.650434,-0.93707 -0.231511,-0.54019 -0.231511,-1.16858 z"
         style="font-style:normal;font-variant:normal;font-weight:normal;font-stretch:normal;font-size:11.02430534px;font-family:'iCiel Brandon Text';-inkscape-font-specification:'iCiel Brandon Text';font-variant-ligatures:normal;font-variant-caps:normal;font-variant-numeric:normal;font-feature-settings:normal;text-align:center;letter-spacing:5.29166651px;writing-mode:lr-tb;text-anchor:middle;fill:#ffffff;fill-opacity:1;stroke-width:0.27560762"
         id="path2269" />
      <path
         d="m 96.675066,213.97594 q 0,-0.0882 0.05512,-0.14332 0.06615,-0.0661 0.154341,-0.0661 h 4.486892 q 0.0882,0 0.14332,0.0661 0.0661,0.0551 0.0661,0.14332 v 0.90399 q 0,0.0882 -0.0661,0.15434 -0.0551,0.0551 -0.14332,0.0551 h -3.263195 v 1.80799 h 2.723005 q 0.0882,0 0.14331,0.0661 0.0661,0.0551 0.0661,0.14332 v 0.91502 q 0,0.0882 -0.0661,0.15434 -0.0551,0.0551 -0.14331,0.0551 h -2.723005 v 1.92925 h 3.263195 q 0.0882,0 0.14332,0.0661 0.0661,0.0551 0.0661,0.14332 v 0.90399 q 0,0.0882 -0.0661,0.15434 -0.0551,0.0551 -0.14332,0.0551 h -4.486892 q -0.08819,0 -0.154341,-0.0551 -0.05512,-0.0661 -0.05512,-0.15434 z"
         style="font-style:normal;font-variant:normal;font-weight:normal;font-stretch:normal;font-size:11.02430534px;font-family:'iCiel Brandon Text';-inkscape-font-specification:'iCiel Brandon Text';font-variant-ligatures:normal;font-variant-caps:normal;font-variant-numeric:normal;font-feature-settings:normal;text-align:center;letter-spacing:5.29166651px;writing-mode:lr-tb;text-anchor:middle;fill:#ffffff;fill-opacity:1;stroke-width:0.27560762"
         id="path2271" />
      <path
         d="m 109.56437,215.08939 h -1.68671 q -0.0882,0 -0.15434,-0.0551 -0.0551,-0.0661 -0.0551,-0.15434 v -0.90399 q 0,-0.0882 0.0551,-0.14332 0.0661,-0.0661 0.15434,-0.0661 h 4.81762 q 0.0882,0 0.14331,0.0661 0.0662,0.0551 0.0662,0.14332 v 0.90399 q 0,0.0882 -0.0662,0.15434 -0.0551,0.0551 -0.14331,0.0551 h -1.68672 v 6.18464 q 0,0.0882 -0.0662,0.15434 -0.0551,0.0551 -0.14331,0.0551 h -1.02526 q -0.0882,0 -0.15434,-0.0551 -0.0551,-0.0661 -0.0551,-0.15434 z"
         style="font-style:normal;font-variant:normal;font-weight:normal;font-stretch:normal;font-size:11.02430534px;font-family:'iCiel Brandon Text';-inkscape-font-specification:'iCiel Brandon Text';font-variant-ligatures:normal;font-variant-caps:normal;font-variant-numeric:normal;font-feature-settings:normal;text-align:center;letter-spacing:5.29166651px;writing-mode:lr-tb;text-anchor:middle;fill:#ffffff;fill-opacity:1;stroke-width:0.27560762"
         id="path2273" />
    </g>
  </g>
</svg>
