<?xml version="1.0" encoding="UTF-8" standalone="no"?>
<!-- Created with Inkscape (http://www.inkscape.org/) -->

<svg
   xmlns:dc="http://purl.org/dc/elements/1.1/"
   xmlns:cc="http://creativecommons.org/ns#"
   xmlns:rdf="http://www.w3.org/1999/02/22-rdf-syntax-ns#"
   xmlns:svg="http://www.w3.org/2000/svg"
   xmlns="http://www.w3.org/2000/svg"
   xmlns:sodipodi="http://sodipodi.sourceforge.net/DTD/sodipodi-0.dtd"
   xmlns:inkscape="http://www.inkscape.org/namespaces/inkscape"
   width="600"
   height="600"
   viewBox="0 0 158.75 158.75"
   version="1.1"
   id="svg8"
   sodipodi:docname="MoonLight(mv1)-thumb.svg"
   inkscape:version="0.92.3 (2405546, 2018-03-11)">
  <defs
     id="defs2" />
  <sodipodi:namedview
     id="base"
     pagecolor="#ffffff"
     bordercolor="#666666"
     borderopacity="1.0"
     inkscape:pageopacity="0.0"
     inkscape:pageshadow="2"
     inkscape:zoom="0.94333333"
     inkscape:cx="363.07421"
     inkscape:cy="300.00002"
     inkscape:document-units="px"
     inkscape:current-layer="layer1"
     showgrid="false"
     units="px"
     inkscape:snap-page="true"
     inkscape:pagecheckerboard="true"
     inkscape:window-width="1366"
     inkscape:window-height="745"
     inkscape:window-x="-8"
     inkscape:window-y="-8"
     inkscape:window-maximized="1" />
  <metadata
     id="metadata5">
    <rdf:RDF>
      <cc:Work
         rdf:about="">
        <dc:format>image/svg+xml</dc:format>
        <dc:type
           rdf:resource="http://purl.org/dc/dcmitype/StillImage" />
        <dc:title></dc:title>
      </cc:Work>
    </rdf:RDF>
  </metadata>
  <g
     inkscape:label="Layer 1"
     inkscape:groupmode="layer"
     id="layer1"
     transform="translate(0,-138.24999)">
    <rect
       style="opacity:0.25;fill:#ffffff;fill-opacity:1;stroke-width:0.26458332"
       id="rect815"
       width="158.75"
       height="158.75"
       x="0"
       y="138.24998" />
    <g
       aria-label="MOON LIGHT SONATA
(MV1)"
       style="font-style:normal;font-variant:normal;font-weight:normal;font-stretch:normal;font-size:11.02430534px;line-height:1.25;font-family:sans-serif;-inkscape-font-specification:'sans-serif, Normal';font-variant-ligatures:normal;font-variant-caps:normal;font-variant-numeric:normal;font-feature-settings:normal;text-align:center;letter-spacing:0px;word-spacing:0px;writing-mode:lr-tb;text-anchor:middle;fill:#000000;fill-opacity:1;stroke:none;stroke-width:0.27560762"
       id="text823">
      <path
         d="m 23.688091,206.22164 q 0.01102,-0.0662 0.05512,-0.11025 0.05512,-0.0551 0.143316,-0.0551 h 0.176389 q 0.132292,0 0.187413,0.11025 l 2.425348,5.20347 h 0.03307 l 2.425347,-5.20347 q 0.05512,-0.11025 0.187413,-0.11025 H 29.4979 q 0.08819,0 0.132291,0.0551 0.05512,0.0441 0.06615,0.11025 l 1.300868,7.40833 q 0.02205,0.12127 -0.03307,0.18741 -0.05512,0.0661 -0.165364,0.0661 h -1.003212 q -0.07717,0 -0.132292,-0.0551 -0.05512,-0.0551 -0.07717,-0.11024 l -0.650434,-4.17822 h -0.03307 l -1.929253,4.33256 q -0.0441,0.12126 -0.187413,0.12126 h -0.198438 q -0.132291,0 -0.187413,-0.12126 l -1.951302,-4.33256 h -0.03307 l -0.63941,4.17822 q -0.01102,0.0551 -0.06615,0.11024 -0.05512,0.0551 -0.132292,0.0551 H 22.58566 q -0.242534,0 -0.209461,-0.25356 z"
         style="font-style:normal;font-variant:normal;font-weight:normal;font-stretch:normal;font-size:11.02430534px;font-family:'iCiel Brandon Text';-inkscape-font-specification:'iCiel Brandon Text';font-variant-ligatures:normal;font-variant-caps:normal;font-variant-numeric:normal;font-feature-settings:normal;text-align:center;letter-spacing:0px;writing-mode:lr-tb;text-anchor:middle;fill:#ffffff;fill-opacity:1;stroke-width:0.27560762"
         id="path2162" />
      <path
         d="m 31.946329,210.03605 q 0,-0.82683 0.308681,-1.55443 0.308681,-0.7276 0.837847,-1.25677 0.540191,-0.54019 1.256771,-0.84887 0.727604,-0.31971 1.554427,-0.31971 0.826823,0 1.543403,0.31971 0.727604,0.30868 1.267795,0.84887 0.540191,0.52917 0.848871,1.25677 0.308681,0.7276 0.308681,1.55443 0,0.82682 -0.308681,1.55442 -0.30868,0.71658 -0.848871,1.25677 -0.540191,0.52917 -1.267795,0.83785 -0.71658,0.30868 -1.543403,0.30868 -0.826823,0 -1.554427,-0.30868 -0.71658,-0.30868 -1.256771,-0.83785 -0.529166,-0.54019 -0.837847,-1.25677 -0.308681,-0.7276 -0.308681,-1.55442 z m 1.43316,0 q 0,0.51814 0.198438,0.98116 0.198437,0.46302 0.540191,0.80477 0.341753,0.34176 0.804774,0.5402 0.463021,0.19843 0.981163,0.19843 0.518142,0 0.981163,-0.19843 0.463021,-0.19844 0.804775,-0.5402 0.352777,-0.34175 0.551215,-0.80477 0.198437,-0.46302 0.198437,-0.98116 0,-0.51815 -0.198437,-0.98117 -0.198438,-0.46302 -0.551215,-0.80477 -0.341754,-0.35278 -0.804775,-0.55122 -0.463021,-0.20946 -0.981163,-0.20946 -0.518142,0 -0.981163,0.20946 -0.463021,0.19844 -0.804774,0.55122 -0.341754,0.34175 -0.540191,0.80477 -0.198438,0.46302 -0.198438,0.98117 z"
         style="font-style:normal;font-variant:normal;font-weight:normal;font-stretch:normal;font-size:11.02430534px;font-family:'iCiel Brandon Text';-inkscape-font-specification:'iCiel Brandon Text';font-variant-ligatures:normal;font-variant-caps:normal;font-variant-numeric:normal;font-feature-settings:normal;text-align:center;letter-spacing:0px;writing-mode:lr-tb;text-anchor:middle;fill:#ffffff;fill-opacity:1;stroke-width:0.27560762"
         id="path2164" />
      <path
         d="m 40.838983,210.03605 q 0,-0.82683 0.30868,-1.55443 0.308681,-0.7276 0.837848,-1.25677 0.540191,-0.54019 1.25677,-0.84887 0.727605,-0.31971 1.554428,-0.31971 0.826822,0 1.543402,0.31971 0.727604,0.30868 1.267795,0.84887 0.540191,0.52917 0.848872,1.25677 0.30868,0.7276 0.30868,1.55443 0,0.82682 -0.30868,1.55442 -0.308681,0.71658 -0.848872,1.25677 -0.540191,0.52917 -1.267795,0.83785 -0.71658,0.30868 -1.543402,0.30868 -0.826823,0 -1.554428,-0.30868 -0.716579,-0.30868 -1.25677,-0.83785 -0.529167,-0.54019 -0.837848,-1.25677 -0.30868,-0.7276 -0.30868,-1.55442 z m 1.43316,0 q 0,0.51814 0.198437,0.98116 0.198438,0.46302 0.540191,0.80477 0.341754,0.34176 0.804774,0.5402 0.463021,0.19843 0.981164,0.19843 0.518142,0 0.981163,-0.19843 0.463021,-0.19844 0.804774,-0.5402 0.352778,-0.34175 0.551215,-0.80477 0.198438,-0.46302 0.198438,-0.98116 0,-0.51815 -0.198438,-0.98117 -0.198437,-0.46302 -0.551215,-0.80477 -0.341753,-0.35278 -0.804774,-0.55122 -0.463021,-0.20946 -0.981163,-0.20946 -0.518143,0 -0.981164,0.20946 -0.46302,0.19844 -0.804774,0.55122 -0.341753,0.34175 -0.540191,0.80477 -0.198437,0.46302 -0.198437,0.98117 z"
         style="font-style:normal;font-variant:normal;font-weight:normal;font-stretch:normal;font-size:11.02430534px;font-family:'iCiel Brandon Text';-inkscape-font-specification:'iCiel Brandon Text';font-variant-ligatures:normal;font-variant-caps:normal;font-variant-numeric:normal;font-feature-settings:normal;text-align:center;letter-spacing:0px;writing-mode:lr-tb;text-anchor:middle;fill:#ffffff;fill-opacity:1;stroke-width:0.27560762"
         id="path2166" />
      <path
         d="m 50.18363,206.25471 q 0,-0.0882 0.05512,-0.14332 0.06614,-0.0551 0.15434,-0.0551 h 0.165364 q 0.110243,0 0.187414,0.0772 l 4.497916,4.79558 h 0.02205 v -4.55304 q 0,-0.0882 0.05512,-0.14332 0.06615,-0.0661 0.154341,-0.0661 h 1.014236 q 0.08819,0 0.143316,0.0661 0.06614,0.0551 0.06614,0.14332 v 7.41936 q 0,0.0882 -0.06614,0.14331 -0.05512,0.0551 -0.143316,0.0551 h -0.154341 q -0.110243,0 -0.187413,-0.0772 l -4.519965,-4.98298 h -0.02205 v 4.74045 q 0,0.0882 -0.06614,0.15434 -0.05512,0.0551 -0.143316,0.0551 h -1.003212 q -0.0882,0 -0.15434,-0.0551 -0.05512,-0.0661 -0.05512,-0.15434 z"
         style="font-style:normal;font-variant:normal;font-weight:normal;font-stretch:normal;font-size:11.02430534px;font-family:'iCiel Brandon Text';-inkscape-font-specification:'iCiel Brandon Text';font-variant-ligatures:normal;font-variant-caps:normal;font-variant-numeric:normal;font-feature-settings:normal;text-align:center;letter-spacing:0px;writing-mode:lr-tb;text-anchor:middle;fill:#ffffff;fill-opacity:1;stroke-width:0.27560762"
         id="path2168" />
      <path
         d="m 61.229467,206.37598 q 0,-0.0882 0.05512,-0.14332 0.06615,-0.0661 0.15434,-0.0661 h 1.014236 q 0.08819,0 0.143316,0.0661 0.06615,0.0551 0.06615,0.14332 v 6.18463 h 2.811198 q 0.08819,0 0.143316,0.0661 0.06615,0.0551 0.06615,0.14331 v 0.904 q 0,0.0882 -0.06615,0.15434 -0.05512,0.0551 -0.143316,0.0551 h -4.034896 q -0.08819,0 -0.15434,-0.0551 -0.05512,-0.0661 -0.05512,-0.15434 z"
         style="font-style:normal;font-variant:normal;font-weight:normal;font-stretch:normal;font-size:11.02430534px;font-family:'iCiel Brandon Text';-inkscape-font-specification:'iCiel Brandon Text';font-variant-ligatures:normal;font-variant-caps:normal;font-variant-numeric:normal;font-feature-settings:normal;text-align:center;letter-spacing:0px;writing-mode:lr-tb;text-anchor:middle;fill:#ffffff;fill-opacity:1;stroke-width:0.27560762"
         id="path2170" />
      <path
         d="m 66.806215,206.37598 q 0,-0.0882 0.05512,-0.14332 0.06615,-0.0661 0.15434,-0.0661 h 1.025261 q 0.08819,0 0.143315,0.0661 0.06615,0.0551 0.06615,0.14332 v 7.29809 q 0,0.0882 -0.06615,0.15434 -0.05512,0.0551 -0.143315,0.0551 h -1.025261 q -0.08819,0 -0.15434,-0.0551 -0.05512,-0.0661 -0.05512,-0.15434 z"
         style="font-style:normal;font-variant:normal;font-weight:normal;font-stretch:normal;font-size:11.02430534px;font-family:'iCiel Brandon Text';-inkscape-font-specification:'iCiel Brandon Text';font-variant-ligatures:normal;font-variant-caps:normal;font-variant-numeric:normal;font-feature-settings:normal;text-align:center;letter-spacing:0px;writing-mode:lr-tb;text-anchor:middle;fill:#ffffff;fill-opacity:1;stroke-width:0.27560762"
         id="path2172" />
      <path
         d="m 69.670125,210.03605 q 0,-0.82683 0.308681,-1.55443 0.30868,-0.7276 0.848871,-1.25677 0.540191,-0.54019 1.256771,-0.84887 0.71658,-0.31971 1.543403,-0.31971 0.749653,0 1.43316,0.27561 0.694531,0.26458 1.25677,0.74965 0.06615,0.0662 0.06615,0.15434 0.01103,0.0882 -0.05512,0.15434 l -0.683507,0.71658 q -0.132292,0.1323 -0.286632,0 -0.727604,-0.63941 -1.66467,-0.63941 -0.518143,0 -0.970139,0.20947 -0.451997,0.19843 -0.782726,0.55121 -0.330729,0.35278 -0.529166,0.8158 -0.187414,0.46302 -0.187414,0.98116 0,0.51815 0.187414,0.98117 0.198437,0.45199 0.529166,0.79375 0.341754,0.34175 0.79375,0.55121 0.451997,0.19844 0.970139,0.19844 0.463021,0 0.804774,-0.0992 0.341754,-0.11024 0.507118,-0.17639 v -0.93706 h -0.881944 q -0.08819,0 -0.15434,-0.0551 -0.05512,-0.0551 -0.05512,-0.14331 v -0.87092 q 0,-0.20946 0.209462,-0.20946 h 2.116667 q 0.08819,0 0.143316,0.0661 0.05512,0.0551 0.05512,0.14332 v 2.82222 q 0,0.11024 -0.08819,0.17639 -0.341754,0.20946 -0.771702,0.3638 -0.363802,0.13229 -0.87092,0.24254 -0.496094,0.11024 -1.091406,0.11024 -0.826823,0 -1.543403,-0.30868 -0.71658,-0.30868 -1.256771,-0.83785 -0.540191,-0.52917 -0.848871,-1.24575 -0.308681,-0.7276 -0.308681,-1.55442 z"
         style="font-style:normal;font-variant:normal;font-weight:normal;font-stretch:normal;font-size:11.02430534px;font-family:'iCiel Brandon Text';-inkscape-font-specification:'iCiel Brandon Text';font-variant-ligatures:normal;font-variant-caps:normal;font-variant-numeric:normal;font-feature-settings:normal;text-align:center;letter-spacing:0px;writing-mode:lr-tb;text-anchor:middle;fill:#ffffff;fill-opacity:1;stroke-width:0.27560762"
         id="path2174" />
      <path
         d="m 78.045839,206.37598 q 0,-0.0882 0.05512,-0.14332 0.06615,-0.0661 0.15434,-0.0661 h 1.025261 q 0.08819,0 0.143316,0.0661 0.06614,0.0551 0.06614,0.14332 v 2.92144 h 3.593924 v -2.92144 q 0,-0.0882 0.05512,-0.14332 0.06615,-0.0661 0.154341,-0.0661 h 1.014236 q 0.08819,0 0.143316,0.0661 0.06615,0.0551 0.06615,0.14332 v 7.29809 q 0,0.0882 -0.06615,0.15434 -0.05512,0.0551 -0.143316,0.0551 h -1.014236 q -0.08819,0 -0.154341,-0.0551 -0.05512,-0.0661 -0.05512,-0.15434 v -3.04271 h -3.593924 v 3.04271 q 0,0.0882 -0.06614,0.15434 -0.05512,0.0551 -0.143316,0.0551 h -1.025261 q -0.08819,0 -0.15434,-0.0551 -0.05512,-0.0661 -0.05512,-0.15434 z"
         style="font-style:normal;font-variant:normal;font-weight:normal;font-stretch:normal;font-size:11.02430534px;font-family:'iCiel Brandon Text';-inkscape-font-specification:'iCiel Brandon Text';font-variant-ligatures:normal;font-variant-caps:normal;font-variant-numeric:normal;font-feature-settings:normal;text-align:center;letter-spacing:0px;writing-mode:lr-tb;text-anchor:middle;fill:#ffffff;fill-opacity:1;stroke-width:0.27560762"
         id="path2176" />
      <path
         d="m 87.645945,207.48943 h -1.686719 q -0.08819,0 -0.15434,-0.0551 -0.05512,-0.0661 -0.05512,-0.15434 v -0.90399 q 0,-0.0882 0.05512,-0.14332 0.06615,-0.0661 0.15434,-0.0661 h 4.817621 q 0.08819,0 0.143316,0.0661 0.06615,0.0551 0.06615,0.14332 v 0.90399 q 0,0.0882 -0.06615,0.15434 -0.05512,0.0551 -0.143316,0.0551 h -1.686718 v 6.18464 q 0,0.0882 -0.06615,0.15434 -0.05512,0.0551 -0.143316,0.0551 h -1.025261 q -0.08819,0 -0.15434,-0.0551 -0.05512,-0.0661 -0.05512,-0.15434 z"
         style="font-style:normal;font-variant:normal;font-weight:normal;font-stretch:normal;font-size:11.02430534px;font-family:'iCiel Brandon Text';-inkscape-font-specification:'iCiel Brandon Text';font-variant-ligatures:normal;font-variant-caps:normal;font-variant-numeric:normal;font-feature-settings:normal;text-align:center;letter-spacing:0px;writing-mode:lr-tb;text-anchor:middle;fill:#ffffff;fill-opacity:1;stroke-width:0.27560762"
         id="path2178" />
      <path
         d="m 96.967857,213.99377 q -0.518142,0 -0.926041,-0.0992 -0.396875,-0.0882 -0.694531,-0.22048 -0.286632,-0.14332 -0.48507,-0.28663 -0.198437,-0.15434 -0.319705,-0.25356 -0.08819,-0.0661 -0.110243,-0.13229 -0.02205,-0.0661 0.05512,-0.19844 l 0.396875,-0.68351 q 0.06615,-0.12127 0.176389,-0.12127 0.121267,-0.011 0.198437,0.0441 0.341754,0.25356 0.727604,0.47405 0.396875,0.20946 0.937066,0.20946 0.429948,0 0.71658,-0.24254 0.286632,-0.25356 0.286632,-0.60633 0,-0.41893 -0.352778,-0.72761 -0.352778,-0.30868 -1.047309,-0.59531 -0.385851,-0.15434 -0.760677,-0.3638 -0.374826,-0.20946 -0.672483,-0.4961 -0.286631,-0.28663 -0.46302,-0.66145 -0.176389,-0.37483 -0.176389,-0.8599 0,-0.3638 0.143316,-0.73863 0.143316,-0.38585 0.440972,-0.68351 0.297656,-0.30868 0.760677,-0.49609 0.474045,-0.19844 1.135503,-0.19844 0.418924,0 0.782726,0.0992 0.374827,0.0882 0.661458,0.20946 0.286632,0.12127 0.474046,0.24254 0.198437,0.12127 0.286632,0.18741 0.08819,0.0551 0.09922,0.16537 0.02205,0.11024 -0.03307,0.19843 l -0.418923,0.62839 q -0.06615,0.0992 -0.176389,0.15434 -0.110243,0.0441 -0.209462,-0.0221 -0.352778,-0.22049 -0.71658,-0.4079 -0.352778,-0.19844 -0.815798,-0.19844 -0.474045,0 -0.727605,0.23151 -0.242534,0.22049 -0.242534,0.5402 0,0.38585 0.30868,0.67248 0.319705,0.28663 0.992188,0.56224 0.396875,0.16536 0.804774,0.37482 0.418924,0.20947 0.749653,0.50712 0.330729,0.28663 0.540191,0.68351 0.209462,0.39687 0.209462,0.92604 0,0.42995 -0.176389,0.82682 -0.176389,0.38585 -0.507118,0.69453 -0.330729,0.29766 -0.804775,0.48507 -0.46302,0.17639 -1.047309,0.17639 z"
         style="font-style:normal;font-variant:normal;font-weight:normal;font-stretch:normal;font-size:11.02430534px;font-family:'iCiel Brandon Text';-inkscape-font-specification:'iCiel Brandon Text';font-variant-ligatures:normal;font-variant-caps:normal;font-variant-numeric:normal;font-feature-settings:normal;text-align:center;letter-spacing:0px;writing-mode:lr-tb;text-anchor:middle;fill:#ffffff;fill-opacity:1;stroke-width:0.27560762"
         id="path2180" />
      <path
         d="m 100.4176,210.03605 q 0,-0.82683 0.30868,-1.55443 0.30868,-0.7276 0.83785,-1.25677 0.54019,-0.54019 1.25677,-0.84887 0.72761,-0.31971 1.55443,-0.31971 0.82682,0 1.5434,0.31971 0.72761,0.30868 1.2678,0.84887 0.54019,0.52917 0.84887,1.25677 0.30868,0.7276 0.30868,1.55443 0,0.82682 -0.30868,1.55442 -0.30868,0.71658 -0.84887,1.25677 -0.54019,0.52917 -1.2678,0.83785 -0.71658,0.30868 -1.5434,0.30868 -0.82682,0 -1.55443,-0.30868 -0.71658,-0.30868 -1.25677,-0.83785 -0.52917,-0.54019 -0.83785,-1.25677 -0.30868,-0.7276 -0.30868,-1.55442 z m 1.43316,0 q 0,0.51814 0.19844,0.98116 0.19844,0.46302 0.54019,0.80477 0.34176,0.34176 0.80478,0.5402 0.46302,0.19843 0.98116,0.19843 0.51814,0 0.98116,-0.19843 0.46302,-0.19844 0.80478,-0.5402 0.35277,-0.34175 0.55121,-0.80477 0.19844,-0.46302 0.19844,-0.98116 0,-0.51815 -0.19844,-0.98117 -0.19844,-0.46302 -0.55121,-0.80477 -0.34176,-0.35278 -0.80478,-0.55122 -0.46302,-0.20946 -0.98116,-0.20946 -0.51814,0 -0.98116,0.20946 -0.46302,0.19844 -0.80478,0.55122 -0.34175,0.34175 -0.54019,0.80477 -0.19844,0.46302 -0.19844,0.98117 z"
         style="font-style:normal;font-variant:normal;font-weight:normal;font-stretch:normal;font-size:11.02430534px;font-family:'iCiel Brandon Text';-inkscape-font-specification:'iCiel Brandon Text';font-variant-ligatures:normal;font-variant-caps:normal;font-variant-numeric:normal;font-feature-settings:normal;text-align:center;letter-spacing:0px;writing-mode:lr-tb;text-anchor:middle;fill:#ffffff;fill-opacity:1;stroke-width:0.27560762"
         id="path2182" />
      <path
         d="m 109.76225,206.25471 q 0,-0.0882 0.0551,-0.14332 0.0661,-0.0551 0.15434,-0.0551 h 0.16536 q 0.11025,0 0.18742,0.0772 l 4.49791,4.79558 h 0.022 v -4.55304 q 0,-0.0882 0.0551,-0.14332 0.0662,-0.0661 0.15434,-0.0661 h 1.01424 q 0.0882,0 0.14332,0.0661 0.0661,0.0551 0.0661,0.14332 v 7.41936 q 0,0.0882 -0.0661,0.14331 -0.0551,0.0551 -0.14332,0.0551 h -0.15434 q -0.11024,0 -0.18741,-0.0772 l -4.51997,-4.98298 h -0.022 v 4.74045 q 0,0.0882 -0.0661,0.15434 -0.0551,0.0551 -0.14332,0.0551 h -1.00321 q -0.0882,0 -0.15434,-0.0551 -0.0551,-0.0661 -0.0551,-0.15434 z"
         style="font-style:normal;font-variant:normal;font-weight:normal;font-stretch:normal;font-size:11.02430534px;font-family:'iCiel Brandon Text';-inkscape-font-specification:'iCiel Brandon Text';font-variant-ligatures:normal;font-variant-caps:normal;font-variant-numeric:normal;font-feature-settings:normal;text-align:center;letter-spacing:0px;writing-mode:lr-tb;text-anchor:middle;fill:#ffffff;fill-opacity:1;stroke-width:0.27560762"
         id="path2184" />
      <path
         d="m 117.43207,213.88353 q -0.12127,0 -0.18742,-0.0882 -0.0551,-0.0882 0,-0.19844 l 3.42856,-7.41936 q 0.0551,-0.12127 0.18741,-0.12127 h 0.11025 q 0.0882,0 0.12127,0.0331 0.0441,0.0331 0.0661,0.0882 l 3.39549,7.41936 q 0.0551,0.11024 -0.011,0.19844 -0.0551,0.0882 -0.17639,0.0882 h -0.95911 q -0.12127,0 -0.19844,-0.0441 -0.0661,-0.0551 -0.12127,-0.17639 l -0.54019,-1.19062 h -3.29626 l -0.54019,1.19062 q -0.0331,0.0882 -0.11025,0.15434 -0.0772,0.0661 -0.20946,0.0661 z m 4.57508,-2.63481 -1.10243,-2.42535 h -0.0331 l -1.08038,2.42535 z"
         style="font-style:normal;font-variant:normal;font-weight:normal;font-stretch:normal;font-size:11.02430534px;font-family:'iCiel Brandon Text';-inkscape-font-specification:'iCiel Brandon Text';font-variant-ligatures:normal;font-variant-caps:normal;font-variant-numeric:normal;font-feature-settings:normal;text-align:center;letter-spacing:0px;writing-mode:lr-tb;text-anchor:middle;fill:#ffffff;fill-opacity:1;stroke-width:0.27560762"
         id="path2186" />
      <path
         d="m 126.27408,207.48943 h -1.68672 q -0.0882,0 -0.15434,-0.0551 -0.0551,-0.0661 -0.0551,-0.15434 v -0.90399 q 0,-0.0882 0.0551,-0.14332 0.0661,-0.0661 0.15434,-0.0661 h 4.81762 q 0.0882,0 0.14332,0.0661 0.0661,0.0551 0.0661,0.14332 v 0.90399 q 0,0.0882 -0.0661,0.15434 -0.0551,0.0551 -0.14332,0.0551 h -1.68672 v 6.18464 q 0,0.0882 -0.0662,0.15434 -0.0551,0.0551 -0.14331,0.0551 h -1.02526 q -0.0882,0 -0.15434,-0.0551 -0.0551,-0.0661 -0.0551,-0.15434 z"
         style="font-style:normal;font-variant:normal;font-weight:normal;font-stretch:normal;font-size:11.02430534px;font-family:'iCiel Brandon Text';-inkscape-font-specification:'iCiel Brandon Text';font-variant-ligatures:normal;font-variant-caps:normal;font-variant-numeric:normal;font-feature-settings:normal;text-align:center;letter-spacing:0px;writing-mode:lr-tb;text-anchor:middle;fill:#ffffff;fill-opacity:1;stroke-width:0.27560762"
         id="path2188" />
      <path
         d="m 129.61909,213.88353 q -0.12126,0 -0.18741,-0.0882 -0.0551,-0.0882 0,-0.19844 l 3.42856,-7.41936 q 0.0551,-0.12127 0.18741,-0.12127 h 0.11024 q 0.0882,0 0.12127,0.0331 0.0441,0.0331 0.0662,0.0882 l 3.39548,7.41936 q 0.0551,0.11024 -0.011,0.19844 -0.0551,0.0882 -0.17639,0.0882 h -0.95911 q -0.12127,0 -0.19844,-0.0441 -0.0661,-0.0551 -0.12127,-0.17639 l -0.54019,-1.19062 h -3.29627 l -0.54019,1.19062 q -0.0331,0.0882 -0.11024,0.15434 -0.0772,0.0661 -0.20946,0.0661 z m 4.57509,-2.63481 -1.10243,-2.42535 h -0.0331 l -1.08039,2.42535 z"
         style="font-style:normal;font-variant:normal;font-weight:normal;font-stretch:normal;font-size:11.02430534px;font-family:'iCiel Brandon Text';-inkscape-font-specification:'iCiel Brandon Text';font-variant-ligatures:normal;font-variant-caps:normal;font-variant-numeric:normal;font-feature-settings:normal;text-align:center;letter-spacing:0px;writing-mode:lr-tb;text-anchor:middle;fill:#ffffff;fill-opacity:1;stroke-width:0.27560762"
         id="path2190" />
      <path
         d="m 68.355389,229.19371 q -0.474045,-0.0331 -0.959114,-0.23151 -0.48507,-0.19844 -0.881945,-0.67249 -0.396875,-0.48507 -0.650434,-1.31189 -0.242534,-0.82682 -0.242534,-2.12769 0,-1.30087 0.242534,-2.12769 0.253559,-0.83785 0.650434,-1.31189 0.396875,-0.48507 0.881945,-0.68351 0.485069,-0.19844 0.959114,-0.22049 0.08819,-0.011 0.143316,0.0441 0.06615,0.0441 0.06615,0.12127 l 0.03307,0.7276 q 0.01102,0.0661 -0.03307,0.13229 -0.0441,0.0551 -0.09922,0.0661 -0.815798,0.22049 -1.157552,1.04731 -0.330729,0.82682 -0.330729,2.20486 0,1.38906 0.330729,2.20486 0.341754,0.8158 1.157552,1.03629 0.07717,0.022 0.110244,0.0882 0.03307,0.0551 0.02205,0.12127 l -0.03307,0.71658 q -0.02205,0.17639 -0.209462,0.17639 z"
         style="font-style:normal;font-variant:normal;font-weight:normal;font-stretch:normal;font-size:11.02430534px;font-family:'iCiel Brandon Text';-inkscape-font-specification:'iCiel Brandon Text';font-variant-ligatures:normal;font-variant-caps:normal;font-variant-numeric:normal;font-feature-settings:normal;text-align:center;letter-spacing:0px;writing-mode:lr-tb;text-anchor:middle;fill:#ffffff;fill-opacity:1;stroke-width:0.27560762"
         id="path2192" />
      <path
         d="m 70.745941,220.66089 q 0.01102,-0.0661 0.05512,-0.11024 0.05512,-0.0551 0.143316,-0.0551 h 0.176389 q 0.132291,0 0.187413,0.11024 l 2.425347,5.20347 h 0.03307 l 2.425347,-5.20347 q 0.05512,-0.11024 0.187413,-0.11024 h 0.176389 q 0.08819,0 0.132292,0.0551 0.05512,0.0441 0.06615,0.11024 l 1.300868,7.40834 q 0.02205,0.12126 -0.03307,0.18741 -0.05512,0.0661 -0.165365,0.0661 h -1.003212 q -0.07717,0 -0.132291,-0.0551 -0.05512,-0.0551 -0.07717,-0.11024 l -0.650435,-4.17821 h -0.03307 l -1.929254,4.33255 q -0.0441,0.12127 -0.187413,0.12127 h -0.198438 q -0.132291,0 -0.187413,-0.12127 l -1.951302,-4.33255 h -0.03307 l -0.639409,4.17821 q -0.01103,0.0551 -0.06615,0.11024 -0.05512,0.0551 -0.132292,0.0551 h -0.992187 q -0.242535,0 -0.209462,-0.25356 z"
         style="font-style:normal;font-variant:normal;font-weight:normal;font-stretch:normal;font-size:11.02430534px;font-family:'iCiel Brandon Text';-inkscape-font-specification:'iCiel Brandon Text';font-variant-ligatures:normal;font-variant-caps:normal;font-variant-numeric:normal;font-feature-settings:normal;text-align:center;letter-spacing:0px;writing-mode:lr-tb;text-anchor:middle;fill:#ffffff;fill-opacity:1;stroke-width:0.27560762"
         id="path2194" />
      <path
         d="m 78.293284,220.8924 q -0.05512,-0.11024 0,-0.19843 0.06615,-0.0882 0.187413,-0.0882 h 1.124479 q 0.07717,0 0.121267,0.0441 0.0441,0.0331 0.06615,0.0772 l 2.127691,4.74045 h 0.05512 l 2.12769,-4.74045 q 0.02205,-0.0441 0.06615,-0.0772 0.0441,-0.0441 0.121268,-0.0441 h 1.124479 q 0.121267,0 0.176389,0.0882 0.06615,0.0882 0.01102,0.19843 l -3.417535,7.41936 q -0.06615,0.12127 -0.187413,0.12127 h -0.110243 q -0.132292,0 -0.187413,-0.12127 z"
         style="font-style:normal;font-variant:normal;font-weight:normal;font-stretch:normal;font-size:11.02430534px;font-family:'iCiel Brandon Text';-inkscape-font-specification:'iCiel Brandon Text';font-variant-ligatures:normal;font-variant-caps:normal;font-variant-numeric:normal;font-feature-settings:normal;text-align:center;letter-spacing:0px;writing-mode:lr-tb;text-anchor:middle;fill:#ffffff;fill-opacity:1;stroke-width:0.27560762"
         id="path2196" />
      <path
         d="m 87.267757,222.66732 -0.992188,0.22048 q -0.08819,0.0221 -0.15434,-0.0221 -0.06615,-0.0441 -0.07717,-0.13229 l -0.06615,-0.55121 q -0.01102,-0.0882 0.01102,-0.13229 0.02205,-0.0551 0.09922,-0.11025 l 1.411111,-1.19062 q 0.154341,-0.14332 0.385851,-0.14332 h 0.573264 q 0.08819,0 0.143316,0.0661 0.06615,0.0551 0.06615,0.14331 v 7.28707 q 0,0.0882 -0.06615,0.15434 -0.05512,0.0661 -0.143316,0.0661 h -0.970139 q -0.09922,0 -0.165365,-0.0661 -0.05512,-0.0661 -0.05512,-0.15434 z"
         style="font-style:normal;font-variant:normal;font-weight:normal;font-stretch:normal;font-size:11.02430534px;font-family:'iCiel Brandon Text';-inkscape-font-specification:'iCiel Brandon Text';font-variant-ligatures:normal;font-variant-caps:normal;font-variant-numeric:normal;font-feature-settings:normal;text-align:center;letter-spacing:0px;writing-mode:lr-tb;text-anchor:middle;fill:#ffffff;fill-opacity:1;stroke-width:0.27560762"
         id="path2198" />
      <path
         d="m 90.02435,228.30074 q -0.01102,-0.0661 0.02205,-0.12127 0.03307,-0.0662 0.110243,-0.0882 0.815799,-0.22049 1.146528,-1.03629 0.341753,-0.8158 0.341753,-2.20486 0,-1.37804 -0.341753,-2.20486 -0.330729,-0.82682 -1.146528,-1.04731 -0.05512,-0.011 -0.09922,-0.0661 -0.0441,-0.0661 -0.03307,-0.13229 l 0.03307,-0.7276 q 0,-0.0772 0.05512,-0.12127 0.06615,-0.0551 0.15434,-0.0441 0.474045,0.0221 0.959115,0.22049 0.485069,0.19844 0.881944,0.68351 0.396875,0.47404 0.63941,1.31189 0.253559,0.82682 0.253559,2.12769 0,1.30087 -0.253559,2.12769 -0.242535,0.82682 -0.63941,1.31189 -0.396875,0.47405 -0.881944,0.67249 -0.48507,0.19843 -0.959115,0.23151 -0.187413,0 -0.209462,-0.17639 l -0.03307,-0.71658 z"
         style="font-style:normal;font-variant:normal;font-weight:normal;font-stretch:normal;font-size:11.02430534px;font-family:'iCiel Brandon Text';-inkscape-font-specification:'iCiel Brandon Text';font-variant-ligatures:normal;font-variant-caps:normal;font-variant-numeric:normal;font-feature-settings:normal;text-align:center;letter-spacing:0px;writing-mode:lr-tb;text-anchor:middle;fill:#ffffff;fill-opacity:1;stroke-width:0.27560762"
         id="path2200" />
    </g>
  </g>
</svg>
