<?xml version="1.0" encoding="UTF-8" standalone="no"?>
<!-- Created with Inkscape (http://www.inkscape.org/) -->

<svg
   xmlns:dc="http://purl.org/dc/elements/1.1/"
   xmlns:cc="http://creativecommons.org/ns#"
   xmlns:rdf="http://www.w3.org/1999/02/22-rdf-syntax-ns#"
   xmlns:svg="http://www.w3.org/2000/svg"
   xmlns="http://www.w3.org/2000/svg"
   xmlns:sodipodi="http://sodipodi.sourceforge.net/DTD/sodipodi-0.dtd"
   xmlns:inkscape="http://www.inkscape.org/namespaces/inkscape"
   width="600"
   height="600"
   viewBox="0 0 158.75 158.75"
   version="1.1"
   id="svg8"
   sodipodi:docname="RiverFlowInYou-thumb.svg"
   inkscape:version="0.92.3 (2405546, 2018-03-11)">
  <defs
     id="defs2" />
  <sodipodi:namedview
     id="base"
     pagecolor="#ffffff"
     bordercolor="#666666"
     borderopacity="1.0"
     inkscape:pageopacity="0.0"
     inkscape:pageshadow="2"
     inkscape:zoom="0.94333333"
     inkscape:cx="363.07421"
     inkscape:cy="300.00002"
     inkscape:document-units="px"
     inkscape:current-layer="layer1"
     showgrid="false"
     units="px"
     inkscape:snap-page="true"
     inkscape:pagecheckerboard="true"
     inkscape:window-width="1366"
     inkscape:window-height="745"
     inkscape:window-x="-8"
     inkscape:window-y="-8"
     inkscape:window-maximized="1" />
  <metadata
     id="metadata5">
    <rdf:RDF>
      <cc:Work
         rdf:about="">
        <dc:format>image/svg+xml</dc:format>
        <dc:type
           rdf:resource="http://purl.org/dc/dcmitype/StillImage" />
        <dc:title></dc:title>
      </cc:Work>
    </rdf:RDF>
  </metadata>
  <g
     inkscape:label="Layer 1"
     inkscape:groupmode="layer"
     id="layer1"
     transform="translate(0,-138.24999)">
    <rect
       style="opacity:0.25;fill:#ffffff;fill-opacity:1;stroke-width:0.26458332"
       id="rect815"
       width="158.75"
       height="158.75"
       x="0"
       y="138.24998" />
    <g
       aria-label="RIVER FLOW IN YOU"
       style="font-style:normal;font-variant:normal;font-weight:normal;font-stretch:normal;font-size:11.02430534px;line-height:1.25;font-family:sans-serif;-inkscape-font-specification:'sans-serif, Normal';font-variant-ligatures:normal;font-variant-caps:normal;font-variant-numeric:normal;font-feature-settings:normal;text-align:center;letter-spacing:0px;word-spacing:0px;writing-mode:lr-tb;text-anchor:middle;fill:#000000;fill-opacity:1;stroke:none;stroke-width:0.27560762"
       id="text823">
      <path
         d="m 23.847857,213.97594 q 0,-0.0882 0.05512,-0.14332 0.06615,-0.0661 0.154341,-0.0661 h 3.152951 q 0.496094,0 0.926042,0.18741 0.440972,0.18741 0.771701,0.50712 0.330729,0.3197 0.518142,0.74965 0.187414,0.42995 0.187414,0.92604 0,0.38585 -0.121268,0.72761 -0.121267,0.33073 -0.341753,0.61736 -0.209462,0.28663 -0.507118,0.51814 -0.297657,0.22049 -0.661459,0.3638 l 1.51033,2.80018 q 0.05512,0.11024 0,0.22048 -0.0441,0.0992 -0.187413,0.0992 h -1.157552 q -0.07717,0 -0.121267,-0.0331 -0.03307,-0.0331 -0.05512,-0.0662 l -1.466233,-2.92144 h -1.223697 v 2.8112 q 0,0.0882 -0.06615,0.15434 -0.05512,0.0551 -0.143316,0.0551 h -1.014236 q -0.08819,0 -0.154341,-0.0551 -0.05512,-0.0661 -0.05512,-0.15434 z m 3.241146,3.30729 q 0.220486,0 0.418923,-0.0882 0.198438,-0.0882 0.341754,-0.24254 0.15434,-0.15434 0.242534,-0.35278 0.0882,-0.20946 0.0882,-0.44097 0,-0.22049 -0.0882,-0.4079 -0.08819,-0.19844 -0.242534,-0.34175 -0.143316,-0.15434 -0.341754,-0.23151 -0.198437,-0.0882 -0.418923,-0.0882 h -1.796962 v 2.19384 z"
         style="font-style:normal;font-variant:normal;font-weight:normal;font-stretch:normal;font-size:11.02430534px;font-family:'iCiel Brandon Text';-inkscape-font-specification:'iCiel Brandon Text';font-variant-ligatures:normal;font-variant-caps:normal;font-variant-numeric:normal;font-feature-settings:normal;text-align:center;letter-spacing:0.5291667px;writing-mode:lr-tb;text-anchor:middle;fill:#ffffff;fill-opacity:1;stroke-width:0.27560762"
         id="path1405" />
      <path
         d="m 31.654787,213.97594 q 0,-0.0882 0.05512,-0.14332 0.06615,-0.0661 0.15434,-0.0661 h 1.025261 q 0.08819,0 0.143316,0.0661 0.06614,0.0551 0.06614,0.14332 v 7.29809 q 0,0.0882 -0.06614,0.15434 -0.05512,0.0551 -0.143316,0.0551 h -1.025261 q -0.08819,0 -0.15434,-0.0551 -0.05512,-0.0661 -0.05512,-0.15434 z"
         style="font-style:normal;font-variant:normal;font-weight:normal;font-stretch:normal;font-size:11.02430534px;font-family:'iCiel Brandon Text';-inkscape-font-specification:'iCiel Brandon Text';font-variant-ligatures:normal;font-variant-caps:normal;font-variant-numeric:normal;font-feature-settings:normal;text-align:center;letter-spacing:0.5291667px;writing-mode:lr-tb;text-anchor:middle;fill:#ffffff;fill-opacity:1;stroke-width:0.27560762"
         id="path1407" />
      <path
         d="m 34.573817,214.05311 q -0.05512,-0.11024 0,-0.19844 0.06614,-0.0882 0.187413,-0.0882 h 1.124479 q 0.07717,0 0.121267,0.0441 0.0441,0.0331 0.06615,0.0772 l 2.127691,4.74045 h 0.05512 l 2.127691,-4.74045 q 0.02205,-0.0441 0.06614,-0.0772 0.0441,-0.0441 0.121268,-0.0441 h 1.124479 q 0.121267,0 0.176389,0.0882 0.06615,0.0882 0.01102,0.19844 l -3.417535,7.41936 q -0.06614,0.12126 -0.187413,0.12126 H 38.16774 q -0.132292,0 -0.187413,-0.12126 z"
         style="font-style:normal;font-variant:normal;font-weight:normal;font-stretch:normal;font-size:11.02430534px;font-family:'iCiel Brandon Text';-inkscape-font-specification:'iCiel Brandon Text';font-variant-ligatures:normal;font-variant-caps:normal;font-variant-numeric:normal;font-feature-settings:normal;text-align:center;letter-spacing:0.5291667px;writing-mode:lr-tb;text-anchor:middle;fill:#ffffff;fill-opacity:1;stroke-width:0.27560762"
         id="path1409" />
      <path
         d="m 43.349854,213.97594 q 0,-0.0882 0.05512,-0.14332 0.06615,-0.0661 0.154341,-0.0661 h 4.486892 q 0.08819,0 0.143316,0.0661 0.06615,0.0551 0.06615,0.14332 v 0.90399 q 0,0.0882 -0.06615,0.15434 -0.05512,0.0551 -0.143316,0.0551 h -3.263194 v 1.80799 h 2.723003 q 0.08819,0 0.143316,0.0661 0.06615,0.0551 0.06615,0.14332 v 0.91502 q 0,0.0882 -0.06615,0.15434 -0.05512,0.0551 -0.143316,0.0551 h -2.723003 v 1.92925 h 3.263194 q 0.08819,0 0.143316,0.0661 0.06615,0.0551 0.06615,0.14332 v 0.90399 q 0,0.0882 -0.06615,0.15434 -0.05512,0.0551 -0.143316,0.0551 h -4.486892 q -0.0882,0 -0.154341,-0.0551 -0.05512,-0.0661 -0.05512,-0.15434 z"
         style="font-style:normal;font-variant:normal;font-weight:normal;font-stretch:normal;font-size:11.02430534px;font-family:'iCiel Brandon Text';-inkscape-font-specification:'iCiel Brandon Text';font-variant-ligatures:normal;font-variant-caps:normal;font-variant-numeric:normal;font-feature-settings:normal;text-align:center;letter-spacing:0.5291667px;writing-mode:lr-tb;text-anchor:middle;fill:#ffffff;fill-opacity:1;stroke-width:0.27560762"
         id="path1411" />
      <path
         d="m 50.230915,213.97594 q 0,-0.0882 0.05512,-0.14332 0.06615,-0.0661 0.15434,-0.0661 h 3.152952 q 0.496093,0 0.926041,0.18741 0.440972,0.18741 0.771702,0.50712 0.330729,0.3197 0.518142,0.74965 0.187413,0.42995 0.187413,0.92604 0,0.38585 -0.121267,0.72761 -0.121268,0.33073 -0.341754,0.61736 -0.209462,0.28663 -0.507118,0.51814 -0.297656,0.22049 -0.661458,0.3638 l 1.51033,2.80018 q 0.05512,0.11024 0,0.22048 -0.0441,0.0992 -0.187413,0.0992 h -1.157552 q -0.07717,0 -0.121268,-0.0331 -0.03307,-0.0331 -0.05512,-0.0662 l -1.466233,-2.92144 h -1.223698 v 2.8112 q 0,0.0882 -0.06615,0.15434 -0.05512,0.0551 -0.143316,0.0551 h -1.014236 q -0.08819,0 -0.15434,-0.0551 -0.05512,-0.0661 -0.05512,-0.15434 z m 3.241146,3.30729 q 0.220486,0 0.418924,-0.0882 0.198437,-0.0882 0.341753,-0.24254 0.154341,-0.15434 0.242535,-0.35278 0.08819,-0.20946 0.08819,-0.44097 0,-0.22049 -0.08819,-0.4079 -0.08819,-0.19844 -0.242535,-0.34175 -0.143316,-0.15434 -0.341753,-0.23151 -0.198438,-0.0882 -0.418924,-0.0882 h -1.796962 v 2.19384 z"
         style="font-style:normal;font-variant:normal;font-weight:normal;font-stretch:normal;font-size:11.02430534px;font-family:'iCiel Brandon Text';-inkscape-font-specification:'iCiel Brandon Text';font-variant-ligatures:normal;font-variant-caps:normal;font-variant-numeric:normal;font-feature-settings:normal;text-align:center;letter-spacing:0.5291667px;writing-mode:lr-tb;text-anchor:middle;fill:#ffffff;fill-opacity:1;stroke-width:0.27560762"
         id="path1413" />
      <path
         d="m 61.21543,213.97594 q 0,-0.0882 0.05512,-0.14332 0.06615,-0.0661 0.15434,-0.0661 h 4.486893 q 0.08819,0 0.143316,0.0661 0.06615,0.0551 0.06615,0.14332 v 0.90399 q 0,0.0882 -0.06615,0.15434 -0.05512,0.0551 -0.143316,0.0551 h -3.263195 v 2.07257 h 2.723004 q 0.08819,0 0.143316,0.0661 0.06615,0.0551 0.06615,0.14331 v 0.904 q 0,0.0882 -0.06615,0.15434 -0.05512,0.0551 -0.143316,0.0551 h -2.723004 v 2.78915 q 0,0.0882 -0.06614,0.15434 -0.05512,0.0551 -0.143316,0.0551 h -1.014237 q -0.08819,0 -0.15434,-0.0551 -0.05512,-0.0661 -0.05512,-0.15434 z"
         style="font-style:normal;font-variant:normal;font-weight:normal;font-stretch:normal;font-size:11.02430534px;font-family:'iCiel Brandon Text';-inkscape-font-specification:'iCiel Brandon Text';font-variant-ligatures:normal;font-variant-caps:normal;font-variant-numeric:normal;font-feature-settings:normal;text-align:center;letter-spacing:0.5291667px;writing-mode:lr-tb;text-anchor:middle;fill:#ffffff;fill-opacity:1;stroke-width:0.27560762"
         id="path1415" />
      <path
         d="m 67.881171,213.97594 q 0,-0.0882 0.05512,-0.14332 0.06615,-0.0661 0.15434,-0.0661 h 1.014237 q 0.08819,0 0.143315,0.0661 0.06615,0.0551 0.06615,0.14332 v 6.18463 h 2.811198 q 0.08819,0 0.143316,0.0661 0.06615,0.0551 0.06615,0.14332 v 0.90399 q 0,0.0882 -0.06615,0.15434 -0.05512,0.0551 -0.143316,0.0551 h -4.034896 q -0.08819,0 -0.15434,-0.0551 -0.05512,-0.0661 -0.05512,-0.15434 z"
         style="font-style:normal;font-variant:normal;font-weight:normal;font-stretch:normal;font-size:11.02430534px;font-family:'iCiel Brandon Text';-inkscape-font-specification:'iCiel Brandon Text';font-variant-ligatures:normal;font-variant-caps:normal;font-variant-numeric:normal;font-feature-settings:normal;text-align:center;letter-spacing:0.5291667px;writing-mode:lr-tb;text-anchor:middle;fill:#ffffff;fill-opacity:1;stroke-width:0.27560762"
         id="path1417" />
      <path
         d="m 73.341303,217.63601 q 0,-0.82683 0.30868,-1.55443 0.308681,-0.7276 0.837847,-1.25677 0.540191,-0.54019 1.256771,-0.84887 0.727604,-0.31971 1.554427,-0.31971 0.826823,0 1.543403,0.31971 0.727604,0.30868 1.267795,0.84887 0.540191,0.52917 0.848872,1.25677 0.30868,0.7276 0.30868,1.55443 0,0.82682 -0.30868,1.55442 -0.308681,0.71658 -0.848872,1.25678 -0.540191,0.52916 -1.267795,0.83784 -0.71658,0.30868 -1.543403,0.30868 -0.826823,0 -1.554427,-0.30868 -0.71658,-0.30868 -1.256771,-0.83784 -0.529166,-0.5402 -0.837847,-1.25678 -0.30868,-0.7276 -0.30868,-1.55442 z m 1.433159,0 q 0,0.51814 0.198438,0.98116 0.198437,0.46302 0.540191,0.80477 0.341753,0.34176 0.804774,0.5402 0.463021,0.19843 0.981163,0.19843 0.518143,0 0.981163,-0.19843 0.463021,-0.19844 0.804775,-0.5402 0.352777,-0.34175 0.551215,-0.80477 0.198437,-0.46302 0.198437,-0.98116 0,-0.51814 -0.198437,-0.98117 -0.198438,-0.46302 -0.551215,-0.80477 -0.341754,-0.35278 -0.804775,-0.55122 -0.46302,-0.20946 -0.981163,-0.20946 -0.518142,0 -0.981163,0.20946 -0.463021,0.19844 -0.804774,0.55122 -0.341754,0.34175 -0.540191,0.80477 -0.198438,0.46303 -0.198438,0.98117 z"
         style="font-style:normal;font-variant:normal;font-weight:normal;font-stretch:normal;font-size:11.02430534px;font-family:'iCiel Brandon Text';-inkscape-font-specification:'iCiel Brandon Text';font-variant-ligatures:normal;font-variant-caps:normal;font-variant-numeric:normal;font-feature-settings:normal;text-align:center;letter-spacing:0.5291667px;writing-mode:lr-tb;text-anchor:middle;fill:#ffffff;fill-opacity:1;stroke-width:0.27560762"
         id="path1419" />
      <path
         d="m 82.520589,214.03106 q -0.03307,-0.12127 0.02205,-0.18741 0.05512,-0.0772 0.176389,-0.0772 h 1.014236 q 0.06615,0 0.121267,0.0551 0.05512,0.0441 0.07717,0.0992 l 1.146527,4.39869 h 0.0441 l 1.752865,-4.54201 q 0.0441,-0.12127 0.187413,-0.12127 h 0.198438 q 0.143316,0 0.187413,0.12127 l 1.763889,4.54201 h 0.0441 l 1.124479,-4.39869 q 0.02205,-0.0551 0.07717,-0.0992 0.05512,-0.0551 0.121268,-0.0551 h 1.014236 q 0.121267,0 0.176389,0.0772 0.05512,0.0661 0.02205,0.18741 l -2.083593,7.40833 q -0.0441,0.15434 -0.198438,0.15434 H 89.33361 q -0.143316,0 -0.187413,-0.12126 l -1.973351,-4.99401 h -0.05512 l -1.951302,4.99401 q -0.02205,0.0551 -0.06615,0.0882 -0.03307,0.0331 -0.121267,0.0331 h -0.176389 q -0.06615,0 -0.121268,-0.0441 -0.05512,-0.0441 -0.07717,-0.11025 z"
         style="font-style:normal;font-variant:normal;font-weight:normal;font-stretch:normal;font-size:11.02430534px;font-family:'iCiel Brandon Text';-inkscape-font-specification:'iCiel Brandon Text';font-variant-ligatures:normal;font-variant-caps:normal;font-variant-numeric:normal;font-feature-settings:normal;text-align:center;letter-spacing:0.5291667px;writing-mode:lr-tb;text-anchor:middle;fill:#ffffff;fill-opacity:1;stroke-width:0.27560762"
         id="path1421" />
      <path
         d="m 96.675799,213.97594 q 0,-0.0882 0.05512,-0.14332 0.06615,-0.0661 0.154341,-0.0661 h 1.02526 q 0.08819,0 0.143316,0.0661 0.06615,0.0551 0.06615,0.14332 v 7.29809 q 0,0.0882 -0.06615,0.15434 -0.05512,0.0551 -0.143316,0.0551 h -1.02526 q -0.08819,0 -0.154341,-0.0551 -0.05512,-0.0661 -0.05512,-0.15434 z"
         style="font-style:normal;font-variant:normal;font-weight:normal;font-stretch:normal;font-size:11.02430534px;font-family:'iCiel Brandon Text';-inkscape-font-specification:'iCiel Brandon Text';font-variant-ligatures:normal;font-variant-caps:normal;font-variant-numeric:normal;font-feature-settings:normal;text-align:center;letter-spacing:0.5291667px;writing-mode:lr-tb;text-anchor:middle;fill:#ffffff;fill-opacity:1;stroke-width:0.27560762"
         id="path1423" />
      <path
         d="m 100.52087,213.85467 q 0,-0.0882 0.0551,-0.14332 0.0661,-0.0551 0.15434,-0.0551 h 0.16537 q 0.11024,0 0.18741,0.0772 l 4.49791,4.79558 h 0.0221 v -4.55304 q 0,-0.0882 0.0551,-0.14332 0.0661,-0.0661 0.15435,-0.0661 h 1.01423 q 0.0882,0 0.14332,0.0661 0.0661,0.0551 0.0661,0.14332 v 7.41936 q 0,0.0882 -0.0661,0.14331 -0.0551,0.0551 -0.14332,0.0551 h -0.15434 q -0.11024,0 -0.18741,-0.0772 l -4.51997,-4.98298 h -0.0221 v 4.74045 q 0,0.0882 -0.0661,0.15434 -0.0551,0.0551 -0.14332,0.0551 h -1.00321 q -0.0882,0 -0.15434,-0.0551 -0.0551,-0.0661 -0.0551,-0.15434 z"
         style="font-style:normal;font-variant:normal;font-weight:normal;font-stretch:normal;font-size:11.02430534px;font-family:'iCiel Brandon Text';-inkscape-font-specification:'iCiel Brandon Text';font-variant-ligatures:normal;font-variant-caps:normal;font-variant-numeric:normal;font-feature-settings:normal;text-align:center;letter-spacing:0.5291667px;writing-mode:lr-tb;text-anchor:middle;fill:#ffffff;fill-opacity:1;stroke-width:0.27560762"
         id="path1425" />
      <path
         d="m 114.23459,217.7683 -2.51354,-3.68212 q -0.0662,-0.11024 -0.011,-0.20946 0.0551,-0.11024 0.18742,-0.11024 h 1.12448 q 0.0661,0 0.11024,0.0331 0.0441,0.0331 0.0661,0.0661 l 1.76389,2.5356 1.76389,-2.5356 q 0.0221,-0.0331 0.0662,-0.0661 0.0441,-0.0331 0.11024,-0.0331 h 1.1355 q 0.1323,0 0.18742,0.11024 0.0551,0.0992 -0.011,0.20946 l -2.54661,3.67109 v 3.51676 q 0,0.0882 -0.0661,0.15434 -0.0551,0.0551 -0.14331,0.0551 h -1.01424 q -0.0882,0 -0.15434,-0.0551 -0.0551,-0.0661 -0.0551,-0.15434 z"
         style="font-style:normal;font-variant:normal;font-weight:normal;font-stretch:normal;font-size:11.02430534px;font-family:'iCiel Brandon Text';-inkscape-font-specification:'iCiel Brandon Text';font-variant-ligatures:normal;font-variant-caps:normal;font-variant-numeric:normal;font-feature-settings:normal;text-align:center;letter-spacing:0.5291667px;writing-mode:lr-tb;text-anchor:middle;fill:#ffffff;fill-opacity:1;stroke-width:0.27560762"
         id="path1427" />
      <path
         d="m 118.92491,217.63601 q 0,-0.82683 0.30868,-1.55443 0.30868,-0.7276 0.83785,-1.25677 0.54019,-0.54019 1.25677,-0.84887 0.72761,-0.31971 1.55443,-0.31971 0.82682,0 1.5434,0.31971 0.72761,0.30868 1.2678,0.84887 0.54019,0.52917 0.84887,1.25677 0.30868,0.7276 0.30868,1.55443 0,0.82682 -0.30868,1.55442 -0.30868,0.71658 -0.84887,1.25678 -0.54019,0.52916 -1.2678,0.83784 -0.71658,0.30868 -1.5434,0.30868 -0.82682,0 -1.55443,-0.30868 -0.71658,-0.30868 -1.25677,-0.83784 -0.52917,-0.5402 -0.83785,-1.25678 -0.30868,-0.7276 -0.30868,-1.55442 z m 1.43316,0 q 0,0.51814 0.19844,0.98116 0.19844,0.46302 0.54019,0.80477 0.34175,0.34176 0.80478,0.5402 0.46302,0.19843 0.98116,0.19843 0.51814,0 0.98116,-0.19843 0.46302,-0.19844 0.80478,-0.5402 0.35277,-0.34175 0.55121,-0.80477 0.19844,-0.46302 0.19844,-0.98116 0,-0.51814 -0.19844,-0.98117 -0.19844,-0.46302 -0.55121,-0.80477 -0.34176,-0.35278 -0.80478,-0.55122 -0.46302,-0.20946 -0.98116,-0.20946 -0.51814,0 -0.98116,0.20946 -0.46303,0.19844 -0.80478,0.55122 -0.34175,0.34175 -0.54019,0.80477 -0.19844,0.46303 -0.19844,0.98117 z"
         style="font-style:normal;font-variant:normal;font-weight:normal;font-stretch:normal;font-size:11.02430534px;font-family:'iCiel Brandon Text';-inkscape-font-specification:'iCiel Brandon Text';font-variant-ligatures:normal;font-variant-caps:normal;font-variant-numeric:normal;font-feature-settings:normal;text-align:center;letter-spacing:0.5291667px;writing-mode:lr-tb;text-anchor:middle;fill:#ffffff;fill-opacity:1;stroke-width:0.27560762"
         id="path1429" />
      <path
         d="m 128.72155,213.97594 q 0,-0.0882 0.0551,-0.14332 0.0661,-0.0661 0.15435,-0.0661 h 1.0473 q 0.0882,0 0.14332,0.0661 0.0661,0.0551 0.0661,0.14332 v 4.59713 q 0,0.70556 0.42994,1.14653 0.44098,0.44097 1.16858,0.44097 0.3638,0 0.65043,-0.11024 0.29766,-0.12127 0.50712,-0.33073 0.22049,-0.20946 0.33073,-0.49609 0.12127,-0.28663 0.12127,-0.63941 v -4.60816 q 0,-0.0882 0.0551,-0.14332 0.0662,-0.0661 0.15434,-0.0661 h 1.04731 q 0.0882,0 0.14332,0.0661 0.0661,0.0551 0.0661,0.14332 v 4.6743 q 0,0.62839 -0.24253,1.16858 -0.23151,0.54019 -0.65044,0.93707 -0.4079,0.38585 -0.97014,0.61736 -0.56224,0.22048 -1.21267,0.22048 -0.65043,0 -1.21267,-0.22048 -0.55122,-0.23151 -0.97014,-0.61736 -0.4079,-0.39688 -0.65044,-0.93707 -0.23151,-0.54019 -0.23151,-1.16858 z"
         style="font-style:normal;font-variant:normal;font-weight:normal;font-stretch:normal;font-size:11.02430534px;font-family:'iCiel Brandon Text';-inkscape-font-specification:'iCiel Brandon Text';font-variant-ligatures:normal;font-variant-caps:normal;font-variant-numeric:normal;font-feature-settings:normal;text-align:center;letter-spacing:0.5291667px;writing-mode:lr-tb;text-anchor:middle;fill:#ffffff;fill-opacity:1;stroke-width:0.27560762"
         id="path1431" />
    </g>
  </g>
</svg>
