<?xml version="1.0" encoding="UTF-8" standalone="no"?>
<!-- Created with Inkscape (http://www.inkscape.org/) -->

<svg
   xmlns:dc="http://purl.org/dc/elements/1.1/"
   xmlns:cc="http://creativecommons.org/ns#"
   xmlns:rdf="http://www.w3.org/1999/02/22-rdf-syntax-ns#"
   xmlns:svg="http://www.w3.org/2000/svg"
   xmlns="http://www.w3.org/2000/svg"
   xmlns:sodipodi="http://sodipodi.sourceforge.net/DTD/sodipodi-0.dtd"
   xmlns:inkscape="http://www.inkscape.org/namespaces/inkscape"
   width="600"
   height="600"
   viewBox="0 0 158.75 158.75"
   version="1.1"
   id="svg8"
   sodipodi:docname="Secret-thumb.svg"
   inkscape:version="0.92.3 (2405546, 2018-03-11)">
  <defs
     id="defs2" />
  <sodipodi:namedview
     id="base"
     pagecolor="#ffffff"
     bordercolor="#666666"
     borderopacity="1.0"
     inkscape:pageopacity="0.0"
     inkscape:pageshadow="2"
     inkscape:zoom="0.94333333"
     inkscape:cx="363.07421"
     inkscape:cy="300.00002"
     inkscape:document-units="px"
     inkscape:current-layer="layer1"
     showgrid="false"
     units="px"
     inkscape:snap-page="true"
     inkscape:pagecheckerboard="true"
     inkscape:window-width="1366"
     inkscape:window-height="745"
     inkscape:window-x="-8"
     inkscape:window-y="-8"
     inkscape:window-maximized="1" />
  <metadata
     id="metadata5">
    <rdf:RDF>
      <cc:Work
         rdf:about="">
        <dc:format>image/svg+xml</dc:format>
        <dc:type
           rdf:resource="http://purl.org/dc/dcmitype/StillImage" />
        <dc:title></dc:title>
      </cc:Work>
    </rdf:RDF>
  </metadata>
  <g
     inkscape:label="Layer 1"
     inkscape:groupmode="layer"
     id="layer1"
     transform="translate(0,-138.24999)">
    <rect
       style="opacity:0.25;fill:#ffffff;fill-opacity:1;stroke-width:0.26458332"
       id="rect815"
       width="158.75"
       height="158.75"
       x="0"
       y="138.24998" />
    <g
       aria-label="SECRET (OST)"
       style="font-style:normal;font-variant:normal;font-weight:normal;font-stretch:normal;font-size:11.02430534px;line-height:1.25;font-family:sans-serif;-inkscape-font-specification:'sans-serif, Normal';font-variant-ligatures:normal;font-variant-caps:normal;font-variant-numeric:normal;font-feature-settings:normal;text-align:center;letter-spacing:0px;word-spacing:0px;writing-mode:lr-tb;text-anchor:middle;fill:#000000;fill-opacity:1;stroke:none;stroke-width:0.27560762"
       id="text823">
      <path
         d="m 32.860227,221.21341 q -0.518142,0 -0.926042,-0.0992 -0.396875,-0.0882 -0.694531,-0.22049 -0.286632,-0.14331 -0.485069,-0.28663 -0.198438,-0.15434 -0.319705,-0.25356 -0.08819,-0.0661 -0.110243,-0.13229 -0.02205,-0.0661 0.05512,-0.19844 l 0.396875,-0.6835 q 0.06615,-0.12127 0.176389,-0.12127 0.121268,-0.011 0.198438,0.0441 0.341753,0.25355 0.727604,0.47404 0.396875,0.20946 0.937066,0.20946 0.429948,0 0.71658,-0.24253 0.286632,-0.25356 0.286632,-0.60634 0,-0.41892 -0.352778,-0.7276 -0.352778,-0.30868 -1.047309,-0.59532 -0.385851,-0.15434 -0.760677,-0.3638 -0.374827,-0.20946 -0.672483,-0.49609 -0.286632,-0.28663 -0.463021,-0.66146 -0.176389,-0.37483 -0.176389,-0.8599 0,-0.3638 0.143316,-0.73862 0.143316,-0.38585 0.440973,-0.68351 0.297656,-0.30868 0.760677,-0.49609 0.474045,-0.19844 1.135503,-0.19844 0.418924,0 0.782726,0.0992 0.374826,0.0882 0.661458,0.20946 0.286632,0.12127 0.474045,0.24253 0.198438,0.12127 0.286632,0.18742 0.08819,0.0551 0.09922,0.16536 0.02205,0.11024 -0.03307,0.19844 l -0.418924,0.62838 q -0.06614,0.0992 -0.176389,0.15434 -0.110243,0.0441 -0.209461,-0.022 -0.352778,-0.22049 -0.71658,-0.4079 -0.352778,-0.19844 -0.815799,-0.19844 -0.474045,0 -0.727604,0.23151 -0.242535,0.22049 -0.242535,0.54019 0,0.38585 0.308681,0.67248 0.319705,0.28663 0.992187,0.56224 0.396875,0.16537 0.804775,0.37483 0.418923,0.20946 0.749652,0.50712 0.33073,0.28663 0.540191,0.6835 0.209462,0.39688 0.209462,0.92605 0,0.42994 -0.176389,0.82682 -0.176389,0.38585 -0.507118,0.69453 -0.330729,0.29766 -0.804774,0.48507 -0.463021,0.17639 -1.047309,0.17639 z"
         style="font-style:normal;font-variant:normal;font-weight:normal;font-stretch:normal;font-size:11.02430534px;font-family:'iCiel Brandon Text';-inkscape-font-specification:'iCiel Brandon Text';font-variant-ligatures:normal;font-variant-caps:normal;font-variant-numeric:normal;font-feature-settings:normal;text-align:center;letter-spacing:2.64583325px;writing-mode:lr-tb;text-anchor:middle;fill:#ffffff;fill-opacity:1;stroke-width:0.27560762"
         id="path2205" />
      <path
         d="m 39.407803,213.59561 q 0,-0.0882 0.05512,-0.14331 0.06615,-0.0662 0.154341,-0.0662 h 4.486892 q 0.08819,0 0.143316,0.0662 0.06615,0.0551 0.06615,0.14331 v 0.904 q 0,0.0882 -0.06615,0.15434 -0.05512,0.0551 -0.143316,0.0551 h -3.263194 v 1.80798 h 2.723003 q 0.08819,0 0.143316,0.0661 0.06615,0.0551 0.06615,0.14332 v 0.91501 q 0,0.0882 -0.06615,0.15434 -0.05512,0.0551 -0.143316,0.0551 h -2.723003 v 1.92926 h 3.263194 q 0.08819,0 0.143316,0.0661 0.06615,0.0551 0.06615,0.14332 v 0.90399 q 0,0.0882 -0.06615,0.15434 -0.05512,0.0551 -0.143316,0.0551 h -4.486892 q -0.0882,0 -0.154341,-0.0551 -0.05512,-0.0661 -0.05512,-0.15434 z"
         style="font-style:normal;font-variant:normal;font-weight:normal;font-stretch:normal;font-size:11.02430534px;font-family:'iCiel Brandon Text';-inkscape-font-specification:'iCiel Brandon Text';font-variant-ligatures:normal;font-variant-caps:normal;font-variant-numeric:normal;font-feature-settings:normal;text-align:center;letter-spacing:2.64583325px;writing-mode:lr-tb;text-anchor:middle;fill:#ffffff;fill-opacity:1;stroke-width:0.27560762"
         id="path2207" />
      <path
         d="m 47.824343,217.25568 q 0,-0.82682 0.308681,-1.55442 0.319705,-0.72761 0.848871,-1.25678 0.540191,-0.54019 1.267796,-0.84887 0.727604,-0.3197 1.554427,-0.3197 0.837847,0 1.466232,0.26458 0.63941,0.25356 1.201649,0.76068 0.165365,0.15434 0.01103,0.30868 l -0.672483,0.69453 q -0.132292,0.14332 -0.275607,0 -0.352778,-0.30868 -0.79375,-0.47405 -0.440973,-0.17638 -0.903993,-0.17638 -0.529167,0 -0.981164,0.20946 -0.451996,0.19844 -0.782725,0.55121 -0.319705,0.35278 -0.507118,0.82683 -0.187414,0.46302 -0.187414,0.98116 0,0.51814 0.187414,0.98116 0.187413,0.46302 0.518142,0.8158 0.330729,0.34175 0.782726,0.55122 0.451996,0.19843 0.981163,0.19843 0.496094,0 0.915017,-0.16536 0.418924,-0.17639 0.771702,-0.46302 0.06614,-0.0551 0.143315,-0.0551 0.07717,0 0.132292,0.0551 l 0.683507,0.70555 q 0.06615,0.0551 0.05512,0.15434 -0.01102,0.0882 -0.06615,0.14332 -0.56224,0.55122 -1.256771,0.8158 -0.683507,0.25356 -1.422135,0.25356 -0.826823,0 -1.554427,-0.30868 -0.727605,-0.30868 -1.267796,-0.83785 -0.529166,-0.54019 -0.848871,-1.25677 -0.308681,-0.7276 -0.308681,-1.55443 z"
         style="font-style:normal;font-variant:normal;font-weight:normal;font-stretch:normal;font-size:11.02430534px;font-family:'iCiel Brandon Text';-inkscape-font-specification:'iCiel Brandon Text';font-variant-ligatures:normal;font-variant-caps:normal;font-variant-numeric:normal;font-feature-settings:normal;text-align:center;letter-spacing:2.64583325px;writing-mode:lr-tb;text-anchor:middle;fill:#ffffff;fill-opacity:1;stroke-width:0.27560762"
         id="path2209" />
      <path
         d="m 58.501382,213.59561 q 0,-0.0882 0.05512,-0.14331 0.06615,-0.0662 0.15434,-0.0662 h 3.152951 q 0.496094,0 0.926042,0.18741 0.440972,0.18742 0.771701,0.50712 0.33073,0.31971 0.518143,0.74965 0.187413,0.42995 0.187413,0.92605 0,0.38585 -0.121267,0.7276 -0.121268,0.33073 -0.341754,0.61736 -0.209462,0.28663 -0.507118,0.51814 -0.297656,0.22049 -0.661458,0.36381 l 1.51033,2.80017 q 0.05512,0.11024 0,0.22049 -0.0441,0.0992 -0.187414,0.0992 h -1.157552 q -0.07717,0 -0.121267,-0.0331 -0.03307,-0.0331 -0.05512,-0.0661 l -1.466232,-2.92144 h -1.223698 v 2.81119 q 0,0.0882 -0.06615,0.15434 -0.05512,0.0551 -0.143316,0.0551 h -1.014236 q -0.08819,0 -0.15434,-0.0551 -0.05512,-0.0661 -0.05512,-0.15434 z m 3.241146,3.30729 q 0.220486,0 0.418924,-0.0882 0.198437,-0.0882 0.341753,-0.24253 0.15434,-0.15435 0.242535,-0.35278 0.08819,-0.20946 0.08819,-0.44097 0,-0.22049 -0.08819,-0.4079 -0.08819,-0.19844 -0.242535,-0.34176 -0.143316,-0.15434 -0.341753,-0.23151 -0.198438,-0.0882 -0.418924,-0.0882 h -1.796962 v 2.19383 z"
         style="font-style:normal;font-variant:normal;font-weight:normal;font-stretch:normal;font-size:11.02430534px;font-family:'iCiel Brandon Text';-inkscape-font-specification:'iCiel Brandon Text';font-variant-ligatures:normal;font-variant-caps:normal;font-variant-numeric:normal;font-feature-settings:normal;text-align:center;letter-spacing:2.64583325px;writing-mode:lr-tb;text-anchor:middle;fill:#ffffff;fill-opacity:1;stroke-width:0.27560762"
         id="path2211" />
      <path
         d="m 68.42498,213.59561 q 0,-0.0882 0.05512,-0.14331 0.06615,-0.0662 0.15434,-0.0662 h 4.486893 q 0.08819,0 0.143316,0.0662 0.06614,0.0551 0.06614,0.14331 v 0.904 q 0,0.0882 -0.06614,0.15434 -0.05512,0.0551 -0.143316,0.0551 h -3.263195 v 1.80798 h 2.723004 q 0.08819,0 0.143316,0.0661 0.06615,0.0551 0.06615,0.14332 v 0.91501 q 0,0.0882 -0.06615,0.15434 -0.05512,0.0551 -0.143316,0.0551 h -2.723004 v 1.92926 h 3.263195 q 0.08819,0 0.143316,0.0661 0.06614,0.0551 0.06614,0.14332 v 0.90399 q 0,0.0882 -0.06614,0.15434 -0.05512,0.0551 -0.143316,0.0551 h -4.486893 q -0.08819,0 -0.15434,-0.0551 -0.05512,-0.0661 -0.05512,-0.15434 z"
         style="font-style:normal;font-variant:normal;font-weight:normal;font-stretch:normal;font-size:11.02430534px;font-family:'iCiel Brandon Text';-inkscape-font-specification:'iCiel Brandon Text';font-variant-ligatures:normal;font-variant-caps:normal;font-variant-numeric:normal;font-feature-settings:normal;text-align:center;letter-spacing:2.64583325px;writing-mode:lr-tb;text-anchor:middle;fill:#ffffff;fill-opacity:1;stroke-width:0.27560762"
         id="path2213" />
      <path
         d="m 78.668456,214.70907 h -1.686718 q -0.0882,0 -0.154341,-0.0551 -0.05512,-0.0662 -0.05512,-0.15434 v -0.904 q 0,-0.0882 0.05512,-0.14331 0.06615,-0.0662 0.154341,-0.0662 h 4.817621 q 0.08819,0 0.143316,0.0662 0.06615,0.0551 0.06615,0.14331 v 0.904 q 0,0.0882 -0.06615,0.15434 -0.05512,0.0551 -0.143316,0.0551 H 80.11264 v 6.18463 q 0,0.0882 -0.06615,0.15434 -0.05512,0.0551 -0.143315,0.0551 h -1.025261 q -0.08819,0 -0.15434,-0.0551 -0.05512,-0.0661 -0.05512,-0.15434 z"
         style="font-style:normal;font-variant:normal;font-weight:normal;font-stretch:normal;font-size:11.02430534px;font-family:'iCiel Brandon Text';-inkscape-font-specification:'iCiel Brandon Text';font-variant-ligatures:normal;font-variant-caps:normal;font-variant-numeric:normal;font-feature-settings:normal;text-align:center;letter-spacing:2.64583325px;writing-mode:lr-tb;text-anchor:middle;fill:#ffffff;fill-opacity:1;stroke-width:0.27560762"
         id="path2215" />
      <path
         d="m 93.425349,221.97408 q -0.474045,-0.0331 -0.959114,-0.23151 -0.48507,-0.19843 -0.881945,-0.67248 -0.396875,-0.48507 -0.650434,-1.31189 -0.242534,-0.82682 -0.242534,-2.12769 0,-1.30087 0.242534,-2.12769 0.253559,-0.83785 0.650434,-1.31189 0.396875,-0.48507 0.881945,-0.68351 0.485069,-0.19844 0.959114,-0.22049 0.08819,-0.011 0.143316,0.0441 0.06615,0.0441 0.06615,0.12127 l 0.03307,0.7276 q 0.01102,0.0661 -0.03307,0.13229 -0.0441,0.0551 -0.09922,0.0662 -0.815798,0.22048 -1.157552,1.04731 -0.330729,0.82682 -0.330729,2.20486 0,1.38906 0.330729,2.20486 0.341754,0.8158 1.157552,1.03628 0.07717,0.0221 0.110243,0.0882 0.03307,0.0551 0.02205,0.12127 l -0.03307,0.71658 q -0.02205,0.17638 -0.209462,0.17638 z"
         style="font-style:normal;font-variant:normal;font-weight:normal;font-stretch:normal;font-size:11.02430534px;font-family:'iCiel Brandon Text';-inkscape-font-specification:'iCiel Brandon Text';font-variant-ligatures:normal;font-variant-caps:normal;font-variant-numeric:normal;font-feature-settings:normal;text-align:center;letter-spacing:2.64583325px;writing-mode:lr-tb;text-anchor:middle;fill:#ffffff;fill-opacity:1;stroke-width:0.27560762"
         id="path2217" />
      <path
         d="m 96.90145,217.25568 q 0,-0.82682 0.30868,-1.55442 0.308681,-0.72761 0.837848,-1.25678 0.540191,-0.54019 1.25677,-0.84887 0.727602,-0.3197 1.554432,-0.3197 0.82682,0 1.5434,0.3197 0.7276,0.30868 1.26779,0.84887 0.54019,0.52917 0.84887,1.25678 0.30869,0.7276 0.30869,1.55442 0,0.82683 -0.30869,1.55443 -0.30868,0.71658 -0.84887,1.25677 -0.54019,0.52917 -1.26779,0.83785 -0.71658,0.30868 -1.5434,0.30868 -0.82683,0 -1.554432,-0.30868 -0.716579,-0.30868 -1.25677,-0.83785 -0.529167,-0.54019 -0.837848,-1.25677 -0.30868,-0.7276 -0.30868,-1.55443 z m 1.43316,0 q 0,0.51814 0.198437,0.98117 0.198438,0.46302 0.540191,0.80477 0.341753,0.34175 0.804774,0.54019 0.463018,0.19844 0.981168,0.19844 0.51814,0 0.98116,-0.19844 0.46302,-0.19844 0.80477,-0.54019 0.35278,-0.34175 0.55122,-0.80477 0.19844,-0.46303 0.19844,-0.98117 0,-0.51814 -0.19844,-0.98116 -0.19844,-0.46302 -0.55122,-0.80478 -0.34175,-0.35277 -0.80477,-0.55121 -0.46302,-0.20946 -0.98116,-0.20946 -0.51815,0 -0.981168,0.20946 -0.463021,0.19844 -0.804774,0.55121 -0.341753,0.34176 -0.540191,0.80478 -0.198437,0.46302 -0.198437,0.98116 z"
         style="font-style:normal;font-variant:normal;font-weight:normal;font-stretch:normal;font-size:11.02430534px;font-family:'iCiel Brandon Text';-inkscape-font-specification:'iCiel Brandon Text';font-variant-ligatures:normal;font-variant-caps:normal;font-variant-numeric:normal;font-feature-settings:normal;text-align:center;letter-spacing:2.64583325px;writing-mode:lr-tb;text-anchor:middle;fill:#ffffff;fill-opacity:1;stroke-width:0.27560762"
         id="path2219" />
      <path
         d="m 110.99757,221.21341 q -0.51814,0 -0.92604,-0.0992 -0.39688,-0.0882 -0.69453,-0.22049 -0.28663,-0.14331 -0.48507,-0.28663 -0.19844,-0.15434 -0.31971,-0.25356 -0.0882,-0.0661 -0.11024,-0.13229 -0.022,-0.0661 0.0551,-0.19844 l 0.39688,-0.6835 q 0.0661,-0.12127 0.17639,-0.12127 0.12126,-0.011 0.19843,0.0441 0.34176,0.25355 0.72761,0.47404 0.39687,0.20946 0.93706,0.20946 0.42995,0 0.71658,-0.24253 0.28664,-0.25356 0.28664,-0.60634 0,-0.41892 -0.35278,-0.7276 -0.35278,-0.30868 -1.04731,-0.59532 -0.38585,-0.15434 -0.76068,-0.3638 -0.37482,-0.20946 -0.67248,-0.49609 -0.28663,-0.28663 -0.46302,-0.66146 -0.17639,-0.37483 -0.17639,-0.8599 0,-0.3638 0.14332,-0.73862 0.14331,-0.38585 0.44097,-0.68351 0.29765,-0.30868 0.76067,-0.49609 0.47405,-0.19844 1.13551,-0.19844 0.41892,0 0.78272,0.0992 0.37483,0.0882 0.66146,0.20946 0.28663,0.12127 0.47405,0.24253 0.19844,0.12127 0.28663,0.18742 0.0882,0.0551 0.0992,0.16536 0.022,0.11024 -0.0331,0.19844 l -0.41893,0.62838 q -0.0661,0.0992 -0.17639,0.15434 -0.11024,0.0441 -0.20946,-0.022 -0.35278,-0.22049 -0.71658,-0.4079 -0.35278,-0.19844 -0.8158,-0.19844 -0.47404,0 -0.7276,0.23151 -0.24254,0.22049 -0.24254,0.54019 0,0.38585 0.30868,0.67248 0.31971,0.28663 0.99219,0.56224 0.39688,0.16537 0.80478,0.37483 0.41892,0.20946 0.74965,0.50712 0.33073,0.28663 0.54019,0.6835 0.20946,0.39688 0.20946,0.92605 0,0.42994 -0.17639,0.82682 -0.17639,0.38585 -0.50712,0.69453 -0.33072,0.29766 -0.80477,0.48507 -0.46302,0.17639 -1.04731,0.17639 z"
         style="font-style:normal;font-variant:normal;font-weight:normal;font-stretch:normal;font-size:11.02430534px;font-family:'iCiel Brandon Text';-inkscape-font-specification:'iCiel Brandon Text';font-variant-ligatures:normal;font-variant-caps:normal;font-variant-numeric:normal;font-feature-settings:normal;text-align:center;letter-spacing:2.64583325px;writing-mode:lr-tb;text-anchor:middle;fill:#ffffff;fill-opacity:1;stroke-width:0.27560762"
         id="path2221" />
      <path
         d="m 118.7909,214.70907 h -1.68672 q -0.0882,0 -0.15434,-0.0551 -0.0551,-0.0662 -0.0551,-0.15434 v -0.904 q 0,-0.0882 0.0551,-0.14331 0.0661,-0.0662 0.15434,-0.0662 h 4.81762 q 0.0882,0 0.14332,0.0662 0.0661,0.0551 0.0661,0.14331 v 0.904 q 0,0.0882 -0.0661,0.15434 -0.0551,0.0551 -0.14332,0.0551 h -1.68672 v 6.18463 q 0,0.0882 -0.0661,0.15434 -0.0551,0.0551 -0.14331,0.0551 h -1.02526 q -0.0882,0 -0.15434,-0.0551 -0.0551,-0.0661 -0.0551,-0.15434 z"
         style="font-style:normal;font-variant:normal;font-weight:normal;font-stretch:normal;font-size:11.02430534px;font-family:'iCiel Brandon Text';-inkscape-font-specification:'iCiel Brandon Text';font-variant-ligatures:normal;font-variant-caps:normal;font-variant-numeric:normal;font-feature-settings:normal;text-align:center;letter-spacing:2.64583325px;writing-mode:lr-tb;text-anchor:middle;fill:#ffffff;fill-opacity:1;stroke-width:0.27560762"
         id="path2223" />
      <path
         d="m 125.3762,221.08112 q -0.011,-0.0661 0.0221,-0.12127 0.0331,-0.0661 0.11024,-0.0882 0.8158,-0.22048 1.14653,-1.03628 0.34175,-0.8158 0.34175,-2.20486 0,-1.37804 -0.34175,-2.20486 -0.33073,-0.82683 -1.14653,-1.04731 -0.0551,-0.011 -0.0992,-0.0662 -0.0441,-0.0661 -0.0331,-0.13229 l 0.0331,-0.7276 q 0,-0.0772 0.0551,-0.12127 0.0662,-0.0551 0.15434,-0.0441 0.47405,0.022 0.95912,0.22049 0.48507,0.19844 0.88194,0.68351 0.39688,0.47404 0.63941,1.31189 0.25356,0.82682 0.25356,2.12769 0,1.30087 -0.25356,2.12769 -0.24253,0.82682 -0.63941,1.31189 -0.39687,0.47405 -0.88194,0.67248 -0.48507,0.19844 -0.95912,0.23151 -0.18741,0 -0.20946,-0.17638 l -0.0331,-0.71658 z"
         style="font-style:normal;font-variant:normal;font-weight:normal;font-stretch:normal;font-size:11.02430534px;font-family:'iCiel Brandon Text';-inkscape-font-specification:'iCiel Brandon Text';font-variant-ligatures:normal;font-variant-caps:normal;font-variant-numeric:normal;font-feature-settings:normal;text-align:center;letter-spacing:2.64583325px;writing-mode:lr-tb;text-anchor:middle;fill:#ffffff;fill-opacity:1;stroke-width:0.27560762"
         id="path2225" />
    </g>
  </g>
</svg>
