<?xml version="1.0" encoding="UTF-8" standalone="no"?>
<!-- Created with Inkscape (http://www.inkscape.org/) -->

<svg
   xmlns:dc="http://purl.org/dc/elements/1.1/"
   xmlns:cc="http://creativecommons.org/ns#"
   xmlns:rdf="http://www.w3.org/1999/02/22-rdf-syntax-ns#"
   xmlns:svg="http://www.w3.org/2000/svg"
   xmlns="http://www.w3.org/2000/svg"
   xmlns:sodipodi="http://sodipodi.sourceforge.net/DTD/sodipodi-0.dtd"
   xmlns:inkscape="http://www.inkscape.org/namespaces/inkscape"
   width="600"
   height="600"
   viewBox="0 0 158.75 158.75"
   version="1.1"
   id="svg8"
   sodipodi:docname="SpringTime-thumb.svg"
   inkscape:version="0.92.3 (2405546, 2018-03-11)">
  <defs
     id="defs2" />
  <sodipodi:namedview
     id="base"
     pagecolor="#ffffff"
     bordercolor="#666666"
     borderopacity="1.0"
     inkscape:pageopacity="0.0"
     inkscape:pageshadow="2"
     inkscape:zoom="0.94333333"
     inkscape:cx="363.07421"
     inkscape:cy="300.00002"
     inkscape:document-units="px"
     inkscape:current-layer="layer1"
     showgrid="false"
     units="px"
     inkscape:snap-page="true"
     inkscape:pagecheckerboard="true"
     inkscape:window-width="1366"
     inkscape:window-height="745"
     inkscape:window-x="-8"
     inkscape:window-y="-8"
     inkscape:window-maximized="1" />
  <metadata
     id="metadata5">
    <rdf:RDF>
      <cc:Work
         rdf:about="">
        <dc:format>image/svg+xml</dc:format>
        <dc:type
           rdf:resource="http://purl.org/dc/dcmitype/StillImage" />
        <dc:title></dc:title>
      </cc:Work>
    </rdf:RDF>
  </metadata>
  <g
     inkscape:label="Layer 1"
     inkscape:groupmode="layer"
     id="layer1"
     transform="translate(0,-138.24999)">
    <rect
       style="opacity:0.25;fill:#ffffff;fill-opacity:1;stroke-width:0.26458332"
       id="rect815"
       width="158.75"
       height="158.75"
       x="0"
       y="138.24998" />
    <g
       aria-label="SPRING TIME"
       style="font-style:normal;font-variant:normal;font-weight:normal;font-stretch:normal;font-size:11.02430534px;line-height:1.25;font-family:sans-serif;-inkscape-font-specification:'sans-serif, Normal';font-variant-ligatures:normal;font-variant-caps:normal;font-variant-numeric:normal;font-feature-settings:normal;text-align:center;letter-spacing:0px;word-spacing:0px;writing-mode:lr-tb;text-anchor:middle;fill:#000000;fill-opacity:1;stroke:none;stroke-width:0.27560762"
       id="text823">
      <path
         d="m 32.981108,221.59373 q -0.518143,0 -0.926042,-0.0992 -0.396875,-0.0882 -0.694531,-0.22048 -0.286632,-0.14332 -0.48507,-0.28663 -0.198437,-0.15434 -0.319704,-0.25356 -0.08819,-0.0661 -0.110243,-0.13229 -0.02205,-0.0661 0.05512,-0.19844 l 0.396875,-0.68351 q 0.06615,-0.12127 0.176389,-0.12127 0.121267,-0.011 0.198437,0.0441 0.341754,0.25356 0.727605,0.47405 0.396875,0.20946 0.937066,0.20946 0.429947,0 0.716579,-0.24254 0.286632,-0.25356 0.286632,-0.60633 0,-0.41893 -0.352777,-0.72761 -0.352778,-0.30868 -1.047309,-0.59531 -0.385851,-0.15434 -0.760678,-0.3638 -0.374826,-0.20946 -0.672482,-0.4961 -0.286632,-0.28663 -0.463021,-0.66145 -0.176389,-0.37483 -0.176389,-0.8599 0,-0.3638 0.143316,-0.73863 0.143316,-0.38585 0.440972,-0.68351 0.297657,-0.30868 0.760677,-0.49609 0.474045,-0.19844 1.135504,-0.19844 0.418923,0 0.782725,0.0992 0.374827,0.0882 0.661459,0.20946 0.286632,0.12127 0.474045,0.24254 0.198437,0.12127 0.286632,0.18741 0.08819,0.0551 0.09922,0.16537 0.02205,0.11024 -0.03307,0.19843 l -0.418924,0.62839 q -0.06615,0.0992 -0.176389,0.15434 -0.110243,0.0441 -0.209462,-0.0221 -0.352777,-0.22049 -0.716579,-0.4079 -0.352778,-0.19844 -0.815799,-0.19844 -0.474045,0 -0.727604,0.23151 -0.242535,0.22049 -0.242535,0.5402 0,0.38585 0.308681,0.67248 0.319705,0.28663 0.992187,0.56224 0.396875,0.16536 0.804774,0.37482 0.418924,0.20947 0.749653,0.50712 0.330729,0.28663 0.540191,0.68351 0.209462,0.39687 0.209462,0.92604 0,0.42995 -0.176389,0.82682 -0.176389,0.38585 -0.507118,0.69453 -0.330729,0.29766 -0.804774,0.48507 -0.463021,0.17639 -1.047309,0.17639 z"
         style="font-style:normal;font-variant:normal;font-weight:normal;font-stretch:normal;font-size:11.02430534px;font-family:'iCiel Brandon Text';-inkscape-font-specification:'iCiel Brandon Text';font-variant-ligatures:normal;font-variant-caps:normal;font-variant-numeric:normal;font-feature-settings:normal;text-align:center;letter-spacing:3.17499995px;writing-mode:lr-tb;text-anchor:middle;fill:#ffffff;fill-opacity:1;stroke-width:0.27560762"
         id="path2339" />
      <path
         d="m 40.057851,213.97594 q 0,-0.0882 0.05512,-0.14332 0.06615,-0.0661 0.154341,-0.0661 h 2.590711 q 0.507118,0 0.959115,0.19843 0.451996,0.18742 0.782726,0.51815 0.341753,0.33073 0.529166,0.78272 0.198438,0.44097 0.198438,0.93707 0,0.51814 -0.198438,0.97014 -0.187413,0.44097 -0.529166,0.78272 -0.33073,0.34176 -0.782726,0.54019 -0.440972,0.18742 -0.94809,0.18742 h -1.378038 v 2.59071 q 0,0.0882 -0.06615,0.15434 -0.05512,0.0551 -0.143316,0.0551 h -1.014236 q -0.08819,0 -0.154341,-0.0551 -0.05512,-0.0661 -0.05512,-0.15434 z m 2.756076,3.36241 q 0.231511,0 0.429948,-0.0882 0.198438,-0.0882 0.341754,-0.24254 0.15434,-0.15434 0.23151,-0.3638 0.08819,-0.20946 0.08819,-0.452 0,-0.23151 -0.08819,-0.41892 -0.07717,-0.19844 -0.23151,-0.34175 -0.143316,-0.14332 -0.341754,-0.22049 -0.198437,-0.0882 -0.429948,-0.0882 h -1.322916 v 2.21588 z"
         style="font-style:normal;font-variant:normal;font-weight:normal;font-stretch:normal;font-size:11.02430534px;font-family:'iCiel Brandon Text';-inkscape-font-specification:'iCiel Brandon Text';font-variant-ligatures:normal;font-variant-caps:normal;font-variant-numeric:normal;font-feature-settings:normal;text-align:center;letter-spacing:3.17499995px;writing-mode:lr-tb;text-anchor:middle;fill:#ffffff;fill-opacity:1;stroke-width:0.27560762"
         id="path2341" />
      <path
         d="m 49.735468,213.97594 q 0,-0.0882 0.05512,-0.14332 0.06615,-0.0661 0.154341,-0.0661 h 3.152951 q 0.496094,0 0.926042,0.18741 0.440972,0.18741 0.771701,0.50712 0.330729,0.3197 0.518142,0.74965 0.187414,0.42995 0.187414,0.92604 0,0.38585 -0.121268,0.72761 -0.121267,0.33073 -0.341753,0.61736 -0.209462,0.28663 -0.507118,0.51814 -0.297656,0.22049 -0.661459,0.3638 l 1.51033,2.80018 q 0.05512,0.11024 0,0.22048 -0.0441,0.0992 -0.187413,0.0992 h -1.157552 q -0.07717,0 -0.121267,-0.0331 -0.03307,-0.0331 -0.05512,-0.0662 l -1.466232,-2.92144 h -1.223698 v 2.8112 q 0,0.0882 -0.06615,0.15434 -0.05512,0.0551 -0.143316,0.0551 H 49.94493 q -0.08819,0 -0.154341,-0.0551 -0.05512,-0.0661 -0.05512,-0.15434 z m 3.241146,3.30729 q 0.220486,0 0.418923,-0.0882 0.198438,-0.0882 0.341754,-0.24254 0.15434,-0.15434 0.242534,-0.35278 0.08819,-0.20946 0.08819,-0.44097 0,-0.22049 -0.08819,-0.4079 -0.08819,-0.19844 -0.242534,-0.34175 -0.143316,-0.15434 -0.341754,-0.23151 -0.198437,-0.0882 -0.418923,-0.0882 h -1.796962 v 2.19384 z"
         style="font-style:normal;font-variant:normal;font-weight:normal;font-stretch:normal;font-size:11.02430534px;font-family:'iCiel Brandon Text';-inkscape-font-specification:'iCiel Brandon Text';font-variant-ligatures:normal;font-variant-caps:normal;font-variant-numeric:normal;font-feature-settings:normal;text-align:center;letter-spacing:3.17499995px;writing-mode:lr-tb;text-anchor:middle;fill:#ffffff;fill-opacity:1;stroke-width:0.27560762"
         id="path2343" />
      <path
         d="m 60.188232,213.97594 q 0,-0.0882 0.05512,-0.14332 0.06615,-0.0661 0.15434,-0.0661 h 1.025261 q 0.08819,0 0.143316,0.0661 0.06614,0.0551 0.06614,0.14332 v 7.29809 q 0,0.0882 -0.06614,0.15434 -0.05512,0.0551 -0.143316,0.0551 h -1.025261 q -0.08819,0 -0.15434,-0.0551 -0.05512,-0.0661 -0.05512,-0.15434 z"
         style="font-style:normal;font-variant:normal;font-weight:normal;font-stretch:normal;font-size:11.02430534px;font-family:'iCiel Brandon Text';-inkscape-font-specification:'iCiel Brandon Text';font-variant-ligatures:normal;font-variant-caps:normal;font-variant-numeric:normal;font-feature-settings:normal;text-align:center;letter-spacing:3.17499995px;writing-mode:lr-tb;text-anchor:middle;fill:#ffffff;fill-opacity:1;stroke-width:0.27560762"
         id="path2345" />
      <path
         d="m 66.679138,213.85467 q 0,-0.0882 0.05512,-0.14332 0.06615,-0.0551 0.15434,-0.0551 h 0.165365 q 0.110243,0 0.187413,0.0772 l 4.497916,4.79558 h 0.02205 v -4.55304 q 0,-0.0882 0.05512,-0.14332 0.06615,-0.0661 0.154341,-0.0661 h 1.014236 q 0.08819,0 0.143316,0.0661 0.06615,0.0551 0.06615,0.14332 v 7.41936 q 0,0.0882 -0.06615,0.14331 -0.05512,0.0551 -0.143316,0.0551 h -0.15434 q -0.110243,0 -0.187414,-0.0772 l -4.519965,-4.98298 h -0.02205 v 4.74045 q 0,0.0882 -0.06615,0.15434 -0.05512,0.0551 -0.143316,0.0551 H 66.8886 q -0.08819,0 -0.15434,-0.0551 -0.05512,-0.0661 -0.05512,-0.15434 z"
         style="font-style:normal;font-variant:normal;font-weight:normal;font-stretch:normal;font-size:11.02430534px;font-family:'iCiel Brandon Text';-inkscape-font-specification:'iCiel Brandon Text';font-variant-ligatures:normal;font-variant-caps:normal;font-variant-numeric:normal;font-feature-settings:normal;text-align:center;letter-spacing:3.17499995px;writing-mode:lr-tb;text-anchor:middle;fill:#ffffff;fill-opacity:1;stroke-width:0.27560762"
         id="path2347" />
      <path
         d="m 77.79956,217.63601 q 0,-0.82683 0.30868,-1.55443 0.308681,-0.7276 0.848872,-1.25677 0.540191,-0.54019 1.256771,-0.84887 0.71658,-0.31971 1.543403,-0.31971 0.749652,0 1.433159,0.27561 0.694531,0.26458 1.256771,0.74965 0.06615,0.0661 0.06615,0.15434 0.01102,0.0882 -0.05512,0.15434 l -0.683507,0.71658 q -0.132291,0.1323 -0.286632,0 -0.727604,-0.63941 -1.66467,-0.63941 -0.518142,0 -0.970139,0.20947 -0.451996,0.19843 -0.782725,0.55121 -0.330729,0.35278 -0.529167,0.8158 -0.187413,0.46302 -0.187413,0.98116 0,0.51815 0.187413,0.98117 0.198438,0.45199 0.529167,0.79375 0.341753,0.34175 0.79375,0.55121 0.451996,0.19844 0.970139,0.19844 0.46302,0 0.804774,-0.0992 0.341753,-0.11024 0.507118,-0.17639 v -0.93706 h -0.881944 q -0.08819,0 -0.154341,-0.0551 -0.05512,-0.0551 -0.05512,-0.14331 v -0.87092 q 0,-0.20946 0.209462,-0.20946 h 2.116666 q 0.08819,0 0.143316,0.0661 0.05512,0.0551 0.05512,0.14332 v 2.82222 q 0,0.11024 -0.08819,0.17639 -0.341753,0.20946 -0.771701,0.3638 -0.363802,0.13229 -0.87092,0.24254 -0.496094,0.11024 -1.091406,0.11024 -0.826823,0 -1.543403,-0.30868 -0.71658,-0.30868 -1.256771,-0.83785 -0.540191,-0.52917 -0.848872,-1.24575 -0.30868,-0.7276 -0.30868,-1.55442 z"
         style="font-style:normal;font-variant:normal;font-weight:normal;font-stretch:normal;font-size:11.02430534px;font-family:'iCiel Brandon Text';-inkscape-font-specification:'iCiel Brandon Text';font-variant-ligatures:normal;font-variant-caps:normal;font-variant-numeric:normal;font-feature-settings:normal;text-align:center;letter-spacing:3.17499995px;writing-mode:lr-tb;text-anchor:middle;fill:#ffffff;fill-opacity:1;stroke-width:0.27560762"
         id="path2349" />
      <path
         d="m 96.096462,215.08939 h -1.686719 q -0.08819,0 -0.15434,-0.0551 -0.05512,-0.0661 -0.05512,-0.15434 v -0.90399 q 0,-0.0882 0.05512,-0.14332 0.06615,-0.0661 0.15434,-0.0661 h 4.817622 q 0.08819,0 0.143316,0.0661 0.06615,0.0551 0.06615,0.14332 v 0.90399 q 0,0.0882 -0.06615,0.15434 -0.05512,0.0551 -0.143316,0.0551 h -1.686719 v 6.18464 q 0,0.0882 -0.06615,0.15434 -0.05512,0.0551 -0.143316,0.0551 h -1.02526 q -0.08819,0 -0.15434,-0.0551 -0.05512,-0.0661 -0.05512,-0.15434 z"
         style="font-style:normal;font-variant:normal;font-weight:normal;font-stretch:normal;font-size:11.02430534px;font-family:'iCiel Brandon Text';-inkscape-font-specification:'iCiel Brandon Text';font-variant-ligatures:normal;font-variant-caps:normal;font-variant-numeric:normal;font-feature-settings:normal;text-align:center;letter-spacing:3.17499995px;writing-mode:lr-tb;text-anchor:middle;fill:#ffffff;fill-opacity:1;stroke-width:0.27560762"
         id="path2351" />
      <path
         d="m 103.83932,213.97594 q 0,-0.0882 0.0551,-0.14332 0.0661,-0.0661 0.15434,-0.0661 h 1.02526 q 0.0882,0 0.14332,0.0661 0.0661,0.0551 0.0661,0.14332 v 7.29809 q 0,0.0882 -0.0661,0.15434 -0.0551,0.0551 -0.14332,0.0551 h -1.02526 q -0.0882,0 -0.15434,-0.0551 -0.0551,-0.0661 -0.0551,-0.15434 z"
         style="font-style:normal;font-variant:normal;font-weight:normal;font-stretch:normal;font-size:11.02430534px;font-family:'iCiel Brandon Text';-inkscape-font-specification:'iCiel Brandon Text';font-variant-ligatures:normal;font-variant-caps:normal;font-variant-numeric:normal;font-feature-settings:normal;text-align:center;letter-spacing:3.17499995px;writing-mode:lr-tb;text-anchor:middle;fill:#ffffff;fill-opacity:1;stroke-width:0.27560762"
         id="path2353" />
      <path
         d="m 111.22318,213.8216 q 0.011,-0.0661 0.0551,-0.11025 0.0551,-0.0551 0.14331,-0.0551 h 0.17639 q 0.13229,0 0.18741,0.11025 l 2.42535,5.20347 h 0.0331 l 2.42535,-5.20347 q 0.0551,-0.11025 0.18741,-0.11025 h 0.17639 q 0.0882,0 0.13229,0.0551 0.0551,0.0441 0.0662,0.11025 l 1.30087,7.40833 q 0.022,0.12127 -0.0331,0.18741 -0.0551,0.0661 -0.16537,0.0661 h -1.00321 q -0.0772,0 -0.13229,-0.0551 -0.0551,-0.0551 -0.0772,-0.11024 l -0.65044,-4.17822 h -0.0331 l -1.92925,4.33256 q -0.0441,0.12126 -0.18742,0.12126 h -0.19843 q -0.1323,0 -0.18742,-0.12126 l -1.9513,-4.33256 h -0.0331 l -0.63941,4.17822 q -0.011,0.0551 -0.0661,0.11024 -0.0551,0.0551 -0.13229,0.0551 h -0.99219 q -0.24253,0 -0.20946,-0.25356 z"
         style="font-style:normal;font-variant:normal;font-weight:normal;font-stretch:normal;font-size:11.02430534px;font-family:'iCiel Brandon Text';-inkscape-font-specification:'iCiel Brandon Text';font-variant-ligatures:normal;font-variant-caps:normal;font-variant-numeric:normal;font-feature-settings:normal;text-align:center;letter-spacing:3.17499995px;writing-mode:lr-tb;text-anchor:middle;fill:#ffffff;fill-opacity:1;stroke-width:0.27560762"
         id="path2355" />
      <path
         d="m 123.17302,213.97594 q 0,-0.0882 0.0551,-0.14332 0.0662,-0.0661 0.15434,-0.0661 h 4.48689 q 0.0882,0 0.14332,0.0661 0.0662,0.0551 0.0662,0.14332 v 0.90399 q 0,0.0882 -0.0662,0.15434 -0.0551,0.0551 -0.14332,0.0551 h -3.26319 v 1.80799 h 2.723 q 0.0882,0 0.14332,0.0661 0.0661,0.0551 0.0661,0.14332 v 0.91502 q 0,0.0882 -0.0661,0.15434 -0.0551,0.0551 -0.14332,0.0551 h -2.723 v 1.92925 h 3.26319 q 0.0882,0 0.14332,0.0661 0.0662,0.0551 0.0662,0.14332 v 0.90399 q 0,0.0882 -0.0662,0.15434 -0.0551,0.0551 -0.14332,0.0551 h -4.48689 q -0.0882,0 -0.15434,-0.0551 -0.0551,-0.0661 -0.0551,-0.15434 z"
         style="font-style:normal;font-variant:normal;font-weight:normal;font-stretch:normal;font-size:11.02430534px;font-family:'iCiel Brandon Text';-inkscape-font-specification:'iCiel Brandon Text';font-variant-ligatures:normal;font-variant-caps:normal;font-variant-numeric:normal;font-feature-settings:normal;text-align:center;letter-spacing:3.17499995px;writing-mode:lr-tb;text-anchor:middle;fill:#ffffff;fill-opacity:1;stroke-width:0.27560762"
         id="path2357" />
    </g>
  </g>
</svg>
