<?xml version="1.0" encoding="UTF-8" standalone="no"?>
<!-- Created with Inkscape (http://www.inkscape.org/) -->

<svg
   xmlns:dc="http://purl.org/dc/elements/1.1/"
   xmlns:cc="http://creativecommons.org/ns#"
   xmlns:rdf="http://www.w3.org/1999/02/22-rdf-syntax-ns#"
   xmlns:svg="http://www.w3.org/2000/svg"
   xmlns="http://www.w3.org/2000/svg"
   xmlns:sodipodi="http://sodipodi.sourceforge.net/DTD/sodipodi-0.dtd"
   xmlns:inkscape="http://www.inkscape.org/namespaces/inkscape"
   width="600"
   height="600"
   viewBox="0 0 158.75 158.75"
   version="1.1"
   id="svg8"
   sodipodi:docname="WaitThere-thumb.svg"
   inkscape:version="0.92.3 (2405546, 2018-03-11)">
  <defs
     id="defs2" />
  <sodipodi:namedview
     id="base"
     pagecolor="#ffffff"
     bordercolor="#666666"
     borderopacity="1.0"
     inkscape:pageopacity="0.0"
     inkscape:pageshadow="2"
     inkscape:zoom="0.94333333"
     inkscape:cx="363.07421"
     inkscape:cy="300.00002"
     inkscape:document-units="px"
     inkscape:current-layer="layer1"
     showgrid="false"
     units="px"
     inkscape:snap-page="true"
     inkscape:pagecheckerboard="true"
     inkscape:window-width="1366"
     inkscape:window-height="745"
     inkscape:window-x="-8"
     inkscape:window-y="-8"
     inkscape:window-maximized="1" />
  <metadata
     id="metadata5">
    <rdf:RDF>
      <cc:Work
         rdf:about="">
        <dc:format>image/svg+xml</dc:format>
        <dc:type
           rdf:resource="http://purl.org/dc/dcmitype/StillImage" />
        <dc:title></dc:title>
      </cc:Work>
    </rdf:RDF>
  </metadata>
  <g
     inkscape:label="Layer 1"
     inkscape:groupmode="layer"
     id="layer1"
     transform="translate(0,-138.24999)">
    <rect
       style="opacity:0.25;fill:#ffffff;fill-opacity:1;stroke-width:0.26458332"
       id="rect815"
       width="158.75"
       height="158.75"
       x="0"
       y="138.24998" />
    <g
       aria-label="WAI THERE"
       style="font-style:normal;font-variant:normal;font-weight:normal;font-stretch:normal;font-size:11.02430534px;line-height:1.25;font-family:sans-serif;-inkscape-font-specification:'sans-serif, Normal';font-variant-ligatures:normal;font-variant-caps:normal;font-variant-numeric:normal;font-feature-settings:normal;text-align:center;letter-spacing:0px;word-spacing:0px;writing-mode:lr-tb;text-anchor:middle;fill:#000000;fill-opacity:1;stroke:none;stroke-width:0.27560762"
       id="text823">
      <path
         d="m 35.370109,214.03106 q -0.03307,-0.12127 0.02205,-0.18741 0.05512,-0.0772 0.176388,-0.0772 h 1.014236 q 0.06615,0 0.121268,0.0551 0.05512,0.0441 0.07717,0.0992 l 1.146528,4.39869 h 0.0441 l 1.752865,-4.54201 q 0.0441,-0.12127 0.187413,-0.12127 h 0.198437 q 0.143316,0 0.187413,0.12127 l 1.763889,4.54201 h 0.0441 l 1.12448,-4.39869 q 0.02205,-0.0551 0.07717,-0.0992 0.05512,-0.0551 0.121267,-0.0551 h 1.014236 q 0.121268,0 0.176389,0.0772 0.05512,0.0661 0.02205,0.18741 l -2.083594,7.40833 q -0.0441,0.15434 -0.198438,0.15434 H 42.18313 q -0.143316,0 -0.187414,-0.12126 l -1.97335,-4.99401 h -0.05512 l -1.951302,4.99401 q -0.02205,0.0551 -0.06615,0.0882 -0.03307,0.0331 -0.121267,0.0331 H 37.65214 q -0.06615,0 -0.121267,-0.0441 -0.05512,-0.0441 -0.07717,-0.11025 z"
         style="font-style:normal;font-variant:normal;font-weight:normal;font-stretch:normal;font-size:11.02430534px;font-family:'iCiel Brandon Text';-inkscape-font-specification:'iCiel Brandon Text';font-variant-ligatures:normal;font-variant-caps:normal;font-variant-numeric:normal;font-feature-settings:normal;text-align:center;letter-spacing:3.96875px;writing-mode:lr-tb;text-anchor:middle;fill:#ffffff;fill-opacity:1;stroke-width:0.27560762"
         id="path2322" />
      <path
         d="m 48.672139,221.48349 q -0.121267,0 -0.187413,-0.0882 -0.05512,-0.0882 0,-0.19844 l 3.428559,-7.41936 q 0.05512,-0.12127 0.187413,-0.12127 h 0.110243 q 0.08819,0 0.121267,0.0331 0.0441,0.0331 0.06615,0.0882 l 3.395486,7.41936 q 0.05512,0.11024 -0.01102,0.19844 -0.05512,0.0882 -0.176389,0.0882 h -0.959114 q -0.121268,0 -0.198438,-0.0441 -0.06615,-0.0551 -0.121267,-0.17639 l -0.540191,-1.19062 h -3.296268 l -0.540191,1.19062 q -0.03307,0.0882 -0.110243,0.15434 -0.07717,0.0661 -0.209461,0.0661 z m 4.575087,-2.63481 -1.102431,-2.42535 h -0.03307 l -1.080382,2.42535 z"
         style="font-style:normal;font-variant:normal;font-weight:normal;font-stretch:normal;font-size:11.02430534px;font-family:'iCiel Brandon Text';-inkscape-font-specification:'iCiel Brandon Text';font-variant-ligatures:normal;font-variant-caps:normal;font-variant-numeric:normal;font-feature-settings:normal;text-align:center;letter-spacing:3.96875px;writing-mode:lr-tb;text-anchor:middle;fill:#ffffff;fill-opacity:1;stroke-width:0.27560762"
         id="path2324" />
      <path
         d="m 60.732384,213.97594 q 0,-0.0882 0.05512,-0.14332 0.06615,-0.0661 0.154341,-0.0661 h 1.02526 q 0.08819,0 0.143316,0.0661 0.06615,0.0551 0.06615,0.14332 v 7.29809 q 0,0.0882 -0.06615,0.15434 -0.05512,0.0551 -0.143316,0.0551 h -1.02526 q -0.08819,0 -0.154341,-0.0551 -0.05512,-0.0661 -0.05512,-0.15434 z"
         style="font-style:normal;font-variant:normal;font-weight:normal;font-stretch:normal;font-size:11.02430534px;font-family:'iCiel Brandon Text';-inkscape-font-specification:'iCiel Brandon Text';font-variant-ligatures:normal;font-variant-caps:normal;font-variant-numeric:normal;font-feature-settings:normal;text-align:center;letter-spacing:3.96875px;writing-mode:lr-tb;text-anchor:middle;fill:#ffffff;fill-opacity:1;stroke-width:0.27560762"
         id="path2326" />
      <path
         d="m 75.556976,215.08939 h -1.686718 q -0.0882,0 -0.154341,-0.0551 -0.05512,-0.0661 -0.05512,-0.15434 v -0.90399 q 0,-0.0882 0.05512,-0.14332 0.06615,-0.0661 0.154341,-0.0661 h 4.817621 q 0.08819,0 0.143316,0.0661 0.06615,0.0551 0.06615,0.14332 v 0.90399 q 0,0.0882 -0.06615,0.15434 -0.05512,0.0551 -0.143316,0.0551 H 77.00116 v 6.18464 q 0,0.0882 -0.06615,0.15434 -0.05512,0.0551 -0.143315,0.0551 h -1.025261 q -0.08819,0 -0.15434,-0.0551 -0.05512,-0.0661 -0.05512,-0.15434 z"
         style="font-style:normal;font-variant:normal;font-weight:normal;font-stretch:normal;font-size:11.02430534px;font-family:'iCiel Brandon Text';-inkscape-font-specification:'iCiel Brandon Text';font-variant-ligatures:normal;font-variant-caps:normal;font-variant-numeric:normal;font-feature-settings:normal;text-align:center;letter-spacing:3.96875px;writing-mode:lr-tb;text-anchor:middle;fill:#ffffff;fill-opacity:1;stroke-width:0.27560762"
         id="path2328" />
      <path
         d="m 84.093578,213.97594 q 0,-0.0882 0.05512,-0.14332 0.06615,-0.0661 0.15434,-0.0661 h 1.025261 q 0.08819,0 0.143316,0.0661 0.06615,0.0551 0.06615,0.14332 v 2.92144 h 3.593924 v -2.92144 q 0,-0.0882 0.05512,-0.14332 0.06615,-0.0661 0.15434,-0.0661 h 1.014236 q 0.08819,0 0.143316,0.0661 0.06615,0.0551 0.06615,0.14332 v 7.29809 q 0,0.0882 -0.06615,0.15434 -0.05512,0.0551 -0.143316,0.0551 h -1.014236 q -0.08819,0 -0.15434,-0.0551 -0.05512,-0.0661 -0.05512,-0.15434 v -3.04271 h -3.593924 v 3.04271 q 0,0.0882 -0.06615,0.15434 -0.05512,0.0551 -0.143316,0.0551 H 84.30304 q -0.08819,0 -0.15434,-0.0551 -0.05512,-0.0661 -0.05512,-0.15434 z"
         style="font-style:normal;font-variant:normal;font-weight:normal;font-stretch:normal;font-size:11.02430534px;font-family:'iCiel Brandon Text';-inkscape-font-specification:'iCiel Brandon Text';font-variant-ligatures:normal;font-variant-caps:normal;font-variant-numeric:normal;font-feature-settings:normal;text-align:center;letter-spacing:3.96875px;writing-mode:lr-tb;text-anchor:middle;fill:#ffffff;fill-opacity:1;stroke-width:0.27560762"
         id="path2330" />
      <path
         d="m 96.416683,213.97594 q 0,-0.0882 0.05512,-0.14332 0.06615,-0.0661 0.15434,-0.0661 h 4.486895 q 0.0882,0 0.14331,0.0661 0.0662,0.0551 0.0662,0.14332 v 0.90399 q 0,0.0882 -0.0662,0.15434 -0.0551,0.0551 -0.14331,0.0551 h -3.263197 v 1.80799 h 2.723007 q 0.0882,0 0.14331,0.0661 0.0661,0.0551 0.0661,0.14332 v 0.91502 q 0,0.0882 -0.0661,0.15434 -0.0551,0.0551 -0.14331,0.0551 h -2.723007 v 1.92925 h 3.263197 q 0.0882,0 0.14331,0.0661 0.0662,0.0551 0.0662,0.14332 v 0.90399 q 0,0.0882 -0.0662,0.15434 -0.0551,0.0551 -0.14331,0.0551 h -4.486895 q -0.08819,0 -0.15434,-0.0551 -0.05512,-0.0661 -0.05512,-0.15434 z"
         style="font-style:normal;font-variant:normal;font-weight:normal;font-stretch:normal;font-size:11.02430534px;font-family:'iCiel Brandon Text';-inkscape-font-specification:'iCiel Brandon Text';font-variant-ligatures:normal;font-variant-caps:normal;font-variant-numeric:normal;font-feature-settings:normal;text-align:center;letter-spacing:3.96875px;writing-mode:lr-tb;text-anchor:middle;fill:#ffffff;fill-opacity:1;stroke-width:0.27560762"
         id="path2332" />
      <path
         d="m 106.73733,213.97594 q 0,-0.0882 0.0551,-0.14332 0.0661,-0.0661 0.15434,-0.0661 h 3.15295 q 0.4961,0 0.92605,0.18741 0.44097,0.18741 0.7717,0.50712 0.33073,0.3197 0.51814,0.74965 0.18741,0.42995 0.18741,0.92604 0,0.38585 -0.12126,0.72761 -0.12127,0.33073 -0.34176,0.61736 -0.20946,0.28663 -0.50712,0.51814 -0.29765,0.22049 -0.66145,0.3638 l 1.51033,2.80018 q 0.0551,0.11024 0,0.22048 -0.0441,0.0992 -0.18742,0.0992 h -1.15755 q -0.0772,0 -0.12127,-0.0331 -0.0331,-0.0331 -0.0551,-0.0662 l -1.46623,-2.92144 h -1.2237 v 2.8112 q 0,0.0882 -0.0661,0.15434 -0.0551,0.0551 -0.14332,0.0551 h -1.01424 q -0.0882,0 -0.15434,-0.0551 -0.0551,-0.0661 -0.0551,-0.15434 z m 3.24115,3.30729 q 0.22048,0 0.41892,-0.0882 0.19844,-0.0882 0.34175,-0.24254 0.15434,-0.15434 0.24254,-0.35278 0.0882,-0.20946 0.0882,-0.44097 0,-0.22049 -0.0882,-0.4079 -0.0882,-0.19844 -0.24254,-0.34175 -0.14331,-0.15434 -0.34175,-0.23151 -0.19844,-0.0882 -0.41892,-0.0882 h -1.79696 v 2.19384 z"
         style="font-style:normal;font-variant:normal;font-weight:normal;font-stretch:normal;font-size:11.02430534px;font-family:'iCiel Brandon Text';-inkscape-font-specification:'iCiel Brandon Text';font-variant-ligatures:normal;font-variant-caps:normal;font-variant-numeric:normal;font-feature-settings:normal;text-align:center;letter-spacing:3.96875px;writing-mode:lr-tb;text-anchor:middle;fill:#ffffff;fill-opacity:1;stroke-width:0.27560762"
         id="path2334" />
      <path
         d="m 117.98384,213.97594 q 0,-0.0882 0.0551,-0.14332 0.0661,-0.0661 0.15434,-0.0661 h 4.48689 q 0.0882,0 0.14331,0.0661 0.0662,0.0551 0.0662,0.14332 v 0.90399 q 0,0.0882 -0.0662,0.15434 -0.0551,0.0551 -0.14331,0.0551 h -3.2632 v 1.80799 h 2.72301 q 0.0882,0 0.14331,0.0661 0.0661,0.0551 0.0661,0.14332 v 0.91502 q 0,0.0882 -0.0661,0.15434 -0.0551,0.0551 -0.14331,0.0551 H 119.417 v 1.92925 h 3.2632 q 0.0882,0 0.14331,0.0661 0.0662,0.0551 0.0662,0.14332 v 0.90399 q 0,0.0882 -0.0662,0.15434 -0.0551,0.0551 -0.14331,0.0551 h -4.48689 q -0.0882,0 -0.15434,-0.0551 -0.0551,-0.0661 -0.0551,-0.15434 z"
         style="font-style:normal;font-variant:normal;font-weight:normal;font-stretch:normal;font-size:11.02430534px;font-family:'iCiel Brandon Text';-inkscape-font-specification:'iCiel Brandon Text';font-variant-ligatures:normal;font-variant-caps:normal;font-variant-numeric:normal;font-feature-settings:normal;text-align:center;letter-spacing:3.96875px;writing-mode:lr-tb;text-anchor:middle;fill:#ffffff;fill-opacity:1;stroke-width:0.27560762"
         id="path2336" />
    </g>
  </g>
</svg>
