<?xml version="1.0" encoding="UTF-8" standalone="no"?>
<!-- Created with Inkscape (http://www.inkscape.org/) -->

<svg
   xmlns:dc="http://purl.org/dc/elements/1.1/"
   xmlns:cc="http://creativecommons.org/ns#"
   xmlns:rdf="http://www.w3.org/1999/02/22-rdf-syntax-ns#"
   xmlns:svg="http://www.w3.org/2000/svg"
   xmlns="http://www.w3.org/2000/svg"
   xmlns:sodipodi="http://sodipodi.sourceforge.net/DTD/sodipodi-0.dtd"
   xmlns:inkscape="http://www.inkscape.org/namespaces/inkscape"
   width="24.284592mm"
   height="5.2916698mm"
   viewBox="0 0 24.284592 5.2916699"
   version="1.1"
   id="svg2003"
   inkscape:version="0.92.3 (2405546, 2018-03-11)"
   sodipodi:docname="about-text.svg">
  <defs
     id="defs1997" />
  <sodipodi:namedview
     id="base"
     pagecolor="#ffffff"
     bordercolor="#666666"
     borderopacity="1.0"
     inkscape:pageopacity="0.0"
     inkscape:pageshadow="2"
     inkscape:zoom="1.4"
     inkscape:cx="60.563164"
     inkscape:cy="59.512421"
     inkscape:document-units="mm"
     inkscape:current-layer="layer1"
     showgrid="false"
     fit-margin-top="0"
     fit-margin-left="0"
     fit-margin-right="0"
     fit-margin-bottom="0"
     inkscape:pagecheckerboard="true"
     inkscape:window-width="1920"
     inkscape:window-height="1018"
     inkscape:window-x="-8"
     inkscape:window-y="-8"
     inkscape:window-maximized="1" />
  <metadata
     id="metadata2000">
    <rdf:RDF>
      <cc:Work
         rdf:about="">
        <dc:format>image/svg+xml</dc:format>
        <dc:type
           rdf:resource="http://purl.org/dc/dcmitype/StillImage" />
        <dc:title></dc:title>
      </cc:Work>
    </rdf:RDF>
  </metadata>
  <g
     inkscape:label="Layer 1"
     inkscape:groupmode="layer"
     id="layer1"
     transform="translate(-67.535074,-195.38191)">
    <g
       aria-label="ABOUT"
       style="font-style:normal;font-variant:normal;font-weight:normal;font-stretch:normal;font-size:7.3495369px;line-height:1.25;font-family:'iCiel Brandon Text';-inkscape-font-specification:'iCiel Brandon Text';letter-spacing:0px;word-spacing:0px;fill:#ffffff;fill-opacity:1;stroke:none;stroke-width:0.18373843"
       id="text113525-1-5-2">
      <path
         d="m 67.678391,200.60008 q -0.08085,0 -0.124942,-0.0588 -0.03675,-0.0588 0,-0.1323 l 2.285706,-4.94623 q 0.03675,-0.0808 0.124942,-0.0808 h 0.0735 q 0.0588,0 0.08084,0.0221 0.0294,0.022 0.0441,0.0588 l 2.263658,4.94623 q 0.03675,0.0735 -0.0074,0.1323 -0.03675,0.0588 -0.117592,0.0588 h -0.63941 q -0.08084,0 -0.132292,-0.0294 -0.0441,-0.0367 -0.08085,-0.11759 l -0.360127,-0.79375 h -2.197512 l -0.360127,0.79375 q -0.02205,0.0588 -0.07349,0.1029 -0.05145,0.0441 -0.139641,0.0441 z m 3.050058,-1.75654 -0.734954,-1.6169 h -0.02205 l -0.720254,1.6169 z"
         style="font-style:normal;font-variant:normal;font-weight:normal;font-stretch:normal;font-family:'iCiel Brandon Text';-inkscape-font-specification:'iCiel Brandon Text';fill:#ffffff;fill-opacity:1;stroke-width:0.18373843"
         id="path3732"
         inkscape:connector-curvature="0" />
      <path
         d="m 75.711205,197.99835 q 0.16169,0.0588 0.31603,0.15434 0.16169,0.0882 0.286632,0.23518 0.124942,0.13964 0.198437,0.33808 0.08084,0.19844 0.08084,0.45567 0,0.30868 -0.124942,0.57327 -0.124942,0.25723 -0.345428,0.44832 -0.213137,0.18374 -0.507118,0.29398 -0.286632,0.10289 -0.624711,0.10289 h -1.778588 q -0.0588,0 -0.102893,-0.0367 -0.03675,-0.0441 -0.03675,-0.10289 v -4.86539 q 0,-0.0588 0.03675,-0.0955 0.0441,-0.0441 0.102893,-0.0441 h 1.683044 q 0.330729,0 0.610012,0.10289 0.286632,0.10289 0.492419,0.28663 0.213136,0.18374 0.330729,0.43362 0.117593,0.24989 0.117593,0.53652 0,0.41892 -0.227836,0.71291 -0.220486,0.28663 -0.507118,0.43362 z m -0.889294,-0.38218 q 0.279282,0 0.448322,-0.19109 0.169039,-0.19109 0.169039,-0.47037 0,-0.27928 -0.169039,-0.44832 Q 75.101193,196.33 74.821911,196.33 h -0.8011 v 1.28617 z m 0.102893,2.11667 q 0.279283,0 0.463021,-0.19109 0.183739,-0.19109 0.183739,-0.47772 0,-0.27928 -0.183739,-0.45567 -0.183738,-0.18374 -0.463021,-0.18374 h -0.903993 v 1.30822 z"
         style="font-style:normal;font-variant:normal;font-weight:normal;font-stretch:normal;font-family:'iCiel Brandon Text';-inkscape-font-specification:'iCiel Brandon Text';fill:#ffffff;fill-opacity:1;stroke-width:0.18373843"
         id="path3734"
         inkscape:connector-curvature="0" />
      <path
         d="m 77.293078,198.03509 q 0,-0.55121 0.205787,-1.03628 0.205787,-0.48507 0.558564,-0.83785 0.360128,-0.36013 0.837848,-0.56591 0.485069,-0.21314 1.036284,-0.21314 0.551216,0 1.028935,0.21314 0.48507,0.20578 0.845197,0.56591 0.360128,0.35278 0.565915,0.83785 0.205787,0.48507 0.205787,1.03628 0,0.55122 -0.205787,1.03629 -0.205787,0.47772 -0.565915,0.83785 -0.360127,0.35277 -0.845197,0.55856 -0.477719,0.20579 -1.028935,0.20579 -0.551215,0 -1.036284,-0.20579 -0.47772,-0.20579 -0.837848,-0.55856 -0.352777,-0.36013 -0.558564,-0.83785 -0.205787,-0.48507 -0.205787,-1.03629 z m 0.955439,0 q 0,0.34543 0.132292,0.65411 0.132292,0.30868 0.360127,0.53652 0.227836,0.22783 0.536517,0.36013 0.30868,0.13229 0.654108,0.13229 0.345429,0 0.654109,-0.13229 0.308681,-0.1323 0.536516,-0.36013 0.235185,-0.22784 0.367477,-0.53652 0.132292,-0.30868 0.132292,-0.65411 0,-0.34542 -0.132292,-0.6541 -0.132292,-0.30869 -0.367477,-0.53652 -0.227835,-0.23519 -0.536516,-0.36748 -0.30868,-0.13964 -0.654109,-0.13964 -0.345428,0 -0.654108,0.13964 -0.308681,0.13229 -0.536517,0.36748 -0.227835,0.22783 -0.360127,0.53652 -0.132292,0.30868 -0.132292,0.6541 z"
         style="font-style:normal;font-variant:normal;font-weight:normal;font-stretch:normal;font-family:'iCiel Brandon Text';-inkscape-font-specification:'iCiel Brandon Text';fill:#ffffff;fill-opacity:1;stroke-width:0.18373843"
         id="path3736"
         inkscape:connector-curvature="0" />
      <path
         d="m 83.471396,195.59505 q 0,-0.0588 0.03675,-0.0955 0.0441,-0.0441 0.102893,-0.0441 h 0.698206 q 0.0588,0 0.09554,0.0441 0.0441,0.0367 0.0441,0.0955 v 3.06475 q 0,0.47038 0.286632,0.76436 0.293981,0.29398 0.77905,0.29398 0.242535,0 0.433623,-0.0735 0.198438,-0.0808 0.338079,-0.22048 0.146991,-0.13964 0.220486,-0.33073 0.08084,-0.19109 0.08084,-0.42628 v -3.0721 q 0,-0.0588 0.03675,-0.0955 0.0441,-0.0441 0.102893,-0.0441 h 0.698206 q 0.0588,0 0.09554,0.0441 0.0441,0.0367 0.0441,0.0955 v 3.1162 q 0,0.41893 -0.16169,0.77905 -0.15434,0.36013 -0.433622,0.62471 -0.271933,0.25724 -0.646759,0.41158 -0.374827,0.14699 -0.80845,0.14699 -0.433622,0 -0.808449,-0.14699 -0.367476,-0.15434 -0.646759,-0.41158 -0.271933,-0.26458 -0.433623,-0.62471 -0.15434,-0.36012 -0.15434,-0.77905 z"
         style="font-style:normal;font-variant:normal;font-weight:normal;font-stretch:normal;font-family:'iCiel Brandon Text';-inkscape-font-specification:'iCiel Brandon Text';fill:#ffffff;fill-opacity:1;stroke-width:0.18373843"
         id="path3738"
         inkscape:connector-curvature="0" />
      <path
         d="m 89.592757,196.33735 h -1.124479 q -0.0588,0 -0.102894,-0.0367 -0.03675,-0.0441 -0.03675,-0.10289 v -0.60266 q 0,-0.0588 0.03675,-0.0955 0.0441,-0.0441 0.102894,-0.0441 h 3.211747 q 0.0588,0 0.09554,0.0441 0.0441,0.0367 0.0441,0.0955 v 0.60266 q 0,0.0588 -0.0441,0.10289 -0.03675,0.0367 -0.09554,0.0367 h -1.124479 v 4.12309 q 0,0.0588 -0.0441,0.10289 -0.03675,0.0367 -0.09554,0.0367 h -0.683507 q -0.0588,0 -0.102894,-0.0367 -0.03675,-0.0441 -0.03675,-0.10289 z"
         style="font-style:normal;font-variant:normal;font-weight:normal;font-stretch:normal;font-family:'iCiel Brandon Text';-inkscape-font-specification:'iCiel Brandon Text';fill:#ffffff;fill-opacity:1;stroke-width:0.18373843"
         id="path3740"
         inkscape:connector-curvature="0" />
    </g>
  </g>
</svg>
