<?xml version="1.0" encoding="UTF-8" standalone="no"?>
<svg
   xmlns:dc="http://purl.org/dc/elements/1.1/"
   xmlns:cc="http://creativecommons.org/ns#"
   xmlns:rdf="http://www.w3.org/1999/02/22-rdf-syntax-ns#"
   xmlns:svg="http://www.w3.org/2000/svg"
   xmlns="http://www.w3.org/2000/svg"
   xmlns:sodipodi="http://sodipodi.sourceforge.net/DTD/sodipodi-0.dtd"
   xmlns:inkscape="http://www.inkscape.org/namespaces/inkscape"
   id="svg29587"
   version="1.1"
   viewBox="0 0 26.458333 22.575147"
   height="85.323387"
   width="100"
   sodipodi:docname="blog-welcome.svg"
   inkscape:version="0.92.3 (2405546, 2018-03-11)">
  <sodipodi:namedview
     pagecolor="#ffffff"
     bordercolor="#666666"
     borderopacity="1"
     objecttolerance="10"
     gridtolerance="10"
     guidetolerance="10"
     inkscape:pageopacity="0"
     inkscape:pageshadow="2"
     inkscape:window-width="1920"
     inkscape:window-height="1058"
     id="namedview29"
     showgrid="false"
     fit-margin-top="0"
     fit-margin-left="0"
     fit-margin-right="0"
     fit-margin-bottom="0"
     inkscape:pagecheckerboard="true"
     inkscape:zoom="2.7659474"
     inkscape:cx="50.000001"
     inkscape:cy="42.661711"
     inkscape:window-x="-8"
     inkscape:window-y="-8"
     inkscape:window-maximized="1"
     inkscape:current-layer="svg29587" />
  <defs
     id="defs29581" />
  <metadata
     id="metadata29584">
    <rdf:RDF>
      <cc:Work
         rdf:about="">
        <dc:format>image/svg+xml</dc:format>
        <dc:type
           rdf:resource="http://purl.org/dc/dcmitype/StillImage" />
        <dc:title></dc:title>
      </cc:Work>
    </rdf:RDF>
  </metadata>
  <g
     aria-label="BLOG"
     style="font-style:normal;font-variant:normal;font-weight:normal;font-stretch:normal;font-size:2.52787328px;line-height:1.25;font-family:'iCiel Brandon Text';-inkscape-font-specification:'iCiel Brandon Text';letter-spacing:0px;word-spacing:0px;fill:#ffffff;fill-opacity:1;stroke:none;stroke-width:0.06319685"
     id="text113525-1-5-2-9-5">
    <path
       d="m 10.996857,21.655 q 0.05561,0.02022 0.108698,0.05309 0.05561,0.03033 0.09859,0.08089 0.04297,0.04803 0.06825,0.116282 0.02781,0.06825 0.02781,0.156728 0,0.106171 -0.04297,0.197174 -0.04297,0.08848 -0.11881,0.1542 -0.07331,0.0632 -0.174423,0.101115 -0.09859,0.03539 -0.21487,0.03539 H 10.13738 q -0.02022,0 -0.03539,-0.01264 -0.01264,-0.01517 -0.01264,-0.03539 v -1.673452 q 0,-0.02022 0.01264,-0.03286 0.01517,-0.01517 0.03539,-0.01517 h 0.578883 q 0.113754,0 0.209813,0.03539 0.09859,0.03539 0.169368,0.09859 0.07331,0.0632 0.113754,0.149144 0.04045,0.08595 0.04045,0.184535 0,0.144089 -0.07836,0.245204 -0.07584,0.09859 -0.174423,0.149144 z m -0.305873,-0.131449 q 0.09606,0 0.154201,-0.06573 0.05814,-0.06572 0.05814,-0.161784 0,-0.09606 -0.05814,-0.1542 -0.05814,-0.06067 -0.154201,-0.06067 h -0.275538 v 0.442378 z m 0.03539,0.728028 q 0.09606,0 0.159257,-0.06573 0.0632,-0.06573 0.0632,-0.164312 0,-0.09606 -0.0632,-0.156728 -0.0632,-0.0632 -0.159257,-0.0632 h -0.310928 v 0.449962 z"
       style="font-style:normal;font-variant:normal;font-weight:normal;font-stretch:normal;font-family:'iCiel Brandon Text';-inkscape-font-specification:'iCiel Brandon Text';fill:#ffffff;fill-opacity:1;stroke-width:0.06319685"
       id="path2369" />
    <path
       d="m 11.644585,20.828386 q 0,-0.02022 0.01264,-0.03286 0.01517,-0.01517 0.03539,-0.01517 h 0.232564 q 0.02022,0 0.03286,0.01517 0.01517,0.01264 0.01517,0.03286 v 1.418137 h 0.644607 q 0.02022,0 0.03286,0.01517 0.01517,0.01264 0.01517,0.03286 v 0.207286 q 0,0.02022 -0.01517,0.03539 -0.01264,0.01264 -0.03286,0.01264 h -0.925201 q -0.02022,0 -0.03539,-0.01264 -0.01264,-0.01517 -0.01264,-0.03539 z"
       style="font-style:normal;font-variant:normal;font-weight:normal;font-stretch:normal;font-family:'iCiel Brandon Text';-inkscape-font-specification:'iCiel Brandon Text';fill:#ffffff;fill-opacity:1;stroke-width:0.06319685"
       id="path2371" />
    <path
       d="m 12.775255,21.66764 q 0,-0.189591 0.07078,-0.35643 0.07078,-0.16684 0.192118,-0.288178 0.123866,-0.123866 0.288178,-0.194646 0.166839,-0.07331 0.35643,-0.07331 0.18959,0 0.353902,0.07331 0.16684,0.07078 0.290705,0.194646 0.123866,0.121338 0.194647,0.288178 0.07078,0.166839 0.07078,0.35643 0,0.18959 -0.07078,0.35643 -0.07078,0.164312 -0.194647,0.288178 -0.123865,0.121337 -0.290705,0.192118 -0.164312,0.07078 -0.353902,0.07078 -0.189591,0 -0.35643,-0.07078 -0.164312,-0.07078 -0.288178,-0.192118 -0.121338,-0.123866 -0.192118,-0.288178 -0.07078,-0.16684 -0.07078,-0.35643 z m 0.328624,0 q 0,0.11881 0.0455,0.224981 0.0455,0.10617 0.123865,0.184534 0.07836,0.07836 0.184535,0.123866 0.106171,0.0455 0.224981,0.0455 0.11881,0 0.224981,-0.0455 0.10617,-0.0455 0.184534,-0.123866 0.08089,-0.07836 0.126394,-0.184534 0.0455,-0.106171 0.0455,-0.224981 0,-0.11881 -0.0455,-0.224981 -0.0455,-0.106171 -0.126394,-0.184535 -0.07836,-0.08089 -0.184534,-0.126393 -0.106171,-0.04803 -0.224981,-0.04803 -0.11881,0 -0.224981,0.04803 -0.106171,0.0455 -0.184535,0.126393 -0.07836,0.07836 -0.123865,0.184535 -0.0455,0.106171 -0.0455,0.224981 z"
       style="font-style:normal;font-variant:normal;font-weight:normal;font-stretch:normal;font-family:'iCiel Brandon Text';-inkscape-font-specification:'iCiel Brandon Text';fill:#ffffff;fill-opacity:1;stroke-width:0.06319685"
       id="path2373" />
    <path
       d="m 14.814341,21.66764 q 0,-0.189591 0.07078,-0.35643 0.07078,-0.16684 0.194647,-0.288178 0.123865,-0.123866 0.288177,-0.194646 0.164312,-0.07331 0.353902,-0.07331 0.171896,0 0.328624,0.0632 0.159256,0.06067 0.288178,0.171896 0.01517,0.01517 0.01517,0.03539 0.0025,0.02022 -0.01264,0.03539 l -0.156728,0.164312 q -0.03033,0.03034 -0.06572,0 -0.16684,-0.146617 -0.381709,-0.146617 -0.11881,0 -0.222453,0.04803 -0.103643,0.0455 -0.179479,0.126394 -0.07584,0.08089 -0.121338,0.187062 -0.04297,0.106171 -0.04297,0.224981 0,0.11881 0.04297,0.224981 0.0455,0.103643 0.121338,0.182007 0.07836,0.07836 0.182007,0.126393 0.103643,0.0455 0.222453,0.0455 0.10617,0 0.184534,-0.02275 0.07836,-0.02528 0.116282,-0.04045 V 21.965929 H 15.83813 q -0.02022,0 -0.03539,-0.01264 -0.01264,-0.01264 -0.01264,-0.03286 v -0.199702 q 0,-0.04803 0.04803,-0.04803 h 0.485351 q 0.02022,0 0.03286,0.01517 0.01264,0.01264 0.01264,0.03286 v 0.647136 q 0,0.02528 -0.02022,0.04045 -0.07836,0.04803 -0.176951,0.08342 -0.08342,0.03033 -0.199702,0.05561 -0.113754,0.02528 -0.25026,0.02528 -0.18959,0 -0.353902,-0.07078 -0.164312,-0.07078 -0.288177,-0.192118 -0.123866,-0.121338 -0.194647,-0.28565 -0.07078,-0.16684 -0.07078,-0.35643 z"
       style="font-style:normal;font-variant:normal;font-weight:normal;font-stretch:normal;font-family:'iCiel Brandon Text';-inkscape-font-specification:'iCiel Brandon Text';fill:#ffffff;fill-opacity:1;stroke-width:0.06319685"
       id="path2375" />
  </g>
  <path
     style="display:inline;opacity:1;fill:#ffffff;fill-opacity:1;stroke:none;stroke-width:0.20760585;stroke-linecap:round;stroke-linejoin:round;stroke-miterlimit:4;stroke-dasharray:none;stroke-opacity:1"
     d="M 21.401757,0 V 3.1197018 C 14.114464,3.1252618 8.1916843,9.0551082 8.1862293,16.345429 h -3.12987 C 5.0582593,11.839541 6.8910113,7.7568069 9.8514933,4.7958004 12.813783,1.8347877 16.894856,0.0017731 21.401757,0 Z m 0,5.5584434 v 3.1206099 c -2.036696,0.00309 -3.962662,0.8029841 -5.403887,2.2462787 -1.442651,1.440211 -2.240267,3.369834 -2.243703,5.414827 -6.17e-4,0 -6.17e-4,0.0049 -6.17e-4,0.0049 h -3.135443 c 0.0025,-2.97351 1.211923,-5.665732 3.166487,-7.6210611 1.954105,-1.9544516 4.644889,-3.1627488 7.61738,-3.1659118 z M 19.237749,11.99912 c 0.599852,0 1.138333,0.24228 1.53396,0.63504 0.356977,0.357621 0.589349,0.833144 0.630048,1.363137 v 0.333435 c -0.04071,0.529646 -0.273083,1.003614 -0.630048,1.360197 -0.394744,0.392963 -0.934108,0.634027 -1.53396,0.634027 -0.600477,0 -1.13986,-0.240187 -1.537302,-0.634027 -0.393811,-0.394582 -0.635281,-0.930124 -0.637048,-1.526917 0.0019,-0.596837 0.243245,-1.133583 0.63887,-1.529036 0.395626,-0.393637 0.935003,-0.635856 1.53548,-0.635856 z"
     id="rect41559-9"
     inkscape:connector-curvature="0" />
</svg>
