<?xml version="1.0" encoding="UTF-8" standalone="no"?>
<!-- Created with Inkscape (http://www.inkscape.org/) -->

<svg
   xmlns:dc="http://purl.org/dc/elements/1.1/"
   xmlns:cc="http://creativecommons.org/ns#"
   xmlns:rdf="http://www.w3.org/1999/02/22-rdf-syntax-ns#"
   xmlns:svg="http://www.w3.org/2000/svg"
   xmlns="http://www.w3.org/2000/svg"
   xmlns:sodipodi="http://sodipodi.sourceforge.net/DTD/sodipodi-0.dtd"
   xmlns:inkscape="http://www.inkscape.org/namespaces/inkscape"
   width="26.458349mm"
   height="26.45833mm"
   viewBox="0 0 26.458349 26.458331"
   version="1.1"
   id="svg2003"
   inkscape:version="0.92.3 (2405546, 2018-03-11)"
   sodipodi:docname="blog-icon.svg">
  <defs
     id="defs1997" />
  <sodipodi:namedview
     id="base"
     pagecolor="#ffffff"
     bordercolor="#666666"
     borderopacity="1.0"
     inkscape:pageopacity="0.0"
     inkscape:pageshadow="2"
     inkscape:zoom="1.4"
     inkscape:cx="166.87781"
     inkscape:cy="3.2039046"
     inkscape:document-units="mm"
     inkscape:current-layer="layer1"
     showgrid="false"
     fit-margin-top="0"
     fit-margin-left="0"
     fit-margin-right="0"
     fit-margin-bottom="0"
     inkscape:pagecheckerboard="true"
     inkscape:window-width="1920"
     inkscape:window-height="1018"
     inkscape:window-x="-8"
     inkscape:window-y="-8"
     inkscape:window-maximized="1" />
  <metadata
     id="metadata2000">
    <rdf:RDF>
      <cc:Work
         rdf:about="">
        <dc:format>image/svg+xml</dc:format>
        <dc:type
           rdf:resource="http://purl.org/dc/dcmitype/StillImage" />
        <dc:title></dc:title>
      </cc:Work>
    </rdf:RDF>
  </metadata>
  <g
     inkscape:label="Layer 1"
     inkscape:groupmode="layer"
     id="layer1"
     transform="translate(-64.257925,-159.31696)">
    <path
       style="display:inline;opacity:1;fill:#ffffff;fill-opacity:1;stroke:none;stroke-width:0.33605146;stroke-linecap:round;stroke-linejoin:round;stroke-miterlimit:4;stroke-dasharray:none;stroke-opacity:1"
       d="m 90.716204,159.31696 v 5.04986 c -11.79593,0.009 -21.383129,9.60764 -21.391959,21.40847 h -5.06632 c 0.003,-7.29368 2.96975,-13.90239 7.76188,-18.69537 4.79506,-4.79299 11.401089,-7.76009 18.696399,-7.76296 z m 0,8.99744 v 5.05133 c -3.29679,0.005 -6.41435,1.29979 -8.74726,3.63606 -2.33522,2.33127 -3.626319,5.45475 -3.63188,8.76497 -0.001,0 -0.001,0.008 -0.001,0.008 H 73.26074 c 0.004,-4.81322 1.961729,-9.17112 5.125579,-12.33621 3.16311,-3.16367 7.51868,-5.11954 12.330249,-5.12466 z m -3.50288,10.42552 c 0.97099,0 1.84263,0.39218 2.48303,1.02794 0.57784,0.57888 0.95397,1.34861 1.01985,2.20651 v 0.53973 c -0.0659,0.85734 -0.44204,1.62455 -1.01985,2.20175 -0.63898,0.63609 -1.51204,1.0263 -2.48303,1.0263 -0.97198,0 -1.84509,-0.38879 -2.48842,-1.0263 -0.63747,-0.63871 -1.02833,-1.50559 -1.03119,-2.47162 0.003,-0.9661 0.39374,-1.83493 1.03414,-2.47505 0.6404,-0.63717 1.51349,-1.02926 2.48547,-1.02926 z"
       id="rect41559-9"
       inkscape:connector-curvature="0" />
  </g>
</svg>
