<?xml version="1.0" encoding="UTF-8" standalone="no"?>
<!-- Created with Inkscape (http://www.inkscape.org/) -->

<svg
   xmlns:dc="http://purl.org/dc/elements/1.1/"
   xmlns:cc="http://creativecommons.org/ns#"
   xmlns:rdf="http://www.w3.org/1999/02/22-rdf-syntax-ns#"
   xmlns:svg="http://www.w3.org/2000/svg"
   xmlns="http://www.w3.org/2000/svg"
   xmlns:sodipodi="http://sodipodi.sourceforge.net/DTD/sodipodi-0.dtd"
   xmlns:inkscape="http://www.inkscape.org/namespaces/inkscape"
   width="100.00115"
   height="175.00002"
   viewBox="0 0 26.45864 46.302088"
   version="1.1"
   id="svg2003"
   inkscape:version="0.92.3 (2405546, 2018-03-11)"
   sodipodi:docname="blog-stacked.svg">
  <defs
     id="defs1997" />
  <sodipodi:namedview
     id="base"
     pagecolor="#ffffff"
     bordercolor="#666666"
     borderopacity="1.0"
     inkscape:pageopacity="0.0"
     inkscape:pageshadow="2"
     inkscape:zoom="1.979899"
     inkscape:cx="-47.363729"
     inkscape:cy="90.942972"
     inkscape:document-units="px"
     inkscape:current-layer="layer1"
     showgrid="false"
     fit-margin-top="0"
     fit-margin-left="0"
     fit-margin-right="0"
     fit-margin-bottom="0"
     inkscape:pagecheckerboard="true"
     inkscape:window-width="1920"
     inkscape:window-height="1018"
     inkscape:window-x="-8"
     inkscape:window-y="-8"
     inkscape:window-maximized="1"
     inkscape:object-paths="true"
     inkscape:snap-nodes="false"
     inkscape:snap-bbox="true"
     inkscape:snap-bbox-edge-midpoints="true"
     units="px" />
  <metadata
     id="metadata2000">
    <rdf:RDF>
      <cc:Work
         rdf:about="">
        <dc:format>image/svg+xml</dc:format>
        <dc:type
           rdf:resource="http://purl.org/dc/dcmitype/StillImage" />
        <dc:title />
      </cc:Work>
    </rdf:RDF>
  </metadata>
  <g
     inkscape:label="Layer 1"
     inkscape:groupmode="layer"
     id="layer1"
     transform="translate(-119.15289,-171.31476)">
    <g
       aria-label="BLOG"
       style="font-style:normal;font-variant:normal;font-weight:normal;font-stretch:normal;font-size:9.18692112px;line-height:1.25;font-family:'iCiel Brandon Text';-inkscape-font-specification:'iCiel Brandon Text';letter-spacing:0px;word-spacing:0px;fill:#ffffff;fill-opacity:1;stroke:none;stroke-width:0.22967309"
       id="text113525-1-5-2-9-5-7">
      <path
         d="m 124.26945,214.27281 q 0.20211,0.0735 0.39503,0.19292 0.20212,0.11025 0.35829,0.29399 0.15618,0.17455 0.24805,0.42259 0.10106,0.24805 0.10106,0.56959 0,0.38585 -0.15618,0.71658 -0.15618,0.32154 -0.43179,0.5604 -0.26642,0.22968 -0.63389,0.36748 -0.35829,0.12862 -0.78089,0.12862 h -2.22324 q -0.0735,0 -0.12861,-0.0459 -0.0459,-0.0551 -0.0459,-0.12861 v -6.08174 q 0,-0.0735 0.0459,-0.11943 0.0551,-0.0551 0.12861,-0.0551 h 2.10381 q 0.41341,0 0.76251,0.12862 0.35829,0.12862 0.61553,0.35829 0.26642,0.22967 0.41341,0.54203 0.14699,0.31235 0.14699,0.67064 0,0.52366 -0.2848,0.89114 -0.2756,0.35829 -0.63389,0.54202 z m -1.11162,-0.47772 q 0.3491,0 0.5604,-0.23886 0.2113,-0.23886 0.2113,-0.58796 0,-0.34911 -0.2113,-0.56041 -0.2113,-0.22048 -0.5604,-0.22048 h -1.00138 v 1.60771 z m 0.12861,2.64583 q 0.34911,0 0.57878,-0.23886 0.22967,-0.23886 0.22967,-0.59715 0,-0.3491 -0.22967,-0.56959 -0.22967,-0.22967 -0.57878,-0.22967 h -1.12999 v 1.63527 z"
         style="font-style:normal;font-variant:normal;font-weight:normal;font-stretch:normal;font-family:'iCiel Brandon Text';-inkscape-font-specification:'iCiel Brandon Text';fill:#ffffff;fill-opacity:1;stroke-width:0.22967309"
         id="path10" />
      <path
         d="m 126.62345,211.26869 q 0,-0.0735 0.0459,-0.11943 0.0551,-0.0551 0.12861,-0.0551 h 0.8452 q 0.0735,0 0.11943,0.0551 0.0551,0.0459 0.0551,0.11943 v 5.15386 h 2.34267 q 0.0735,0 0.11943,0.0551 0.0551,0.0459 0.0551,0.11943 v 0.75333 q 0,0.0735 -0.0551,0.12861 -0.0459,0.0459 -0.11943,0.0459 H 126.798 q -0.0735,0 -0.12861,-0.0459 -0.0459,-0.0551 -0.0459,-0.12861 z"
         style="font-style:normal;font-variant:normal;font-weight:normal;font-stretch:normal;font-family:'iCiel Brandon Text';-inkscape-font-specification:'iCiel Brandon Text';fill:#ffffff;fill-opacity:1;stroke-width:0.22967309"
         id="path12" />
      <path
         d="m 130.73259,214.31874 q 0,-0.68902 0.25723,-1.29535 0.25724,-0.60634 0.69821,-1.04731 0.45016,-0.45016 1.04731,-0.70739 0.60633,-0.26643 1.29535,-0.26643 0.68902,0 1.28617,0.26643 0.60634,0.25723 1.0565,0.70739 0.45016,0.44097 0.70739,1.04731 0.25723,0.60633 0.25723,1.29535 0,0.68902 -0.25723,1.29536 -0.25723,0.59715 -0.70739,1.04731 -0.45016,0.44097 -1.0565,0.6982 -0.59715,0.25724 -1.28617,0.25724 -0.68902,0 -1.29535,-0.25724 -0.59715,-0.25723 -1.04731,-0.6982 -0.44097,-0.45016 -0.69821,-1.04731 -0.25723,-0.60634 -0.25723,-1.29536 z m 1.1943,0 q 0,0.43179 0.16536,0.81764 0.16537,0.38585 0.45016,0.67064 0.2848,0.2848 0.67065,0.45016 0.38585,0.16537 0.81763,0.16537 0.43179,0 0.81764,-0.16537 0.38585,-0.16536 0.67064,-0.45016 0.29399,-0.28479 0.45935,-0.67064 0.16536,-0.38585 0.16536,-0.81764 0,-0.43178 -0.16536,-0.81763 -0.16536,-0.38585 -0.45935,-0.67065 -0.28479,-0.29398 -0.67064,-0.45934 -0.38585,-0.17456 -0.81764,-0.17456 -0.43178,0 -0.81763,0.17456 -0.38585,0.16536 -0.67065,0.45934 -0.28479,0.2848 -0.45016,0.67065 -0.16536,0.38585 -0.16536,0.81763 z"
         style="font-style:normal;font-variant:normal;font-weight:normal;font-stretch:normal;font-family:'iCiel Brandon Text';-inkscape-font-specification:'iCiel Brandon Text';fill:#ffffff;fill-opacity:1;stroke-width:0.22967309"
         id="path14" />
      <path
         d="m 138.14313,214.31874 q 0,-0.68902 0.25724,-1.29535 0.25723,-0.60634 0.70739,-1.04731 0.45016,-0.45016 1.04731,-0.70739 0.59715,-0.26643 1.28617,-0.26643 0.62471,0 1.1943,0.22968 0.57877,0.22048 1.0473,0.62471 0.0551,0.0551 0.0551,0.12862 0.009,0.0735 -0.0459,0.12861 l -0.56959,0.59715 q -0.11024,0.11025 -0.23886,0 -0.60633,-0.53284 -1.38722,-0.53284 -0.43179,0 -0.80845,0.17455 -0.37667,0.16537 -0.65227,0.45935 -0.27561,0.29398 -0.44098,0.67983 -0.15617,0.38585 -0.15617,0.81764 0,0.43178 0.15617,0.81763 0.16537,0.37667 0.44098,0.66146 0.28479,0.2848 0.66146,0.45935 0.37666,0.16536 0.80844,0.16536 0.38586,0 0.67065,-0.0827 0.28479,-0.0919 0.4226,-0.14699 v -0.78089 h -0.73496 q -0.0735,0 -0.12861,-0.0459 -0.0459,-0.0459 -0.0459,-0.11943 v -0.72577 q 0,-0.17455 0.17455,-0.17455 h 1.76389 q 0.0735,0 0.11943,0.0551 0.0459,0.0459 0.0459,0.11943 v 2.35185 q 0,0.0919 -0.0735,0.14699 -0.28479,0.17455 -0.64308,0.30317 -0.30317,0.11024 -0.72577,0.20211 -0.41341,0.0919 -0.9095,0.0919 -0.68902,0 -1.28617,-0.25723 -0.59715,-0.25724 -1.04731,-0.69821 -0.45016,-0.44097 -0.70739,-1.03812 -0.25724,-0.60634 -0.25724,-1.29536 z"
         style="font-style:normal;font-variant:normal;font-weight:normal;font-stretch:normal;font-family:'iCiel Brandon Text';-inkscape-font-specification:'iCiel Brandon Text';fill:#ffffff;fill-opacity:1;stroke-width:0.22967309"
         id="path16" />
    </g>
    <path
       style="display:inline;opacity:1;fill:#ffffff;fill-opacity:1;stroke:none;stroke-width:0.33605146;stroke-linecap:round;stroke-linejoin:round;stroke-miterlimit:4;stroke-dasharray:none;stroke-opacity:1"
       d="m 145.61117,171.31476 v 5.04986 c -11.79593,0.009 -21.38313,9.60764 -21.39196,21.40847 h -5.06632 c 0.003,-7.29368 2.96975,-13.90239 7.76188,-18.69537 4.79506,-4.79299 11.40109,-7.76009 18.6964,-7.76296 z m 0,8.99744 v 5.05133 c -3.29679,0.005 -6.41435,1.29979 -8.74726,3.63606 -2.33522,2.33127 -3.62632,5.45475 -3.63188,8.76497 -0.001,0 -0.001,0.008 -0.001,0.008 h -5.07533 c 0.004,-4.81322 1.96173,-9.17112 5.12558,-12.33621 3.16311,-3.16367 7.51868,-5.11954 12.33025,-5.12466 z m -3.50288,10.42552 c 0.97099,0 1.84263,0.39218 2.48303,1.02794 0.57784,0.57888 0.95397,1.34861 1.01985,2.20651 v 0.53973 c -0.0659,0.85734 -0.44204,1.62455 -1.01985,2.20175 -0.63898,0.63609 -1.51204,1.0263 -2.48303,1.0263 -0.97198,0 -1.84509,-0.38879 -2.48842,-1.0263 -0.63747,-0.63871 -1.02833,-1.50559 -1.03119,-2.47162 0.003,-0.9661 0.39374,-1.83493 1.03414,-2.47505 0.6404,-0.63717 1.51349,-1.02926 2.48547,-1.02926 z"
       id="rect41559-9"
       inkscape:connector-curvature="0" />
  </g>
</svg>
