<?xml version="1.0" encoding="UTF-8" standalone="no"?>
<!-- Created with Inkscape (http://www.inkscape.org/) -->

<svg
   xmlns:dc="http://purl.org/dc/elements/1.1/"
   xmlns:cc="http://creativecommons.org/ns#"
   xmlns:rdf="http://www.w3.org/1999/02/22-rdf-syntax-ns#"
   xmlns:svg="http://www.w3.org/2000/svg"
   xmlns="http://www.w3.org/2000/svg"
   xmlns:sodipodi="http://sodipodi.sourceforge.net/DTD/sodipodi-0.dtd"
   xmlns:inkscape="http://www.inkscape.org/namespaces/inkscape"
   width="600"
   height="600"
   viewBox="0 0 158.75 158.75"
   version="1.1"
   id="svg8"
   inkscape:version="0.92.3 (2405546, 2018-03-11)"
   sodipodi:docname="comingsoon-thumb.svg">
  <defs
     id="defs2" />
  <sodipodi:namedview
     id="base"
     pagecolor="#ffffff"
     bordercolor="#666666"
     borderopacity="1.0"
     inkscape:pageopacity="0.0"
     inkscape:pageshadow="2"
     inkscape:zoom="0.94333333"
     inkscape:cx="298.93993"
     inkscape:cy="300.00002"
     inkscape:document-units="px"
     inkscape:current-layer="layer1"
     showgrid="false"
     units="px"
     inkscape:snap-page="true"
     inkscape:pagecheckerboard="true"
     inkscape:window-width="1366"
     inkscape:window-height="744"
     inkscape:window-x="0"
     inkscape:window-y="0"
     inkscape:window-maximized="1" />
  <metadata
     id="metadata5">
    <rdf:RDF>
      <cc:Work
         rdf:about="">
        <dc:format>image/svg+xml</dc:format>
        <dc:type
           rdf:resource="http://purl.org/dc/dcmitype/StillImage" />
        <dc:title></dc:title>
      </cc:Work>
    </rdf:RDF>
  </metadata>
  <g
     inkscape:label="Layer 1"
     inkscape:groupmode="layer"
     id="layer1"
     transform="translate(0,-138.24999)">
    <rect
       style="fill:#7f7f7f;fill-opacity:1;stroke-width:0.26458332;opacity:1"
       id="rect815"
       width="158.75"
       height="158.75"
       x="0"
       y="138.24998" />
    <g
       aria-label="COMING SOON"
       style="font-style:normal;font-weight:normal;font-size:14.69907379px;line-height:1.25;font-family:sans-serif;letter-spacing:0px;word-spacing:0px;fill:#000000;fill-opacity:1;stroke:none;stroke-width:0.36747682"
       id="text823">
      <path
         d="m 26.742785,217.63969 q 0,-1.10243 0.411574,-2.07257 0.426273,-0.97014 1.131828,-1.67569 0.720255,-0.72026 1.690394,-1.13183 0.970139,-0.42627 2.072569,-0.42627 1.11713,0 1.954977,0.35277 0.852546,0.33808 1.602199,1.01424 0.220486,0.20579 0.0147,0.41157 l -0.896643,0.92605 q -0.176389,0.19108 -0.367477,0 -0.47037,-0.41158 -1.058333,-0.63206 -0.587963,-0.23519 -1.205324,-0.23519 -0.705556,0 -1.308218,0.27928 -0.602662,0.26459 -1.043634,0.73496 -0.426273,0.47037 -0.676158,1.10243 -0.249884,0.61736 -0.249884,1.30821 0,0.69086 0.249884,1.30822 0.249885,0.61736 0.690857,1.08773 0.440972,0.45567 1.043634,0.73496 0.602662,0.26458 1.308218,0.26458 0.661458,0 1.220023,-0.22049 0.558565,-0.23518 1.028935,-0.61736 0.08819,-0.0735 0.191088,-0.0735 0.102893,0 0.176389,0.0735 l 0.911342,0.94074 q 0.08819,0.0735 0.0735,0.20579 -0.0147,0.11759 -0.08819,0.19109 -0.749652,0.73495 -1.675694,1.08773 -0.911343,0.33808 -1.896181,0.33808 -1.10243,0 -2.072569,-0.41157 -0.970139,-0.41158 -1.690394,-1.11713 -0.705555,-0.72026 -1.131828,-1.6757 -0.411574,-0.97014 -0.411574,-2.07257 z"
         style="font-style:normal;font-variant:normal;font-weight:normal;font-stretch:normal;font-family:'iCiel Brandon Text';-inkscape-font-specification:'iCiel Brandon Text';fill:#ffffff;fill-opacity:1;stroke-width:0.36747682"
         id="path4548" />
      <path
         d="m 36.618725,217.63969 q 0,-1.10243 0.411574,-2.07257 0.411574,-0.97014 1.11713,-1.67569 0.720254,-0.72026 1.675694,-1.13183 0.970139,-0.42627 2.07257,-0.42627 1.10243,0 2.05787,0.42627 0.970139,0.41157 1.690393,1.13183 0.720255,0.70555 1.131829,1.67569 0.411574,0.97014 0.411574,2.07257 0,1.10243 -0.411574,2.07257 -0.411574,0.95544 -1.131829,1.6757 -0.720254,0.70555 -1.690393,1.11713 -0.95544,0.41157 -2.05787,0.41157 -1.102431,0 -2.07257,-0.41157 -0.95544,-0.41158 -1.675694,-1.11713 -0.705556,-0.72026 -1.11713,-1.6757 -0.411574,-0.97014 -0.411574,-2.07257 z m 1.91088,0 q 0,0.69086 0.264583,1.30822 0.264583,0.61736 0.720255,1.07303 0.455671,0.45567 1.073032,0.72026 0.617361,0.26458 1.308218,0.26458 0.690856,0 1.308217,-0.26458 0.617361,-0.26459 1.073032,-0.72026 0.470371,-0.45567 0.734954,-1.07303 0.264583,-0.61736 0.264583,-1.30822 0,-0.69085 -0.264583,-1.30822 -0.264583,-0.61736 -0.734954,-1.07303 -0.455671,-0.47037 -1.073032,-0.73495 -0.617361,-0.27928 -1.308217,-0.27928 -0.690857,0 -1.308218,0.27928 -0.617361,0.26458 -1.073032,0.73495 -0.455672,0.45567 -0.720255,1.07303 -0.264583,0.61737 -0.264583,1.30822 z"
         style="font-style:normal;font-variant:normal;font-weight:normal;font-stretch:normal;font-family:'iCiel Brandon Text';-inkscape-font-specification:'iCiel Brandon Text';fill:#ffffff;fill-opacity:1;stroke-width:0.36747682"
         id="path4550" />
      <path
         d="m 50.182754,212.55381 q 0.0147,-0.0882 0.0735,-0.14699 0.0735,-0.0735 0.191088,-0.0735 h 0.235185 q 0.176389,0 0.249884,0.14699 l 3.233796,6.93796 h 0.0441 l 3.233796,-6.93796 q 0.0735,-0.14699 0.249884,-0.14699 h 0.235185 q 0.117593,0 0.176389,0.0735 0.0735,0.0588 0.08819,0.14699 l 1.73449,9.87778 q 0.0294,0.16169 -0.0441,0.24988 -0.0735,0.0882 -0.220486,0.0882 h -1.337616 q -0.102893,0 -0.176389,-0.0735 -0.0735,-0.0735 -0.102893,-0.14699 l -0.867245,-5.57095 h -0.0441 l -2.572338,5.77674 q -0.0588,0.16169 -0.249884,0.16169 h -0.264583 q -0.176389,0 -0.249884,-0.16169 l -2.601736,-5.77674 h -0.0441 l -0.852546,5.57095 q -0.0147,0.0735 -0.08819,0.14699 -0.0735,0.0735 -0.176389,0.0735 h -1.322917 q -0.32338,0 -0.279282,-0.33808 z"
         style="font-style:normal;font-variant:normal;font-weight:normal;font-stretch:normal;font-family:'iCiel Brandon Text';-inkscape-font-specification:'iCiel Brandon Text';fill:#ffffff;fill-opacity:1;stroke-width:0.36747682"
         id="path4552" />
      <path
         d="m 61.882529,212.7596 q 0,-0.11759 0.0735,-0.19109 0.08819,-0.0882 0.205787,-0.0882 h 1.367014 q 0.117592,0 0.191088,0.0882 0.08819,0.0735 0.08819,0.19109 v 9.73079 q 0,0.11759 -0.08819,0.20578 -0.0735,0.0735 -0.191088,0.0735 h -1.367014 q -0.117593,0 -0.205787,-0.0735 -0.0735,-0.0882 -0.0735,-0.20578 z"
         style="font-style:normal;font-variant:normal;font-weight:normal;font-stretch:normal;font-family:'iCiel Brandon Text';-inkscape-font-specification:'iCiel Brandon Text';fill:#ffffff;fill-opacity:1;stroke-width:0.36747682"
         id="path4554" />
      <path
         d="m 66.303733,212.59791 q 0,-0.11759 0.0735,-0.19109 0.08819,-0.0735 0.205787,-0.0735 h 0.220487 q 0.14699,0 0.249884,0.10289 l 5.997222,6.3941 h 0.0294 v -6.07072 q 0,-0.11759 0.0735,-0.19109 0.08819,-0.0882 0.205787,-0.0882 h 1.352315 q 0.117593,0 0.191088,0.0882 0.08819,0.0735 0.08819,0.19109 v 9.89248 q 0,0.11759 -0.08819,0.19108 -0.0735,0.0735 -0.191088,0.0735 h -0.205787 q -0.146991,0 -0.249884,-0.10289 l -6.02662,-6.64399 h -0.0294 v 6.32061 q 0,0.11759 -0.0882,0.20578 -0.07349,0.0735 -0.191088,0.0735 h -1.337616 q -0.117592,0 -0.205787,-0.0735 -0.0735,-0.0882 -0.0735,-0.20578 z"
         style="font-style:normal;font-variant:normal;font-weight:normal;font-stretch:normal;font-family:'iCiel Brandon Text';-inkscape-font-specification:'iCiel Brandon Text';fill:#ffffff;fill-opacity:1;stroke-width:0.36747682"
         id="path4556" />
      <path
         d="m 76.897631,217.63969 q 0,-1.10243 0.411574,-2.07257 0.411574,-0.97014 1.131829,-1.67569 0.720254,-0.72026 1.675694,-1.13183 0.95544,-0.42627 2.05787,-0.42627 0.999537,0 1.91088,0.36747 0.926042,0.35278 1.675694,0.99954 0.08819,0.0882 0.08819,0.20579 0.0147,0.11759 -0.0735,0.20578 l -0.911342,0.95544 q -0.176389,0.17639 -0.382176,0 -0.970139,-0.85254 -2.21956,-0.85254 -0.690857,0 -1.293519,0.27928 -0.602662,0.26458 -1.043634,0.73495 -0.440972,0.47037 -0.705555,1.08774 -0.249885,0.61736 -0.249885,1.30821 0,0.69086 0.249885,1.30822 0.264583,0.60266 0.705555,1.05833 0.455671,0.45567 1.058333,0.73496 0.602662,0.26458 1.293519,0.26458 0.617361,0 1.073032,-0.13229 0.455672,-0.14699 0.676158,-0.23519 v -1.24942 h -1.175926 q -0.117593,0 -0.205787,-0.0735 -0.0735,-0.0735 -0.0735,-0.19109 v -1.16123 q 0,-0.27928 0.279283,-0.27928 h 2.822222 q 0.117593,0 0.191088,0.0882 0.0735,0.0735 0.0735,0.19109 v 3.76297 q 0,0.14699 -0.117592,0.23518 -0.455672,0.27928 -1.028935,0.48507 -0.48507,0.17639 -1.161227,0.32338 -0.661459,0.14699 -1.455209,0.14699 -1.10243,0 -2.05787,-0.41157 -0.95544,-0.41158 -1.675694,-1.11713 -0.720255,-0.70556 -1.131829,-1.661 -0.411574,-0.97014 -0.411574,-2.07257 z"
         style="font-style:normal;font-variant:normal;font-weight:normal;font-stretch:normal;font-family:'iCiel Brandon Text';-inkscape-font-specification:'iCiel Brandon Text';fill:#ffffff;fill-opacity:1;stroke-width:0.36747682"
         id="path4558" />
      <path
         d="m 94.404,222.91666 q -0.690857,0 -1.234722,-0.13229 -0.529167,-0.11759 -0.926042,-0.29398 -0.382176,-0.19109 -0.646759,-0.38218 -0.264584,-0.20579 -0.426273,-0.33808 -0.117593,-0.0882 -0.146991,-0.17639 -0.0294,-0.0882 0.0735,-0.26458 l 0.529167,-0.91134 q 0.08819,-0.16169 0.235185,-0.16169 0.16169,-0.0147 0.264583,0.0588 0.455672,0.33808 0.970139,0.63206 0.529167,0.27929 1.249422,0.27929 0.573263,0 0.955439,-0.32338 0.382176,-0.33808 0.382176,-0.80845 0,-0.55857 -0.47037,-0.97014 -0.470371,-0.41158 -1.396412,-0.79375 -0.514468,-0.20579 -1.014236,-0.48507 -0.499769,-0.27928 -0.896644,-0.66146 -0.382176,-0.38218 -0.617361,-0.88194 -0.235185,-0.49977 -0.235185,-1.14653 0,-0.48507 0.191088,-0.98484 0.191088,-0.51447 0.587963,-0.91134 0.396875,-0.41158 1.014236,-0.66146 0.63206,-0.26458 1.514005,-0.26458 0.558564,0 1.043634,0.13229 0.499768,0.11759 0.881944,0.27928 0.382176,0.16169 0.63206,0.32338 0.264584,0.16169 0.382176,0.24988 0.117593,0.0735 0.132292,0.22049 0.0294,0.14699 -0.0441,0.26458 l -0.558565,0.83785 q -0.08819,0.13229 -0.235185,0.20579 -0.146991,0.0588 -0.279283,-0.0294 -0.47037,-0.29398 -0.955439,-0.54387 -0.470371,-0.26458 -1.087732,-0.26458 -0.63206,0 -0.970139,0.30868 -0.323379,0.29398 -0.323379,0.72026 0,0.51446 0.411574,0.89664 0.426273,0.38218 1.322916,0.74965 0.529167,0.22049 1.073033,0.49977 0.558565,0.27928 0.999537,0.67616 0.440972,0.38217 0.720254,0.91134 0.279283,0.52917 0.279283,1.23472 0,0.57327 -0.235185,1.10243 -0.235186,0.51447 -0.676158,0.92604 -0.440972,0.39688 -1.073032,0.64676 -0.617361,0.23519 -1.396412,0.23519 z"
         style="font-style:normal;font-variant:normal;font-weight:normal;font-stretch:normal;font-family:'iCiel Brandon Text';-inkscape-font-specification:'iCiel Brandon Text';fill:#ffffff;fill-opacity:1;stroke-width:0.36747682"
         id="path4560" />
      <path
         d="m 99.003664,217.63969 q 0,-1.10243 0.411574,-2.07257 0.411574,-0.97014 1.117132,-1.67569 0.72025,-0.72026 1.67569,-1.13183 0.97014,-0.42627 2.07257,-0.42627 1.10243,0 2.05787,0.42627 0.97014,0.41157 1.6904,1.13183 0.72025,0.70555 1.13182,1.67569 0.41158,0.97014 0.41158,2.07257 0,1.10243 -0.41158,2.07257 -0.41157,0.95544 -1.13182,1.6757 -0.72026,0.70555 -1.6904,1.11713 -0.95544,0.41157 -2.05787,0.41157 -1.10243,0 -2.07257,-0.41157 -0.95544,-0.41158 -1.67569,-1.11713 -0.705558,-0.72026 -1.117132,-1.6757 -0.411574,-0.97014 -0.411574,-2.07257 z m 1.910876,0 q 0,0.69086 0.26459,1.30822 0.26458,0.61736 0.72025,1.07303 0.45567,0.45567 1.07303,0.72026 0.61737,0.26458 1.30822,0.26458 0.69086,0 1.30822,-0.26458 0.61736,-0.26459 1.07303,-0.72026 0.47037,-0.45567 0.73496,-1.07303 0.26458,-0.61736 0.26458,-1.30822 0,-0.69085 -0.26458,-1.30822 -0.26459,-0.61736 -0.73496,-1.07303 -0.45567,-0.47037 -1.07303,-0.73495 -0.61736,-0.27928 -1.30822,-0.27928 -0.69085,0 -1.30822,0.27928 -0.61736,0.26458 -1.07303,0.73495 -0.45567,0.45567 -0.72025,1.07303 -0.26459,0.61737 -0.26459,1.30822 z"
         style="font-style:normal;font-variant:normal;font-weight:normal;font-stretch:normal;font-family:'iCiel Brandon Text';-inkscape-font-specification:'iCiel Brandon Text';fill:#ffffff;fill-opacity:1;stroke-width:0.36747682"
         id="path4562" />
      <path
         d="m 110.86053,217.63969 q 0,-1.10243 0.41157,-2.07257 0.41158,-0.97014 1.11713,-1.67569 0.72026,-0.72026 1.6757,-1.13183 0.97014,-0.42627 2.07257,-0.42627 1.10243,0 2.05787,0.42627 0.97014,0.41157 1.69039,1.13183 0.72026,0.70555 1.13183,1.67569 0.41157,0.97014 0.41157,2.07257 0,1.10243 -0.41157,2.07257 -0.41157,0.95544 -1.13183,1.6757 -0.72025,0.70555 -1.69039,1.11713 -0.95544,0.41157 -2.05787,0.41157 -1.10243,0 -2.07257,-0.41157 -0.95544,-0.41158 -1.6757,-1.11713 -0.70555,-0.72026 -1.11713,-1.6757 -0.41157,-0.97014 -0.41157,-2.07257 z m 1.91088,0 q 0,0.69086 0.26458,1.30822 0.26459,0.61736 0.72026,1.07303 0.45567,0.45567 1.07303,0.72026 0.61736,0.26458 1.30822,0.26458 0.69085,0 1.30821,-0.26458 0.61737,-0.26459 1.07304,-0.72026 0.47037,-0.45567 0.73495,-1.07303 0.26458,-0.61736 0.26458,-1.30822 0,-0.69085 -0.26458,-1.30822 -0.26458,-0.61736 -0.73495,-1.07303 -0.45567,-0.47037 -1.07304,-0.73495 -0.61736,-0.27928 -1.30821,-0.27928 -0.69086,0 -1.30822,0.27928 -0.61736,0.26458 -1.07303,0.73495 -0.45567,0.45567 -0.72026,1.07303 -0.26458,0.61737 -0.26458,1.30822 z"
         style="font-style:normal;font-variant:normal;font-weight:normal;font-stretch:normal;font-family:'iCiel Brandon Text';-inkscape-font-specification:'iCiel Brandon Text';fill:#ffffff;fill-opacity:1;stroke-width:0.36747682"
         id="path4564" />
      <path
         d="m 123.32006,212.59791 q 0,-0.11759 0.0735,-0.19109 0.0882,-0.0735 0.20579,-0.0735 h 0.22048 q 0.14699,0 0.24989,0.10289 l 5.99722,6.3941 h 0.0294 v -6.07072 q 0,-0.11759 0.0735,-0.19109 0.0882,-0.0882 0.20579,-0.0882 h 1.35231 q 0.1176,0 0.19109,0.0882 0.0882,0.0735 0.0882,0.19109 v 9.89248 q 0,0.11759 -0.0882,0.19108 -0.0735,0.0735 -0.19109,0.0735 h -0.20578 q -0.14699,0 -0.24989,-0.10289 l -6.02662,-6.64399 h -0.0294 v 6.32061 q 0,0.11759 -0.0882,0.20578 -0.0735,0.0735 -0.19109,0.0735 h -1.33761 q -0.1176,0 -0.20579,-0.0735 -0.0735,-0.0882 -0.0735,-0.20578 z"
         style="font-style:normal;font-variant:normal;font-weight:normal;font-stretch:normal;font-family:'iCiel Brandon Text';-inkscape-font-specification:'iCiel Brandon Text';fill:#ffffff;fill-opacity:1;stroke-width:0.36747682"
         id="path4566" />
    </g>
  </g>
</svg>
