<?xml version="1.0" encoding="UTF-8" standalone="no"?>
<svg
   xmlns:dc="http://purl.org/dc/elements/1.1/"
   xmlns:cc="http://creativecommons.org/ns#"
   xmlns:rdf="http://www.w3.org/1999/02/22-rdf-syntax-ns#"
   xmlns:svg="http://www.w3.org/2000/svg"
   xmlns="http://www.w3.org/2000/svg"
   xmlns:sodipodi="http://sodipodi.sourceforge.net/DTD/sodipodi-0.dtd"
   xmlns:inkscape="http://www.inkscape.org/namespaces/inkscape"
   id="svg29587"
   version="1.1"
   viewBox="0 0 26.458333 22.575147"
   height="85.323387"
   width="100"
   sodipodi:docname="design-welcome.svg"
   inkscape:version="0.92.3 (2405546, 2018-03-11)">
  <sodipodi:namedview
     pagecolor="#ffffff"
     bordercolor="#666666"
     borderopacity="1"
     objecttolerance="10"
     gridtolerance="10"
     guidetolerance="10"
     inkscape:pageopacity="0"
     inkscape:pageshadow="2"
     inkscape:window-width="1920"
     inkscape:window-height="1058"
     id="namedview29"
     showgrid="false"
     fit-margin-top="0"
     fit-margin-left="0"
     fit-margin-right="0"
     fit-margin-bottom="0"
     inkscape:pagecheckerboard="true"
     inkscape:zoom="5.5318948"
     inkscape:cx="47.766585"
     inkscape:cy="33.946129"
     inkscape:window-x="-8"
     inkscape:window-y="-8"
     inkscape:window-maximized="1"
     inkscape:current-layer="svg29587" />
  <defs
     id="defs29581">
    <pattern
       y="0"
       x="0"
       height="6"
       width="6"
       patternUnits="userSpaceOnUse"
       id="EMFhbasepattern" />
  </defs>
  <metadata
     id="metadata29584">
    <rdf:RDF>
      <cc:Work
         rdf:about="">
        <dc:format>image/svg+xml</dc:format>
        <dc:type
           rdf:resource="http://purl.org/dc/dcmitype/StillImage" />
        <dc:title></dc:title>
      </cc:Work>
    </rdf:RDF>
  </metadata>
  <g
     id="g3891"
     transform="matrix(0.93360944,0,0,0.93360944,-25.371347,0.9774244)">
    <path
       inkscape:connector-curvature="0"
       style="fill:#ffffff;fill-opacity:1;fill-rule:nonzero;stroke:none;stroke-width:0.10775649"
       d="m 32.592475,-1.0468758 v 10.939357 h 3.827481 v -0.543089 h -0.543088 v -1.646507 h 0.543088 v -2.732684 h 9.301471 V 1.1427192 H 44.08354 v -1.64650696 h 1.637887 V -1.0468758 Z m 0.551709,0.54308804 H 34.78207 V 1.1427192 h -1.637886 z m 2.732684,0 h 1.637886 V 1.1427192 h -1.637886 z m 2.732684,0 h 1.646507 V 1.1427192 h -1.646507 z m 2.741304,0 h 1.637887 V 1.1427192 H 41.350856 Z M 33.144184,7.7028852 h 1.637886 v 1.646507 h -1.637886 z"
       id="path3812" />
    <path
       inkscape:connector-curvature="0"
       style="fill:#ffffff;fill-opacity:1;fill-rule:nonzero;stroke:none;stroke-width:0.10775649"
       d="M 36.971666,5.5219102 V 16.461267 H 50.100618 V 5.5219102 Z m 2.189595,1.224104 h 0.818943 v 0.275855 h 3.146466 v -0.275855 h 0.818943 v 0.275855 h 3.146467 v -0.275855 h 0.818942 v 0.827564 H 47.09208 v -0.275854 h -3.146467 v 0.275854 H 43.12667 v -0.275854 h -3.146466 v 0.275854 h -0.818943 v -0.275854 -0.275855 z m 4.37057,1.922362 2.189596,3.2757728 -1.094797,2.189595 h -2.180975 l -1.094799,-2.189595 z m 0,3.2757728 c -0.301716,0 -0.543088,0.249993 -0.543088,0.551709 0,0.301716 0.241372,0.543088 0.543088,0.543088 0.310337,0 0.551709,-0.241372 0.551709,-0.543088 0,-0.301716 -0.241372,-0.551709 -0.551709,-0.551709 z m -1.086176,2.741304 h 2.180975 v 0.543089 h -2.180975 z"
       id="path3814" />
    <path
       inkscape:connector-curvature="0"
       style="fill:#ffffff;fill-opacity:1;fill-rule:nonzero;stroke:none;stroke-width:0.10775649"
       d="m 28.437415,21.228379 c 0.0086,-0.01724 0.0086,-0.02586 0.01724,-0.03448 0.0086,-0.0086 0.01724,-0.0086 0.03448,-0.0086 h 0.0431 c 0.02586,0 0.03448,0.0086 0.05172,0.02586 l 0.594812,1.275827 h 0.0086 l 0.594811,-1.275827 c 0.0086,-0.01724 0.01724,-0.02586 0.0431,-0.02586 h 0.0431 c 0.01724,0 0.02586,0 0.03448,0.0086 0.0086,0.0086 0.0086,0.01724 0.01724,0.03448 l 0.318957,1.818915 c 0,0.01724 0,0.03448 -0.0086,0.0431 -0.0086,0.0086 -0.02586,0.01724 -0.0431,0.01724 h -0.250016 c -0.0086,0 -0.01724,-0.0086 -0.02586,-0.01724 -0.0086,-0.0086 -0.01724,-0.01724 -0.01724,-0.02586 l -0.163787,-1.025833 h -0.0086 l -0.474126,1.068936 c -0.0086,0.01724 -0.02586,0.02586 -0.0431,0.02586 h -0.05172 c -0.01724,0 -0.03448,-0.0086 -0.0431,-0.02586 l -0.482748,-1.068936 h -0.0086 l -0.155168,1.025834 c 0,0.0086 -0.0086,0.01724 -0.01724,0.02586 -0.0086,0.0086 -0.01724,0.01724 -0.03448,0.01724 h -0.241373 c -0.0431,1e-6 -0.06034,-0.02586 -0.05172,-0.06034 z"
       id="path3816" />
    <path
       inkscape:connector-curvature="0"
       style="fill:#ffffff;fill-opacity:1;fill-rule:nonzero;stroke:none;stroke-width:0.10775649"
       d="m 30.558048,21.26286 c 0,-0.01724 0,-0.02586 0.0086,-0.03448 0.01724,-0.0086 0.02586,-0.01724 0.0431,-0.01724 h 0.258614 c 0.0086,0 0.02586,0.0086 0.03448,0.01724 0.0086,0.0086 0.01724,0.01724 0.01724,0.03448 v 1.12928 c 0,0.112065 0.03448,0.20689 0.103445,0.284475 0.06896,0.06896 0.163789,0.103445 0.284476,0.103445 0.06034,0 0.112066,-0.0086 0.163788,-0.02586 0.0431,-0.01724 0.08621,-0.0431 0.120687,-0.07758 0.03448,-0.03448 0.06034,-0.07758 0.0862,-0.129307 0.01724,-0.0431 0.02586,-0.09483 0.02586,-0.155168 v -1.12928 c 0,-0.01724 0.0086,-0.02586 0.01724,-0.03448 0.0086,-0.0086 0.01724,-0.01724 0.03448,-0.01724 h 0.258613 c 0.0086,0 0.02586,0.0086 0.03448,0.01724 0.0086,0.0086 0.01724,0.01724 0.01724,0.03448 v 1.146521 c 0,0.103445 -0.02586,0.19827 -0.06034,0.284475 -0.0431,0.09482 -0.09483,0.172409 -0.163788,0.232752 -0.06034,0.06034 -0.146548,0.112065 -0.232753,0.155168 -0.09482,0.03448 -0.18965,0.05172 -0.301716,0.05172 -0.103445,0 -0.20689,-0.01724 -0.293095,-0.05172 -0.09483,-0.0431 -0.172409,-0.09483 -0.241373,-0.155168 -0.06896,-0.06034 -0.120686,-0.137928 -0.163788,-0.232752 -0.03448,-0.0862 -0.05172,-0.18103 -0.05172,-0.284475 z"
       id="path3818" />
    <path
       inkscape:connector-curvature="0"
       style="fill:#ffffff;fill-opacity:1;fill-rule:nonzero;stroke:none;stroke-width:0.10775649"
       d="m 32.50627,21.26286 c 0,-0.01724 0,-0.02586 0.01724,-0.03448 0.0086,-0.0086 0.01724,-0.01724 0.03448,-0.01724 h 0.249994 c 0.0086,0 0.02586,0.0086 0.03448,0.01724 0.0086,0.0086 0.01724,0.01724 0.01724,0.03448 v 1.5172 h 0.689636 c 0.01724,0 0.02586,0.0086 0.03448,0.01724 0.0086,0.0086 0.01724,0.01724 0.01724,0.03448 v 0.224131 c 0,0.01724 -0.0086,0.02586 -0.01724,0.03448 -0.0086,0.0086 -0.01724,0.01724 -0.03448,0.01724 h -0.991352 c -0.01724,0 -0.02586,-0.0086 -0.03448,-0.01724 -0.01724,-0.0086 -0.01724,-0.01724 -0.01724,-0.03448 z"
       id="path3820" />
    <path
       inkscape:connector-curvature="0"
       style="fill:#ffffff;fill-opacity:1;fill-rule:nonzero;stroke:none;stroke-width:0.10775649"
       d="m 34.075193,21.538715 h -0.413782 c -0.01724,0 -0.02586,-0.0086 -0.03448,-0.01724 -0.0086,-0.0086 -0.01724,-0.02586 -0.01724,-0.03448 v -0.224132 c 0,-0.01724 0.0086,-0.02586 0.01724,-0.03448 0.0086,-0.0086 0.01724,-0.01724 0.03448,-0.01724 h 1.181002 c 0.01724,0 0.02586,0.0086 0.03448,0.01724 0.01724,0.0086 0.01724,0.01724 0.01724,0.03448 v 0.224132 c 0,0.0086 0,0.02586 -0.01724,0.03448 -0.0086,0.0086 -0.01724,0.01724 -0.03448,0.01724 h -0.413782 v 1.517199 c 0,0.01724 0,0.02586 -0.01724,0.03448 -0.0086,0.0086 -0.01724,0.01724 -0.03448,0.01724 h -0.249993 c -0.01724,0 -0.02586,-0.0086 -0.03448,-0.01724 -0.0086,-0.0086 -0.01724,-0.01724 -0.01724,-0.03448 z"
       id="path3822" />
    <path
       inkscape:connector-curvature="0"
       style="fill:#ffffff;fill-opacity:1;fill-rule:nonzero;stroke:none;stroke-width:0.10775649"
       d="m 35.195852,21.26286 c 0,-0.01724 0.0086,-0.02586 0.01724,-0.03448 0.0086,-0.0086 0.01724,-0.01724 0.03448,-0.01724 h 0.249993 c 0.01724,0 0.02586,0.0086 0.03448,0.01724 0.01724,0.0086 0.01724,0.01724 0.01724,0.03448 v 1.793054 c 0,0.01724 0,0.02586 -0.01724,0.03448 -0.0086,0.0086 -0.01724,0.01724 -0.03448,0.01724 h -0.249993 c -0.01724,0 -0.02586,-0.0086 -0.03448,-0.01724 -0.0086,-0.0086 -0.01724,-0.01724 -0.01724,-0.03448 z"
       id="path3824" />
    <path
       inkscape:connector-curvature="0"
       style="fill:#ffffff;fill-opacity:1;fill-rule:nonzero;stroke:none;stroke-width:0.10775649"
       d="m 36.230306,21.228379 c 0,-0.01724 0.0086,-0.02586 0.01724,-0.03448 0.0086,-0.0086 0.01724,-0.0086 0.03448,-0.0086 h 0.0431 c 0.01724,0 0.03448,0.0086 0.0431,0.02586 l 0.594811,1.275827 h 0.0086 l 0.594811,-1.275827 c 0.0086,-0.01724 0.02586,-0.02586 0.05172,-0.02586 h 0.0431 c 0.0086,0 0.02586,0 0.02586,0.0086 0.0086,0.0086 0.01724,0.01724 0.01724,0.03448 l 0.318957,1.818915 c 0.0086,0.01724 0,0.03448 -0.0086,0.0431 -0.0086,0.0086 -0.01724,0.01724 -0.03448,0.01724 h -0.249993 c -0.0086,0 -0.02586,-0.0086 -0.03448,-0.01724 -0.0086,-0.0086 -0.0086,-0.01724 -0.01724,-0.02586 L 37.523364,22.0387 h -0.0086 l -0.474125,1.068936 c -0.0086,0.01724 -0.02586,0.02586 -0.05172,0.02586 h -0.0431 c -0.02586,0 -0.0431,-0.0086 -0.05172,-0.02586 L 36.419974,22.0387 h -0.0086 l -0.155168,1.025834 c -0.0086,0.0086 -0.0086,0.01724 -0.01724,0.02586 -0.0086,0.0086 -0.02586,0.01724 -0.03448,0.01724 h -0.241373 c -0.0431,0 -0.06034,-0.02586 -0.05172,-0.06034 z"
       id="path3826" />
    <path
       inkscape:connector-curvature="0"
       style="fill:#ffffff;fill-opacity:1;fill-rule:nonzero;stroke:none;stroke-width:0.10775649"
       d="m 38.38542,21.26286 c 0,-0.01724 0.0086,-0.02586 0.01724,-0.03448 0.0086,-0.0086 0.01724,-0.01724 0.03448,-0.01724 h 1.103418 c 0.01724,0 0.02586,0.0086 0.03448,0.01724 0.0086,0.0086 0.01724,0.01724 0.01724,0.03448 v 0.224132 c 0,0.0086 -0.0086,0.02586 -0.01724,0.03448 -0.0086,0.0086 -0.01724,0.01724 -0.03448,0.01724 h -0.801703 v 0.439643 h 0.672396 c 0.0086,0 0.02586,0.0086 0.03448,0.01724 0.0086,0.0086 0.0086,0.01724 0.0086,0.03448 v 0.224132 c 0,0.01724 0,0.02586 -0.0086,0.0431 -0.0086,0.0086 -0.02586,0.0086 -0.03448,0.0086 h -0.672396 v 0.474125 h 0.801703 c 0.01724,0 0.02586,0.0086 0.03448,0.01724 0.0086,0.0086 0.01724,0.01724 0.01724,0.03448 v 0.224131 c 0,0.01724 -0.0086,0.02586 -0.01724,0.03448 -0.0086,0.0086 -0.01724,0.01724 -0.03448,0.01724 H 38.43714 c -0.01724,0 -0.02586,-0.0086 -0.03448,-0.01724 -0.0086,-0.0086 -0.01724,-0.01724 -0.01724,-0.03448 z"
       id="path3828" />
    <path
       inkscape:connector-curvature="0"
       style="fill:#ffffff;fill-opacity:1;fill-rule:nonzero;stroke:none;stroke-width:0.10775649"
       d="m 39.945723,21.26286 c 0,-0.01724 0.0086,-0.02586 0.01724,-0.03448 0.0086,-0.0086 0.01724,-0.01724 0.03448,-0.01724 h 0.637914 c 0.129307,0 0.249993,0.02586 0.370679,0.07758 0.112067,0.0431 0.215512,0.112067 0.301716,0.198271 0.0862,0.0862 0.155168,0.18965 0.206891,0.301716 0.0431,0.112065 0.06896,0.241372 0.06896,0.370679 0,0.129308 -0.02586,0.249994 -0.06896,0.37068 -0.05172,0.112065 -0.120686,0.215511 -0.206891,0.301716 -0.0862,0.0862 -0.189649,0.155168 -0.301716,0.19827 -0.120686,0.05172 -0.241372,0.07758 -0.370679,0.07758 h -0.637911 c -0.01724,0 -0.02586,-0.0086 -0.03448,-0.01724 -0.0086,-0.0086 -0.01724,-0.01724 -0.01724,-0.03448 z m 0.655154,1.5172 c 0.09483,0 0.172409,-0.01724 0.249992,-0.0431 0.06897,-0.03448 0.137929,-0.07758 0.189651,-0.129307 0.05172,-0.06034 0.09483,-0.120687 0.129307,-0.19827 0.02586,-0.07759 0.0431,-0.163789 0.0431,-0.249994 0,-0.09483 -0.01724,-0.181029 -0.0431,-0.258614 -0.03448,-0.06896 -0.07758,-0.137927 -0.129307,-0.189649 -0.05172,-0.05172 -0.120686,-0.09483 -0.189651,-0.129308 -0.07758,-0.02586 -0.155167,-0.0431 -0.249992,-0.0431 h -0.301716 v 1.241345 z"
       id="path3830" />
    <path
       inkscape:connector-curvature="0"
       style="fill:#ffffff;fill-opacity:1;fill-rule:nonzero;stroke:none;stroke-width:0.10775649"
       d="m 41.937047,21.26286 c 0,-0.01724 0,-0.02586 0.0086,-0.03448 0.01724,-0.0086 0.02586,-0.01724 0.0431,-0.01724 h 0.249993 c 0.01724,0 0.02586,0.0086 0.03448,0.01724 0.0086,0.0086 0.01724,0.01724 0.01724,0.03448 v 1.793054 c 0,0.01724 -0.0086,0.02586 -0.01724,0.03448 -0.0086,0.0086 -0.01724,0.01724 -0.03448,0.01724 h -0.249993 c -0.01724,0 -0.02586,-0.0086 -0.0431,-0.01724 -0.0086,-0.0086 -0.0086,-0.01724 -0.0086,-0.03448 z"
       id="path3832" />
    <path
       inkscape:connector-curvature="0"
       style="fill:#ffffff;fill-opacity:1;fill-rule:nonzero;stroke:none;stroke-width:0.10775649"
       d="m 42.566341,23.107637 c -0.01724,0 -0.03448,-0.0086 -0.0431,-0.02586 -0.0086,-0.0086 -0.0086,-0.02586 0,-0.0431 l 0.844805,-1.827536 c 0.0086,-0.01724 0.02586,-0.02586 0.0431,-0.02586 h 0.02586 c 0.01724,0 0.02586,0 0.03448,0.0086 0.0086,0 0.0086,0.0086 0.01724,0.01724 l 0.827564,1.827536 c 0.0086,0.01724 0.0086,0.03448 0,0.0431 -0.0086,0.01724 -0.02586,0.02586 -0.0431,0.02586 h -0.232752 c -0.02586,0 -0.03448,-0.0086 -0.05172,-0.0086 -0.0086,-0.0086 -0.01724,-0.02586 -0.02586,-0.0431 l -0.137931,-0.293098 h -0.810322 l -0.129308,0.293095 c -0.0086,0.0086 -0.01724,0.02586 -0.02586,0.03448 -0.01724,0.0086 -0.03448,0.01724 -0.05172,0.01724 z m 1.129279,-0.646534 -0.275854,-0.594811 h -0.0086 l -0.258613,0.594811 z"
       id="path3834" />
    <path
       inkscape:connector-curvature="0"
       style="fill:#ffffff;fill-opacity:1;fill-rule:nonzero;stroke:none;stroke-width:0.10775649"
       d="m 45.2042,21.26286 c 0,-0.01724 0.0086,-0.02586 0.01724,-0.03448 0.0086,-0.0086 0.01724,-0.01724 0.03448,-0.01724 h 0.646535 c 0.129306,0 0.249992,0.02586 0.362058,0.07758 0.120686,0.0431 0.215512,0.112067 0.301716,0.198271 0.0862,0.0862 0.155169,0.18965 0.206892,0.301716 0.05172,0.112065 0.07758,0.241372 0.07758,0.370679 0,0.129308 -0.02586,0.249994 -0.07758,0.37068 -0.05172,0.112065 -0.120687,0.215511 -0.206892,0.301716 -0.0862,0.0862 -0.18103,0.155168 -0.301716,0.19827 -0.112066,0.05172 -0.232752,0.07758 -0.362058,0.07758 H 45.25592 c -0.01724,0 -0.02586,-0.0086 -0.03448,-0.01724 -0.0086,-0.0086 -0.01724,-0.01724 -0.01724,-0.03448 z m 0.663774,1.5172 c 0.0862,0 0.163789,-0.01724 0.241373,-0.0431 0.07758,-0.03448 0.137927,-0.07758 0.18965,-0.129307 0.06034,-0.06034 0.103445,-0.120687 0.129307,-0.19827 0.03448,-0.07759 0.0431,-0.163789 0.0431,-0.249994 0,-0.09483 -0.0086,-0.181029 -0.0431,-0.258614 -0.02586,-0.06896 -0.06896,-0.137927 -0.129307,-0.189649 -0.05172,-0.05172 -0.112065,-0.09483 -0.18965,-0.129308 -0.07758,-0.02586 -0.155168,-0.0431 -0.241373,-0.0431 h -0.310336 v 1.241345 z"
       id="path3836" />
    <path
       inkscape:connector-curvature="0"
       style="fill:#ffffff;fill-opacity:1;fill-rule:nonzero;stroke:none;stroke-width:0.10775649"
       d="m 47.195525,21.26286 c 0,-0.01724 0.0086,-0.02586 0.01724,-0.03448 0.0086,-0.0086 0.01724,-0.01724 0.03448,-0.01724 h 1.103417 c 0.01724,0 0.02586,0.0086 0.03448,0.01724 0.0086,0.0086 0.01724,0.01724 0.01724,0.03448 v 0.224132 c 0,0.0086 -0.0086,0.02586 -0.01724,0.03448 -0.0086,0.0086 -0.01724,0.01724 -0.03448,0.01724 H 47.54896 v 0.439643 h 0.672396 c 0.0086,0 0.02586,0.0086 0.03448,0.01724 0.0086,0.0086 0.0086,0.01724 0.0086,0.03448 v 0.224132 c 0,0.01724 0,0.02586 -0.0086,0.0431 -0.0086,0.0086 -0.02586,0.0086 -0.03448,0.0086 H 47.54896 v 0.474125 h 0.801702 c 0.01724,0 0.02586,0.0086 0.03448,0.01724 0.0086,0.0086 0.01724,0.01724 0.01724,0.03448 v 0.224131 c 0,0.01724 -0.0086,0.02586 -0.01724,0.03448 -0.0086,0.0086 -0.01724,0.01724 -0.03448,0.01724 h -1.103417 c -0.01724,0 -0.02586,-0.0086 -0.03448,-0.01724 -0.0086,-0.0086 -0.01724,-0.01724 -0.01724,-0.03448 z"
       id="path3838" />
    <path
       inkscape:connector-curvature="0"
       style="fill:#ffffff;fill-opacity:1;fill-rule:nonzero;stroke:none;stroke-width:0.10775649"
       d="m 49.255814,23.133499 c -0.08621,0 -0.155169,-0.0086 -0.224133,-0.02586 -0.06896,-0.0086 -0.120686,-0.03448 -0.172409,-0.05172 -0.0431,-0.02586 -0.0862,-0.05172 -0.120686,-0.06896 -0.03448,-0.02586 -0.06034,-0.05172 -0.07758,-0.06034 -0.01724,-0.01724 -0.02586,-0.02586 -0.02586,-0.03448 0,-0.01724 0,-0.02586 0.01724,-0.05172 l 0.09483,-0.163789 c 0.0086,-0.02586 0.02586,-0.03448 0.0431,-0.03448 0.01724,0 0.03448,0 0.05172,0.0086 0.05172,0.0431 0.112065,0.08621 0.172408,0.120686 0.06896,0.03448 0.146547,0.05172 0.232752,0.05172 0.06896,0 0.129307,-0.01724 0.17241,-0.06034 0.05172,-0.0431 0.07758,-0.09483 0.07758,-0.146548 0,-0.06896 -0.03448,-0.129307 -0.0862,-0.181029 -0.06034,-0.05172 -0.146548,-0.103446 -0.258614,-0.146548 -0.06896,-0.02586 -0.129307,-0.05172 -0.18965,-0.0862 -0.06034,-0.03448 -0.120685,-0.07758 -0.163788,-0.120686 -0.05172,-0.05172 -0.0862,-0.103445 -0.112066,-0.163789 -0.03448,-0.06034 -0.0431,-0.137927 -0.0431,-0.215511 0,-0.06034 0.0086,-0.120687 0.03448,-0.181029 0.01724,-0.06034 0.06034,-0.120687 0.103445,-0.163789 0.05172,-0.05172 0.112066,-0.09483 0.18965,-0.120686 0.07758,-0.03448 0.172408,-0.05172 0.275855,-0.05172 0.06896,0 0.137927,0.0086 0.198269,0.02586 0.06034,0.0086 0.112067,0.02586 0.155169,0.05172 0.05172,0.01724 0.0862,0.03448 0.120686,0.06034 0.03448,0.01724 0.05172,0.03448 0.06896,0.0431 0.01724,0.0086 0.02586,0.02586 0.02586,0.0431 0,0.01724 0,0.03448 -0.0086,0.0431 l -0.103446,0.155168 c -0.0086,0.01724 -0.02586,0.03448 -0.0431,0.0431 -0.01724,0 -0.03448,0 -0.05172,-0.0086 -0.06034,-0.03448 -0.112066,-0.06896 -0.17241,-0.103445 -0.06034,-0.02586 -0.129306,-0.0431 -0.20689,-0.0431 -0.07758,0 -0.137927,0.01724 -0.172409,0.05172 -0.0431,0.03448 -0.06034,0.0862 -0.06034,0.137927 0,0.06034 0.02586,0.112065 0.07758,0.163789 0.05172,0.0431 0.129307,0.09482 0.241372,0.137927 0.06034,0.02586 0.129307,0.06034 0.198271,0.09483 0.06896,0.02586 0.129307,0.06896 0.18103,0.120685 0.05172,0.0431 0.103445,0.103446 0.137927,0.163789 0.02586,0.06896 0.0431,0.146548 0.0431,0.232752 0,0.06896 -0.0086,0.137929 -0.0431,0.198271 -0.02586,0.06896 -0.06896,0.120686 -0.120686,0.172409 -0.05172,0.05172 -0.120687,0.0862 -0.198271,0.120686 -0.07758,0.02586 -0.163789,0.0431 -0.258613,0.0431 z"
       id="path3840" />
    <path
       inkscape:connector-curvature="0"
       style="fill:#ffffff;fill-opacity:1;fill-rule:nonzero;stroke:none;stroke-width:0.10775649"
       d="m 50.212684,21.26286 c 0,-0.01724 0.0086,-0.02586 0.01724,-0.03448 0.0086,-0.0086 0.02586,-0.01724 0.03448,-0.01724 h 0.258613 c 0.0086,0 0.02586,0.0086 0.03448,0.01724 0.0086,0.0086 0.01724,0.01724 0.01724,0.03448 v 1.793054 c 0,0.01724 -0.0086,0.02586 -0.01724,0.03448 -0.0086,0.0086 -0.02586,0.01724 -0.03448,0.01724 h -0.25861 c -0.0086,0 -0.02586,-0.0086 -0.03448,-0.01724 -0.0086,-0.0086 -0.01724,-0.01724 -0.01724,-0.03448 z"
       id="path3842" />
    <path
       inkscape:connector-curvature="0"
       style="fill:#ffffff;fill-opacity:1;fill-rule:nonzero;stroke:none;stroke-width:0.10775649"
       d="m 50.919561,22.159387 c 0,-0.129307 0.02586,-0.258614 0.07758,-0.3793 0.05172,-0.120686 0.120685,-0.224131 0.20689,-0.310336 0.0862,-0.0862 0.18965,-0.155168 0.310336,-0.206891 0.112066,-0.05172 0.241374,-0.07758 0.379301,-0.07758 0.120686,0 0.241372,0.01724 0.353438,0.06896 0.112066,0.0431 0.215512,0.103445 0.301716,0.181029 0.01724,0.0086 0.01724,0.02586 0.01724,0.03448 0,0.01724 0,0.03448 -0.0086,0.0431 l -0.172409,0.17241 c -0.01724,0.02586 -0.0431,0.02586 -0.06896,0 -0.120688,-0.103446 -0.258615,-0.155168 -0.405163,-0.155168 -0.0862,0 -0.163787,0.01724 -0.241372,0.05172 -0.07758,0.03448 -0.137927,0.07758 -0.18965,0.137927 -0.06034,0.05172 -0.103445,0.120687 -0.129307,0.198271 -0.03448,0.07758 -0.05172,0.155168 -0.05172,0.241372 0,0.0862 0.01724,0.163789 0.05172,0.241374 0.02586,0.06896 0.06896,0.137927 0.129307,0.198269 0.05172,0.05172 0.120687,0.09483 0.18965,0.129308 0.07759,0.03448 0.155168,0.05172 0.241372,0.05172 0.07758,0 0.137928,-0.0086 0.198271,-0.02586 0.05172,-0.01724 0.09483,-0.03448 0.120686,-0.0431 v -0.232753 h -0.21551 c -0.0086,0 -0.02586,0 -0.03448,-0.0086 -0.0086,-0.0086 -0.01724,-0.02586 -0.01724,-0.03448 v -0.215512 c 0,-0.03448 0.01724,-0.05172 0.05172,-0.05172 h 0.525847 c 0.0086,0 0.02586,0.0086 0.03448,0.01724 0.0086,0.0086 0.0086,0.01724 0.0086,0.03448 v 0.689636 c 0,0.01724 -0.0086,0.03448 -0.01724,0.0431 -0.06034,0.03448 -0.120687,0.06896 -0.189651,0.09483 -0.06034,0.01724 -0.137927,0.03448 -0.215511,0.06034 -0.0862,0.01724 -0.172409,0.02586 -0.267234,0.02586 -0.137927,0 -0.267235,-0.02586 -0.3793,-0.07758 -0.120686,-0.05172 -0.224131,-0.120686 -0.310337,-0.20689 -0.0862,-0.0862 -0.155168,-0.18965 -0.20689,-0.301716 -0.05172,-0.120686 -0.07758,-0.249992 -0.07758,-0.387921 z"
       id="path3844" />
    <path
       inkscape:connector-curvature="0"
       style="fill:#ffffff;fill-opacity:1;fill-rule:nonzero;stroke:none;stroke-width:0.10775649"
       d="m 52.97985,21.236999 c 0,-0.01724 0,-0.03448 0.0086,-0.0431 0.0086,-0.0086 0.02586,-0.0086 0.0431,-0.0086 h 0.03448 c 0.01724,0 0.03448,0.0086 0.05172,0.01724 l 1.103419,1.181003 v 0 -1.120659 c 0,-0.01724 0.0086,-0.02586 0.01724,-0.03448 0.0086,-0.0086 0.02586,-0.01724 0.03448,-0.01724 h 0.249993 c 0.01724,0 0.02586,0.0086 0.03448,0.01724 0.01724,0.0086 0.01724,0.01724 0.01724,0.03448 v 1.818915 c 0,0.01724 0,0.02586 -0.01724,0.03448 -0.0086,0.0086 -0.01724,0.01724 -0.03448,0.01724 h -0.03448 c -0.01724,0 -0.03448,-0.0086 -0.0431,-0.01724 l -1.112038,-1.224105 h -0.0086 v 1.163761 c 0,0.01724 0,0.02586 -0.01724,0.03448 -0.0086,0.0086 -0.01724,0.01724 -0.03448,0.01724 h -0.241367 c -0.01724,0 -0.03448,-0.0086 -0.0431,-0.01724 -0.0086,-0.0086 -0.0086,-0.01724 -0.0086,-0.03448 z"
       id="path3846" />
  </g>
</svg>
