<?xml version="1.0" encoding="UTF-8" standalone="no"?>
<!-- Created with Inkscape (http://www.inkscape.org/) -->

<svg
   xmlns:dc="http://purl.org/dc/elements/1.1/"
   xmlns:cc="http://creativecommons.org/ns#"
   xmlns:rdf="http://www.w3.org/1999/02/22-rdf-syntax-ns#"
   xmlns:svg="http://www.w3.org/2000/svg"
   xmlns="http://www.w3.org/2000/svg"
   xmlns:sodipodi="http://sodipodi.sourceforge.net/DTD/sodipodi-0.dtd"
   xmlns:inkscape="http://www.inkscape.org/namespaces/inkscape"
   width="64.011002"
   height="19.999998"
   viewBox="0 0 16.936245 5.291666"
   version="1.1"
   id="svg2396"
   sodipodi:docname="design-black-category.svg"
   inkscape:version="0.92.3 (2405546, 2018-03-11)">
  <defs
     id="defs2390" />
  <sodipodi:namedview
     id="base"
     pagecolor="#ffffff"
     bordercolor="#666666"
     borderopacity="1.0"
     inkscape:pageopacity="0.0"
     inkscape:pageshadow="2"
     inkscape:zoom="4"
     inkscape:cx="57.797598"
     inkscape:cy="31.856573"
     inkscape:document-units="px"
     inkscape:current-layer="layer1"
     showgrid="false"
     inkscape:pagecheckerboard="true"
     fit-margin-top="0"
     fit-margin-left="0"
     fit-margin-right="0"
     fit-margin-bottom="0"
     inkscape:window-width="1366"
     inkscape:window-height="745"
     inkscape:window-x="-8"
     inkscape:window-y="-8"
     inkscape:window-maximized="1"
     units="px" />
  <metadata
     id="metadata2393">
    <rdf:RDF>
      <cc:Work
         rdf:about="">
        <dc:format>image/svg+xml</dc:format>
        <dc:type
           rdf:resource="http://purl.org/dc/dcmitype/StillImage" />
        <dc:title></dc:title>
      </cc:Work>
    </rdf:RDF>
  </metadata>
  <g
     inkscape:label="Layer 1"
     inkscape:groupmode="layer"
     id="layer1"
     transform="translate(-40.826382,-226.12947)">
    <rect
       style="opacity:1;fill:#000000;fill-opacity:1;stroke:none;stroke-width:0.31556112;stroke-linecap:round;stroke-linejoin:round;stroke-miterlimit:4;stroke-dasharray:none;stroke-opacity:1"
       id="rect4763"
       width="16.936245"
       height="5.2916665"
       x="40.826382"
       y="226.12947" />
    <g
       aria-label="DESIGN"
       style="font-style:normal;font-weight:normal;font-size:11.27485752px;line-height:1.25;font-family:sans-serif;letter-spacing:0px;word-spacing:0px;display:inline;opacity:1;fill:#ffffff;fill-opacity:1;stroke:none;stroke-width:0.28187147"
       id="text4781-9"
       transform="translate(0.72456317)">
      <path
         d="m 42.14935,227.48246 h 0.823065 q 0.537435,0 0.759173,0.0977 0.221739,0.0939 0.281872,0.342 0.06013,0.24805 0.06013,0.85313 0,0.60508 -0.06013,0.85313 -0.06013,0.24805 -0.281872,0.34576 -0.221738,0.094 -0.759173,0.094 H 42.14935 Z m 0.770449,2.28504 q 0.439719,0 0.590051,-0.0451 0.154089,-0.0489 0.199189,-0.23302 0.0451,-0.18791 0.0451,-0.71407 0,-0.5224 -0.04886,-0.71032 -0.0451,-0.18791 -0.199189,-0.23301 -0.150331,-0.0489 -0.586292,-0.0489 h -0.447236 v 1.98438 z"
         style="font-style:normal;font-variant:normal;font-weight:normal;font-stretch:normal;font-size:3.758286px;font-family:Saira;-inkscape-font-specification:Saira;font-variant-ligatures:normal;font-variant-caps:normal;font-variant-numeric:normal;font-feature-settings:normal;text-align:start;writing-mode:lr-tb;text-anchor:start;fill:#ffffff;fill-opacity:1;stroke-width:0.28187147"
         id="path2969"
         inkscape:connector-curvature="0" />
      <path
         d="m 44.740512,230.06816 v -2.5857 h 1.683712 v 0.30066 h -1.360499 v 0.83058 h 1.180101 v 0.30067 h -1.180101 v 0.85313 h 1.360499 v 0.30066 z"
         style="font-style:normal;font-variant:normal;font-weight:normal;font-stretch:normal;font-size:3.758286px;font-family:Saira;-inkscape-font-specification:Saira;font-variant-ligatures:normal;font-variant-caps:normal;font-variant-numeric:normal;font-feature-settings:normal;text-align:start;writing-mode:lr-tb;text-anchor:start;fill:#ffffff;fill-opacity:1;stroke-width:0.28187147"
         id="path2971"
         inkscape:connector-curvature="0" />
      <path
         d="m 47.869344,230.09823 q -0.206706,0 -0.462269,-0.015 -0.251805,-0.015 -0.447236,-0.0376 v -0.2969 q 0.488577,0.0489 0.815548,0.0489 0.202947,0 0.319454,-0.015 0.120265,-0.0188 0.202948,-0.0639 0.07516,-0.0451 0.09772,-0.13154 0.02255,-0.0902 0.02255,-0.23677 0,-0.17664 -0.01879,-0.24805 -0.01879,-0.0752 -0.0902,-0.10899 -0.06765,-0.0338 -0.236772,-0.0489 l -0.638908,-0.0714 q -0.233014,-0.0263 -0.353279,-0.10899 -0.116507,-0.0864 -0.157848,-0.22174 -0.03758,-0.13906 -0.03758,-0.3608 0,-0.30818 0.105232,-0.46603 0.10899,-0.15784 0.300663,-0.21046 0.195431,-0.0526 0.522402,-0.0526 0.21798,0 0.443477,0.0188 0.225498,0.0188 0.357038,0.0451 v 0.28563 q -0.142815,-0.0225 -0.353279,-0.0338 -0.210464,-0.015 -0.390862,-0.015 -0.210464,0 -0.338246,0.0188 -0.127782,0.0188 -0.199189,0.0639 -0.07892,0.0451 -0.101474,0.12026 -0.02255,0.0752 -0.02255,0.21423 0,0.15409 0.02255,0.22549 0.02255,0.0676 0.08644,0.10148 0.06389,0.0301 0.210464,0.0451 l 0.631392,0.0714 q 0.225497,0.0225 0.349521,0.0789 0.124023,0.0564 0.180397,0.20295 0.05262,0.13529 0.05262,0.4322 0,0.342 -0.105232,0.51113 -0.105232,0.16536 -0.281871,0.21422 -0.17664,0.0451 -0.484819,0.0451 z"
         style="font-style:normal;font-variant:normal;font-weight:normal;font-stretch:normal;font-size:3.758286px;font-family:Saira;-inkscape-font-specification:Saira;font-variant-ligatures:normal;font-variant-caps:normal;font-variant-numeric:normal;font-feature-settings:normal;text-align:start;writing-mode:lr-tb;text-anchor:start;fill:#ffffff;fill-opacity:1;stroke-width:0.28187147"
         id="path2973"
         inkscape:connector-curvature="0" />
      <path
         d="m 49.372306,230.06816 v -2.5857 h 0.323212 v 2.5857 z"
         style="font-style:normal;font-variant:normal;font-weight:normal;font-stretch:normal;font-size:3.758286px;font-family:Saira;-inkscape-font-specification:Saira;font-variant-ligatures:normal;font-variant-caps:normal;font-variant-numeric:normal;font-feature-settings:normal;text-align:start;writing-mode:lr-tb;text-anchor:start;fill:#ffffff;fill-opacity:1;stroke-width:0.28187147"
         id="path2975"
         inkscape:connector-curvature="0" />
      <path
         d="m 51.383576,228.96322 v -0.2969 h 0.894472 v 1.35674 q -0.184156,0.0338 -0.417169,0.0526 -0.229256,0.0225 -0.405895,0.0225 -0.473544,0 -0.7028,-0.10148 -0.225497,-0.10523 -0.311937,-0.37583 -0.08268,-0.27435 -0.08268,-0.84561 0,-0.5675 0.08644,-0.84186 0.08644,-0.27435 0.311938,-0.37582 0.229255,-0.10524 0.699041,-0.10524 0.184156,0 0.409653,0.0225 0.229255,0.0225 0.402137,0.0526 v 0.28563 q -0.428445,-0.0601 -0.653942,-0.0601 -0.447236,0 -0.623876,0.0488 -0.172881,0.0489 -0.244288,0.25557 -0.06765,0.2067 -0.06765,0.71783 0,0.47354 0.05262,0.68025 0.05262,0.20671 0.210464,0.27811 0.157848,0.0714 0.518643,0.0714 0.112749,0 0.26308,-0.008 0.150332,-0.0113 0.244289,-0.0225 v -0.81179 z"
         style="font-style:normal;font-variant:normal;font-weight:normal;font-stretch:normal;font-size:3.758286px;font-family:Saira;-inkscape-font-specification:Saira;font-variant-ligatures:normal;font-variant-caps:normal;font-variant-numeric:normal;font-feature-settings:normal;text-align:start;writing-mode:lr-tb;text-anchor:start;fill:#ffffff;fill-opacity:1;stroke-width:0.28187147"
         id="path2977"
         inkscape:connector-curvature="0" />
      <path
         d="m 54.682353,230.06816 -1.364258,-1.97686 h -0.01503 v 1.97686 h -0.311938 v -2.5857 h 0.330729 l 1.345467,1.93176 h 0.01503 v -1.93176 h 0.308179 v 2.5857 z"
         style="font-style:normal;font-variant:normal;font-weight:normal;font-stretch:normal;font-size:3.758286px;font-family:Saira;-inkscape-font-specification:Saira;font-variant-ligatures:normal;font-variant-caps:normal;font-variant-numeric:normal;font-feature-settings:normal;text-align:start;writing-mode:lr-tb;text-anchor:start;fill:#ffffff;fill-opacity:1;stroke-width:0.28187147"
         id="path2979"
         inkscape:connector-curvature="0" />
    </g>
  </g>
</svg>
