<?xml version="1.0" encoding="UTF-8" standalone="no"?>
<!-- Created with Inkscape (http://www.inkscape.org/) -->

<svg
   xmlns:dc="http://purl.org/dc/elements/1.1/"
   xmlns:cc="http://creativecommons.org/ns#"
   xmlns:rdf="http://www.w3.org/1999/02/22-rdf-syntax-ns#"
   xmlns:svg="http://www.w3.org/2000/svg"
   xmlns="http://www.w3.org/2000/svg"
   xmlns:sodipodi="http://sodipodi.sourceforge.net/DTD/sodipodi-0.dtd"
   xmlns:inkscape="http://www.inkscape.org/namespaces/inkscape"
   width="7.9374995mm"
   height="7.3554163mm"
   viewBox="0 0 7.9374995 7.3554164"
   version="1.1"
   id="svg29595"
   sodipodi:docname="ka-black.svg"
   inkscape:version="0.92.3 (2405546, 2018-03-11)">
  <defs
     id="defs29589" />
  <sodipodi:namedview
     id="base"
     pagecolor="#ffffff"
     bordercolor="#666666"
     borderopacity="1.0"
     inkscape:pageopacity="0.0"
     inkscape:pageshadow="2"
     inkscape:zoom="1.979899"
     inkscape:cx="-125.9015"
     inkscape:cy="-84.936284"
     inkscape:document-units="mm"
     inkscape:current-layer="layer1"
     showgrid="false"
     inkscape:pagecheckerboard="true"
     fit-margin-top="0"
     fit-margin-left="0"
     fit-margin-right="0"
     fit-margin-bottom="0"
     inkscape:window-width="1366"
     inkscape:window-height="745"
     inkscape:window-x="-8"
     inkscape:window-y="-8"
     inkscape:window-maximized="1" />
  <metadata
     id="metadata29592">
    <rdf:RDF>
      <cc:Work
         rdf:about="">
        <dc:format>image/svg+xml</dc:format>
        <dc:type
           rdf:resource="http://purl.org/dc/dcmitype/StillImage" />
        <dc:title></dc:title>
      </cc:Work>
    </rdf:RDF>
  </metadata>
  <g
     inkscape:label="Layer 1"
     inkscape:groupmode="layer"
     id="layer1"
     transform="translate(-66.958031,-163.41868)">
    <g
       id="g113261-3-4"
       transform="matrix(0.08819444,0,0,0.08819444,66.958031,163.41868)">
      <g
         style="display:none"
         class="st0"
         inkscape:label="0"
         transform="translate(-15,-283.55)"
         id="layer1-83-2-02">
        <path
           d="m 20,285.2 v 80 l 60,-80"
           class="st1"
           inkscape:connector-curvature="0"
           id="path4798-1-7" />
        <path
           d="m 50,325.3 30,40 h 20 v -80 l -60,80"
           class="st1"
           sodipodi:nodetypes="ccccc"
           inkscape:connector-curvature="0"
           id="path4800-8-9" />
      </g>
      <g
         transform="translate(-15,-18.3)"
         style="display:none"
         class="st0"
         inkscape:label="1"
         id="layer2-6-1-09">
        <path
           style="display:inline;fill-opacity:0.78430002"
           d="m 54,57 -8,6 30,40 8,-6 z"
           class="st2"
           inkscape:connector-curvature="0"
           id="path4809-0-43" />
        <path
           style="display:inline;fill:none"
           d="m 15,20 v 80 l 10,5 60,-85 H 75 L 25,85 V 20 Z"
           class="st3"
           inkscape:connector-curvature="0"
           id="path4803-4-6" />
        <path
           style="display:inline;fill-opacity:0.78430002"
           d="m 15,20 v 85 H 25 V 20 Z"
           class="st2"
           inkscape:connector-curvature="0"
           id="path4805-5-69" />
        <path
           style="display:inline;fill-opacity:0.78430002"
           d="m 106,-23 -120,160 8,6 120,-160 z"
           class="st2"
           inkscape:connector-curvature="0"
           id="path4807-1-8" />
        <path
           style="display:inline;fill-opacity:0.78430002"
           d="M 126,-23 63.7,60 70,68.3 134,-17 Z M 56.3,86.7 50,78.3 6,137 l 8,6 z"
           class="st2"
           sodipodi:nodetypes="cccccccccc"
           inkscape:connector-curvature="0"
           id="path4811-8-1" />
        <path
           style="display:inline;fill-opacity:0.78430002"
           d="m 60,81.6 v 10 h 51.8 v -10 z"
           class="st2"
           inkscape:connector-curvature="0"
           id="path4813-1-5" />
        <path
           style="display:inline;fill-opacity:0.78430002"
           d="m 95,10 v 90 h 10 V 10 Z"
           class="st2"
           inkscape:connector-curvature="0"
           id="path4815-2-7" />
        <path
           style="display:inline;fill-opacity:0.78430002"
           d="M 52.5,38.4 60,28.4 H 15 v 10 z"
           class="st2"
           sodipodi:nodetypes="ccccc"
           inkscape:connector-curvature="0"
           id="path5569-1-1-5" />
        <path
           style="display:inline;fill-opacity:0.78430002"
           d="m 25,91.7 v 10 h 51.8 v -10 z"
           class="st2"
           inkscape:connector-curvature="0"
           id="path5587-2-1-18" />
        <path
           style="display:inline;fill-opacity:0.78430002"
           d="m 43.2,8.3 v 10 H 95 v -10 z"
           class="st2"
           inkscape:connector-curvature="0"
           id="path5589-5-6-7" />
      </g>
      <g
         transform="translate(-15,-18.3)"
         style="display:none"
         class="st0"
         inkscape:label="2"
         id="layer3-7-0-03">
        <path
           style="display:inline"
           d="M 25,101.7 15,98.4 v -60 l 10,-10 h 35 l -7.5,10 H 25 L 25.2,85 75,18.3 H 87.7 L 56.4,60 72.6,81.6 H 95.1 L 95,35 70,68.3 63.7,60 95,18.3 l 10,3.3 v 60 L 95.2,91.7 80,91.6 60,81.6 50,68.3 Z"
           class="st4"
           sodipodi:nodetypes="cccccccccccccccccccccccc"
           inkscape:connector-curvature="0"
           id="path5585-1-9-7" />
        <path
           style="display:inline;fill-opacity:0.97130001"
           d="M 32.5,101.7 50,78.3 l 6.3,8.3 -11.3,15 z"
           class="st5"
           inkscape:connector-curvature="0"
           id="path5591-5-9-0" />
      </g>
      <g
         transform="translate(-15,-18.3)"
         inkscape:label="finish"
         id="g5607-1-32">
        <path
           inkscape:connector-curvature="0"
           d="M 75,18.3 25,85 V 38.4 H 52.5 L 60,28.4 H 25 l -10,10 v 60 l 10,3.3 25,-33.3 10,13.3 20,10 15.2,0.1 9.8,-10.1 v -60 L 95,18.4 63.7,60 70,68.3 95,35 V 81.7 H 72.7 L 56.4,60 87.6,18.3 Z m -25,60 -17.5,23.3 H 45 l 11.3,-15 z"
           id="path5603-5-0-0" />
      </g>
    </g>
  </g>
</svg>
