<?xml version="1.0" encoding="UTF-8" standalone="no"?>
<!-- Created with Inkscape (http://www.inkscape.org/) -->

<svg
   xmlns:dc="http://purl.org/dc/elements/1.1/"
   xmlns:cc="http://creativecommons.org/ns#"
   xmlns:rdf="http://www.w3.org/1999/02/22-rdf-syntax-ns#"
   xmlns:svg="http://www.w3.org/2000/svg"
   xmlns="http://www.w3.org/2000/svg"
   xmlns:sodipodi="http://sodipodi.sourceforge.net/DTD/sodipodi-0.dtd"
   xmlns:inkscape="http://www.inkscape.org/namespaces/inkscape"
   width="40"
   height="40"
   viewBox="0 0 37.500001 37.499998"
   id="svg4172"
   version="1.1"
   inkscape:version="0.92.3 (2405546, 2018-03-11)"
   sodipodi:docname="musescore-mu-small.svg">
  <defs
     id="defs4174" />
  <sodipodi:namedview
     id="base"
     pagecolor="#ffffff"
     bordercolor="#666666"
     borderopacity="1.0"
     inkscape:pageopacity="0.0"
     inkscape:pageshadow="2"
     inkscape:zoom="2.8"
     inkscape:cx="-2.1183031"
     inkscape:cy="69.159414"
     inkscape:document-units="px"
     inkscape:current-layer="layer1"
     showgrid="false"
     fit-margin-top="0"
     fit-margin-left="0"
     fit-margin-right="0"
     fit-margin-bottom="0"
     inkscape:window-width="1366"
     inkscape:window-height="744"
     inkscape:window-x="0"
     inkscape:window-y="0"
     inkscape:window-maximized="1"
     inkscape:pagecheckerboard="true"
     units="px"
     inkscape:snap-grids="false"
     inkscape:snap-page="true" />
  <metadata
     id="metadata4177">
    <rdf:RDF>
      <cc:Work
         rdf:about="">
        <dc:format>image/svg+xml</dc:format>
        <dc:type
           rdf:resource="http://purl.org/dc/dcmitype/StillImage" />
        <dc:title></dc:title>
      </cc:Work>
    </rdf:RDF>
  </metadata>
  <g
     inkscape:label="Ebene 1"
     inkscape:groupmode="layer"
     id="layer1"
     transform="translate(-104.91793,-256.32014)">
    <rect
       id="rect17"
       width="37.5"
       height="37.5"
       x="104.91793"
       y="256.32013"
       style="stroke-width:0.9375;fill:#ffffff;fill-opacity:1" />
    <g
       id="g15"
       transform="matrix(0.14728177,0,0,0.14728177,98.840431,239.58501)">
      <path
         id="path6"
         d="m 104.91793,229.88013 v 62.604 h 2.436 v -35.44 c 0,-3.494 0.446,-6.821 1.34,-9.989 0.974,-3.166 2.313,-5.929 4.018,-8.282 1.787,-2.437 3.938,-4.344 6.457,-5.726 2.516,-1.462 5.317,-2.192 8.404,-2.192 3.49,0 6.334,0.568 8.525,1.706 2.194,1.135 3.898,2.68 5.118,4.627 1.216,1.95 2.028,4.222 2.434,6.821 0.489,2.599 0.732,5.359 0.732,8.284 v 40.191 h 2.435 v -39.703 c 0,-2.924 0.447,-5.686 1.34,-8.283 0.893,-2.678 2.193,-5.035 3.897,-7.064 1.706,-2.029 3.776,-3.613 6.213,-4.75 2.435,-1.218 5.155,-1.827 8.161,-1.827 3.41,0 6.211,0.486 8.403,1.462 2.274,0.974 4.06,2.355 5.359,4.141 1.38,1.786 2.314,3.938 2.803,6.454 0.566,2.519 0.85,5.319 0.85,8.404 l 0.082,23.017 c 0.02,0 2.384,-0.066 2.384,-0.066 l -0.029,-22.95 c 0,-3.41 -0.326,-6.495 -0.974,-9.255 -0.65,-2.844 -1.747,-5.237 -3.29,-7.188 -1.542,-2.028 -3.572,-3.613 -6.09,-4.75 -2.517,-1.137 -5.683,-1.704 -9.499,-1.704 -4.874,0 -9.096,1.338 -12.668,4.019 -3.572,2.68 -5.968,6.213 -7.187,10.597 h -0.243 c -1.057,-4.627 -3.247,-8.243 -6.578,-10.841 -3.247,-2.68 -7.307,-3.938 -12.179,-3.774 -2.437,0 -4.75,0.445 -6.943,1.338 -2.111,0.813 -4.059,1.99 -5.847,3.533 -1.787,1.543 -3.288,3.329 -4.505,5.36 -1.219,2.029 -2.111,4.261 -2.68,6.697 h -0.244 v -15.463 h -2.434"
         inkscape:connector-curvature="0" />
      <path
         id="path8"
         d="m 230.94493,292.48113 v -62.601 h -2.437 v 35.443 c 0,3.492 -0.486,6.82 -1.46,9.987 -0.973,3.168 -2.437,5.968 -4.385,8.404 -1.867,2.355 -4.223,4.264 -7.065,5.725 -2.842,1.381 -6.13,2.07 -9.865,2.07 -2.68,0 -5.237,-0.364 -7.674,-1.097 -2.354,-0.813 -4.466,-2.029 -6.334,-3.654 -1.786,-1.704 -3.206,-3.815 -4.262,-6.333 -1.056,-2.599 -1.154,-5.811 -1.154,-9.464 l -2.386,0.371 c 0,0.969 0,2.069 0.003,3.003 0.136,2.505 0.325,4.733 1.1,6.821 1.138,2.76 2.681,5.115 4.628,7.064 2.031,1.868 4.386,3.288 7.064,4.262 2.762,0.893 5.765,1.338 9.014,1.338 6.172,0 11.166,-1.581 14.981,-4.748 3.897,-3.165 6.416,-7.185 7.551,-12.059 h 0.243 v 15.469 h 2.415"
         inkscape:connector-curvature="0" />
      <path
         id="path24"
         d="m 203.66493,211.91913 c 0,-1.541 1.248,-2.789 2.789,-2.789 1.54,0 2.789,1.248 2.789,2.789 0,1.54 -1.249,2.789 -2.789,2.789 -1.55,0 -2.79,-1.249 -2.79,-2.789"
         inkscape:connector-curvature="0" />
      <path
         id="path26"
         d="m 179.11693,213.22913 h 2.324 c 0,-15.006 12.52,-22.857 24.886,-22.857 6.278,0 12.063,1.999 16.289,5.626 4.766,4.092 7.285,10.05 7.285,17.231 h 2.324 c 0,-7.88 -2.799,-14.448 -8.096,-18.995 -4.647,-3.989 -10.97,-6.187 -17.802,-6.187 -13.52,0 -27.208,8.649 -27.208,25.182 z"
         inkscape:connector-curvature="0" />
    </g>
  </g>
</svg>
