<?xml version="1.0" encoding="UTF-8" standalone="no"?>
<svg
   xmlns:dc="http://purl.org/dc/elements/1.1/"
   xmlns:cc="http://creativecommons.org/ns#"
   xmlns:rdf="http://www.w3.org/1999/02/22-rdf-syntax-ns#"
   xmlns:svg="http://www.w3.org/2000/svg"
   xmlns="http://www.w3.org/2000/svg"
   xmlns:sodipodi="http://sodipodi.sourceforge.net/DTD/sodipodi-0.dtd"
   xmlns:inkscape="http://www.inkscape.org/namespaces/inkscape"
   version="1.1"
   width="100.01735"
   height="19.999996"
   x="0"
   y="0"
   viewBox="0 0 100.01735 19.999997"
   enable-background="new 0 0 570 150"
   id="svg26"
   sodipodi:docname="MuseScore_logo.svg"
   inkscape:version="0.92.3 (2405546, 2018-03-11)">
  <metadata
     id="metadata32">
    <rdf:RDF>
      <cc:Work
         rdf:about="">
        <dc:format>image/svg+xml</dc:format>
        <dc:type
           rdf:resource="http://purl.org/dc/dcmitype/StillImage" />
        <dc:title></dc:title>
      </cc:Work>
    </rdf:RDF>
  </metadata>
  <defs
     id="defs30" />
  <sodipodi:namedview
     pagecolor="#ffffff"
     bordercolor="#666666"
     borderopacity="1"
     objecttolerance="10"
     gridtolerance="10"
     guidetolerance="10"
     inkscape:pageopacity="0"
     inkscape:pageshadow="2"
     inkscape:window-width="1366"
     inkscape:window-height="744"
     id="namedview28"
     showgrid="false"
     inkscape:pagecheckerboard="true"
     fit-margin-top="0"
     fit-margin-left="0"
     fit-margin-right="0"
     fit-margin-bottom="0"
     inkscape:zoom="7.3403509"
     inkscape:cx="57.150301"
     inkscape:cy="12.868184"
     inkscape:window-x="0"
     inkscape:window-y="0"
     inkscape:window-maximized="1"
     inkscape:current-layer="svg26" />
  <rect
     width="570"
     display="none"
     height="150"
     id="rect2"
     x="-20.493"
     y="-108.67691"
     style="display:none" />
  <path
     d="m 0,7.909367 v 11.836541 h 0.46057459 v -6.700643 c 0,-0.660611 0.0843252,-1.289647 0.25335383,-1.888621 C 0.89808263,10.558049 1.1512474,10.035648 1.4736118,9.590766 1.8114799,9.130003 2.2181696,8.769446 2.694437,8.508151 3.1701372,8.231731 3.6997223,8.09371 4.2833815,8.09371 c 0.6598544,0 1.1975695,0.107392 1.611822,0.322553 0.4148196,0.214595 0.7369949,0.506708 0.9676604,0.874827 0.2299091,0.368687 0.383434,0.798254 0.4601964,1.289647 0.092455,0.491393 0.1383993,1.013226 0.1383993,1.566256 v 7.598915 h 0.4603855 v -7.506649 c 0,-0.55284 0.084514,-1.075052 0.2533538,-1.566067 0.1688396,-0.506329 0.4146306,-0.951967 0.7368059,-1.33559 0.3225535,-0.383623 0.7139285,-0.68311 1.1746922,-0.898083 0.460385,-0.230287 0.974656,-0.345431 1.543,-0.345431 0.644729,0 1.174314,0.09189 1.588756,0.27642 0.429945,0.184155 0.767624,0.44526 1.013226,0.782939 0.260917,0.33768 0.437508,0.744558 0.529963,1.220258 0.107014,0.476268 0.16071,1.005664 0.16071,1.588945 l 0.0155,4.351828 c 0.0038,0 0.450743,-0.0125 0.450743,-0.0125 l -0.0055,-4.339159 c 0,-0.644729 -0.06164,-1.22801 -0.184155,-1.749843 C 15.076045,9.675261 14.868635,9.222816 14.5769,8.853941 14.285354,8.470506 13.901542,8.170831 13.425464,7.955858 12.949574,7.740885 12.350979,7.633683 11.629487,7.633683 10.70796,7.633683 9.9097064,7.886658 9.2343482,8.393555 8.5589901,8.900263 8.1059783,9.568247 7.8755019,10.39713 H 7.8295789 C 7.6297319,9.522323 7.2156685,8.838646 6.5858763,8.347442 5.9719659,7.840734 5.2043416,7.602884 4.2831924,7.633892 c -0.4607636,0 -0.8980826,0.08414 -1.3127132,0.252975 C 2.5713524,8.040581 2.203044,8.263117 1.8649868,8.554852 1.5271186,8.846587 1.2433245,9.184266 1.0132263,9.568267 0.78274991,9.95189 0.61409945,10.373894 0.5065186,10.834469 H 0.4603855 V 7.910879 H 1.8907003e-4"
     id="path4"
     inkscape:connector-curvature="0"
     style="stroke-width:0.18907003;fill:#000000;fill-opacity:1" />
  <path
     d="M 23.827928,19.745338 V 7.909367 h -0.460763 v 6.701211 c 0,0.66023 -0.09189,1.28946 -0.276043,1.88824 -0.183965,0.59897 -0.460763,1.12837 -0.829072,1.58894 -0.352993,0.44526 -0.798442,0.8062 -1.335779,1.08243 -0.537337,0.26111 -1.159,0.39138 -1.865176,0.39138 -0.506708,0 -0.99016,-0.0688 -1.450924,-0.20741 -0.44507,-0.15372 -0.844386,-0.38363 -1.197569,-0.69087 -0.337679,-0.32217 -0.606159,-0.7213 -0.805817,-1.19738 -0.199658,-0.49139 -0.218186,-1.09868 -0.218186,-1.78936 l -0.451121,0.0701 c 0,0.18321 0,0.39119 5.67e-4,0.56778 0.02571,0.47362 0.06145,0.89487 0.207977,1.28964 0.215161,0.52184 0.506897,0.9671 0.875016,1.33559 0.384001,0.35319 0.829261,0.62167 1.335591,0.80582 0.522211,0.16884 1.089988,0.25298 1.704277,0.25298 1.16694,0 2.111156,-0.29892 2.832458,-0.89771 0.736806,-0.5984 1.213073,-1.35847 1.427668,-2.27999 h 0.04594 v 2.92472 h 0.456604"
     id="path6"
     inkscape:connector-curvature="0"
     style="stroke-width:0.18907003;fill:#000000;fill-opacity:1" />
  <path
     d="m 34.075524,11.409431 h 0.460385 c 0,-1.320276 -0.383623,-2.279806 -1.151436,-2.878591 -0.767624,-0.598407 -1.81148,-0.897894 -3.131567,-0.897894 -0.737184,0 -1.358846,0.09208 -1.865554,0.276232 -0.506708,0.184154 -0.92096,0.422004 -1.243513,0.713928 -0.322176,0.291546 -0.552652,0.61391 -0.690862,0.967093 -0.138021,0.352994 -0.207221,0.690673 -0.207221,1.013226 0,0.644729 0.115144,1.159 0.345431,1.543001 0.230476,0.383623 0.590844,0.682921 1.082615,0.898272 0.337679,0.153146 0.721302,0.291357 1.151247,0.413874 0.430135,0.123085 0.928901,0.253543 1.496868,0.391564 0.506707,0.122706 1.005663,0.245602 1.496867,0.368497 0.491393,0.122705 0.92096,0.291545 1.289458,0.506705 0.383812,0.19966 0.691051,0.46058 0.921149,0.78313 0.24598,0.32218 0.368497,0.74456 0.368497,1.2662 0,0.50671 -0.122517,0.93647 -0.368497,1.28965 -0.230098,0.35299 -0.529585,0.64473 -0.897705,0.87521 -0.368875,0.21478 -0.783317,0.37606 -1.243702,0.48364 -0.44526,0.0919 -0.883146,0.13802 -1.312903,0.13802 -1.397038,0 -2.471523,-0.30724 -3.224022,-0.92096 -0.736806,-0.62961 -1.105492,-1.61201 -1.105492,-2.94798 h -0.460386 c 0,1.48911 0.399127,2.57948 1.197192,3.27015 0.813757,0.69086 2.011138,1.03592 3.592519,1.03592 0.506708,0 1.013227,-0.0611 1.519745,-0.18416 0.522212,-0.10701 0.982975,-0.29135 1.382102,-0.55246 0.414063,-0.26054 0.744369,-0.59878 0.99016,-1.01285 0.260727,-0.41444 0.391375,-0.92153 0.391375,-1.51993 0,-0.56816 -0.115333,-1.02873 -0.345431,-1.38191 -0.215162,-0.35319 -0.506708,-0.64473 -0.875394,-0.87483 -0.353183,-0.23086 -0.759873,-0.40688 -1.220447,-0.530154 -0.44526,-0.137832 -0.898083,-0.26829 -1.358847,-0.391375 -0.644728,-0.16865 -1.212884,-0.314423 -1.704088,-0.437319 -0.476078,-0.122517 -0.921149,-0.268479 -1.335401,-0.437508 -0.399127,-0.169029 -0.721681,-0.40669 -0.967472,-0.713928 -0.230098,-0.322176 -0.34562,-0.774998 -0.34562,-1.358469 0,-0.107391 0.03063,-0.299486 0.09208,-0.576096 0.06164,-0.276042 0.20741,-0.552652 0.437508,-0.828694 0.230477,-0.291735 0.58347,-0.545089 1.05936,-0.760061 0.475889,-0.230288 1.128181,-0.345431 1.957631,-0.345431 0.567966,0 1.082237,0.06145 1.542622,0.184343 0.476268,0.122706 0.883146,0.322175 1.220825,0.598785 0.337679,0.260916 0.598785,0.598595 0.782939,1.013226 0.183398,0.412362 0.276043,0.919069 0.276043,1.517476"
     id="path8"
     inkscape:connector-curvature="0"
     style="stroke-width:0.18907003;fill:#000000;fill-opacity:1" />
  <path
     d="M 46.540911,13.45895 H 37.09951 c 0.04613,-0.828694 0.199658,-1.573441 0.460385,-2.233673 0.261106,-0.660044 0.598785,-1.220258 1.013605,-1.681022 0.429567,-0.475889 0.920771,-0.836635 1.473612,-1.082237 0.568155,-0.245791 1.174692,-0.368686 1.81961,-0.368686 0.767435,0 1.442793,0.145773 2.026263,0.437319 0.58347,0.276609 1.067111,0.660421 1.450923,1.151436 0.398938,0.491393 0.698236,1.067111 0.897894,1.727155 0.202305,0.644918 0.302512,1.328595 0.302512,2.049708 m -9.542364,0.460764 h 9.902353 c 0.03063,-0.813758 -0.05389,-1.596697 -0.253542,-2.349006 C 46.466795,10.818398 46.159557,10.150603 45.7298,9.567511 45.31517,8.983663 44.770081,8.515714 44.094723,8.162531 43.43449,7.809349 42.643988,7.633135 41.722839,7.633135 c -0.660232,0 -1.304961,0.138021 -1.934564,0.414253 -0.629414,0.27642 -1.182066,0.68311 -1.657955,1.220825 -0.476268,0.521644 -0.859891,1.166373 -1.151437,1.934186 -0.291546,0.767625 -0.437508,1.64283 -0.437508,2.625238 0,0.875201 0.09983,1.696711 0.299298,2.464151 0.199658,0.75231 0.506708,1.41254 0.921149,1.98051 0.414631,0.55265 0.944027,0.98222 1.588945,1.28945 0.660232,0.30687 1.450923,0.45264 2.372072,0.43713 1.350906,0 2.486838,-0.37549 3.408177,-1.12799 0.921149,-0.76743 1.46586,-1.84211 1.635077,-3.22402 H 46.30533 c -0.199469,1.30496 -0.713551,2.28756 -1.543001,2.94798 -0.813379,0.64473 -1.842298,0.9669 -3.085623,0.9669 -0.844387,0 -1.558126,-0.14577 -2.141596,-0.43731 -0.58347,-0.29174 -1.059359,-0.69087 -1.428046,-1.19776 -0.368308,-0.50652 -0.644729,-1.09774 -0.828883,-1.7731 -0.168272,-0.68822 -0.260917,-1.43315 -0.276042,-2.231406 z"
     id="path10"
     inkscape:connector-curvature="0"
     style="stroke-width:0.18907003;fill:#000000;fill-opacity:1" />
  <path
     d="m 57.111816,11.409431 h 0.460197 c 0,-1.320276 -0.383624,-2.279806 -1.151437,-2.878591 -0.767435,-0.598407 -1.811291,-0.897894 -3.131567,-0.897894 -0.737184,0 -1.359035,0.09208 -1.865554,0.276232 -0.506707,0.184154 -0.92096,0.422004 -1.243513,0.713928 -0.322176,0.291546 -0.552652,0.61391 -0.690862,0.967093 -0.138021,0.352994 -0.207221,0.690673 -0.207221,1.013226 0,0.644729 0.115144,1.159 0.345431,1.543001 0.230476,0.383623 0.590844,0.682921 1.082426,0.898272 0.337868,0.153146 0.721491,0.291357 1.151436,0.413874 0.429756,0.123085 0.928901,0.253543 1.496868,0.391564 0.506707,0.122706 1.005474,0.245602 1.496867,0.368497 0.491204,0.122705 0.92096,0.291545 1.289458,0.506705 0.383812,0.19966 0.690862,0.46058 0.92096,0.78313 0.246169,0.32218 0.368686,0.74456 0.368686,1.2662 0,0.50671 -0.122517,0.93647 -0.368686,1.28965 -0.230098,0.35299 -0.529585,0.64473 -0.897705,0.87521 -0.368686,0.21478 -0.783317,0.37606 -1.243324,0.48364 -0.445449,0.0919 -0.883335,0.13802 -1.312902,0.13802 -1.397228,0 -2.471713,-0.30724 -3.224212,-0.92096 -0.736806,-0.62961 -1.105303,-1.61201 -1.105303,-2.94798 h -0.460386 c 0,1.48911 0.399127,2.57948 1.197381,3.27015 0.813757,0.69086 2.011327,1.03592 3.59252,1.03592 0.506707,0 1.013226,-0.0611 1.519744,-0.18416 0.522212,-0.10701 0.982597,-0.29135 1.382102,-0.55246 0.414064,-0.26054 0.744558,-0.59878 0.99016,-1.01285 0.260728,-0.41444 0.391186,-0.92153 0.391186,-1.51993 0,-0.56816 -0.114955,-1.02873 -0.345431,-1.38191 -0.214973,-0.35319 -0.506519,-0.64473 -0.875016,-0.87483 -0.353183,-0.23086 -0.759872,-0.40688 -1.220447,-0.530154 -0.44526,-0.137832 -0.898272,-0.26829 -1.358846,-0.391375 -0.644918,-0.16865 -1.212696,-0.314423 -1.704089,-0.437319 -0.476267,-0.122517 -0.921149,-0.268479 -1.335401,-0.437508 -0.399127,-0.169029 -0.721869,-0.40669 -0.967471,-0.713928 -0.230099,-0.322176 -0.345431,-0.774998 -0.345431,-1.358469 0,-0.107391 0.03063,-0.299486 0.09208,-0.576096 0.06164,-0.276042 0.20722,-0.552652 0.437508,-0.828694 0.230476,-0.291735 0.58347,-0.545089 1.059359,-0.760061 0.475889,-0.230288 1.12837,-0.345431 1.957631,-0.345431 0.567777,0 1.082237,0.06145 1.542433,0.184343 0.476268,0.122706 0.883147,0.322175 1.220637,0.598785 0.337868,0.260916 0.598973,0.598595 0.783128,1.013226 0.183398,0.412362 0.276042,0.919069 0.276042,1.517476"
     id="path12"
     inkscape:connector-curvature="0"
     style="stroke-width:0.18907003;fill:#000000;fill-opacity:1" />
  <path
     d="m 69.885387,15.716258 h -0.460764 c -0.04632,0.59859 -0.192095,1.13574 -0.437697,1.61144 -0.245602,0.46096 -0.568155,0.86008 -0.967093,1.19776 -0.383812,0.33768 -0.829072,0.59879 -1.335591,0.78294 -0.506518,0.16903 -1.051607,0.25335 -1.635077,0.25335 -0.782939,0 -1.473612,-0.14577 -2.072397,-0.43731 -0.598595,-0.30724 -1.097929,-0.71412 -1.496867,-1.22026 -0.399316,-0.5069 -0.706366,-1.09037 -0.92096,-1.7506 -0.199658,-0.66005 -0.299487,-1.35091 -0.299487,-2.072398 0,-0.690862 0.08451,-1.389476 0.253543,-2.095653 0.184154,-0.721869 0.468137,-1.366598 0.852138,-1.934375 0.399127,-0.583281 0.920961,-1.051797 1.565689,-1.40479 0.660233,-0.368309 1.458676,-0.552652 2.39495,-0.552652 0.491393,0 0.959342,0.06901 1.404791,0.207221 0.445071,0.138021 0.844197,0.353182 1.197191,0.644728 0.353372,0.27661 0.65267,0.629415 0.898272,1.059549 0.245602,0.414063 0.414819,0.913208 0.506707,1.496867 h 0.460953 C 69.716738,10.872472 69.540145,10.319631 69.263725,9.843931 69.002997,9.352538 68.672503,8.945849 68.273565,8.623484 67.874249,8.300931 67.421805,8.055329 66.914908,7.8863 66.4082,7.717461 65.878804,7.633324 65.325963,7.633324 c -0.936274,0 -1.757973,0.176403 -2.464149,0.529396 -0.690862,0.353372 -1.266391,0.828883 -1.726966,1.427857 -0.44526,0.583281 -0.783128,1.26658 -1.013226,2.049519 -0.214973,0.767625 -0.322554,1.581382 -0.322554,2.441084 0,0.813378 0.115333,1.581188 0.34562,2.302688 0.230288,0.70636 0.568156,1.32783 1.013227,1.86555 0.445071,0.53734 0.990159,0.9669 1.634888,1.28965 0.659666,0.3061 1.412164,0.45981 2.256551,0.45981 0.675925,0 1.289647,-0.0996 1.842487,-0.29892 0.568156,-0.19965 1.05936,-0.48364 1.47399,-0.85176 0.429756,-0.36849 0.775377,-0.81394 1.036293,-1.3354 0.260917,-0.54074 0.421626,-1.14009 0.484019,-1.79994"
     id="path14"
     inkscape:connector-curvature="0"
     style="stroke-width:0.18907003;fill:#000000;fill-opacity:1" />
  <path
     d="m 71.320429,13.827448 c 0,0.81376 0.114765,1.59689 0.345242,2.34882 0.230287,0.73718 0.567966,1.38947 1.013037,1.95763 0.460952,0.56834 1.020978,1.02079 1.68121,1.35903 0.660233,0.3373 1.420294,0.50595 2.279807,0.50595 0.875205,0 1.64264,-0.16865 2.303062,-0.50595 0.660043,-0.33805 1.212695,-0.79069 1.658333,-1.35903 0.460386,-0.56816 0.805816,-1.22026 1.036104,-1.95763 0.230287,-0.75193 0.345242,-1.53506 0.345242,-2.34882 0,-0.813758 -0.114955,-1.588756 -0.345242,-2.325751 C 81.406747,10.749388 81.061316,10.088966 80.60112,9.521378 80.155671,8.953222 79.603019,8.50021 78.942787,8.162342 78.282554,7.80916 77.522682,7.632946 76.662791,7.632946 c -0.875394,0 -1.64264,0.176403 -2.302873,0.529396 -0.660043,0.337868 -1.220258,0.790691 -1.68121,1.359036 -0.445071,0.567588 -0.782939,1.22801 -1.013037,1.980319 -0.232557,0.737562 -0.345999,1.512749 -0.345999,2.326318 m 0.459441,0 c 0,-0.736617 0.09983,-1.450924 0.299486,-2.141596 0.215162,-0.690673 0.529964,-1.297021 0.944216,-1.819043 0.414631,-0.537715 0.921338,-0.967282 1.520123,-1.289647 0.613911,-0.322553 1.319898,-0.48383 2.118341,-0.48383 0.783128,0 1.473801,0.161277 2.072585,0.48383 0.614289,0.322365 1.12837,0.751932 1.543001,1.289647 0.414631,0.522022 0.721302,1.12837 0.920771,1.819043 0.215351,0.690672 0.322553,1.404979 0.322553,2.141596 0,0.752313 -0.107202,1.473993 -0.322553,2.164853 -0.199469,0.69067 -0.50614,1.30477 -0.920771,1.8423 -0.414631,0.52164 -0.928712,0.94402 -1.543001,1.2662 -0.598784,0.30705 -1.289457,0.46076 -2.072585,0.46076 -0.798443,0 -1.50443,-0.15371 -2.118341,-0.46076 -0.598785,-0.32218 -1.105492,-0.74456 -1.520123,-1.2662 -0.414252,-0.53753 -0.729054,-1.15163 -0.944216,-1.8423 -0.198523,-0.69011 -0.29873,-1.41235 -0.29873,-2.164853 z"
     id="path16"
     inkscape:connector-curvature="0"
     style="stroke-width:0.18907003;fill:#000000;fill-opacity:1" />
  <path
     d="m 84.247146,19.745338 v -6.700073 c 0,-0.644729 0.09189,-1.274521 0.276232,-1.888432 0.183965,-0.614288 0.468515,-1.151436 0.852138,-1.6122 0.383434,-0.4757 0.867076,-0.844386 1.450735,-1.105492 0.598784,-0.276042 1.304772,-0.391375 2.118718,-0.345431 V 7.633324 C 88.238793,7.617824 87.617131,7.694584 87.079794,7.863612 86.557393,8.03264 86.10457,8.262739 85.720758,8.554474 85.336946,8.846209 85.029896,9.191451 84.799798,9.590577 84.569511,9.974389 84.40086,10.38902 84.29309,10.83428 H 84.24715 V 7.909556 h -0.460763 v 11.836542 h 0.460763"
     id="path18"
     inkscape:connector-curvature="0"
     style="stroke-width:0.18907003;fill:#000000;fill-opacity:1" />
  <path
     d="m 99.548584,13.45895 h -9.44159 c 0.04594,-0.828694 0.199469,-1.573441 0.460385,-2.233673 0.261106,-0.660044 0.598596,-1.220258 1.013227,-1.681022 0.429756,-0.475889 0.921149,-0.836635 1.4738,-1.082237 0.568156,-0.245791 1.174882,-0.368686 1.81961,-0.368686 0.767247,0 1.442794,0.145773 2.026264,0.437319 0.58347,0.276609 1.066922,0.660421 1.450923,1.151436 0.398938,0.491393 0.698236,1.067111 0.897705,1.727155 0.200414,0.644918 0.300621,1.328595 0.300621,2.049708 m -9.440266,0.460764 h 9.901977 c 0.0306,-0.813758 -0.0537,-1.596697 -0.253356,-2.349006 C 99.57373,10.818398 99.26668,10.150603 98.836924,9.567511 98.422483,8.983663 97.877205,8.515714 97.202036,8.162531 96.541803,7.809349 95.751112,7.633135 94.829963,7.633135 c -0.660043,0 -1.304772,0.138021 -1.934375,0.414253 -0.629414,0.27642 -1.182066,0.68311 -1.657955,1.220825 -0.476268,0.521644 -0.86008,1.166373 -1.151437,1.934186 -0.291735,0.767625 -0.437508,1.64283 -0.437508,2.625238 0,0.875201 0.09964,1.696711 0.299298,2.464151 0.199658,0.75231 0.506897,1.41254 0.92096,1.98051 0.414631,0.55265 0.944027,0.98222 1.589134,1.28945 0.660232,0.30687 1.450923,0.45264 2.371883,0.43713 1.351095,0 2.487027,-0.37549 3.408176,-1.12799 0.920961,-0.76743 1.466049,-1.84211 1.635078,-3.22402 h -0.460953 c -0.199469,1.30496 -0.713361,2.28756 -1.543,2.94798 -0.813379,0.64473 -1.842109,0.9669 -3.085812,0.9669 -0.844198,0 -1.557748,-0.14577 -2.141218,-0.43731 -0.58347,-0.29174 -1.059549,-0.69087 -1.428046,-1.19776 -0.368309,-0.50652 -0.644729,-1.09774 -0.828883,-1.7731 -0.172054,-0.68822 -0.262807,-1.43315 -0.277933,-2.231406 z"
     id="path20"
     inkscape:connector-curvature="0"
     style="stroke-width:0.18907003;fill:#000000;fill-opacity:1" />
  <path
     d="m 18.670098,4.51348 c 0,-0.291357 0.235959,-0.527316 0.527316,-0.527316 0.291168,0 0.527317,0.235959 0.527317,0.527316 0,0.291168 -0.236149,0.527316 -0.527317,0.527316 -0.293058,0 -0.527505,-0.236148 -0.527505,-0.527316"
     id="path22"
     inkscape:connector-curvature="0"
     style="stroke-width:0.18907003;fill:#000000;fill-opacity:1" />
  <path
     d="m 14.028807,4.761162 h 0.439399 c 0,-2.837185 2.367156,-4.321574 4.705196,-4.321574 1.186982,0 2.280752,0.377951 3.079762,1.063708 0.901108,0.773675 1.377375,1.900154 1.377375,3.257866 h 0.439399 c 0,-1.489872 -0.529207,-2.731684 -1.530711,-3.591386 C 21.660619,0.415576 20.465129,0 19.173402,0 16.617176,0 14.029185,1.635267 14.029185,4.761162 Z"
     id="path24"
     inkscape:connector-curvature="0"
     style="stroke-width:0.18907003;fill:#000000;fill-opacity:1" />
</svg>
