<?xml version="1.0" encoding="UTF-8" standalone="no"?>
<svg
   xmlns:dc="http://purl.org/dc/elements/1.1/"
   xmlns:cc="http://creativecommons.org/ns#"
   xmlns:rdf="http://www.w3.org/1999/02/22-rdf-syntax-ns#"
   xmlns:svg="http://www.w3.org/2000/svg"
   xmlns="http://www.w3.org/2000/svg"
   xmlns:sodipodi="http://sodipodi.sourceforge.net/DTD/sodipodi-0.dtd"
   xmlns:inkscape="http://www.inkscape.org/namespaces/inkscape"
   id="svg29587"
   version="1.1"
   viewBox="0 0 26.458333 22.575147"
   height="85.323387"
   width="100"
   sodipodi:docname="music-welcome.svg"
   inkscape:version="0.92.3 (2405546, 2018-03-11)">
  <sodipodi:namedview
     pagecolor="#ffffff"
     bordercolor="#666666"
     borderopacity="1"
     objecttolerance="10"
     gridtolerance="10"
     guidetolerance="10"
     inkscape:pageopacity="0"
     inkscape:pageshadow="2"
     inkscape:window-width="1920"
     inkscape:window-height="1058"
     id="namedview29"
     showgrid="false"
     fit-margin-top="0"
     fit-margin-left="0"
     fit-margin-right="0"
     fit-margin-bottom="0"
     inkscape:pagecheckerboard="true"
     inkscape:zoom="5.5318948"
     inkscape:cx="47.766585"
     inkscape:cy="33.946129"
     inkscape:window-x="-8"
     inkscape:window-y="-8"
     inkscape:window-maximized="1"
     inkscape:current-layer="svg29587" />
  <defs
     id="defs29581">
    <pattern
       y="0"
       x="0"
       height="6"
       width="6"
       patternUnits="userSpaceOnUse"
       id="EMFhbasepattern" />
  </defs>
  <metadata
     id="metadata29584">
    <rdf:RDF>
      <cc:Work
         rdf:about="">
        <dc:format>image/svg+xml</dc:format>
        <dc:type
           rdf:resource="http://purl.org/dc/dcmitype/StillImage" />
        <dc:title></dc:title>
      </cc:Work>
    </rdf:RDF>
  </metadata>
  <g
     id="g3918"
     transform="matrix(1.70646,0,0,1.70646,-45.840518,-4.4142251)">
    <g
       id="text31252-8"
       style="font-style:normal;font-variant:normal;font-weight:normal;font-stretch:normal;font-size:6.64820004px;line-height:1.25;font-family:'iCiel Brandon Text';-inkscape-font-specification:'iCiel Brandon Text';letter-spacing:0px;word-spacing:0px;display:inline;fill:#ffffff;fill-opacity:1;stroke:none;stroke-width:0.166205"
       aria-label="MUSIC"
       transform="matrix(0.22281609,0,0,0.22281609,8.3943787,-20.086986)">
      <path
         id="path1156"
         style="font-style:normal;font-variant:normal;font-weight:normal;font-stretch:normal;font-family:'iCiel Brandon Text';-inkscape-font-specification:'iCiel Brandon Text';fill:#ffffff;fill-opacity:1;stroke-width:0.166205"
         d="m 108.38183,156.44569 q 0.007,-0.0399 0.0332,-0.0665 0.0332,-0.0332 0.0864,-0.0332 h 0.10637 q 0.0798,0 0.11302,0.0665 l 1.4626,3.13795 h 0.0199 l 1.4626,-3.13795 q 0.0332,-0.0665 0.11302,-0.0665 h 0.10637 q 0.0532,0 0.0798,0.0332 0.0332,0.0266 0.0399,0.0665 l 0.78449,4.46759 q 0.0133,0.0731 -0.02,0.11302 -0.0332,0.0399 -0.0997,0.0399 h -0.60499 q -0.0465,0 -0.0798,-0.0332 -0.0332,-0.0332 -0.0465,-0.0665 l -0.39225,-2.51967 h -0.0199 l -1.16344,2.61274 q -0.0266,0.0731 -0.11302,0.0731 h -0.11966 q -0.0798,0 -0.11302,-0.0731 l -1.17673,-2.61274 h -0.0199 l -0.38559,2.51967 q -0.007,0.0332 -0.0399,0.0665 -0.0332,0.0332 -0.0798,0.0332 h -0.59834 q -0.14626,0 -0.12632,-0.15291 z"
         inkscape:connector-curvature="0" />
      <path
         id="path1158"
         style="font-style:normal;font-variant:normal;font-weight:normal;font-stretch:normal;font-family:'iCiel Brandon Text';-inkscape-font-specification:'iCiel Brandon Text';fill:#ffffff;fill-opacity:1;stroke-width:0.166205"
         d="m 113.57501,156.53877 q 0,-0.0532 0.0332,-0.0864 0.0399,-0.0399 0.0931,-0.0399 h 0.63158 q 0.0532,0 0.0864,0.0399 0.0399,0.0332 0.0399,0.0864 v 2.7723 q 0,0.42548 0.25928,0.69141 0.26593,0.26593 0.70471,0.26593 0.21939,0 0.39224,-0.0665 0.1795,-0.0731 0.30582,-0.19945 0.13296,-0.12632 0.19945,-0.29917 0.0731,-0.17285 0.0731,-0.38559 v -2.77895 q 0,-0.0532 0.0332,-0.0864 0.0399,-0.0399 0.0931,-0.0399 h 0.63158 q 0.0532,0 0.0864,0.0399 0.0399,0.0332 0.0399,0.0864 v 2.81884 q 0,0.37894 -0.14626,0.7047 -0.13962,0.32577 -0.39225,0.5651 -0.24598,0.23269 -0.58504,0.3723 -0.33906,0.13296 -0.7313,0.13296 -0.39225,0 -0.7313,-0.13296 -0.33241,-0.13961 -0.58504,-0.3723 -0.24599,-0.23933 -0.39225,-0.5651 -0.13961,-0.32576 -0.13961,-0.7047 z"
         inkscape:connector-curvature="0" />
      <path
         id="path1160"
         style="font-style:normal;font-variant:normal;font-weight:normal;font-stretch:normal;font-family:'iCiel Brandon Text';-inkscape-font-specification:'iCiel Brandon Text';fill:#ffffff;fill-opacity:1;stroke-width:0.166205"
         d="m 119.63079,161.13267 q -0.31246,0 -0.55845,-0.0598 -0.23933,-0.0532 -0.41883,-0.13296 -0.17286,-0.0864 -0.29252,-0.17286 -0.11967,-0.0931 -0.1928,-0.1529 -0.0532,-0.0399 -0.0665,-0.0798 -0.0133,-0.0399 0.0332,-0.11967 l 0.23933,-0.41219 q 0.0399,-0.0731 0.10637,-0.0731 0.0731,-0.007 0.11967,0.0266 0.2061,0.15291 0.43878,0.28588 0.23934,0.12631 0.5651,0.12631 0.25928,0 0.43213,-0.14626 0.17286,-0.15291 0.17286,-0.36565 0,-0.25263 -0.21275,-0.43878 -0.21274,-0.18615 -0.63158,-0.359 -0.23268,-0.0931 -0.45872,-0.21939 -0.22604,-0.12632 -0.40554,-0.29917 -0.17286,-0.17286 -0.27923,-0.3989 -0.10637,-0.22603 -0.10637,-0.51855 0,-0.2194 0.0864,-0.44543 0.0864,-0.23269 0.26593,-0.41219 0.1795,-0.18615 0.45872,-0.29917 0.28588,-0.11967 0.68477,-0.11967 0.25263,0 0.47202,0.0598 0.22604,0.0532 0.39889,0.12632 0.17285,0.0731 0.28587,0.14626 0.11967,0.0731 0.17286,0.11302 0.0532,0.0332 0.0598,0.0997 0.0133,0.0665 -0.0199,0.11967 l -0.25263,0.37895 q -0.0399,0.0598 -0.10638,0.0931 -0.0665,0.0266 -0.12631,-0.0133 -0.21274,-0.13297 -0.43213,-0.24599 -0.21275,-0.11966 -0.49197,-0.11966 -0.28587,0 -0.43878,0.13961 -0.14626,0.13296 -0.14626,0.32576 0,0.23269 0.18615,0.40554 0.19279,0.17285 0.59833,0.33906 0.23934,0.0997 0.48532,0.22604 0.25263,0.12631 0.45208,0.30581 0.19945,0.17286 0.32576,0.41219 0.12632,0.23934 0.12632,0.55845 0,0.25928 -0.10637,0.49862 -0.10637,0.23268 -0.30582,0.41883 -0.19945,0.1795 -0.48532,0.29252 -0.27922,0.10637 -0.63158,0.10637 z"
         inkscape:connector-curvature="0" />
      <path
         id="path1162"
         style="font-style:normal;font-variant:normal;font-weight:normal;font-stretch:normal;font-family:'iCiel Brandon Text';-inkscape-font-specification:'iCiel Brandon Text';fill:#ffffff;fill-opacity:1;stroke-width:0.166205"
         d="m 121.98374,156.53877 q 0,-0.0532 0.0332,-0.0864 0.0399,-0.0399 0.0931,-0.0399 h 0.61828 q 0.0532,0 0.0864,0.0399 0.0399,0.0332 0.0399,0.0864 v 4.40111 q 0,0.0532 -0.0399,0.0931 -0.0332,0.0332 -0.0864,0.0332 h -0.61828 q -0.0532,0 -0.0931,-0.0332 -0.0332,-0.0399 -0.0332,-0.0931 z"
         inkscape:connector-curvature="0" />
      <path
         id="path1164"
         style="font-style:normal;font-variant:normal;font-weight:normal;font-stretch:normal;font-family:'iCiel Brandon Text';-inkscape-font-specification:'iCiel Brandon Text';fill:#ffffff;fill-opacity:1;stroke-width:0.166205"
         d="m 123.71081,158.74597 q 0,-0.49861 0.18615,-0.9374 0.1928,-0.43878 0.51191,-0.75789 0.32577,-0.32576 0.76455,-0.51191 0.43878,-0.1928 0.93739,-0.1928 0.50527,0 0.88421,0.15956 0.3856,0.15291 0.72466,0.45872 0.0997,0.0931 0.007,0.18615 l -0.40554,0.41884 q -0.0798,0.0864 -0.16621,0 -0.21274,-0.18615 -0.47867,-0.28587 -0.26593,-0.10637 -0.54515,-0.10637 -0.31911,0 -0.59169,0.12631 -0.27258,0.11967 -0.47202,0.33241 -0.1928,0.21274 -0.30582,0.49862 -0.11302,0.27922 -0.11302,0.59169 0,0.31246 0.11302,0.59169 0.11302,0.27922 0.31246,0.49196 0.19945,0.2061 0.47203,0.33241 0.27257,0.11967 0.59169,0.11967 0.29917,0 0.5518,-0.0997 0.25263,-0.10637 0.46537,-0.27923 0.0399,-0.0332 0.0864,-0.0332 0.0465,0 0.0798,0.0332 l 0.41218,0.42549 q 0.0399,0.0332 0.0333,0.0931 -0.007,0.0532 -0.0399,0.0864 -0.33906,0.33241 -0.7579,0.49197 -0.41219,0.1529 -0.85762,0.1529 -0.49861,0 -0.93739,-0.18614 -0.43878,-0.18615 -0.76455,-0.50527 -0.31911,-0.32576 -0.51191,-0.75789 -0.18615,-0.43878 -0.18615,-0.9374 z"
         inkscape:connector-curvature="0" />
    </g>
    <path
       style="display:inline;fill:#ffffff;fill-opacity:1;stroke:none;stroke-width:0.59865397px;stroke-linecap:butt;stroke-linejoin:miter;stroke-opacity:1"
       d="M 39.404564,2.5868034 V 12.165261 H 36.560958 V 7.3760214 h 1.047644 v -4.789218 z m -4.489896,0 v 4.789218 h 1.047644 V 12.165261 H 33.118706 V 7.3760214 h 1.047643 v -4.789218 z m -3.442275,0 v 4.789218 h 1.047666 V 12.165261 H 29.826106 V 2.5868034 Z"
       id="path2050"
       inkscape:connector-curvature="0" />
  </g>
</svg>
