<?xml version="1.0" encoding="UTF-8" standalone="no"?>
<!-- Created with Inkscape (http://www.inkscape.org/) -->

<svg
   xmlns:dc="http://purl.org/dc/elements/1.1/"
   xmlns:cc="http://creativecommons.org/ns#"
   xmlns:rdf="http://www.w3.org/1999/02/22-rdf-syntax-ns#"
   xmlns:svg="http://www.w3.org/2000/svg"
   xmlns="http://www.w3.org/2000/svg"
   xmlns:sodipodi="http://sodipodi.sourceforge.net/DTD/sodipodi-0.dtd"
   xmlns:inkscape="http://www.inkscape.org/namespaces/inkscape"
   width="27.889593mm"
   height="46.3022mm"
   viewBox="0 0 27.889593 46.302201"
   version="1.1"
   id="svg2003"
   inkscape:version="0.92.3 (2405546, 2018-03-11)"
   sodipodi:docname="music-stacked.svg">
  <defs
     id="defs1997" />
  <sodipodi:namedview
     id="base"
     pagecolor="#ffffff"
     bordercolor="#666666"
     borderopacity="1.0"
     inkscape:pageopacity="0.0"
     inkscape:pageshadow="2"
     inkscape:zoom="3.959798"
     inkscape:cx="-8.3330488"
     inkscape:cy="60.000864"
     inkscape:document-units="mm"
     inkscape:current-layer="layer1"
     showgrid="false"
     fit-margin-top="0"
     fit-margin-left="0"
     fit-margin-right="0"
     fit-margin-bottom="0"
     inkscape:pagecheckerboard="true"
     inkscape:window-width="1920"
     inkscape:window-height="1018"
     inkscape:window-x="-8"
     inkscape:window-y="-8"
     inkscape:window-maximized="1"
     inkscape:object-paths="true"
     inkscape:snap-nodes="false"
     inkscape:snap-bbox="true"
     inkscape:snap-bbox-edge-midpoints="true" />
  <metadata
     id="metadata2000">
    <rdf:RDF>
      <cc:Work
         rdf:about="">
        <dc:format>image/svg+xml</dc:format>
        <dc:type
           rdf:resource="http://purl.org/dc/dcmitype/StillImage" />
        <dc:title></dc:title>
      </cc:Work>
    </rdf:RDF>
  </metadata>
  <g
     inkscape:label="Layer 1"
     inkscape:groupmode="layer"
     id="layer1"
     transform="translate(-120.97134,-171.31464)">
    <g
       aria-label="MUSIC"
       style="font-style:normal;font-variant:normal;font-weight:normal;font-stretch:normal;font-size:8.64317703px;line-height:1.25;font-family:'iCiel Brandon Text';-inkscape-font-specification:'iCiel Brandon Text';letter-spacing:0px;word-spacing:0px;fill:#ffffff;fill-opacity:1;stroke:none;stroke-width:0.21607944"
       id="text113525-1-5-2-9-5"
       transform="matrix(1.0628876,0,0,1.0628876,-7.6075964,-13.685399)">
      <path
         d="m 122.00294,211.52328 q 0.009,-0.0519 0.0432,-0.0864 0.0432,-0.0432 0.11236,-0.0432 h 0.13829 q 0.10372,0 0.14694,0.0864 l 1.9015,4.07958 h 0.0259 l 1.9015,-4.07958 q 0.0432,-0.0864 0.14693,-0.0864 h 0.13829 q 0.0691,0 0.10372,0.0432 0.0432,0.0346 0.0519,0.0864 l 1.01989,5.80822 q 0.0173,0.0951 -0.0259,0.14693 -0.0432,0.0519 -0.12964,0.0519 h -0.78653 q -0.0605,0 -0.10372,-0.0432 -0.0432,-0.0432 -0.0605,-0.0864 l -0.50995,-3.27576 h -0.0259 l -1.51256,3.39677 q -0.0346,0.0951 -0.14693,0.0951 h -0.15558 q -0.10372,0 -0.14693,-0.0951 l -1.52984,-3.39677 h -0.0259 l -0.50131,3.27576 q -0.009,0.0432 -0.0519,0.0864 -0.0432,0.0432 -0.10372,0.0432 h -0.77788 q -0.19015,0 -0.16422,-0.19879 z"
         style="font-style:normal;font-variant:normal;font-weight:normal;font-stretch:normal;font-family:'iCiel Brandon Text';-inkscape-font-specification:'iCiel Brandon Text';fill:#ffffff;fill-opacity:1;stroke-width:0.21607944"
         id="path3805"
         inkscape:connector-curvature="0" />
      <path
         d="m 128.75447,211.64429 q 0,-0.0692 0.0432,-0.11237 0.0519,-0.0519 0.121,-0.0519 h 0.82111 q 0.0691,0 0.11236,0.0519 0.0519,0.0432 0.0519,0.11237 v 3.6042 q 0,0.55316 0.33708,0.89889 0.34573,0.34573 0.91618,0.34573 0.28522,0 0.50994,-0.0864 0.23337,-0.0951 0.39759,-0.2593 0.17286,-0.16422 0.2593,-0.38894 0.0951,-0.22473 0.0951,-0.50131 v -3.61284 q 0,-0.0692 0.0432,-0.11237 0.0519,-0.0519 0.121,-0.0519 h 0.8211 q 0.0691,0 0.11236,0.0519 0.0519,0.0432 0.0519,0.11237 v 3.6647 q 0,0.49266 -0.19015,0.91618 -0.1815,0.42351 -0.50994,0.73467 -0.3198,0.30251 -0.7606,0.48402 -0.44081,0.17286 -0.95075,0.17286 -0.50995,0 -0.95075,-0.17286 -0.43216,-0.18151 -0.7606,-0.48402 -0.3198,-0.31116 -0.50995,-0.73467 -0.18151,-0.42352 -0.18151,-0.91618 z"
         style="font-style:normal;font-variant:normal;font-weight:normal;font-stretch:normal;font-family:'iCiel Brandon Text';-inkscape-font-specification:'iCiel Brandon Text';fill:#ffffff;fill-opacity:1;stroke-width:0.21607944"
         id="path3807"
         inkscape:connector-curvature="0" />
      <path
         d="m 136.62746,217.61672 q -0.40623,0 -0.72602,-0.0778 -0.31116,-0.0691 -0.54452,-0.17286 -0.22473,-0.11236 -0.3803,-0.22472 -0.15558,-0.12101 -0.25066,-0.1988 -0.0691,-0.0519 -0.0864,-0.10372 -0.0173,-0.0519 0.0432,-0.15557 l 0.31115,-0.53588 q 0.0519,-0.0951 0.13829,-0.0951 0.0951,-0.009 0.15558,0.0346 0.26794,0.19879 0.57045,0.37165 0.31115,0.16423 0.73467,0.16423 0.33708,0 0.56181,-0.19015 0.22472,-0.1988 0.22472,-0.47538 0,-0.32844 -0.27658,-0.57045 -0.27658,-0.24201 -0.8211,-0.46673 -0.30252,-0.12101 -0.59638,-0.28523 -0.29387,-0.16422 -0.52724,-0.38894 -0.22472,-0.22472 -0.36301,-0.51859 -0.13829,-0.29387 -0.13829,-0.67417 0,-0.28522 0.11236,-0.57909 0.11236,-0.30251 0.34573,-0.53588 0.23336,-0.24201 0.59638,-0.38894 0.37165,-0.15558 0.89024,-0.15558 0.32844,0 0.61367,0.0778 0.29387,0.0692 0.51859,0.16422 0.22472,0.0951 0.37166,0.19015 0.15557,0.0951 0.22472,0.14694 0.0691,0.0432 0.0778,0.12964 0.0173,0.0864 -0.0259,0.15558 l -0.32844,0.49266 q -0.0519,0.0778 -0.13829,0.12101 -0.0864,0.0346 -0.16422,-0.0173 -0.27659,-0.17286 -0.56181,-0.3198 -0.27658,-0.15557 -0.6396,-0.15557 -0.37165,0 -0.57045,0.1815 -0.19015,0.17287 -0.19015,0.42352 0,0.30251 0.24201,0.52723 0.25066,0.22472 0.77789,0.4408 0.31115,0.12965 0.63095,0.29387 0.32844,0.16422 0.58774,0.39759 0.25929,0.22472 0.42351,0.53587 0.16422,0.31116 0.16422,0.72603 0,0.33709 -0.13829,0.64824 -0.13829,0.30251 -0.39758,0.54452 -0.2593,0.23337 -0.63096,0.3803 -0.36301,0.13829 -0.8211,0.13829 z"
         style="font-style:normal;font-variant:normal;font-weight:normal;font-stretch:normal;font-family:'iCiel Brandon Text';-inkscape-font-specification:'iCiel Brandon Text';fill:#ffffff;fill-opacity:1;stroke-width:0.21607944"
         id="path3809"
         inkscape:connector-curvature="0" />
      <path
         d="m 139.68647,211.64429 q 0,-0.0692 0.0432,-0.11237 0.0519,-0.0519 0.121,-0.0519 h 0.80382 q 0.0691,0 0.11236,0.0519 0.0519,0.0432 0.0519,0.11237 v 5.72178 q 0,0.0691 -0.0519,0.121 -0.0432,0.0432 -0.11236,0.0432 h -0.80382 q -0.0691,0 -0.121,-0.0432 -0.0432,-0.0519 -0.0432,-0.121 z"
         style="font-style:normal;font-variant:normal;font-weight:normal;font-stretch:normal;font-family:'iCiel Brandon Text';-inkscape-font-specification:'iCiel Brandon Text';fill:#ffffff;fill-opacity:1;stroke-width:0.21607944"
         id="path3811"
         inkscape:connector-curvature="0" />
      <path
         d="m 141.93181,214.51382 q 0,-0.64824 0.242,-1.21869 0.25066,-0.57045 0.66553,-0.98532 0.42352,-0.42352 0.99396,-0.66552 0.57045,-0.25066 1.21869,-0.25066 0.65688,0 1.14955,0.20744 0.5013,0.19879 0.9421,0.59638 0.12965,0.121 0.009,0.24201 l -0.52723,0.54452 q -0.10372,0.11236 -0.21608,0 -0.27658,-0.24201 -0.62231,-0.37166 -0.34572,-0.13829 -0.70874,-0.13829 -0.41487,0 -0.76924,0.16422 -0.35437,0.15558 -0.61367,0.43216 -0.25065,0.27658 -0.39758,0.64824 -0.14694,0.36301 -0.14694,0.76924 0,0.40623 0.14694,0.76924 0.14693,0.36302 0.40623,0.6396 0.25929,0.26794 0.61366,0.43216 0.35437,0.15557 0.76925,0.15557 0.38894,0 0.71738,-0.12964 0.32844,-0.13829 0.60502,-0.36302 0.0519,-0.0432 0.11236,-0.0432 0.0605,0 0.10372,0.0432 l 0.53588,0.55317 q 0.0519,0.0432 0.0432,0.121 -0.009,0.0692 -0.0519,0.11236 -0.4408,0.43216 -0.98532,0.6396 -0.53587,0.19879 -1.11497,0.19879 -0.64824,0 -1.21869,-0.24201 -0.57044,-0.24201 -0.99396,-0.65688 -0.41487,-0.42352 -0.66553,-0.98532 -0.242,-0.57045 -0.242,-1.21869 z"
         style="font-style:normal;font-variant:normal;font-weight:normal;font-stretch:normal;font-family:'iCiel Brandon Text';-inkscape-font-specification:'iCiel Brandon Text';fill:#ffffff;fill-opacity:1;stroke-width:0.21607944"
         id="path3813"
         inkscape:connector-curvature="0" />
    </g>
    <path
       style="display:inline;fill:#ffffff;fill-opacity:1;stroke:none;stroke-width:1.65364718px;stroke-linecap:butt;stroke-linejoin:miter;stroke-opacity:1"
       d="m 148.14531,171.31464 v 26.45833 h -7.85481 v -13.2292 h 2.89387 v -13.22913 z m -12.40233,0 v 13.22913 h 2.89387 v 13.2292 h -7.85481 v -13.2292 h 2.89387 v -13.22913 z m -9.50848,0 v 13.22913 h 2.89388 v 13.2292 h -7.44142 v -26.45833 z"
       id="path8991-7-1"
       inkscape:connector-curvature="0" />
  </g>
</svg>
