<?xml version="1.0" encoding="UTF-8" standalone="no"?>
<!-- Created with Inkscape (http://www.inkscape.org/) -->

<svg
   xmlns:dc="http://purl.org/dc/elements/1.1/"
   xmlns:cc="http://creativecommons.org/ns#"
   xmlns:rdf="http://www.w3.org/1999/02/22-rdf-syntax-ns#"
   xmlns:svg="http://www.w3.org/2000/svg"
   xmlns="http://www.w3.org/2000/svg"
   xmlns:sodipodi="http://sodipodi.sourceforge.net/DTD/sodipodi-0.dtd"
   xmlns:inkscape="http://www.inkscape.org/namespaces/inkscape"
   width="64.011002"
   height="19.999998"
   viewBox="0 0 16.936245 5.291666"
   version="1.1"
   id="svg2396"
   sodipodi:docname="music-black-category.svg"
   inkscape:version="0.92.3 (2405546, 2018-03-11)">
  <defs
     id="defs2390" />
  <sodipodi:namedview
     id="base"
     pagecolor="#ffffff"
     bordercolor="#666666"
     borderopacity="1.0"
     inkscape:pageopacity="0.0"
     inkscape:pageshadow="2"
     inkscape:zoom="4"
     inkscape:cx="-59.952403"
     inkscape:cy="31.85657"
     inkscape:document-units="px"
     inkscape:current-layer="layer1"
     showgrid="false"
     inkscape:pagecheckerboard="true"
     fit-margin-top="0"
     fit-margin-left="0"
     fit-margin-right="0"
     fit-margin-bottom="0"
     inkscape:window-width="1920"
     inkscape:window-height="1058"
     inkscape:window-x="-8"
     inkscape:window-y="-8"
     inkscape:window-maximized="1"
     units="px" />
  <metadata
     id="metadata2393">
    <rdf:RDF>
      <cc:Work
         rdf:about="">
        <dc:format>image/svg+xml</dc:format>
        <dc:type
           rdf:resource="http://purl.org/dc/dcmitype/StillImage" />
        <dc:title />
      </cc:Work>
    </rdf:RDF>
  </metadata>
  <g
     inkscape:label="Layer 1"
     inkscape:groupmode="layer"
     id="layer1"
     transform="translate(-40.826382,-226.12947)">
    <rect
       style="opacity:1;fill:#000000;fill-opacity:1;stroke:none;stroke-width:0.31556112;stroke-linecap:round;stroke-linejoin:round;stroke-miterlimit:4;stroke-dasharray:none;stroke-opacity:1"
       id="rect4763"
       width="16.936245"
       height="5.2916665"
       x="40.826382"
       y="226.12947" />
    <g
       aria-label="MUSIC"
       style="font-style:normal;font-weight:normal;font-size:11.27485752px;line-height:1.25;font-family:sans-serif;letter-spacing:0px;word-spacing:0px;display:inline;opacity:1;fill:#ffffff;fill-opacity:1;stroke:none;stroke-width:0.28187147"
       id="text4781-9">
      <path
         d="m 46.097524,230.06816 v -2.03323 h -0.01503 l -0.886956,2.03323 h -0.236772 l -0.883197,-2.03323 h -0.01503 v 2.03323 h -0.304421 v -2.5857 h 0.435961 l 0.883197,2.01068 h 0.01879 l 0.883197,-2.01068 h 0.435961 v 2.5857 z"
         style="font-style:normal;font-variant:normal;font-weight:normal;font-stretch:normal;font-size:3.758286px;font-family:Saira;-inkscape-font-specification:Saira;font-variant-ligatures:normal;font-variant-caps:normal;font-variant-numeric:normal;font-feature-settings:normal;text-align:start;writing-mode:lr-tb;text-anchor:start;fill:#ffffff;fill-opacity:1;stroke-width:0.28187147"
         id="path10" />
      <path
         d="m 49.105093,227.48246 v 1.45446 q 0,0.50361 -0.06389,0.74038 -0.06389,0.23301 -0.266839,0.32697 -0.202947,0.094 -0.653941,0.094 -0.450995,0 -0.653942,-0.094 -0.202948,-0.0977 -0.270597,-0.33073 -0.06389,-0.23301 -0.06389,-0.73662 v -1.45446 h 0.319455 v 1.57848 q 0,0.33825 0.03758,0.48106 0.03758,0.14282 0.172881,0.19919 0.135298,0.0564 0.458511,0.0564 0.323212,0 0.454752,-0.0564 0.135299,-0.0564 0.169123,-0.19543 0.03758,-0.14282 0.03758,-0.48482 v -1.57848 z"
         style="font-style:normal;font-variant:normal;font-weight:normal;font-stretch:normal;font-size:3.758286px;font-family:Saira;-inkscape-font-specification:Saira;font-variant-ligatures:normal;font-variant-caps:normal;font-variant-numeric:normal;font-feature-settings:normal;text-align:start;writing-mode:lr-tb;text-anchor:start;fill:#ffffff;fill-opacity:1;stroke-width:0.28187147"
         id="path12" />
      <path
         d="m 50.687272,230.09823 q -0.206706,0 -0.462269,-0.015 -0.251805,-0.015 -0.447236,-0.0376 v -0.2969 q 0.488577,0.0489 0.815548,0.0489 0.202948,0 0.319454,-0.015 0.120266,-0.0188 0.202948,-0.0639 0.07517,-0.0451 0.09772,-0.13154 0.02255,-0.0902 0.02255,-0.23677 0,-0.17664 -0.01879,-0.24805 -0.01879,-0.0752 -0.0902,-0.10899 -0.06765,-0.0338 -0.236772,-0.0489 l -0.638909,-0.0714 q -0.233014,-0.0263 -0.353279,-0.10899 -0.116507,-0.0864 -0.157848,-0.22174 -0.03758,-0.13906 -0.03758,-0.3608 0,-0.30818 0.105232,-0.46603 0.108991,-0.15784 0.300663,-0.21046 0.195431,-0.0526 0.522402,-0.0526 0.217981,0 0.443478,0.0188 0.225497,0.0188 0.357037,0.0451 v 0.28563 q -0.142815,-0.0225 -0.353279,-0.0338 -0.210464,-0.015 -0.390862,-0.015 -0.210464,0 -0.338246,0.0188 -0.127781,0.0188 -0.199189,0.0639 -0.07892,0.0451 -0.101473,0.12026 -0.02255,0.0752 -0.02255,0.21423 0,0.15409 0.02255,0.22549 0.02255,0.0676 0.08644,0.10148 0.06389,0.0301 0.210464,0.0451 l 0.631392,0.0714 q 0.225497,0.0225 0.349521,0.0789 0.124023,0.0564 0.180398,0.20295 0.05262,0.13529 0.05262,0.4322 0,0.342 -0.105232,0.51113 -0.105232,0.16536 -0.281872,0.21422 -0.176639,0.0451 -0.484819,0.0451 z"
         style="font-style:normal;font-variant:normal;font-weight:normal;font-stretch:normal;font-size:3.758286px;font-family:Saira;-inkscape-font-specification:Saira;font-variant-ligatures:normal;font-variant-caps:normal;font-variant-numeric:normal;font-feature-settings:normal;text-align:start;writing-mode:lr-tb;text-anchor:start;fill:#ffffff;fill-opacity:1;stroke-width:0.28187147"
         id="path14" />
      <path
         d="m 52.190234,230.06816 v -2.5857 h 0.323213 v 2.5857 z"
         style="font-style:normal;font-variant:normal;font-weight:normal;font-stretch:normal;font-size:3.758286px;font-family:Saira;-inkscape-font-specification:Saira;font-variant-ligatures:normal;font-variant-caps:normal;font-variant-numeric:normal;font-feature-settings:normal;text-align:start;writing-mode:lr-tb;text-anchor:start;fill:#ffffff;fill-opacity:1;stroke-width:0.28187147"
         id="path16" />
      <path
         d="m 54.832897,230.04937 q -0.116507,0.0225 -0.293147,0.0338 -0.172881,0.015 -0.323212,0.015 -0.466028,0 -0.68025,-0.10148 -0.214222,-0.10147 -0.289388,-0.36831 -0.07141,-0.2706 -0.07141,-0.85313 0,-0.57878 0.07141,-0.84937 0.07517,-0.2706 0.289388,-0.37207 0.214222,-0.10148 0.68025,-0.10148 0.15409,0 0.323212,0.015 0.169123,0.015 0.278114,0.0413 v 0.28187 q -0.281872,-0.0376 -0.518644,-0.0376 -0.39462,0 -0.552468,0.0601 -0.15409,0.0601 -0.202947,0.25932 -0.04886,0.19919 -0.04886,0.7028 0,0.50361 0.04886,0.7028 0.04886,0.19919 0.202947,0.25932 0.157848,0.0601 0.552468,0.0601 0.289388,0 0.533677,-0.0376 z"
         style="font-style:normal;font-variant:normal;font-weight:normal;font-stretch:normal;font-size:3.758286px;font-family:Saira;-inkscape-font-specification:Saira;font-variant-ligatures:normal;font-variant-caps:normal;font-variant-numeric:normal;font-feature-settings:normal;text-align:start;writing-mode:lr-tb;text-anchor:start;fill:#ffffff;fill-opacity:1;stroke-width:0.28187147"
         id="path18" />
    </g>
  </g>
</svg>
