<?xml version="1.0" encoding="UTF-8" standalone="no"?>
<!-- Created with Inkscape (http://www.inkscape.org/) -->

<svg
   xmlns:dc="http://purl.org/dc/elements/1.1/"
   xmlns:cc="http://creativecommons.org/ns#"
   xmlns:rdf="http://www.w3.org/1999/02/22-rdf-syntax-ns#"
   xmlns:svg="http://www.w3.org/2000/svg"
   xmlns="http://www.w3.org/2000/svg"
   xmlns:sodipodi="http://sodipodi.sourceforge.net/DTD/sodipodi-0.dtd"
   xmlns:inkscape="http://www.inkscape.org/namespaces/inkscape"
   width="16.936243mm"
   height="5.2916665mm"
   viewBox="0 0 16.936243 5.2916665"
   version="1.1"
   id="svg2396"
   inkscape:version="0.92.3 (2405546, 2018-03-11)"
   sodipodi:docname="others-back-category.svg">
  <defs
     id="defs2390" />
  <sodipodi:namedview
     id="base"
     pagecolor="#ffffff"
     bordercolor="#666666"
     borderopacity="1.0"
     inkscape:pageopacity="0.0"
     inkscape:pageshadow="2"
     inkscape:zoom="4"
     inkscape:cx="-27.077403"
     inkscape:cy="31.856572"
     inkscape:document-units="mm"
     inkscape:current-layer="layer1"
     showgrid="false"
     inkscape:pagecheckerboard="true"
     fit-margin-top="0"
     fit-margin-left="0"
     fit-margin-right="0"
     fit-margin-bottom="0"
     inkscape:window-width="1920"
     inkscape:window-height="1058"
     inkscape:window-x="-8"
     inkscape:window-y="-8"
     inkscape:window-maximized="1" />
  <metadata
     id="metadata2393">
    <rdf:RDF>
      <cc:Work
         rdf:about="">
        <dc:format>image/svg+xml</dc:format>
        <dc:type
           rdf:resource="http://purl.org/dc/dcmitype/StillImage" />
        <dc:title></dc:title>
      </cc:Work>
    </rdf:RDF>
  </metadata>
  <g
     inkscape:label="Layer 1"
     inkscape:groupmode="layer"
     id="layer1"
     transform="translate(-40.826382,-226.12947)">
    <rect
       style="opacity:1;fill:#000000;fill-opacity:1;stroke:none;stroke-width:0.31556112;stroke-linecap:round;stroke-linejoin:round;stroke-miterlimit:4;stroke-dasharray:none;stroke-opacity:1"
       id="rect4763"
       width="16.936243"
       height="5.2916665"
       x="40.826382"
       y="226.12947" />
    <g
       aria-label="OTHERS"
       style="font-style:normal;font-weight:normal;font-size:11.27485752px;line-height:1.25;font-family:sans-serif;letter-spacing:0px;word-spacing:0px;display:inline;opacity:1;fill:#ffffff;fill-opacity:1;stroke:none;stroke-width:0.28187147"
       id="text4781-9">
      <path
         d="m 43.122746,230.09823 q -0.514885,0 -0.729107,-0.10148 -0.214223,-0.10147 -0.274355,-0.35328 -0.05638,-0.25556 -0.05638,-0.86816 0,-0.6126 0.05638,-0.86441 0.06013,-0.25556 0.274355,-0.35703 0.214222,-0.10148 0.729107,-0.10148 0.511127,0 0.725349,0.10148 0.217981,0.10147 0.274355,0.35703 0.06013,0.25181 0.06013,0.86441 0,0.6126 -0.06013,0.86816 -0.05637,0.25181 -0.274355,0.35328 -0.214222,0.10148 -0.725349,0.10148 z m 0,-0.30067 q 0.383345,0 0.518644,-0.0489 0.135298,-0.0489 0.176639,-0.24429 0.04134,-0.19543 0.04134,-0.72911 0,-0.53368 -0.04134,-0.72911 -0.04134,-0.19543 -0.176639,-0.24429 -0.135299,-0.0488 -0.518644,-0.0488 -0.383345,0 -0.522402,0.0488 -0.135298,0.0489 -0.176639,0.24429 -0.04134,0.19543 -0.04134,0.72911 0,0.53368 0.04134,0.72911 0.04134,0.19543 0.176639,0.24429 0.139057,0.0489 0.522402,0.0489 z"
         style="font-style:normal;font-variant:normal;font-weight:normal;font-stretch:normal;font-size:3.758286px;font-family:Saira;-inkscape-font-specification:Saira;font-variant-ligatures:normal;font-variant-caps:normal;font-variant-numeric:normal;font-feature-settings:normal;text-align:start;writing-mode:lr-tb;text-anchor:start;fill:#ffffff;fill-opacity:1;stroke-width:0.28187147"
         id="path2956" />
      <path
         d="m 45.406844,230.06816 v -2.27376 h -0.819306 v -0.31194 h 1.958067 v 0.31194 h -0.815548 v 2.27376 z"
         style="font-style:normal;font-variant:normal;font-weight:normal;font-stretch:normal;font-size:3.758286px;font-family:Saira;-inkscape-font-specification:Saira;font-variant-ligatures:normal;font-variant-caps:normal;font-variant-numeric:normal;font-feature-settings:normal;text-align:start;writing-mode:lr-tb;text-anchor:start;fill:#ffffff;fill-opacity:1;stroke-width:0.28187147"
         id="path2958" />
      <path
         d="m 48.718012,230.06816 v -1.14628 h -1.356741 v 1.14628 h -0.323213 v -2.5857 h 0.323213 v 1.12749 h 1.356741 v -1.12749 h 0.319454 v 2.5857 z"
         style="font-style:normal;font-variant:normal;font-weight:normal;font-stretch:normal;font-size:3.758286px;font-family:Saira;-inkscape-font-specification:Saira;font-variant-ligatures:normal;font-variant-caps:normal;font-variant-numeric:normal;font-feature-settings:normal;text-align:start;writing-mode:lr-tb;text-anchor:start;fill:#ffffff;fill-opacity:1;stroke-width:0.28187147"
         id="path2960" />
      <path
         d="m 49.790709,230.06816 v -2.5857 h 1.683712 v 0.30066 h -1.3605 v 0.83058 h 1.180102 v 0.30067 h -1.180102 v 0.85313 h 1.3605 v 0.30066 z"
         style="font-style:normal;font-variant:normal;font-weight:normal;font-stretch:normal;font-size:3.758286px;font-family:Saira;-inkscape-font-specification:Saira;font-variant-ligatures:normal;font-variant-caps:normal;font-variant-numeric:normal;font-feature-settings:normal;text-align:start;writing-mode:lr-tb;text-anchor:start;fill:#ffffff;fill-opacity:1;stroke-width:0.28187147"
         id="path2962" />
      <path
         d="m 53.659923,230.06816 -0.402137,-1.01474 h -0.06389 -0.811789 v 1.01474 h -0.323213 v -2.5857 h 1.187618 q 0.30818,0 0.466028,0.0977 0.157848,0.0977 0.206706,0.26308 0.04886,0.16536 0.04886,0.42468 0,0.26684 -0.07892,0.46603 -0.07892,0.19543 -0.323212,0.26684 l 0.439719,1.06735 z m -0.54871,-1.3154 q 0.24053,0 0.353279,-0.0489 0.116507,-0.0526 0.146573,-0.15033 0.03382,-0.0977 0.03382,-0.28563 0,-0.19167 -0.03007,-0.28939 -0.03007,-0.0977 -0.139056,-0.14657 -0.105232,-0.0489 -0.338246,-0.0489 h -0.755415 v 0.96964 z"
         style="font-style:normal;font-variant:normal;font-weight:normal;font-stretch:normal;font-size:3.758286px;font-family:Saira;-inkscape-font-specification:Saira;font-variant-ligatures:normal;font-variant-caps:normal;font-variant-numeric:normal;font-feature-settings:normal;text-align:start;writing-mode:lr-tb;text-anchor:start;fill:#ffffff;fill-opacity:1;stroke-width:0.28187147"
         id="path2964" />
      <path
         d="m 55.481342,230.09823 q -0.206706,0 -0.46227,-0.015 -0.251805,-0.015 -0.447236,-0.0376 v -0.2969 q 0.488577,0.0489 0.815548,0.0489 0.202948,0 0.319455,-0.015 0.120265,-0.0188 0.202947,-0.0639 0.07517,-0.0451 0.09772,-0.13154 0.02255,-0.0902 0.02255,-0.23677 0,-0.17664 -0.01879,-0.24805 -0.01879,-0.0752 -0.0902,-0.10899 -0.06765,-0.0338 -0.236772,-0.0489 l -0.638909,-0.0714 q -0.233013,-0.0263 -0.353279,-0.10899 -0.116506,-0.0864 -0.157848,-0.22174 -0.03758,-0.13906 -0.03758,-0.3608 0,-0.30818 0.105232,-0.46603 0.10899,-0.15784 0.300662,-0.21046 0.195431,-0.0526 0.522402,-0.0526 0.217981,0 0.443478,0.0188 0.225497,0.0188 0.357037,0.0451 v 0.28563 q -0.142815,-0.0225 -0.353279,-0.0338 -0.210464,-0.015 -0.390861,-0.015 -0.210465,0 -0.338246,0.0188 -0.127782,0.0188 -0.199189,0.0639 -0.07892,0.0451 -0.101474,0.12026 -0.02255,0.0752 -0.02255,0.21423 0,0.15409 0.02255,0.22549 0.02255,0.0676 0.08644,0.10148 0.06389,0.0301 0.210464,0.0451 l 0.631393,0.0714 q 0.225497,0.0225 0.34952,0.0789 0.124024,0.0564 0.180398,0.20295 0.05262,0.13529 0.05262,0.4322 0,0.342 -0.105232,0.51113 -0.105232,0.16536 -0.281872,0.21422 -0.176639,0.0451 -0.484818,0.0451 z"
         style="font-style:normal;font-variant:normal;font-weight:normal;font-stretch:normal;font-size:3.758286px;font-family:Saira;-inkscape-font-specification:Saira;font-variant-ligatures:normal;font-variant-caps:normal;font-variant-numeric:normal;font-feature-settings:normal;text-align:start;writing-mode:lr-tb;text-anchor:start;fill:#ffffff;fill-opacity:1;stroke-width:0.28187147"
         id="path2966" />
    </g>
  </g>
</svg>
