<?xml version="1.0" encoding="UTF-8" standalone="no"?>
<!-- Created with Inkscape (http://www.inkscape.org/) -->

<svg
   xmlns:dc="http://purl.org/dc/elements/1.1/"
   xmlns:cc="http://creativecommons.org/ns#"
   xmlns:rdf="http://www.w3.org/1999/02/22-rdf-syntax-ns#"
   xmlns:svg="http://www.w3.org/2000/svg"
   xmlns="http://www.w3.org/2000/svg"
   xmlns:sodipodi="http://sodipodi.sourceforge.net/DTD/sodipodi-0.dtd"
   xmlns:inkscape="http://www.inkscape.org/namespaces/inkscape"
   width="16.600939mm"
   height="2.6458333mm"
   viewBox="0 0 16.600939 2.6458333"
   version="1.1"
   id="svg29595"
   sodipodi:docname="panel-contact.svg"
   inkscape:version="0.92.3 (2405546, 2018-03-11)">
  <defs
     id="defs29589" />
  <sodipodi:namedview
     id="base"
     pagecolor="#ffffff"
     bordercolor="#666666"
     borderopacity="1.0"
     inkscape:pageopacity="0.0"
     inkscape:pageshadow="2"
     inkscape:zoom="1.979899"
     inkscape:cx="-96.502616"
     inkscape:cy="-69.290591"
     inkscape:document-units="mm"
     inkscape:current-layer="layer1"
     showgrid="false"
     inkscape:pagecheckerboard="true"
     fit-margin-top="0"
     fit-margin-left="0"
     fit-margin-right="0"
     fit-margin-bottom="0"
     inkscape:window-width="1366"
     inkscape:window-height="745"
     inkscape:window-x="-8"
     inkscape:window-y="-8"
     inkscape:window-maximized="1" />
  <metadata
     id="metadata29592">
    <rdf:RDF>
      <cc:Work
         rdf:about="">
        <dc:format>image/svg+xml</dc:format>
        <dc:type
           rdf:resource="http://purl.org/dc/dcmitype/StillImage" />
        <dc:title />
      </cc:Work>
    </rdf:RDF>
  </metadata>
  <g
     inkscape:label="Layer 1"
     inkscape:groupmode="layer"
     id="layer1"
     transform="translate(-46.869041,-165.65327)">
    <g
       aria-label="CONTACT"
       style="font-style:normal;font-variant:normal;font-weight:normal;font-stretch:normal;font-size:3.67476845px;line-height:1.25;font-family:'iCiel Brandon Text';-inkscape-font-specification:'iCiel Brandon Text';letter-spacing:0px;word-spacing:0px;opacity:1;fill:#fffcfc;fill-opacity:1;stroke:none;stroke-width:0.09186922"
       id="text113425-3-3">
      <path
         d="m 46.869041,166.97987 q 0,-0.27561 0.102894,-0.51815 0.106568,-0.24253 0.282957,-0.41892 0.180064,-0.18006 0.422599,-0.28296 0.242534,-0.10657 0.518142,-0.10657 0.279282,0 0.488744,0.0882 0.213137,0.0845 0.40055,0.25356 0.05512,0.0514 0.0037,0.10289 l -0.224161,0.23151 q -0.0441,0.0478 -0.09187,0 -0.117593,-0.10289 -0.264584,-0.15801 -0.146991,-0.0588 -0.301331,-0.0588 -0.176389,0 -0.327054,0.0698 -0.150666,0.0661 -0.260909,0.18374 -0.106568,0.11759 -0.169039,0.27561 -0.06247,0.15434 -0.06247,0.32705 0,0.17272 0.06247,0.32706 0.06247,0.15434 0.172714,0.27193 0.110243,0.11392 0.260909,0.18374 0.150665,0.0661 0.327054,0.0661 0.165365,0 0.305006,-0.0551 0.139641,-0.0588 0.257234,-0.15434 0.02205,-0.0184 0.04777,-0.0184 0.02572,0 0.0441,0.0184 l 0.227835,0.23519 q 0.02205,0.0184 0.01837,0.0514 -0.0037,0.0294 -0.02205,0.0478 -0.187414,0.18374 -0.418924,0.27194 -0.227836,0.0845 -0.474045,0.0845 -0.275608,0 -0.518142,-0.1029 -0.242535,-0.10289 -0.422599,-0.27928 -0.176389,-0.18006 -0.282957,-0.41892 -0.102894,-0.24254 -0.102894,-0.51814 z"
         style="font-style:normal;font-variant:normal;font-weight:normal;font-stretch:normal;font-family:'iCiel Brandon Text';-inkscape-font-specification:'iCiel Brandon Text';fill:#fffcfc;fill-opacity:1;stroke-width:0.09186922"
         id="path2446" />
      <path
         d="m 49.338027,166.97987 q 0,-0.27561 0.102893,-0.51815 0.102894,-0.24253 0.279282,-0.41892 0.180064,-0.18006 0.418924,-0.28296 0.242535,-0.10657 0.518142,-0.10657 0.275608,0 0.514468,0.10657 0.242535,0.1029 0.422598,0.28296 0.180064,0.17639 0.282958,0.41892 0.102893,0.24254 0.102893,0.51815 0,0.2756 -0.102893,0.51814 -0.102894,0.23886 -0.282958,0.41892 -0.180063,0.17639 -0.422598,0.27928 -0.23886,0.1029 -0.514468,0.1029 -0.275607,0 -0.518142,-0.1029 -0.23886,-0.10289 -0.418924,-0.27928 -0.176388,-0.18006 -0.279282,-0.41892 -0.102893,-0.24254 -0.102893,-0.51814 z m 0.477719,0 q 0,0.17271 0.06615,0.32705 0.06615,0.15434 0.180064,0.26826 0.113918,0.11392 0.268258,0.18006 0.15434,0.0662 0.327054,0.0662 0.172715,0 0.327055,-0.0662 0.15434,-0.0661 0.268258,-0.18006 0.117593,-0.11392 0.183738,-0.26826 0.06615,-0.15434 0.06615,-0.32705 0,-0.17272 -0.06615,-0.32706 -0.06614,-0.15434 -0.183738,-0.26826 -0.113918,-0.11759 -0.268258,-0.18374 -0.15434,-0.0698 -0.327055,-0.0698 -0.172714,0 -0.327054,0.0698 -0.15434,0.0662 -0.268258,0.18374 -0.113918,0.11392 -0.180064,0.26826 -0.06615,0.15434 -0.06615,0.32706 z"
         style="font-style:normal;font-variant:normal;font-weight:normal;font-stretch:normal;font-family:'iCiel Brandon Text';-inkscape-font-specification:'iCiel Brandon Text';fill:#fffcfc;fill-opacity:1;stroke-width:0.09186922"
         id="path2448" />
      <path
         d="m 52.45291,165.71942 q 0,-0.0294 0.01837,-0.0478 0.02205,-0.0184 0.05145,-0.0184 h 0.05512 q 0.03675,0 0.06247,0.0257 l 1.499305,1.59852 h 0.0073 v -1.51768 q 0,-0.0294 0.01837,-0.0478 0.02205,-0.0221 0.05145,-0.0221 h 0.338078 q 0.0294,0 0.04777,0.0221 0.02205,0.0184 0.02205,0.0478 v 2.47312 q 0,0.0294 -0.02205,0.0478 -0.01837,0.0184 -0.04777,0.0184 h -0.05145 q -0.03675,0 -0.06247,-0.0257 l -1.506655,-1.66099 h -0.0073 v 1.58015 q 0,0.0294 -0.02205,0.0514 -0.01837,0.0184 -0.04777,0.0184 H 52.52273 q -0.0294,0 -0.05145,-0.0184 -0.01837,-0.0221 -0.01837,-0.0514 z"
         style="font-style:normal;font-variant:normal;font-weight:normal;font-stretch:normal;font-family:'iCiel Brandon Text';-inkscape-font-specification:'iCiel Brandon Text';fill:#fffcfc;fill-opacity:1;stroke-width:0.09186922"
         id="path2450" />
      <path
         d="m 55.667299,166.13099 h -0.56224 q -0.0294,0 -0.05145,-0.0184 -0.01837,-0.022 -0.01837,-0.0514 v -0.30133 q 0,-0.0294 0.01837,-0.0478 0.02205,-0.0221 0.05145,-0.0221 h 1.605874 q 0.0294,0 0.04777,0.0221 0.02205,0.0184 0.02205,0.0478 v 0.30133 q 0,0.0294 -0.02205,0.0514 -0.01837,0.0184 -0.04777,0.0184 h -0.56224 v 2.06155 q 0,0.0294 -0.02205,0.0514 -0.01837,0.0184 -0.04777,0.0184 h -0.341754 q -0.0294,0 -0.05145,-0.0184 -0.01837,-0.0221 -0.01837,-0.0514 z"
         style="font-style:normal;font-variant:normal;font-weight:normal;font-stretch:normal;font-family:'iCiel Brandon Text';-inkscape-font-specification:'iCiel Brandon Text';fill:#fffcfc;fill-opacity:1;stroke-width:0.09186922"
         id="path2452" />
      <path
         d="m 56.782303,168.26236 q -0.04042,0 -0.06247,-0.0294 -0.01837,-0.0294 0,-0.0661 l 1.142853,-2.47312 q 0.01837,-0.0404 0.06247,-0.0404 h 0.03675 q 0.0294,0 0.04042,0.011 0.0147,0.011 0.02205,0.0294 l 1.131828,2.47312 q 0.01837,0.0367 -0.0037,0.0661 -0.01837,0.0294 -0.0588,0.0294 h -0.319704 q -0.04042,0 -0.06615,-0.0147 -0.02205,-0.0184 -0.04042,-0.0588 l -0.180063,-0.39687 H 57.38864 l -0.180064,0.39687 q -0.01102,0.0294 -0.03675,0.0514 -0.02572,0.0221 -0.06982,0.0221 z m 1.525029,-0.87827 -0.367477,-0.80845 h -0.01102 l -0.360127,0.80845 z"
         style="font-style:normal;font-variant:normal;font-weight:normal;font-stretch:normal;font-family:'iCiel Brandon Text';-inkscape-font-specification:'iCiel Brandon Text';fill:#fffcfc;fill-opacity:1;stroke-width:0.09186922"
         id="path2454" />
      <path
         d="m 59.264208,166.97987 q 0,-0.27561 0.102893,-0.51815 0.106569,-0.24253 0.282958,-0.41892 0.180063,-0.18006 0.422598,-0.28296 0.242535,-0.10657 0.518142,-0.10657 0.279283,0 0.488745,0.0882 0.213136,0.0845 0.400549,0.25356 0.05512,0.0514 0.0037,0.10289 l -0.224161,0.23151 q -0.0441,0.0478 -0.09187,0 -0.117593,-0.10289 -0.264583,-0.15801 -0.146991,-0.0588 -0.301331,-0.0588 -0.176389,0 -0.327055,0.0698 -0.150665,0.0661 -0.260908,0.18374 -0.106569,0.11759 -0.16904,0.27561 -0.06247,0.15434 -0.06247,0.32705 0,0.17272 0.06247,0.32706 0.06247,0.15434 0.172714,0.27193 0.110243,0.11392 0.260909,0.18374 0.150665,0.0661 0.327054,0.0661 0.165365,0 0.305006,-0.0551 0.139641,-0.0588 0.257234,-0.15434 0.02205,-0.0184 0.04777,-0.0184 0.02572,0 0.0441,0.0184 l 0.227836,0.23519 q 0.02205,0.0184 0.01837,0.0514 -0.0037,0.0294 -0.02205,0.0478 -0.187413,0.18374 -0.418924,0.27194 -0.227835,0.0845 -0.474045,0.0845 -0.275607,0 -0.518142,-0.1029 -0.242535,-0.10289 -0.422598,-0.27928 -0.176389,-0.18006 -0.282958,-0.41892 -0.102893,-0.24254 -0.102893,-0.51814 z"
         style="font-style:normal;font-variant:normal;font-weight:normal;font-stretch:normal;font-family:'iCiel Brandon Text';-inkscape-font-specification:'iCiel Brandon Text';fill:#fffcfc;fill-opacity:1;stroke-width:0.09186922"
         id="path2456" />
      <path
         d="m 62.356526,166.13099 h -0.56224 q -0.0294,0 -0.05145,-0.0184 -0.01837,-0.022 -0.01837,-0.0514 v -0.30133 q 0,-0.0294 0.01837,-0.0478 0.02205,-0.0221 0.05145,-0.0221 h 1.605874 q 0.0294,0 0.04777,0.0221 0.02205,0.0184 0.02205,0.0478 v 0.30133 q 0,0.0294 -0.02205,0.0514 -0.01837,0.0184 -0.04777,0.0184 h -0.56224 v 2.06155 q 0,0.0294 -0.02205,0.0514 -0.01837,0.0184 -0.04777,0.0184 h -0.341754 q -0.0294,0 -0.05145,-0.0184 -0.01837,-0.0221 -0.01837,-0.0514 z"
         style="font-style:normal;font-variant:normal;font-weight:normal;font-stretch:normal;font-family:'iCiel Brandon Text';-inkscape-font-specification:'iCiel Brandon Text';fill:#fffcfc;fill-opacity:1;stroke-width:0.09186922"
         id="path2458" />
    </g>
  </g>
</svg>
