<?xml version="1.0" encoding="UTF-8" standalone="no"?>
<svg
   xmlns:dc="http://purl.org/dc/elements/1.1/"
   xmlns:cc="http://creativecommons.org/ns#"
   xmlns:rdf="http://www.w3.org/1999/02/22-rdf-syntax-ns#"
   xmlns:svg="http://www.w3.org/2000/svg"
   xmlns="http://www.w3.org/2000/svg"
   xmlns:sodipodi="http://sodipodi.sourceforge.net/DTD/sodipodi-0.dtd"
   xmlns:inkscape="http://www.inkscape.org/namespaces/inkscape"
   id="svg29587"
   version="1.1"
   viewBox="0 0 87.312499 10.583334"
   height="40"
   width="330"
   sodipodi:docname="panel.svg"
   inkscape:version="0.92.3 (2405546, 2018-03-11)">
  <sodipodi:namedview
     pagecolor="#ffffff"
     bordercolor="#666666"
     borderopacity="1"
     objecttolerance="10"
     gridtolerance="10"
     guidetolerance="10"
     inkscape:pageopacity="0"
     inkscape:pageshadow="2"
     inkscape:window-width="1366"
     inkscape:window-height="745"
     id="namedview30799"
     showgrid="false"
     inkscape:pagecheckerboard="true"
     fit-margin-top="0"
     fit-margin-left="0"
     fit-margin-right="0"
     fit-margin-bottom="0"
     inkscape:zoom="1.7961078"
     inkscape:cx="108.73725"
     inkscape:cy="35.109294"
     inkscape:window-x="-8"
     inkscape:window-y="-8"
     inkscape:window-maximized="1"
     inkscape:current-layer="svg29587" />
  <defs
     id="defs29581" />
  <metadata
     id="metadata29584">
    <rdf:RDF>
      <cc:Work
         rdf:about="">
        <dc:format>image/svg+xml</dc:format>
        <dc:type
           rdf:resource="http://purl.org/dc/dcmitype/StillImage" />
        <dc:title></dc:title>
      </cc:Work>
    </rdf:RDF>
  </metadata>
  <path
     style="opacity:1;fill:#000000;fill-opacity:1;stroke-width:0.98990053;stroke-miterlimit:4;stroke-dasharray:none"
     d="M 2.0133139,0 C 0.76061985,1.4024301 0,3.2545867 0,5.2916668 0,7.3287469 0.76061985,9.1809035 2.0133139,10.583334 H 37.752735 A 7.9374999,7.9374999 0 0 1 35.718751,5.2916668 7.9374999,7.9374999 0 0 1 37.751185,0 Z M 49.559767,0 a 7.9374999,7.9374999 0 0 1 2.033984,5.2916668 7.9374999,7.9374999 0 0 1 -2.032434,5.2916672 h 35.73787 C 86.551889,9.1809035 87.312502,7.3287469 87.312502,5.2916668 87.312502,3.2545867 86.551889,1.4024301 85.299187,0 Z"
     id="rect58844-7"
     inkscape:connector-curvature="0" />
</svg>
