<?xml version="1.0" encoding="UTF-8" standalone="no"?>
<!-- Created with Inkscape (http://www.inkscape.org/) -->

<svg
   xmlns:dc="http://purl.org/dc/elements/1.1/"
   xmlns:cc="http://creativecommons.org/ns#"
   xmlns:rdf="http://www.w3.org/1999/02/22-rdf-syntax-ns#"
   xmlns:svg="http://www.w3.org/2000/svg"
   xmlns="http://www.w3.org/2000/svg"
   xmlns:sodipodi="http://sodipodi.sourceforge.net/DTD/sodipodi-0.dtd"
   xmlns:inkscape="http://www.inkscape.org/namespaces/inkscape"
   width="12.715216mm"
   height="2.6458333mm"
   viewBox="0 0 12.715216 2.6458333"
   version="1.1"
   id="svg29595"
   inkscape:version="0.92.3 (2405546, 2018-03-11)"
   sodipodi:docname="panel-design.svg">
  <defs
     id="defs29589" />
  <sodipodi:namedview
     id="base"
     pagecolor="#ffffff"
     bordercolor="#666666"
     borderopacity="1.0"
     inkscape:pageopacity="0.0"
     inkscape:pageshadow="2"
     inkscape:zoom="1.979899"
     inkscape:cx="26.195404"
     inkscape:cy="-19.290596"
     inkscape:document-units="mm"
     inkscape:current-layer="layer1"
     showgrid="false"
     inkscape:pagecheckerboard="true"
     fit-margin-top="0"
     fit-margin-left="0"
     fit-margin-right="0"
     fit-margin-bottom="0"
     inkscape:window-width="1366"
     inkscape:window-height="745"
     inkscape:window-x="-8"
     inkscape:window-y="-8"
     inkscape:window-maximized="1" />
  <metadata
     id="metadata29592">
    <rdf:RDF>
      <cc:Work
         rdf:about="">
        <dc:format>image/svg+xml</dc:format>
        <dc:type
           rdf:resource="http://purl.org/dc/dcmitype/StillImage" />
        <dc:title />
      </cc:Work>
    </rdf:RDF>
  </metadata>
  <g
     inkscape:label="Layer 1"
     inkscape:groupmode="layer"
     id="layer1"
     transform="translate(2.6734144,-165.65327)">
    <g
       aria-label="DESIGN"
       style="font-style:normal;font-variant:normal;font-weight:normal;font-stretch:normal;font-size:3.67476845px;line-height:1.25;font-family:'iCiel Brandon Text';-inkscape-font-specification:'iCiel Brandon Text';letter-spacing:0px;word-spacing:0px;opacity:1;fill:#ffffff;fill-opacity:1;stroke:none;stroke-width:0.09186921"
       id="text113421-6-3">
      <path
         d="m -2.6734144,165.75984 q 0,-0.0294 0.018374,-0.0478 0.018374,-0.0221 0.047772,-0.0221 h 0.8709201 q 0.2645834,0 0.4997685,0.1029 0.2351852,0.0992 0.4115741,0.2756 0.17638888,0.17272 0.27560763,0.4079 0.10289352,0.23151 0.10289352,0.4961 0,0.26825 -0.10289352,0.50344 -0.0992188,0.23518 -0.27560763,0.41157 -0.1763889,0.17272 -0.4115741,0.27561 -0.2351851,0.0992 -0.4997685,0.0992 h -0.8709201 q -0.029398,0 -0.047772,-0.0184 -0.018374,-0.0221 -0.018374,-0.0514 z m 0.8929687,2.0542 q 0.1800637,0 0.3307292,-0.0588 0.1506655,-0.0625 0.2609085,-0.17271 0.1102431,-0.11025 0.1727141,-0.26459 0.0624711,-0.15801 0.0624711,-0.34542 0,-0.18742 -0.0624711,-0.34176 -0.062471,-0.15434 -0.1727141,-0.26458 -0.110243,-0.11024 -0.2609085,-0.16904 -0.1506655,-0.0625 -0.3307292,-0.0625 h -0.4189236 v 1.67937 z"
         style="font-style:normal;font-variant:normal;font-weight:normal;font-stretch:normal;font-family:'iCiel Brandon Text';-inkscape-font-specification:'iCiel Brandon Text';fill:#ffffff;fill-opacity:1;stroke-width:0.09186921"
         id="path3018" />
      <path
         d="m 0.02524356,165.75984 q 0,-0.0294 0.01837384,-0.0478 0.02204861,-0.0221 0.05144676,-0.0221 H 1.5906949 q 0.029398,0 0.047772,0.0221 0.022049,0.0184 0.022049,0.0478 v 0.30133 q 0,0.0294 -0.022049,0.0514 -0.018374,0.0184 -0.047772,0.0184 H 0.50296346 v 0.60267 H 1.4106313 q 0.029398,0 0.047772,0.022 0.022049,0.0184 0.022049,0.0478 v 0.305 q 0,0.0294 -0.022049,0.0515 -0.018374,0.0184 -0.047772,0.0184 H 0.50296346 v 0.64309 H 1.5906949 q 0.029398,0 0.047772,0.022 0.022049,0.0184 0.022049,0.0478 v 0.30133 q 0,0.0294 -0.022049,0.0514 -0.018374,0.0184 -0.047772,0.0184 H 0.09506416 q -0.02939815,0 -0.05144676,-0.0184 -0.01837384,-0.0221 -0.01837384,-0.0514 z"
         style="font-style:normal;font-variant:normal;font-weight:normal;font-stretch:normal;font-family:'iCiel Brandon Text';-inkscape-font-specification:'iCiel Brandon Text';fill:#ffffff;fill-opacity:1;stroke-width:0.09186921"
         id="path3020" />
      <path
         d="m 2.8228904,168.29911 q -0.1727141,0 -0.3086805,-0.0331 -0.1322917,-0.0294 -0.2315105,-0.0735 -0.095544,-0.0478 -0.1616898,-0.0955 -0.066146,-0.0515 -0.1065683,-0.0845 -0.029398,-0.0221 -0.036748,-0.0441 -0.00735,-0.0221 0.018374,-0.0661 l 0.1322917,-0.22783 q 0.022049,-0.0404 0.058796,-0.0404 0.040422,-0.004 0.066146,0.0147 0.1139178,0.0845 0.2425347,0.15802 0.1322917,0.0698 0.3123553,0.0698 0.143316,0 0.23886,-0.0808 0.095544,-0.0845 0.095544,-0.20211 0,-0.13964 -0.1175926,-0.24253 -0.1175926,-0.1029 -0.349103,-0.19844 -0.1286169,-0.0514 -0.2535591,-0.12127 -0.1249421,-0.0698 -0.2241608,-0.16536 -0.095544,-0.0956 -0.1543403,-0.22049 -0.058796,-0.12494 -0.058796,-0.28663 0,-0.12127 0.047772,-0.24621 0.047772,-0.12862 0.1469907,-0.22784 0.099219,-0.10289 0.253559,-0.16536 0.1580151,-0.0662 0.3785012,-0.0662 0.1396412,0 0.2609086,0.0331 0.1249421,0.0294 0.2204861,0.0698 0.095544,0.0404 0.158015,0.0808 0.066146,0.0404 0.095544,0.0625 0.029398,0.0184 0.033073,0.0551 0.00735,0.0367 -0.011024,0.0661 l -0.1396412,0.20946 q -0.022049,0.0331 -0.058796,0.0514 -0.036748,0.0147 -0.069821,-0.007 -0.1175926,-0.0735 -0.23886,-0.13597 -0.1175925,-0.0661 -0.2719328,-0.0661 -0.1580151,0 -0.2425347,0.0772 -0.080845,0.0735 -0.080845,0.18006 0,0.12862 0.1028935,0.22416 0.1065683,0.0955 0.3307291,0.18742 0.1322917,0.0551 0.2682581,0.12494 0.1396412,0.0698 0.2498843,0.16904 0.110243,0.0955 0.1800636,0.22783 0.069821,0.13229 0.069821,0.30868 0,0.14332 -0.058796,0.27561 -0.058796,0.12862 -0.1690393,0.23151 -0.1102431,0.0992 -0.2682581,0.16169 -0.1543403,0.0588 -0.349103,0.0588 z"
         style="font-style:normal;font-variant:normal;font-weight:normal;font-stretch:normal;font-family:'iCiel Brandon Text';-inkscape-font-specification:'iCiel Brandon Text';fill:#ffffff;fill-opacity:1;stroke-width:0.09186921"
         id="path3022" />
      <path
         d="m 4.1234715,165.75984 q 0,-0.0294 0.018374,-0.0478 0.022049,-0.0221 0.051447,-0.0221 h 0.3417535 q 0.029398,0 0.047772,0.0221 0.022049,0.0184 0.022049,0.0478 v 2.4327 q 0,0.0294 -0.022049,0.0514 -0.018374,0.0184 -0.047772,0.0184 H 4.1932921 q -0.029398,0 -0.051447,-0.0184 -0.018374,-0.0221 -0.018374,-0.0514 z"
         style="font-style:normal;font-variant:normal;font-weight:normal;font-stretch:normal;font-family:'iCiel Brandon Text';-inkscape-font-specification:'iCiel Brandon Text';fill:#ffffff;fill-opacity:1;stroke-width:0.09186921"
         id="path3024" />
      <path
         d="m 5.0781074,166.97987 q 0,-0.27561 0.1028935,-0.51815 0.1028935,-0.24253 0.2829572,-0.41892 0.1800637,-0.18006 0.4189236,-0.28296 0.2388599,-0.10657 0.5144676,-0.10657 0.2498842,0 0.4777199,0.0919 0.2315104,0.0882 0.4189236,0.24989 0.022049,0.022 0.022049,0.0514 0.00367,0.0294 -0.018374,0.0514 l -0.2278357,0.23886 q -0.044097,0.0441 -0.095544,0 -0.2425347,-0.21314 -0.55489,-0.21314 -0.1727141,0 -0.3233796,0.0698 -0.1506655,0.0662 -0.2609086,0.18374 -0.110243,0.1176 -0.1763889,0.27194 -0.062471,0.15434 -0.062471,0.32705 0,0.17271 0.062471,0.32706 0.066146,0.15066 0.1763889,0.26458 0.1139178,0.11392 0.2645833,0.18374 0.1506655,0.0661 0.3233797,0.0661 0.1543402,0 0.2682581,-0.0331 0.1139178,-0.0367 0.1690393,-0.0588 v -0.31235 H 6.5663886 q -0.029398,0 -0.051447,-0.0184 -0.018374,-0.0184 -0.018374,-0.0478 v -0.2903 q 0,-0.0698 0.069821,-0.0698 h 0.7055556 q 0.029398,0 0.047772,0.0221 0.018374,0.0184 0.018374,0.0478 v 0.94074 q 0,0.0367 -0.029398,0.0588 -0.1139179,0.0698 -0.2572338,0.12127 -0.1212674,0.0441 -0.2903067,0.0808 -0.1653646,0.0368 -0.3638021,0.0368 -0.2756077,0 -0.5144676,-0.10289 -0.2388599,-0.10289 -0.4189236,-0.27928 -0.1800637,-0.17639 -0.2829572,-0.41525 -0.1028935,-0.24254 -0.1028935,-0.51814 z"
         style="font-style:normal;font-variant:normal;font-weight:normal;font-stretch:normal;font-family:'iCiel Brandon Text';-inkscape-font-specification:'iCiel Brandon Text';fill:#ffffff;fill-opacity:1;stroke-width:0.09186921"
         id="path3026" />
      <path
         d="m 7.870013,165.71942 q 0,-0.0294 0.018374,-0.0478 0.022049,-0.0184 0.051447,-0.0184 h 0.055122 q 0.036748,0 0.062471,0.0257 l 1.4993056,1.59852 h 0.00735 v -1.51768 q 0,-0.0294 0.018374,-0.0478 0.022049,-0.0221 0.051447,-0.0221 h 0.3380787 q 0.029398,0 0.047772,0.0221 0.02205,0.0184 0.02205,0.0478 v 2.47312 q 0,0.0294 -0.02205,0.0478 -0.01837,0.0184 -0.047772,0.0184 h -0.051447 q -0.036748,0 -0.062471,-0.0257 l -1.5066551,-1.66099 h -0.00735 v 1.58015 q 0,0.0294 -0.022049,0.0514 -0.018374,0.0184 -0.047772,0.0184 h -0.334404 q -0.029398,0 -0.051447,-0.0184 -0.018374,-0.0221 -0.018374,-0.0514 z"
         style="font-style:normal;font-variant:normal;font-weight:normal;font-stretch:normal;font-family:'iCiel Brandon Text';-inkscape-font-specification:'iCiel Brandon Text';fill:#ffffff;fill-opacity:1;stroke-width:0.09186921"
         id="path3028" />
    </g>
  </g>
</svg>
