<?xml version="1.0" encoding="UTF-8" standalone="no"?>
<!-- Created with Inkscape (http://www.inkscape.org/) -->

<svg
   xmlns:dc="http://purl.org/dc/elements/1.1/"
   xmlns:cc="http://creativecommons.org/ns#"
   xmlns:rdf="http://www.w3.org/1999/02/22-rdf-syntax-ns#"
   xmlns:svg="http://www.w3.org/2000/svg"
   xmlns="http://www.w3.org/2000/svg"
   xmlns:sodipodi="http://sodipodi.sourceforge.net/DTD/sodipodi-0.dtd"
   xmlns:inkscape="http://www.inkscape.org/namespaces/inkscape"
   width="11.156057mm"
   height="2.6458333mm"
   viewBox="0 0 11.156057 2.6458333"
   version="1.1"
   id="svg29595"
   sodipodi:docname="panel-music.svg"
   inkscape:version="0.92.3 (2405546, 2018-03-11)">
  <defs
     id="defs29589" />
  <sodipodi:namedview
     id="base"
     pagecolor="#ffffff"
     bordercolor="#666666"
     borderopacity="1.0"
     inkscape:pageopacity="0.0"
     inkscape:pageshadow="2"
     inkscape:zoom="1.979899"
     inkscape:cx="-53.127049"
     inkscape:cy="-44.290594"
     inkscape:document-units="mm"
     inkscape:current-layer="layer1"
     showgrid="false"
     inkscape:pagecheckerboard="true"
     fit-margin-top="0"
     fit-margin-left="0"
     fit-margin-right="0"
     fit-margin-bottom="0"
     inkscape:window-width="1366"
     inkscape:window-height="745"
     inkscape:window-x="-8"
     inkscape:window-y="-8"
     inkscape:window-maximized="1" />
  <metadata
     id="metadata29592">
    <rdf:RDF>
      <cc:Work
         rdf:about="">
        <dc:format>image/svg+xml</dc:format>
        <dc:type
           rdf:resource="http://purl.org/dc/dcmitype/StillImage" />
        <dc:title />
      </cc:Work>
    </rdf:RDF>
  </metadata>
  <g
     inkscape:label="Layer 1"
     inkscape:groupmode="layer"
     id="layer1"
     transform="translate(-13.616865,-165.65327)">
    <g
       aria-label="MUSIC"
       style="font-style:normal;font-variant:normal;font-weight:normal;font-stretch:normal;font-size:3.67476845px;line-height:1.25;font-family:'iCiel Brandon Text';-inkscape-font-specification:'iCiel Brandon Text';letter-spacing:0px;word-spacing:0px;opacity:1;fill:#ffffff;fill-opacity:1;stroke:none;stroke-width:0.09186921"
       id="text113433-2-8">
      <path
         d="m 14.055485,165.7084 q 0.0037,-0.0221 0.01837,-0.0368 0.01837,-0.0184 0.04777,-0.0184 h 0.0588 q 0.0441,0 0.06247,0.0368 l 0.808449,1.73449 h 0.01103 l 0.808449,-1.73449 q 0.01837,-0.0368 0.06247,-0.0368 h 0.0588 q 0.0294,0 0.0441,0.0184 0.01837,0.0147 0.02205,0.0368 l 0.433623,2.46944 q 0.0073,0.0404 -0.01103,0.0625 -0.01837,0.0221 -0.05512,0.0221 h -0.334404 q -0.02572,0 -0.0441,-0.0184 -0.01837,-0.0184 -0.02572,-0.0367 l -0.216811,-1.39274 h -0.01102 l -0.643085,1.44418 q -0.0147,0.0404 -0.06247,0.0404 h -0.06615 q -0.0441,0 -0.06247,-0.0404 l -0.650434,-1.44418 h -0.01102 l -0.213137,1.39274 q -0.0037,0.0184 -0.02205,0.0367 -0.01837,0.0184 -0.0441,0.0184 h -0.33073 q -0.08085,0 -0.06982,-0.0845 z"
         style="font-style:normal;font-variant:normal;font-weight:normal;font-stretch:normal;font-family:'iCiel Brandon Text';-inkscape-font-specification:'iCiel Brandon Text';fill:#ffffff;fill-opacity:1;stroke-width:0.09186921"
         id="path3588" />
      <path
         d="m 16.925996,165.75984 q 0,-0.0294 0.01837,-0.0478 0.02205,-0.0221 0.05145,-0.0221 h 0.349103 q 0.0294,0 0.04777,0.0221 0.02205,0.0184 0.02205,0.0478 v 1.53238 q 0,0.23519 0.143316,0.38218 0.146991,0.14699 0.389526,0.14699 0.121267,0 0.216811,-0.0368 0.09922,-0.0404 0.169039,-0.11024 0.0735,-0.0698 0.110244,-0.16537 0.04042,-0.0955 0.04042,-0.21313 v -1.53606 q 0,-0.0294 0.01837,-0.0478 0.02205,-0.0221 0.05145,-0.0221 h 0.349103 q 0.0294,0 0.04777,0.0221 0.02205,0.0184 0.02205,0.0478 v 1.5581 q 0,0.20947 -0.08085,0.38953 -0.07717,0.18006 -0.216811,0.31235 -0.135966,0.12862 -0.32338,0.20579 -0.187413,0.0735 -0.404224,0.0735 -0.216812,0 -0.404225,-0.0735 -0.183738,-0.0772 -0.323379,-0.20579 -0.135967,-0.13229 -0.216812,-0.31235 -0.07717,-0.18006 -0.07717,-0.38953 z"
         style="font-style:normal;font-variant:normal;font-weight:normal;font-stretch:normal;font-family:'iCiel Brandon Text';-inkscape-font-specification:'iCiel Brandon Text';fill:#ffffff;fill-opacity:1;stroke-width:0.09186921"
         id="path3590" />
      <path
         d="m 20.273308,168.29911 q -0.172714,0 -0.30868,-0.0331 -0.132292,-0.0294 -0.231511,-0.0735 -0.09554,-0.0478 -0.161689,-0.0955 -0.06615,-0.0515 -0.106569,-0.0845 -0.0294,-0.0221 -0.03675,-0.0441 -0.0073,-0.0221 0.01837,-0.0661 l 0.132292,-0.22783 q 0.02205,-0.0404 0.0588,-0.0404 0.04042,-0.004 0.06615,0.0147 0.113918,0.0845 0.242535,0.15802 0.132292,0.0698 0.312355,0.0698 0.143316,0 0.23886,-0.0808 0.09554,-0.0845 0.09554,-0.20211 0,-0.13964 -0.117592,-0.24253 -0.117593,-0.1029 -0.349103,-0.19844 -0.128617,-0.0514 -0.253559,-0.12127 -0.124942,-0.0698 -0.224161,-0.16536 -0.09554,-0.0956 -0.154341,-0.22049 -0.0588,-0.12494 -0.0588,-0.28663 0,-0.12127 0.04777,-0.24621 0.04777,-0.12862 0.146991,-0.22784 0.09922,-0.10289 0.253559,-0.16536 0.158015,-0.0662 0.378501,-0.0662 0.139641,0 0.260909,0.0331 0.124942,0.0294 0.220486,0.0698 0.09554,0.0404 0.158015,0.0808 0.06615,0.0404 0.09554,0.0625 0.0294,0.0184 0.03307,0.0551 0.0073,0.0367 -0.01103,0.0661 l -0.139641,0.20946 q -0.02205,0.0331 -0.0588,0.0514 -0.03675,0.0147 -0.06982,-0.007 -0.117592,-0.0735 -0.23886,-0.13597 -0.117592,-0.0661 -0.271933,-0.0661 -0.158015,0 -0.242534,0.0772 -0.08085,0.0735 -0.08085,0.18006 0,0.12862 0.102893,0.22416 0.106569,0.0955 0.33073,0.18742 0.132291,0.0551 0.268258,0.12494 0.139641,0.0698 0.249884,0.16904 0.110243,0.0955 0.180064,0.22783 0.06982,0.13229 0.06982,0.30868 0,0.14332 -0.0588,0.27561 -0.0588,0.12862 -0.16904,0.23151 -0.110243,0.0992 -0.268258,0.16169 -0.15434,0.0588 -0.349103,0.0588 z"
         style="font-style:normal;font-variant:normal;font-weight:normal;font-stretch:normal;font-family:'iCiel Brandon Text';-inkscape-font-specification:'iCiel Brandon Text';fill:#ffffff;fill-opacity:1;stroke-width:0.09186921"
         id="path3592" />
      <path
         d="m 21.573889,165.75984 q 0,-0.0294 0.01837,-0.0478 0.02205,-0.0221 0.05145,-0.0221 h 0.341753 q 0.0294,0 0.04777,0.0221 0.02205,0.0184 0.02205,0.0478 v 2.4327 q 0,0.0294 -0.02205,0.0514 -0.01837,0.0184 -0.04777,0.0184 H 21.64371 q -0.0294,0 -0.05145,-0.0184 -0.01837,-0.0221 -0.01837,-0.0514 z"
         style="font-style:normal;font-variant:normal;font-weight:normal;font-stretch:normal;font-family:'iCiel Brandon Text';-inkscape-font-specification:'iCiel Brandon Text';fill:#ffffff;fill-opacity:1;stroke-width:0.09186921"
         id="path3594" />
      <path
         d="m 22.528525,166.97987 q 0,-0.27561 0.102894,-0.51815 0.106568,-0.24253 0.282957,-0.41892 0.180064,-0.18006 0.422598,-0.28296 0.242535,-0.10657 0.518143,-0.10657 0.279282,0 0.488744,0.0882 0.213137,0.0845 0.40055,0.25356 0.05512,0.0514 0.0037,0.10289 l -0.224161,0.23151 q -0.0441,0.0478 -0.09187,0 -0.117592,-0.10289 -0.264583,-0.15801 -0.146991,-0.0588 -0.301331,-0.0588 -0.176389,0 -0.327054,0.0698 -0.150666,0.0661 -0.260909,0.18374 -0.106568,0.11759 -0.169039,0.27561 -0.06247,0.15434 -0.06247,0.32705 0,0.17272 0.06247,0.32706 0.06247,0.15434 0.172714,0.27193 0.110243,0.11392 0.260908,0.18374 0.150666,0.0661 0.327055,0.0661 0.165364,0 0.305006,-0.0551 0.139641,-0.0588 0.257233,-0.15434 0.02205,-0.0184 0.04777,-0.0184 0.02572,0 0.0441,0.0184 l 0.227835,0.23519 q 0.02205,0.0184 0.01837,0.0514 -0.0037,0.0294 -0.02205,0.0478 -0.187414,0.18374 -0.418924,0.27194 -0.227836,0.0845 -0.474045,0.0845 -0.275608,0 -0.518143,-0.1029 -0.242534,-0.10289 -0.422598,-0.27928 -0.176389,-0.18006 -0.282957,-0.41892 -0.102894,-0.24254 -0.102894,-0.51814 z"
         style="font-style:normal;font-variant:normal;font-weight:normal;font-stretch:normal;font-family:'iCiel Brandon Text';-inkscape-font-specification:'iCiel Brandon Text';fill:#ffffff;fill-opacity:1;stroke-width:0.09186921"
         id="path3596" />
    </g>
  </g>
</svg>
