<?xml version="1.0" encoding="UTF-8" standalone="no"?>
<!-- Created with Inkscape (http://www.inkscape.org/) -->

<svg
   xmlns:dc="http://purl.org/dc/elements/1.1/"
   xmlns:cc="http://creativecommons.org/ns#"
   xmlns:rdf="http://www.w3.org/1999/02/22-rdf-syntax-ns#"
   xmlns:svg="http://www.w3.org/2000/svg"
   xmlns="http://www.w3.org/2000/svg"
   xmlns:sodipodi="http://sodipodi.sourceforge.net/DTD/sodipodi-0.dtd"
   xmlns:inkscape="http://www.inkscape.org/namespaces/inkscape"
   width="9.1286983mm"
   height="2.6458333mm"
   viewBox="0 0 9.1286983 2.6458333"
   version="1.1"
   id="svg29595"
   sodipodi:docname="panel-blog.svg"
   inkscape:version="0.92.3 (2405546, 2018-03-11)">
  <defs
     id="defs29589" />
  <sodipodi:namedview
     id="base"
     pagecolor="#ffffff"
     bordercolor="#666666"
     borderopacity="1.0"
     inkscape:pageopacity="0.0"
     inkscape:pageshadow="2"
     inkscape:zoom="1.979899"
     inkscape:cx="-122.71875"
     inkscape:cy="-94.290589"
     inkscape:document-units="mm"
     inkscape:current-layer="layer1"
     showgrid="false"
     inkscape:pagecheckerboard="true"
     fit-margin-top="0"
     fit-margin-left="0"
     fit-margin-right="0"
     fit-margin-bottom="0"
     inkscape:window-width="1366"
     inkscape:window-height="745"
     inkscape:window-x="-8"
     inkscape:window-y="-8"
     inkscape:window-maximized="1" />
  <metadata
     id="metadata29592">
    <rdf:RDF>
      <cc:Work
         rdf:about="">
        <dc:format>image/svg+xml</dc:format>
        <dc:type
           rdf:resource="http://purl.org/dc/dcmitype/StillImage" />
        <dc:title />
      </cc:Work>
    </rdf:RDF>
  </metadata>
  <g
     inkscape:label="Layer 1"
     inkscape:groupmode="layer"
     id="layer1"
     transform="translate(-66.115929,-165.65327)">
    <g
       aria-label="BLOG"
       style="font-style:normal;font-variant:normal;font-weight:normal;font-stretch:normal;font-size:3.67476845px;line-height:1.25;font-family:'iCiel Brandon Text';-inkscape-font-specification:'iCiel Brandon Text';letter-spacing:0px;word-spacing:0px;opacity:1;fill:#ffffff;fill-opacity:1;stroke:none;stroke-width:0.09186922"
       id="text113429-0-5">
      <path
         d="m 67.435171,166.96149 q 0.08084,0.0294 0.158015,0.0772 0.08084,0.0441 0.143316,0.11759 0.06247,0.0698 0.09922,0.16904 0.04042,0.0992 0.04042,0.22784 0,0.15434 -0.06247,0.28663 -0.06247,0.12862 -0.172714,0.22416 -0.106568,0.0919 -0.253559,0.14699 -0.143316,0.0514 -0.312356,0.0514 H 66.18575 q -0.0294,0 -0.05145,-0.0184 -0.01837,-0.0221 -0.01837,-0.0514 v -2.4327 q 0,-0.0294 0.01837,-0.0478 0.02205,-0.0221 0.05145,-0.0221 h 0.841522 q 0.165364,0 0.305005,0.0514 0.143316,0.0515 0.24621,0.14331 0.106568,0.0919 0.165364,0.21682 0.0588,0.12494 0.0588,0.26825 0,0.20947 -0.113918,0.35646 -0.110243,0.14331 -0.253559,0.21681 z m -0.444647,-0.19109 q 0.139641,0 0.224161,-0.0955 0.08452,-0.0955 0.08452,-0.23519 0,-0.13964 -0.08452,-0.22416 -0.08452,-0.0882 -0.224161,-0.0882 h -0.40055 v 0.64308 z m 0.05145,1.05834 q 0.139641,0 0.23151,-0.0956 0.09187,-0.0955 0.09187,-0.23886 0,-0.13964 -0.09187,-0.22783 -0.09187,-0.0919 -0.23151,-0.0919 h -0.451997 v 0.65411 z"
         style="font-style:normal;font-variant:normal;font-weight:normal;font-stretch:normal;font-family:'iCiel Brandon Text';-inkscape-font-specification:'iCiel Brandon Text';fill:#ffffff;fill-opacity:1;stroke-width:0.09186922"
         id="path1880" />
      <path
         d="m 68.376773,165.75984 q 0,-0.0294 0.01837,-0.0478 0.02205,-0.0221 0.05145,-0.0221 h 0.338079 q 0.0294,0 0.04777,0.0221 0.02205,0.0184 0.02205,0.0478 v 2.06155 h 0.937066 q 0.0294,0 0.04777,0.022 0.02205,0.0184 0.02205,0.0478 v 0.30133 q 0,0.0294 -0.02205,0.0514 -0.01837,0.0184 -0.04777,0.0184 h -1.344966 q -0.0294,0 -0.05145,-0.0184 -0.01837,-0.0221 -0.01837,-0.0514 z"
         style="font-style:normal;font-variant:normal;font-weight:normal;font-stretch:normal;font-family:'iCiel Brandon Text';-inkscape-font-specification:'iCiel Brandon Text';fill:#ffffff;fill-opacity:1;stroke-width:0.09186922"
         id="path1882" />
      <path
         d="m 70.020428,166.97987 q 0,-0.27561 0.102893,-0.51815 0.102894,-0.24253 0.279283,-0.41892 0.180063,-0.18006 0.418923,-0.28296 0.242535,-0.10657 0.518143,-0.10657 0.275607,0 0.514467,0.10657 0.242535,0.1029 0.422599,0.28296 0.180063,0.17639 0.282957,0.41892 0.102893,0.24254 0.102893,0.51815 0,0.2756 -0.102893,0.51814 -0.102894,0.23886 -0.282957,0.41892 -0.180064,0.17639 -0.422599,0.27928 -0.23886,0.1029 -0.514467,0.1029 -0.275608,0 -0.518143,-0.1029 -0.23886,-0.10289 -0.418923,-0.27928 -0.176389,-0.18006 -0.279283,-0.41892 -0.102893,-0.24254 -0.102893,-0.51814 z m 0.47772,0 q 0,0.17271 0.06615,0.32705 0.06615,0.15434 0.180064,0.26826 0.113918,0.11392 0.268258,0.18006 0.154341,0.0662 0.327055,0.0662 0.172714,0 0.327054,-0.0662 0.15434,-0.0661 0.268258,-0.18006 0.117593,-0.11392 0.183739,-0.26826 0.06615,-0.15434 0.06615,-0.32705 0,-0.17272 -0.06615,-0.32706 -0.06615,-0.15434 -0.183739,-0.26826 -0.113918,-0.11759 -0.268258,-0.18374 -0.15434,-0.0698 -0.327054,-0.0698 -0.172714,0 -0.327055,0.0698 -0.15434,0.0662 -0.268258,0.18374 -0.113918,0.11392 -0.180064,0.26826 -0.06615,0.15434 -0.06615,0.32706 z"
         style="font-style:normal;font-variant:normal;font-weight:normal;font-stretch:normal;font-family:'iCiel Brandon Text';-inkscape-font-specification:'iCiel Brandon Text';fill:#ffffff;fill-opacity:1;stroke-width:0.09186922"
         id="path1884" />
      <path
         d="m 72.984645,166.97987 q 0,-0.27561 0.102893,-0.51815 0.102894,-0.24253 0.282958,-0.41892 0.180063,-0.18006 0.418923,-0.28296 0.23886,-0.10657 0.514468,-0.10657 0.249884,0 0.47772,0.0919 0.23151,0.0882 0.418923,0.24989 0.02205,0.022 0.02205,0.0514 0.0037,0.0294 -0.01837,0.0514 l -0.227836,0.23886 q -0.0441,0.0441 -0.09554,0 -0.242534,-0.21314 -0.55489,-0.21314 -0.172714,0 -0.323379,0.0698 -0.150666,0.0662 -0.260909,0.18374 -0.110243,0.1176 -0.176389,0.27194 -0.06247,0.15434 -0.06247,0.32705 0,0.17271 0.06247,0.32706 0.06615,0.15066 0.176389,0.26458 0.113918,0.11392 0.264584,0.18374 0.150665,0.0661 0.323379,0.0661 0.15434,0 0.268258,-0.0331 0.113918,-0.0367 0.16904,-0.0588 v -0.31235 h -0.293982 q -0.0294,0 -0.05145,-0.0184 -0.01837,-0.0184 -0.01837,-0.0478 v -0.2903 q 0,-0.0698 0.06982,-0.0698 h 0.705556 q 0.0294,0 0.04777,0.0221 0.01837,0.0184 0.01837,0.0478 v 0.94074 q 0,0.0367 -0.0294,0.0588 -0.113917,0.0698 -0.257233,0.12127 -0.121268,0.0441 -0.290307,0.0808 -0.165365,0.0368 -0.363802,0.0368 -0.275608,0 -0.514468,-0.10289 -0.23886,-0.10289 -0.418923,-0.27928 -0.180064,-0.17639 -0.282958,-0.41525 -0.102893,-0.24254 -0.102893,-0.51814 z"
         style="font-style:normal;font-variant:normal;font-weight:normal;font-stretch:normal;font-family:'iCiel Brandon Text';-inkscape-font-specification:'iCiel Brandon Text';fill:#ffffff;fill-opacity:1;stroke-width:0.09186922"
         id="path1886" />
    </g>
  </g>
</svg>
