<?xml version="1.0" encoding="UTF-8" standalone="no"?>
<!-- Created with Inkscape (http://www.inkscape.org/) -->

<svg
   xmlns:dc="http://purl.org/dc/elements/1.1/"
   xmlns:cc="http://creativecommons.org/ns#"
   xmlns:rdf="http://www.w3.org/1999/02/22-rdf-syntax-ns#"
   xmlns:svg="http://www.w3.org/2000/svg"
   xmlns="http://www.w3.org/2000/svg"
   xmlns:sodipodi="http://sodipodi.sourceforge.net/DTD/sodipodi-0.dtd"
   xmlns:inkscape="http://www.inkscape.org/namespaces/inkscape"
   width="40"
   height="40"
   viewBox="0 0 37.499998 37.499999"
   id="svg2"
   version="1.1"
   inkscape:version="0.92.3 (2405546, 2018-03-11)"
   sodipodi:docname="reddit.svg">
  <defs
     id="defs4" />
  <sodipodi:namedview
     id="base"
     pagecolor="#ffffff"
     bordercolor="#666666"
     borderopacity="1.0"
     inkscape:pageopacity="0.0"
     inkscape:pageshadow="2"
     inkscape:zoom="5.6"
     inkscape:cx="17.66813"
     inkscape:cy="16.142374"
     inkscape:document-units="px"
     inkscape:current-layer="layer3"
     showgrid="false"
     inkscape:snap-object-midpoints="false"
     inkscape:snap-others="true"
     inkscape:snap-to-guides="true"
     showguides="true"
     inkscape:snap-page="false"
     inkscape:snap-bbox="true"
     inkscape:bbox-paths="false"
     inkscape:bbox-nodes="false"
     inkscape:window-width="1366"
     inkscape:window-height="745"
     inkscape:window-x="-8"
     inkscape:window-y="-8"
     inkscape:window-maximized="1"
     fit-margin-top="0"
     fit-margin-left="0"
     fit-margin-right="0"
     fit-margin-bottom="0"
     units="px"
     inkscape:pagecheckerboard="true">
    <inkscape:grid
       type="xygrid"
       id="grid4193"
       originx="-283.46284"
       originy="-538.11441" />
  </sodipodi:namedview>
  <metadata
     id="metadata7">
    <rdf:RDF>
      <cc:Work
         rdf:about="">
        <dc:format>image/svg+xml</dc:format>
        <dc:type
           rdf:resource="http://purl.org/dc/dcmitype/StillImage" />
        <dc:title></dc:title>
      </cc:Work>
    </rdf:RDF>
  </metadata>
  <g
     inkscape:groupmode="layer"
     id="layer2"
     inkscape:label="Background"
     transform="translate(-0.4684983,-137.46073)"
     style="display:inline" />
  <g
     inkscape:groupmode="layer"
     id="layer3"
     inkscape:label="Reddit icon"
     style="display:inline"
     transform="translate(0,-137.62154)">
    <rect
       style="opacity:1;fill:#ffffff;fill-opacity:1;stroke:none;stroke-width:3.259341;stroke-linecap:round;stroke-linejoin:round;stroke-miterlimit:4;stroke-dasharray:none;stroke-opacity:1"
       id="rect855"
       width="37.5"
       height="37.5"
       x="-7.5000003e-007"
       y="137.62154" />
    <path
       style="display:inline;fill:#000000;fill-opacity:1;stroke-width:0.23851703"
       d="m 22.383037,168.50324 c 1.435851,-0.33676 2.475477,-0.69781 3.496447,-1.21421 3.177593,-1.60726 5.166951,-4.27547 5.166951,-6.93014 0,-0.80255 0.01724,-0.83992 0.686135,-1.4874 0.530896,-0.51391 0.738634,-0.84596 0.918175,-1.46764 0.213855,-0.7405 0.214544,-0.86363 0.0088,-1.57137 -0.577137,-1.98528 -2.641489,-2.87968 -4.489021,-1.94491 l -0.71407,0.36128 -0.735878,-0.45278 c -1.415186,-0.87077 -3.932207,-1.72361 -5.555143,-1.88223 -0.444686,-0.0435 -1.005297,-0.10855 -1.24581,-0.14473 l -0.437291,-0.0657 0.187788,-0.94002 c 0.103288,-0.51701 0.318497,-1.53737 0.478255,-2.26747 0.159756,-0.7301 0.35993,-1.72046 0.444827,-2.20078 0.122707,-0.69426 0.20642,-0.87333 0.408282,-0.87333 0.139659,0 1.138633,0.18864 2.219943,0.4192 1.081312,0.23055 1.988265,0.41919 2.015452,0.41919 0.02719,0 0.08817,0.20653 0.13553,0.45895 0.119807,0.63862 0.430919,1.03517 1.066528,1.35944 1.525444,0.77822 3.24242,-0.25868 3.24242,-1.95812 0,-2.10553 -2.596155,-3.02508 -3.915533,-1.38687 -0.25499,0.31661 -0.382918,0.37464 -0.628795,0.28523 -0.169775,-0.0617 -1.336163,-0.32252 -2.591981,-0.57952 -1.663217,-0.3404 -2.345459,-0.42809 -2.51218,-0.32293 -0.254547,0.16057 -0.22168,0.0419 -0.922977,3.33154 -0.834144,3.91279 -0.884534,4.1344 -0.956429,4.20629 -0.03801,0.038 -0.641208,0.12828 -1.340454,0.20063 -2.121407,0.21947 -4.452737,0.96851 -6.024446,1.93559 l -0.72673,0.44716 -0.7137132,-0.35566 c -1.8630438,-0.92839 -3.9308603,-0.0337 -4.5076721,1.95055 -0.2057418,0.70773 -0.2050516,0.83087 0.00884,1.57137 0.17954,0.62167 0.3872808,0.95372 0.9181752,1.46763 0.6688936,0.64748 0.6861349,0.68486 0.6861349,1.4874 0,3.6671 3.7689032,7.1667 8.8031312,8.17409 1.667782,0.33375 1.780944,0.34226 3.912502,0.29437 1.393059,-0.0313 2.397219,-0.13257 3.213841,-0.3241 z m -5.876787,-2.66311 c -1.15617,-0.26031 -2.463759,-0.84106 -2.846899,-1.26442 -0.305511,-0.33759 -0.174889,-0.84898 0.216848,-0.84898 0.152604,0 0.509924,0.15868 0.794045,0.35262 1.918504,1.3096 6.247799,1.30485 8.172697,-0.008 0.620012,-0.42318 1.127395,-0.41149 1.189939,0.0274 0.02943,0.20654 -0.102357,0.41201 -0.419351,0.65378 -1.539128,1.17396 -4.627181,1.64692 -7.107279,1.08855 z m -3.526142,-5.1922 c -0.719852,-0.39059 -1.075817,-1.01365 -1.076466,-1.88418 -6.92e-4,-0.99783 0.462776,-1.64353 1.404308,-1.95625 0.670086,-0.22258 0.750101,-0.22256 1.333211,1.3e-4 1.569214,0.59929 1.890339,2.557 0.591036,3.60319 -0.677215,0.54529 -1.520466,0.63407 -2.252089,0.23711 z m 9.752258,0.0644 c -0.667094,-0.34696 -1.04001,-0.76875 -1.197827,-1.35485 -0.291959,-1.08424 0.257677,-2.14253 1.324296,-2.54987 0.583109,-0.22269 0.663125,-0.2227 1.333213,-1.3e-4 0.941531,0.31272 1.405051,0.95842 1.404309,1.95625 -7.15e-4,0.88638 -0.363714,1.50441 -1.106288,1.88323 -0.667943,0.34077 -1.190797,0.36021 -1.757703,0.0653 z"
       id="path4245-1"
       inkscape:connector-curvature="0"
       sodipodi:nodetypes="csssssscssscsssssssssssssscsscsssssssscsssscsccssssssscsscsscc" />
  </g>
</svg>
