<?xml version="1.0" encoding="UTF-8" standalone="no"?>
<!-- Created with Inkscape (http://www.inkscape.org/) -->

<svg
   xmlns:dc="http://purl.org/dc/elements/1.1/"
   xmlns:cc="http://creativecommons.org/ns#"
   xmlns:rdf="http://www.w3.org/1999/02/22-rdf-syntax-ns#"
   xmlns:svg="http://www.w3.org/2000/svg"
   xmlns="http://www.w3.org/2000/svg"
   xmlns:sodipodi="http://sodipodi.sourceforge.net/DTD/sodipodi-0.dtd"
   xmlns:inkscape="http://www.inkscape.org/namespaces/inkscape"
   width="16.667957mm"
   height="5.2916665mm"
   viewBox="0 0 16.667957 5.2916665"
   version="1.1"
   id="svg5557"
   inkscape:version="0.92.3 (2405546, 2018-03-11)"
   sodipodi:docname="see-all.svg">
  <defs
     id="defs5551" />
  <sodipodi:namedview
     id="base"
     pagecolor="#ffffff"
     bordercolor="#666666"
     borderopacity="1.0"
     inkscape:pageopacity="0.0"
     inkscape:pageshadow="2"
     inkscape:zoom="7.9195959"
     inkscape:cx="44.488503"
     inkscape:cy="3.6673781"
     inkscape:document-units="mm"
     inkscape:current-layer="layer1"
     showgrid="false"
     fit-margin-top="0"
     fit-margin-left="0"
     fit-margin-right="0"
     fit-margin-bottom="0"
     inkscape:window-width="1920"
     inkscape:window-height="1058"
     inkscape:window-x="-8"
     inkscape:window-y="-8"
     inkscape:window-maximized="1" />
  <metadata
     id="metadata5554">
    <rdf:RDF>
      <cc:Work
         rdf:about="">
        <dc:format>image/svg+xml</dc:format>
        <dc:type
           rdf:resource="http://purl.org/dc/dcmitype/StillImage" />
        <dc:title></dc:title>
      </cc:Work>
    </rdf:RDF>
  </metadata>
  <g
     inkscape:label="Layer 1"
     inkscape:groupmode="layer"
     id="layer1"
     transform="translate(-83.892212,-171.13393)">
    <rect
       style="display:inline;opacity:1;fill:#000000;fill-opacity:1;stroke:none;stroke-width:0.24025957;stroke-opacity:1"
       id="rect2136"
       width="16.667957"
       height="5.2916665"
       x="83.892212"
       y="171.13393" />
    <g
       aria-label="SEE ALL"
       style="font-style:normal;font-variant:normal;font-weight:normal;font-stretch:normal;font-size:3.75828576px;line-height:1.25;font-family:Saira;-inkscape-font-specification:'Saira, Normal';font-variant-ligatures:normal;font-variant-caps:normal;font-variant-numeric:normal;font-feature-settings:normal;text-align:start;letter-spacing:0px;word-spacing:0px;writing-mode:lr-tb;text-anchor:start;display:inline;fill:#ffffff;fill-opacity:1;stroke:none;stroke-width:0.28187147"
       id="text1845">
      <path
         d="m 86.19974,175.10268 q -0.206705,0 -0.462269,-0.015 -0.251805,-0.015 -0.447236,-0.0376 v -0.29691 q 0.488577,0.0489 0.815548,0.0489 0.202948,0 0.319455,-0.015 0.120265,-0.0188 0.202947,-0.0639 0.07517,-0.0451 0.09771,-0.13154 0.02255,-0.0902 0.02255,-0.23678 0,-0.17664 -0.01879,-0.24804 -0.01879,-0.0752 -0.0902,-0.10899 -0.06765,-0.0338 -0.236772,-0.0489 l -0.638909,-0.0714 q -0.233013,-0.0263 -0.353279,-0.10899 -0.116506,-0.0864 -0.157848,-0.22174 -0.03758,-0.13905 -0.03758,-0.36079 0,-0.30818 0.105232,-0.46603 0.10899,-0.15785 0.300662,-0.21046 0.195431,-0.0526 0.522402,-0.0526 0.217981,0 0.443478,0.0188 0.225497,0.0188 0.357037,0.0451 v 0.28563 q -0.142815,-0.0225 -0.353279,-0.0338 -0.210464,-0.015 -0.390862,-0.015 -0.210464,0 -0.338245,0.0188 -0.127782,0.0188 -0.199189,0.0639 -0.07892,0.0451 -0.101474,0.12027 -0.02255,0.0752 -0.02255,0.21422 0,0.15409 0.02255,0.2255 0.02255,0.0676 0.08644,0.10147 0.06389,0.0301 0.210464,0.0451 l 0.631392,0.0714 q 0.225498,0.0226 0.349521,0.0789 0.124023,0.0564 0.180398,0.20295 0.05262,0.1353 0.05262,0.4322 0,0.34201 -0.105232,0.51113 -0.105232,0.16537 -0.281872,0.21422 -0.176639,0.0451 -0.484819,0.0451 z"
         style="font-style:normal;font-variant:normal;font-weight:normal;font-stretch:normal;font-size:3.75828576px;font-family:Saira;-inkscape-font-specification:'Saira, Normal';font-variant-ligatures:normal;font-variant-caps:normal;font-variant-numeric:normal;font-feature-settings:normal;text-align:start;writing-mode:lr-tb;text-anchor:start;fill:#ffffff;fill-opacity:1;stroke-width:0.28187147"
         id="path5569" />
      <path
         d="m 87.702702,175.07262 v -2.5857 h 1.683712 v 0.30066 h -1.360499 v 0.83058 h 1.180102 v 0.30066 h -1.180102 v 0.85313 h 1.360499 v 0.30067 z"
         style="font-style:normal;font-variant:normal;font-weight:normal;font-stretch:normal;font-size:3.75828576px;font-family:Saira;-inkscape-font-specification:'Saira, Normal';font-variant-ligatures:normal;font-variant-caps:normal;font-variant-numeric:normal;font-feature-settings:normal;text-align:start;writing-mode:lr-tb;text-anchor:start;fill:#ffffff;fill-opacity:1;stroke-width:0.28187147"
         id="path5571" />
      <path
         d="m 89.970887,175.07262 v -2.5857 h 1.683712 v 0.30066 h -1.3605 v 0.83058 h 1.180102 v 0.30066 h -1.180102 v 0.85313 h 1.3605 v 0.30067 z"
         style="font-style:normal;font-variant:normal;font-weight:normal;font-stretch:normal;font-size:3.75828576px;font-family:Saira;-inkscape-font-specification:'Saira, Normal';font-variant-ligatures:normal;font-variant-caps:normal;font-variant-numeric:normal;font-feature-settings:normal;text-align:start;writing-mode:lr-tb;text-anchor:start;fill:#ffffff;fill-opacity:1;stroke-width:0.28187147"
         id="path5573" />
      <path
         d="M 94.875039,175.07262 94.6082,174.38485 h -1.165068 l -0.266839,0.68777 h -0.32697 l 0.977154,-2.5857 h 0.405895 l 0.977154,2.5857 z m -0.841856,-2.23618 h -0.01879 l -0.473544,1.24399 h 0.96588 z"
         style="font-style:normal;font-variant:normal;font-weight:normal;font-stretch:normal;font-size:3.75828576px;font-family:Saira;-inkscape-font-specification:'Saira, Normal';font-variant-ligatures:normal;font-variant-caps:normal;font-variant-numeric:normal;font-feature-settings:normal;text-align:start;writing-mode:lr-tb;text-anchor:start;fill:#ffffff;fill-opacity:1;stroke-width:0.28187147"
         id="path5575" />
      <path
         d="m 95.68906,175.07262 v -2.5857 h 0.323213 v 2.27376 h 1.206409 v 0.31194 z"
         style="font-style:normal;font-variant:normal;font-weight:normal;font-stretch:normal;font-size:3.75828576px;font-family:Saira;-inkscape-font-specification:'Saira, Normal';font-variant-ligatures:normal;font-variant-caps:normal;font-variant-numeric:normal;font-feature-settings:normal;text-align:start;writing-mode:lr-tb;text-anchor:start;fill:#ffffff;fill-opacity:1;stroke-width:0.28187147"
         id="path5577" />
      <path
         d="m 97.70767,175.07262 v -2.5857 h 0.323213 v 2.27376 h 1.206409 v 0.31194 z"
         style="font-style:normal;font-variant:normal;font-weight:normal;font-stretch:normal;font-size:3.75828576px;font-family:Saira;-inkscape-font-specification:'Saira, Normal';font-variant-ligatures:normal;font-variant-caps:normal;font-variant-numeric:normal;font-feature-settings:normal;text-align:start;writing-mode:lr-tb;text-anchor:start;fill:#ffffff;fill-opacity:1;stroke-width:0.28187147"
         id="path5579" />
    </g>
  </g>
</svg>
