<?xml version="1.0" encoding="UTF-8" standalone="no"?>
<!-- Created with Inkscape (http://www.inkscape.org/) -->

<svg
   xmlns:dc="http://purl.org/dc/elements/1.1/"
   xmlns:cc="http://creativecommons.org/ns#"
   xmlns:rdf="http://www.w3.org/1999/02/22-rdf-syntax-ns#"
   xmlns:svg="http://www.w3.org/2000/svg"
   xmlns="http://www.w3.org/2000/svg"
   xmlns:sodipodi="http://sodipodi.sourceforge.net/DTD/sodipodi-0.dtd"
   xmlns:inkscape="http://www.inkscape.org/namespaces/inkscape"
   width="40.000504"
   height="40.000504"
   viewBox="0 0 10.583333 10.583333"
   version="1.1"
   id="svg1770"
   sodipodi:docname="soundcloud-small.svg"
   inkscape:version="0.92.3 (2405546, 2018-03-11)">
  <defs
     id="defs1764" />
  <sodipodi:namedview
     id="base"
     pagecolor="#ffffff"
     bordercolor="#666666"
     borderopacity="1.0"
     inkscape:pageopacity="0.0"
     inkscape:pageshadow="2"
     inkscape:zoom="5.6"
     inkscape:cx="12.764202"
     inkscape:cy="-8.7127156"
     inkscape:document-units="px"
     inkscape:current-layer="layer1"
     showgrid="false"
     inkscape:pagecheckerboard="true"
     units="px"
     fit-margin-top="0"
     fit-margin-left="0"
     fit-margin-right="0"
     fit-margin-bottom="0"
     inkscape:window-width="1920"
     inkscape:window-height="1018"
     inkscape:window-x="-8"
     inkscape:window-y="-8"
     inkscape:window-maximized="1" />
  <metadata
     id="metadata1767">
    <rdf:RDF>
      <cc:Work
         rdf:about="">
        <dc:format>image/svg+xml</dc:format>
        <dc:type
           rdf:resource="http://purl.org/dc/dcmitype/StillImage" />
        <dc:title></dc:title>
      </cc:Work>
    </rdf:RDF>
  </metadata>
  <g
     inkscape:label="Layer 1"
     inkscape:groupmode="layer"
     id="layer1"
     transform="translate(-42.333338,-87.601193)">
    <rect
       y="87.601196"
       x="42.333336"
       height="10.583333"
       width="10.583333"
       id="rect29857-8-3"
       style="fill:#ffffff;fill-opacity:1;stroke-width:0.36548615" />
    <path
       inkscape:connector-curvature="0"
       style="fill:#000000;fill-opacity:1;stroke-width:0.19829749"
       d="m 48.224444,91.74368 c -0.146845,0 -0.289641,0.02884 -0.416075,0.07775 -0.04914,0.01895 -0.06234,0.03867 -0.06281,0.07664 v 2.065806 c 5.16e-4,0.03981 0.03139,0.07115 0.07028,0.07476 0.0017,1.72e-4 1.804118,0 1.804118,0 0.359462,0 0.650843,-0.28831 0.650843,-0.647859 0,-0.359512 -0.291381,-0.650845 -0.650843,-0.650845 -0.08917,0 -0.17411,0.01799 -0.25159,0.05047 -0.0518,-0.586572 -0.543879,-1.046722 -1.143929,-1.046722 z m -0.611964,0.15251 c -0.01709,0 -0.03285,0.0063 -0.04523,0.01646 -0.01589,0.01301 -0.02624,0.03281 -0.02654,0.05495 v 0.0075 l -0.02916,1.45908 0.01495,0.269533 0.01421,0.262432 c 5.16e-4,0.03883 0.03272,0.07103 0.07178,0.07103 0.03893,0 0.07124,-0.03198 0.07178,-0.07141 0,0 0.03179,-0.531601 0.03177,-0.531582 0,-1.9e-5 -0.03177,-1.466544 -0.03177,-1.466544 -3.64e-4,-0.02584 -0.01446,-0.04843 -0.03514,-0.06094 -0.01072,-0.0067 -0.02334,-0.01053 -0.03663,-0.01053 z m -0.222057,0.126364 c -0.01328,0 -0.02578,0.0044 -0.03627,0.01091 -0.01828,0.01186 -0.03066,0.03263 -0.03103,0.05608 l -3.82e-4,0.01263 -0.02504,1.331223 c 0,0 0.02542,0.540559 0.02542,0.540559 1.6e-5,0 -3.4e-5,0.0019 0,0.0023 7.96e-4,0.01512 0.0065,0.02907 0.0157,0.04 0.01236,0.01474 0.03109,0.02431 0.05159,0.02431 0.01821,0 0.03457,-0.0077 0.04673,-0.01983 0.01215,-0.01206 0.01984,-0.02873 0.02019,-0.0471 l 0.003,-0.05344 0.02542,-0.486373 -0.02841,-1.344296 c -4.02e-4,-0.023 -0.01215,-0.04332 -0.02991,-0.05533 -0.01068,-0.0071 -0.02335,-0.01168 -0.03701,-0.01168 z m -0.664675,0.154385 c -0.02921,0 -0.05297,0.02358 -0.05383,0.05346 l -0.03327,1.203367 0.03327,0.552157 c 8.68e-4,0.02959 0.02462,0.05308 0.05383,0.05308 0.02912,0 0.05248,-0.02364 0.05346,-0.05346 l 0.03775,-0.551775 -0.03775,-1.203367 c -9.4e-4,-0.02988 -0.02433,-0.05346 -0.05346,-0.05346 z m 0.219813,0.02655 c -0.03187,0 -0.05758,0.02554 -0.05832,0.05794 l -0.03065,1.17234 0.03065,0.546933 c 7.23e-4,0.03212 0.02645,0.05755 0.05832,0.05755 0.03174,0 0.05707,-0.02515 0.05795,-0.05755 0,0 0.03477,-0.546933 0.03477,-0.546933 l -0.03477,-1.172704 c -8.68e-4,-0.03234 -0.02621,-0.05758 -0.05795,-0.05758 z m -0.438131,0.01761 c -0.02661,0 -0.04802,0.02125 -0.04897,0.0486 0,3.8e-5 -0.03589,1.16411 -0.03589,1.16411 l 0.03589,0.555526 c 9.4e-4,0.02705 0.02236,0.0486 0.04897,0.0486 0.02646,0 0.04825,-0.02126 0.04934,-0.0486 -1.7e-5,0 0.04037,-0.555508 0.04037,-0.555526 l -0.04037,-1.16411 c -0.0011,-0.02735 -0.02289,-0.0486 -0.04934,-0.0486 z m 0.659815,0.02056 c -0.03446,0 -0.06213,0.02742 -0.06281,0.06244 l -0.02804,1.129715 0.02804,0.543564 c 6.4e-4,0.03464 0.02798,0.06205 0.06243,0.06205 0.03435,0 0.06205,-0.02741 0.06281,-0.06244 0,0 0.03139,-0.5432 0.0314,-0.543181 l -0.0314,-1.129715 c -7.95e-4,-0.03487 -0.02808,-0.06244 -0.06243,-0.06244 z m -0.879255,0.07627 c -0.024,0 -0.04382,0.01929 -0.04486,0.0441 0,7.6e-5 -0.03851,1.074399 -0.03851,1.074399 l 0.03851,0.561498 c 10e-4,0.0246 0.02086,0.04412 0.04486,0.04412 0.02382,0 0.04335,-0.01937 0.04449,-0.04412 -3.4e-5,0 0.04374,-0.561498 0.04374,-0.561498 l -0.04374,-1.074399 c -0.0012,-0.02481 -0.02065,-0.0441 -0.04449,-0.0441 z m -0.21159,0.201489 c -0.02137,0 -0.03892,0.01742 -0.04,0.03962 0,2e-5 -0.0415,0.874404 -0.0415,0.874404 l 0.0415,0.56523 c 0.0011,0.02207 0.01863,0.03926 0.04,0.03926 0.02108,0 0.03857,-0.01723 0.04,-0.03926 0,0 0,0 0,0 6.2e-5,0 0.0471,-0.564848 0.0471,-0.564867 l -0.0471,-0.874403 c -0.0012,-0.02228 -0.0188,-0.03962 -0.04,-0.03962 z m -0.4243,0.304291 c -0.01641,0 -0.02972,0.01301 -0.03103,0.03028 l -0.04673,0.579452 0.04673,0.560752 c 0.0013,0.01742 0.01463,0.03028 0.03103,0.03028 0.01617,0 0.02955,-0.01301 0.03103,-0.03028 l 0.05308,-0.560752 -0.05308,-0.579452 c -0.0014,-0.01722 -0.01483,-0.03028 -0.03103,-0.03028 z m -0.209346,0.01983 c -0.014,-1.9e-5 -0.02515,0.0111 -0.02654,0.02617 0,3.8e-5 -0.04972,0.563737 -0.04972,0.563737 l 0.04972,0.543181 c 0.0014,0.01512 0.01257,0.02617 0.02654,0.02617 0.01371,0 0.02454,-0.01072 0.02616,-0.0258 l 0.05607,-0.543545 -0.05607,-0.563737 c -0.0017,-0.01512 -0.01244,-0.02617 -0.02616,-0.02617 z m 0.420562,0.01722 c -0.01907,0 -0.03432,0.01512 -0.03551,0.03514 l -0.04411,0.537573 0.04411,0.564866 c 0.0012,0.01989 0.01644,0.03512 0.03551,0.03512 0.01888,0 0.03412,-0.01512 0.03551,-0.03512 l 0.0501,-0.564866 -0.0501,-0.537956 c -0.0014,-0.01981 -0.01662,-0.03476 -0.03551,-0.03476 z m -0.628788,0.07589 c -0.01124,0 -0.02017,0.0094 -0.02168,0.02169 0,3.8e-5 -0.05234,0.475138 -0.05234,0.475138 l 0.05234,0.464668 c 0.0015,0.01244 0.01045,0.0213 0.02168,0.0213 0.01116,0 0.02028,-0.0088 0.02206,-0.0213 l 0.05944,-0.464668 -0.05944,-0.475521 c -0.0018,-0.01263 -0.0109,-0.0213 -0.02206,-0.0213 z m -0.195514,0.182043 c -0.01104,0 -0.01984,0.0088 -0.0213,0.02094 l -0.03851,0.293841 0.03851,0.288959 c 0.0014,0.01206 0.01027,0.02057 0.0213,0.02057 0.01072,0 0.01955,-0.0084 0.02131,-0.02057 l 0.0456,-0.288959 -0.0456,-0.294205 c -0.0017,-0.01206 -0.01058,-0.02057 -0.02131,-0.02057 z"
       id="path29861-0-2" />
  </g>
</svg>
