<?xml version="1.0" encoding="UTF-8" standalone="no"?>
<!-- Generator: Adobe Illustrator 21.1.0, SVG Export Plug-In . SVG Version: 6.00 Build 0)  -->

<svg
   xmlns:dc="http://purl.org/dc/elements/1.1/"
   xmlns:cc="http://creativecommons.org/ns#"
   xmlns:rdf="http://www.w3.org/1999/02/22-rdf-syntax-ns#"
   xmlns:svg="http://www.w3.org/2000/svg"
   xmlns="http://www.w3.org/2000/svg"
   xmlns:sodipodi="http://sodipodi.sourceforge.net/DTD/sodipodi-0.dtd"
   xmlns:inkscape="http://www.inkscape.org/namespaces/inkscape"
   version="1.1"
   id="svg8"
   inkscape:version="0.92.3 (2405546, 2018-03-11)"
   sodipodi:docname="KA(logo)-thumb.svg"
   x="0px"
   y="0px"
   viewBox="0 0 600 450"
   xml:space="preserve"
   width="600"
   height="450"><metadata
     id="metadata28"><rdf:RDF><cc:Work
         rdf:about=""><dc:format>image/svg+xml</dc:format><dc:type
           rdf:resource="http://purl.org/dc/dcmitype/StillImage" /><dc:title></dc:title></cc:Work></rdf:RDF></metadata><defs
     id="defs26" /><style
     type="text/css"
     id="style2">
	.st0{display:none;}
	.st1{display:inline;fill:none;stroke:#000000;stroke-width:2.645833e-02;stroke-linejoin:bevel;}
	.st2{display:inline;fill-opacity:0.7843;}
	.st3{display:inline;fill:none;}
	.st4{display:inline;}
	.st5{display:inline;fill-opacity:0.9713;}
</style><sodipodi:namedview
     bordercolor="#666666"
     borderopacity="1.0"
     id="base"
     inkscape:bbox-nodes="true"
     inkscape:bbox-paths="true"
     inkscape:current-layer="g5607"
     inkscape:cx="6.7057402"
     inkscape:cy="107.61164"
     inkscape:document-units="px"
     inkscape:object-nodes="true"
     inkscape:object-paths="false"
     inkscape:pageopacity="0.0"
     inkscape:pageshadow="2"
     inkscape:snap-bbox="false"
     inkscape:snap-center="true"
     inkscape:snap-intersection-paths="true"
     inkscape:snap-midpoints="true"
     inkscape:snap-object-midpoints="true"
     inkscape:snap-others="true"
     inkscape:snap-smooth-nodes="false"
     inkscape:window-height="745"
     inkscape:window-maximized="1"
     inkscape:window-width="1366"
     inkscape:window-x="-8"
     inkscape:window-y="-8"
     inkscape:zoom="0.70710678"
     pagecolor="#ffffff"
     showgrid="false"
     showguides="true"
     units="px"
     fit-margin-top="0"
     fit-margin-left="0"
     fit-margin-right="0"
     fit-margin-bottom="0"
     inkscape:pagecheckerboard="true"
     inkscape:snap-page="true"
     inkscape:snap-grids="false"><inkscape:grid
       color="#00c6ff"
       dotted="false"
       empcolor="#0081ff"
       empopacity="0.33333333"
       empspacing="4"
       id="grid4504"
       opacity="0.16470588"
       spacingx="1.3229167"
       spacingy="1.3229167"
       type="xygrid"
       originx="-15"
       originy="-18.300002" /></sodipodi:namedview><g
     id="layer1"
     transform="translate(-15,83.049997)"
     inkscape:groupmode="layer"
     inkscape:label="0"
     class="st0"
     style="display:none"><path
       id="path4798"
       inkscape:connector-curvature="0"
       class="st1"
       d="m 20,285.2 v 80 l 60,-80" /><path
       id="path4800"
       inkscape:connector-curvature="0"
       sodipodi:nodetypes="ccccc"
       class="st1"
       d="m 50,325.3 30,40 h 20 v -80 l -60,80" /></g><g
     id="layer2"
     inkscape:groupmode="layer"
     inkscape:label="1"
     class="st0"
     style="display:none"
     transform="translate(-15,348.3)"><path
       id="path4809"
       inkscape:connector-curvature="0"
       class="st2"
       d="m 54,57 -8,6 30,40 8,-6 z"
       style="display:inline;fill-opacity:0.78430002" /><path
       id="path4803"
       inkscape:connector-curvature="0"
       class="st3"
       d="m 15,20 v 80 l 10,5 60,-85 H 75 L 25,85 V 20 Z"
       style="display:inline;fill:none" /><path
       id="path4805"
       inkscape:connector-curvature="0"
       class="st2"
       d="m 15,20 v 85 H 25 V 20 Z"
       style="display:inline;fill-opacity:0.78430002" /><path
       id="path4807"
       inkscape:connector-curvature="0"
       class="st2"
       d="m 106,-23 -120,160 8,6 120,-160 z"
       style="display:inline;fill-opacity:0.78430002" /><path
       id="path4811"
       inkscape:connector-curvature="0"
       sodipodi:nodetypes="cccccccccc"
       class="st2"
       d="M 126,-23 63.7,60 70,68.3 134,-17 Z M 56.3,86.7 50,78.3 6,137 l 8,6 z"
       style="display:inline;fill-opacity:0.78430002" /><path
       id="path4813"
       inkscape:connector-curvature="0"
       class="st2"
       d="m 60,81.6 v 10 h 51.8 v -10 z"
       style="display:inline;fill-opacity:0.78430002" /><path
       id="path4815"
       inkscape:connector-curvature="0"
       class="st2"
       d="m 95,10 v 90 h 10 V 10 Z"
       style="display:inline;fill-opacity:0.78430002" /><path
       id="path5569"
       inkscape:connector-curvature="0"
       sodipodi:nodetypes="ccccc"
       class="st2"
       d="M 52.5,38.4 60,28.4 H 15 v 10 z"
       style="display:inline;fill-opacity:0.78430002" /><path
       id="path5587"
       inkscape:connector-curvature="0"
       class="st2"
       d="m 25,91.7 v 10 h 51.8 v -10 z"
       style="display:inline;fill-opacity:0.78430002" /><path
       id="path5589"
       inkscape:connector-curvature="0"
       class="st2"
       d="m 43.2,8.3 v 10 H 95 v -10 z"
       style="display:inline;fill-opacity:0.78430002" /></g><g
     id="layer3"
     inkscape:groupmode="layer"
     inkscape:label="2"
     class="st0"
     style="display:none"
     transform="translate(-15,348.3)"><path
       id="path5585"
       inkscape:connector-curvature="0"
       sodipodi:nodetypes="cccccccccccccccccccccccc"
       class="st4"
       d="M 25,101.7 15,98.4 v -60 l 10,-10 h 35 l -7.5,10 H 25 L 25.2,85 75,18.3 H 87.7 L 56.4,60 72.6,81.6 H 95.1 L 95,35 70,68.3 63.7,60 95,18.3 l 10,3.3 v 60 L 95.2,91.7 80,91.6 60,81.6 50,68.3 Z"
       style="display:inline" /><path
       id="path5591"
       inkscape:connector-curvature="0"
       class="st5"
       d="M 32.5,101.7 50,78.3 l 6.3,8.3 -11.3,15 z"
       style="display:inline;fill-opacity:0.97130001" /></g><g
     id="g5607"
     inkscape:groupmode="layer"
     inkscape:label="finish"
     transform="translate(-15,348.3)"><rect
       style="opacity:1;fill:#000000;fill-opacity:1;stroke:none;stroke-width:1.00157475;stroke-linecap:round;stroke-linejoin:round;stroke-miterlimit:4;stroke-dasharray:none;stroke-opacity:1"
       id="rect7655"
       width="600"
       height="450"
       x="15"
       y="-348.29999" /><path
       id="path5603"
       d="M 365,-262.3 198.33333,-39.966667 V -195.3 H 290 l 25,-33.33333 H 198.33333 L 165,-195.3 v 200 l 33.33333,11 83.33334,-111 L 315,-50.966667 381.66667,-17.633333 432.33333,-17.3 465,-50.966667 V -250.96667 l -33.33333,-11 -104.33334,138.66667 21,27.666667 83.33334,-110.999997 V -50.966667 H 357.33333 L 303,-123.3 l 104,-139 z m -83.33333,200 -58.33334,77.66667 H 265 l 37.66667,-50.000003 z"
       inkscape:connector-curvature="0"
       style="fill:#ffffff;fill-opacity:1;stroke-width:3.33333325" /></g></svg>